<?xml version="1.0" encoding="utf-8"?>
<!-- Generator: Adobe Illustrator 27.5.0, SVG Export Plug-In . SVG Version: 6.00 Build 0)  -->
<svg version="1.1" id="Ebene_2_00000000906697638462793800000011590805870074690963_"
	 xmlns="http://www.w3.org/2000/svg" xmlns:xlink="http://www.w3.org/1999/xlink" x="0px" y="0px" viewBox="0 0 422.9 300"
	 style="enable-background:new 0 0 422.9 300;" xml:space="preserve">
<style type="text/css">
	.st0{fill:#1D1D1B;}
</style>
<path class="st0" d="M166,120.1l-16.7-66.8v66.8h-39.9V-1.2h56.8l12.5,50.3L191-1.2h57v121.3h-40.1V53.4l-16.5,66.8H166L166,120.1z"
	/>
<path class="st0" d="M198.5,144v-24.2h30V144H198.5z M198.5,212v-63h30v63H198.5z"/>
<path class="st0" d="M300.1,190.9c0,7.8-1.6,13.3-4.7,16.4c-3.1,3.1-8.6,4.6-16.4,4.6h-31.2c-7.8,0-13.2-1.5-16.3-4.6
	c-3.1-3.1-4.7-8.5-4.7-16.4v-11.4h32.2v7.7c0,2.4,0.4,4.2,1.1,5.3c0.7,1.1,1.8,1.7,3.3,1.7c1.6,0,2.7-0.5,3.4-1.7
	c0.7-1.1,1.1-2.9,1.1-5.4v-2.5c0-2.2-0.6-4-1.8-5.5c-1.2-1.5-3.1-2.7-5.6-3.6l-18.4-6.7c-5.7-2.2-9.6-4.6-11.6-7.4
	c-2-2.8-3-6.9-3-12.4v-8.6c0-7.8,1.6-13.3,4.7-16.4s8.6-4.6,16.4-4.6h30.5c7.8,0,13.3,1.6,16.4,4.7c3.1,3.1,4.7,8.6,4.7,16.3V160
	l-31.9-11.9v-3.7c0-2.4-0.4-4.2-1.1-5.4c-0.7-1.1-1.8-1.7-3.3-1.7c-1.3,0-2.4,0.5-3.2,1.5c-0.8,1-1.2,2.2-1.2,3.7
	c0,2,0.5,3.6,1.5,4.7c1,1.1,3.4,2.5,7.2,3.9l13.9,5.2c7.1,2.6,11.9,5.6,14.4,8.9c2.5,3.3,3.7,8.2,3.7,14.5L300.1,190.9L300.1,190.9z
	"/>
<path class="st0" d="M305.2,153.9H295v-20.6h10.2V111h38.8v22.2h16v20.2l-16-0.1V195c0,1.6,0.6,2.7,1.9,3.4c1.3,0.6,3.7,0.9,7.2,0.9
	h6.9V215h-29.1c-9.5,0-16.2-1.4-19.9-4.1s-5.7-7.6-5.7-14.7L305.2,153.9L305.2,153.9z"/>
<path class="st0" d="M265.5,299.8H212l-13.5-88.5l31,0.1l6.6,59.2l6.7-59.2h37.4L265.5,299.8L265.5,299.8z"/>
<path class="st0" d="M276.5,234.2c0-7.2,2.1-11.1,3.6-15.1c1.2-3.2,11.1-8.7,20.1-8.5l30.8,1.4c7.8,0,14.3,4.3,17.4,7.1
	c3.1,2.9,8.9,7.9,8.9,15v46.2c0,7.2-5.8,12.2-8.9,15c-3.1,2.8-8.6,4.3-16.4,4.3h-31.2c-7.8,0-13.2-1.4-16.3-4.2
	c-3.1-2.8-10.5-7.8-10.5-15.1L276.5,234.2L276.5,234.2z M312,237.8V277c0,2.2,0.4,3.8,1.1,4.9c0.7,1.1,1.8,1.6,3.3,1.6
	c1.6,0,2.7-0.5,3.4-1.5s1.1-2.7,1.1-4.9v-39.2c0-2.2-0.4-3.9-1.1-4.9s-1.8-1.6-3.4-1.6c-1.5,0-2.6,0.5-3.3,1.6
	C312.3,233.9,312,235.6,312,237.8L312,237.8z"/>
<path class="st0" d="M-1.3,119.9V-0.9h78.4c10.8,0,18.6,2,23.3,6.1c4.7,4.1,7,10.7,7,19.9v65.7c0,10.8-2.2,18.4-6.6,22.7
	c-4.4,4.3-12.3,6.5-23.7,6.5H-1.3z M46.5,92.2h5.3c2.6,0,4.4-0.6,5.4-1.9c1-1.2,1.5-3.5,1.5-6.8V35.3c0-3.2-0.5-5.5-1.6-6.8
	c-1-1.3-2.8-1.9-5.4-1.9h-5.3V92.2L46.5,92.2z"/>
<path class="st0" d="M58.6,175.5v-7.7c0-5.3-0.6-9-1.7-11.1c-1.2-2.1-3.1-3.2-5.8-3.2c-2.5,0-4.4,1.1-5.6,3.4
	c-1.2,2.3-1.8,5.9-1.8,10.9v8.3l-46.2,26.8l-1.9-42.1c0-15.3,2.4-26,7.3-32c4.9-6,13.4-9.1,25.7-9.1h46.3c12.2,0,20.7,3.1,25.6,9.2
	c4.9,6.1,7.3,16.8,7.3,32V300H59.8v-11.3c-5.1,4.3-10.1,7.5-15.1,9.6c-5,2.1-10.2,3.1-15.6,3.1c-11.1,0-19.6-4.5-25.5-13.5
	s-8.8-22.1-8.8-39.2v-7.3c0-11,1.5-19.5,4.6-25.4c3.1-6,8.5-11.2,16.4-15.7L58.6,175.5L58.6,175.5z M58.8,247.9v-27.9l-6.8,4.3
	c-3.1,2.1-5.4,4.6-6.7,7.4c-1.3,2.8-1.9,6.9-1.9,12.2v4c0,4.9,0.6,8.5,1.9,10.9s3.2,3.6,5.7,3.6c2.7,0,4.7-1.1,5.9-3.4
	C58.2,256.6,58.8,252.9,58.8,247.9L58.8,247.9z"/>
<path class="st0" d="M132.4,300c-8.2,0-14.4-2.8-18.6-8.5c-4.2-5.7-6.4-14-6.4-25v-31.7l40.9-0.5v12.5c0,4.4,0.4,7.6,1.2,9.6
	c0.8,2,2,3,3.8,3c1.7,0,3.1-1.1,3.9-3.2c0.8-2.1,1.2-5.7,1.2-10.6c0-5.6-0.4-9.4-1.1-11.7c-0.8-2.2-2.7-4.4-5.7-6.5L123.7,208
	c-6.4-4.5-10.7-9.3-12.9-14.5c-2.3-5.2-3.4-12.3-3.4-21.4v-19c0-10.9,2.1-19.2,6.4-24.8c4.2-5.6,10.5-8.5,18.6-8.5h41.2
	c8.2,0,14.4,2.8,18.6,8.5c4.2,5.6,6.3,13.9,6.3,24.8v48.2L158,174.1v-2.2c0-3.9-0.4-6.9-1.3-8.9c-0.9-2-2.2-3.1-3.9-3.1
	c-1.4,0-2.6,0.8-3.5,2.4c-0.9,1.6-1.3,3.7-1.3,6.3c0,2.6,0.4,4.7,1.2,6.3c0.8,1.6,2.8,3.5,6,5.8l32.3,23.6
	c4.1,3.1,10.2,7.4,11.9,12.9s2.5,13.9,2.5,25.1v20.7c0,13.1-5.3,21.7-9.3,27.8c-4,6.2-10.3,9.3-18.9,9.3L132.4,300L132.4,300z"/>
<g>
	<path class="st0" d="M352.1,300.5V120.4h33.5v180.1H352.1z"/>
	<path class="st0" d="M390,301.7V119.8h33.3v181.9L390,301.7L390,301.7z"/>
</g>
<path class="st0" d="M339.6,120.5V20.4c0-8.3,1.6-14.4,5.7-17.2c5.1-3.5,8.2-4.8,19.9-4.8h36.3c9.5,0,16.1,1.6,19.9,4.8
	c3.8,3.2,5.6,8.9,5.6,17.1v13.4c0,7.8-1.6,13.3-4.8,16.5c-3.2,3.2-9,5-17.3,5.5c8.5,0.4,14.5,2.2,17.9,5.4s5.1,8.8,5.1,16.7v20.6
	c0,8.2-1.9,14-5.7,17.2c-3.8,3.3-10.5,4.9-19.9,4.9h-12.1l-6.4-18.2c2-0.1,3.4-0.5,4.2-1.4c0.8-0.8,1.2-2.2,1.2-4.1V70.3
	c0-1.9-0.4-3.3-1.2-4.1c-0.8-0.8-6.1-0.4-8-0.5l-0.2-16.6c1.9-0.1,7.3-3,8.1-3.8c0.7-0.8,1.1-2.1,1.1-4V22c0-2-0.4-3.4-1.2-4.2
	c-0.8-0.8-2.1-1.2-3.9-1.2c-1.9,0-3.3,0.4-4.2,1.3c-0.9,0.9-1.3,2.2-1.3,4.2v98.5L339.6,120.5L339.6,120.5z"/>
<path class="st0" d="M298.5,35.8v-5.2c0-3.6-0.5-6.1-1.4-7.5c-0.9-1.4-2.5-2.1-4.6-2.1c-2,0-3.5,0.8-4.4,2.3c-0.9,1.5-1.4,4-1.4,7.3
	v4l-38,18.8V25.9c0-10.3,1.9-17.4,5.8-21.5c3.9-4.1,10.6-6.1,20.3-6.1h36.5c9.6,0,16.3,2,20.2,6.1s5.8,11.2,5.8,21.5v93.5h-37.8
	v-7.6c-4,2.9-8,5-11.9,6.4c-3.9,1.4-8,2.1-12.3,2.1c-8.8,0-15.5-3-20.1-9c-4.6-6-6.9-14.8-6.9-26.3V80c0-7.4,1.2-13.1,3.6-17.1
	s6.7-7.5,13-10.5L298.5,35.8L298.5,35.8z M298.7,84.4V65.6l-5.4,2.9c-2.5,1.4-4.2,3.1-5.3,5c-1,1.9-1.5,4.7-1.5,8.2v2.7
	c0,3.3,0.5,5.7,1.5,7.3c1,1.6,2.5,2.4,4.5,2.4c2.2,0,3.7-0.8,4.7-2.3C298.2,90.2,298.7,87.7,298.7,84.4L298.7,84.4z"/>
</svg>
