<?xml version="1.0" encoding="UTF-8"?>
<svg id="Ebene_2" data-name="Ebene 2" xmlns="http://www.w3.org/2000/svg" viewBox="0 0 419.53 297.64">
  <defs>
    <style>
      .cls-1 {
        letter-spacing: -.07em;
      }

      .cls-1, .cls-2, .cls-3, .cls-4, .cls-5 {
        fill: #1d1d1b;
      }

      .cls-1, .cls-2, .cls-4, .cls-5 {
        font-family: SourceSansRoman-Semibold, 'Source Sans Variable';
        font-size: 36px;
        font-variation-settings: 'wght' 600;
        font-weight: 600;
      }

      .cls-2 {
        letter-spacing: -.08em;
      }

      .cls-4 {
        letter-spacing: -.08em;
      }

      .cls-5 {
        letter-spacing: -.09em;
      }
    </style>
  </defs>
  <text class="cls-5" transform="translate(364.74 232.61) rotate(152)"><tspan x="0" y="0">L</tspan></text>
  <text class="cls-5" transform="translate(375.94 286.21) rotate(-74)"><tspan x="0" y="0">L</tspan></text>
  <g>
    <path class="cls-3" d="m12.48,13.67h4.17v9.46h9.52v-9.46h4.18v23.54h-4.18v-10.44h-9.52v10.44h-4.17V13.67Z"/>
    <path class="cls-3" d="m32.41,25.35c0-7.62,4.25-12.11,10.38-12.11s10.38,4.51,10.38,12.11-4.25,12.3-10.38,12.3-10.38-4.68-10.38-12.3Zm16.47,0c0-5.28-2.39-8.48-6.09-8.48s-6.09,3.2-6.09,8.48,2.39,8.67,6.09,8.67,6.09-3.38,6.09-8.67Z"/>
    <path class="cls-3" d="m53.97,25.52c0-7.7,4.82-12.28,10.78-12.28,2.95,0,5.3,1.41,6.78,2.98l-2.23,2.69c-1.21-1.21-2.62-2.04-4.46-2.04-3.83,0-6.58,3.24-6.58,8.52s2.53,8.62,6.48,8.62c2.09,0,3.7-.96,5.03-2.42l2.23,2.62c-1.91,2.22-4.36,3.43-7.42,3.43-5.92,0-10.61-4.33-10.61-12.12Z"/>
    <path class="cls-3" d="m73.25,13.67h4.17v9.46h9.52v-9.46h4.18v23.54h-4.18v-10.44h-9.52v10.44h-4.17V13.67Z"/>
    <path class="cls-3" d="m94.42,13.67h4.72l4.16,11.5c.52,1.5.99,3.08,1.51,4.62h.14c.52-1.54.96-3.12,1.48-4.62l4.07-11.5h4.72v23.54h-3.83v-10.77c0-2.17.33-5.31.53-7.49h-.14l-1.9,5.47-3.87,10.58h-2.48l-3.89-10.58-1.87-5.47h-.14c.2,2.18.53,5.31.53,7.49v10.77h-3.76V13.67Z"/>
    <path class="cls-3" d="m118.42,26.89v-13.22h4.17v13.53c0,5.13,1.92,6.81,4.77,6.81s4.87-1.68,4.87-6.81v-13.53h4.02v13.22c0,7.73-3.43,10.76-8.88,10.76s-8.94-3.02-8.94-10.76Z"/>
    <path class="cls-3" d="m144.17,17.18h-6.8v-3.51h17.77v3.51h-6.8v20.03h-4.18v-20.03Z"/>
    <path class="cls-3" d="m160.87,13.67h4.17v10.7h.12l8.38-10.7h4.64l-7.24,9.19,8.47,14.35h-4.61l-6.36-11.07-3.38,4.2v6.87h-4.17V13.67Z"/>
    <path class="cls-3" d="m177.56,25.35c0-7.62,4.25-12.11,10.38-12.11s10.38,4.51,10.38,12.11-4.25,12.3-10.38,12.3-10.38-4.68-10.38-12.3Zm16.47,0c0-5.28-2.39-8.48-6.09-8.48s-6.09,3.2-6.09,8.48,2.39,8.67,6.09,8.67,6.09-3.38,6.09-8.67Z"/>
    <path class="cls-3" d="m200.36,13.67h4.72l4.16,11.5c.52,1.5.99,3.08,1.51,4.62h.14c.52-1.54.96-3.12,1.48-4.62l4.07-11.5h4.72v23.54h-3.83v-10.77c0-2.17.33-5.31.53-7.49h-.14l-1.9,5.47-3.87,10.58h-2.48l-3.89-10.58-1.87-5.47h-.14c.2,2.18.53,5.31.53,7.49v10.77h-3.76V13.67Z"/>
    <path class="cls-3" d="m224.48,13.67h4.72l4.16,11.5c.52,1.5.99,3.08,1.51,4.62h.14c.52-1.54.96-3.12,1.48-4.62l4.07-11.5h4.72v23.54h-3.83v-10.77c0-2.17.33-5.31.53-7.49h-.14l-1.9,5.47-3.87,10.58h-2.48l-3.89-10.58-1.87-5.47h-.14c.2,2.18.53,5.31.53,7.49v10.77h-3.76V13.67Z"/>
    <path class="cls-3" d="m253.35,17.18h-6.8v-3.51h17.77v3.51h-6.8v20.03h-4.18v-20.03Z"/>
  </g>
  <text class="cls-4" transform="translate(275.14 37.21)"><tspan x="0" y="0">V</tspan></text>
  <text class="cls-2" transform="translate(294.24 33.92) rotate(13.96)"><tspan x="0" y="0">O</tspan></text>
  <text class="cls-1" transform="translate(319.64 37.69) rotate(31)"><tspan x="0" y="0">R</tspan></text>
  <text class="cls-2" transform="translate(340.9 56.73) rotate(69.1)"><tspan x="0" y="0">D</tspan></text>
  <text class="cls-2" transform="translate(355.02 77.28) rotate(121)"><tspan x="0" y="0">E</tspan></text>
  <text class="cls-1" transform="translate(370.75 167.73) rotate(-152.47)"><tspan x="0" y="0">F</tspan></text>
  <text class="cls-1" transform="translate(370.81 110.75) rotate(162.42)"><tspan x="0" y="0">M</tspan></text>
  <text class="cls-4" transform="translate(372.93 220.4) rotate(-86.04)"><tspan x="0" y="0">A</tspan></text>
</svg>