<?xml version="1.0" encoding="UTF-8"?>
<svg id="Ebene_2" data-name="Ebene 2" xmlns="http://www.w3.org/2000/svg" viewBox="0 0 419.53 297.64">
  <defs>
    <style>
      .cls-1 {
        font-family: EBGaramond-Regular, 'EB Garamond';
        font-size: 24px;
        font-variation-settings: 'wght' 400;
        letter-spacing: -.07em;
      }

      .cls-1, .cls-2 {
        fill: #1d1d1b;
      }
    </style>
  </defs>
  <path class="cls-2" d="m63.45,48.3c-.66,1.46-3.28,5.43-4.14,6.5H15.08v-1.27c8.12-.27,8.85-.5,8.85-3.68v-14.56c0-3.18-.91-3.44-7.91-3.69v-1.27h27.05v1.27c-7.18.28-8.12.5-8.12,3.69v14.86c0,2.15.37,2.95,5.45,2.98.15.02,5.18.04,5.6.04,5.01,0,6.37-.37,8.53-1.36,1.93-.83,4.14-2.41,5.68-3.9l3.24.4Z"/>
  <path class="cls-2" d="m91.49,55.25c-2.08,0-4.08-.33-5.18-.76-1.24-.46-1.85-.99-2.31-1.5-3.53.97-8,2.26-10.11,2.26-7.36,0-11.95-2.42-11.95-4.78,0-1.94,2.28-2.95,7.18-3.72,5.44-.82,12.52-1.75,14.58-2.47v-1.34c0-2.21-2.27-3.46-6.48-3.46-1.74,0-3.02.34-3.87.79-1.06.58-1.52,1.36-2.29,2.47-.57.87-1.81,1.14-3.47,1.14-2.15,0-4.9-.85-4.9-1.85,0-.63,1.13-1.1,3.13-1.68,3.59-1.01,8.94-2.21,14.08-2.66,3.33,0,6.33.34,8.79,1.07,3.67,1.13,4.89,2.61,4.89,4.54v6.78c0,1.78,1.49,2.26,3.01,2.26.98,0,1.98-.14,2.99-.34l.97,1.2-9.05,2.05Zm-7.78-9.5c-1.77.39-4.37.91-6.29,1.31-3.05.62-4.85,1.31-4.85,2.63,0,2.07,3.59,2.87,5.91,2.87,1.66,0,3.64-.24,5.22-.87v-5.95Z"/>
  <path class="cls-2" d="m122.27,54.8v-1.2c4.34-.23,4.71-.42,4.71-3v-6.36c0-2.66-2.87-3.82-7.05-3.82-2.85,0-5.4.56-7.99,1.42v9.01c0,2.4.43,2.53,4.74,2.75v1.2h-20.65v-1.2c5.19-.31,5.74-.39,5.74-2.85v-7.81c0-2.32-.7-2.44-5.03-2.78v-1.13c5-.28,10.66-.77,15.32-1.46-.06.65-.12,1.92-.12,2.8,1.82-.53,3.77-1.09,5.96-1.66,2.67-.68,4.63-1.03,7.27-1.03,7.35,0,11.97,2.22,11.97,6v7.13c0,2.41.55,2.53,5.24,2.78v1.2h-20.12Z"/>
  <path class="cls-2" d="m152.37,49.05c-1.36.52-2.12,1.09-2.12,1.49,0,.63,1.67,1.41,5.36,1.41,3.08,0,7.26-.01,10.27-.01,5.66,0,13.55.89,13.55,4.59,0,4.14-12.11,7.63-24.24,7.63-11.37,0-16.81-2.44-16.88-4.56,0-.88.82-1.52,2.57-2.1,2.24-.74,5.03-1.59,7.06-2.17-3.52-.5-5.59-1.29-6.84-2.08-1-.59-1.45-1.44-1.33-1.91,4-.67,7.57-1.78,9.34-2.7l3.25.41Zm4.38.38c-9.73,0-16.57-2.24-16.57-5.69,0-4.15,9.42-6.09,17.25-6.09,3.54,0,6.61.31,9.76.97,3.96,0,10.08-.28,12.46-.54l.49.31c-.55.65-1.83,1.83-3.37,2.22-1.49,0-4.2-.15-5.48-.19,1.43.74,2.35,1.8,2.35,3.21,0,3.88-8.33,5.8-16.88,5.8Zm1.45,6.01c-4.59,0-6.77.23-8.23.74-1.9.65-3.19,1.53-3.19,2.43,0,2.02,4.78,3.57,12.34,3.57s12.16-1.53,12.16-3.69c0-1.35-1.93-2.3-4.66-2.65-2.4-.32-4.88-.39-8.41-.39Zm-1.39-16.44c-3.27,0-6.39,1.45-6.39,4.27s2.64,4.8,7.18,4.8c3.72-.03,6.26-1.52,6.26-4.35,0-2.57-2.43-4.73-7.06-4.73Z"/>
  <path class="cls-2" d="m209.13,51.28c-5.66,3.26-12.63,3.97-16.15,3.97-11.84,0-18.7-3.74-18.7-8.17,0-2.61,2.72-5.13,6.52-6.71,4.01-1.72,9.08-2.68,14-2.68,8.59,0,14.72,2.97,14.66,6.03-.03.68-.19,1.21-1.41,1.34-1.76.18-14.21.46-23.75.62.14,4.36,6.26,6.41,12.79,6.41,3.62,0,7.14-.57,10.46-1.77l1.58.96Zm-16.28-12.08c-3.84,0-7.29,1.72-8.09,4.72,4.22-.02,8.26-.05,12.63-.11,1.4-.02,1.95-.14,1.95-.75.09-1.92-2.39-3.85-6.49-3.85Z"/>
  <path class="cls-2" d="m276.56,55.05c-.77,0-1.83-.01-2.96-.05-9.86-.21-13.3-1.12-16.48-2.97-3.55-2.02-6.42-4.34-9.46-6.48-1.53-1.08-2.77-1.31-6.3-1.31l-2.3-.02v5.64c0,3.1.94,3.34,7.94,3.67v1.27h-26.66v-1.27c7.16-.31,7.91-.56,7.91-3.67v-14.63c0-3.05-.94-3.36-7.91-3.63v-1.27h25.33c7.61,0,12.19.36,15.84,1.38,3.68,1,6.14,2.67,6.14,4.99,0,3.31-5.25,5.17-11.53,6.23,1.46,1.14,5.15,3.62,7.88,5.34,3.26,2.04,5.17,3.04,7.03,3.9,2.22,1.02,3.61,1.36,6.06,1.68l-.54,1.2Zm-34.36-12.29c4.21,0,7.22-.28,9.32-1.02,3.2-1.07,4.54-2.52,4.54-4.48,0-4-5.88-5.45-11.66-5.45-2.52,0-3.84.15-4.42.38-.7.24-.92.66-.92,1.5v9.08h3.13Z"/>
  <path class="cls-2" d="m306.23,51.28c-5.66,3.26-12.63,3.97-16.15,3.97-11.84,0-18.7-3.74-18.7-8.17,0-2.61,2.72-5.13,6.52-6.71,4.01-1.72,9.08-2.68,14-2.68,8.59,0,14.72,2.97,14.66,6.03-.03.68-.19,1.21-1.41,1.34-1.76.18-14.21.46-23.75.62.14,4.36,6.26,6.41,12.79,6.41,3.62,0,7.14-.57,10.46-1.77l1.58.96Zm-16.28-12.08c-3.84,0-7.29,1.72-8.09,4.72,4.22-.02,8.26-.05,12.63-.11,1.4-.02,1.95-.14,1.95-.75.09-1.92-2.39-3.85-6.49-3.85Z"/>
  <path class="cls-2" d="m351.09,53.83c-2.09.15-9.94.6-16.56,1.44v-2.28c-1.64.44-3.95.99-5.6,1.43-2.7.67-4.45.82-5.49.82-7.59,0-18.15-2.84-18.15-8.33,0-5.18,11.07-9.22,24.69-9.22.86,0,2.92.03,4.54.22v-4.75c0-2.14-.52-2.29-6.46-2.56v-1.15c5.51-.26,12.54-.77,16.69-1.28v22.02c0,2.01.58,2.22,4.01,2.37l2.32.1v1.18Zm-16.56-12.63c-1.39-1.15-4.3-1.9-7.8-1.9s-10.05.94-10.05,6.38c0,4.8,6.72,6.82,11.43,6.86,2.22,0,4.35-.31,6.42-.89v-10.45Z"/>
  <path class="cls-2" d="m382.55,51.28c-5.66,3.26-12.63,3.97-16.15,3.97-11.84,0-18.7-3.74-18.7-8.17,0-2.61,2.72-5.13,6.52-6.71,4.01-1.72,9.08-2.68,14-2.68,8.59,0,14.72,2.97,14.66,6.03-.03.68-.19,1.21-1.41,1.34-1.76.18-14.21.46-23.75.62.14,4.36,6.26,6.41,12.79,6.41,3.62,0,7.14-.57,10.46-1.77l1.58.96Zm-16.28-12.08c-3.84,0-7.29,1.72-8.09,4.72,4.22-.02,8.26-.05,12.63-.11,1.4-.02,1.95-.14,1.95-.75.09-1.92-2.39-3.85-6.49-3.85Z"/>
  <path class="cls-2" d="m383.62,58.48c4.91-.91,8.21-2.05,8.21-3.51,0-1.32-2.46-1.84-6.75-2.23-.6-.04-1.45-.56-1.45-1.44,0-1.11,2.2-2.25,6.03-2.25,4.27,0,8.9,1.59,8.9,4.48,0,3.34-7.24,5.47-13.74,6.21l-1.18-1.26Z"/>
  <text class="cls-1" transform="translate(15.08 75.71)"><tspan x="0" y="0">.......................................................................................................</tspan><tspan x="0" y="21">.......................................................................................................</tspan><tspan x="0" y="42">.......................................................................................................</tspan><tspan x="0" y="63">.......................................................................................................</tspan><tspan x="0" y="84">.......................................................................................................</tspan><tspan x="0" y="105">.......................................................................................................</tspan><tspan x="0" y="126">.......................................................................................................</tspan><tspan x="0" y="147">.......................................................................................................</tspan><tspan x="0" y="168" xml:space="preserve">...................................................................................                             </tspan><tspan x="0" y="189">...................................................................................</tspan></text>
  <g>
    <path class="cls-2" d="m342.9,264.99c-1.03-.03-1.99.02-2.46.1-.06-.27-2.05-9.23-2.12-9.55-.16-.64-.25-.88-.34-.91-.05-.03-.13-.03-.18,0v5.2c0,3.15.07,3.28.93,3.63v1.53h-3.52v-1.53c.86-.35.93-.53.93-3.63v-22.26c0-2.78-.08-2.97-.92-3.49v-1.4c.88-.24,1.82-.83,2.57-1.63v22.24c.38-.3.64-1.04.87-1.8.36-1.17.91-3.3,1.1-4.34.22-1.17.03-1.62-.58-1.87v-1.5l3.13-.4v1.45c-.96.5-1.37,1.04-1.93,2.95-.25.83-.7,2.53-1.08,3.97.34,1.69,1.78,7.6,2.22,9.25.56,1.96.75,2.26,1.36,2.48v1.53Z"/>
    <path class="cls-2" d="m348.99,263.85c-.83.37-1.72.99-2.63,1.71v-3.42c-.68,1.82-1.31,3.42-2.12,3.42-1.16,0-1.91-2.37-1.91-6.98v-9.72c0-2.34-.1-2.6-.49-2.9l-.35-.27v-1.44c.71-.1,1.82-.48,2.53-.83-.03,1.85-.04,4.28-.04,7.16v6.84c0,3.51.56,4.61,1.13,4.61.46,0,.87-.46,1.25-1.71v-11.43c0-2.34-.11-2.71-.56-2.95l-.46-.25v-1.44c.89-.11,2.07-.52,2.68-.83v15.8c0,2.46.1,2.92.6,3.05l.36.08v1.5Z"/>
    <path class="cls-2" d="m352.16,264.99h-3.74v-1.53c.84-.29.92-.53.92-3.49v-10.33c0-2.67-.06-2.88-.81-3.31v-1.39c.85-.35,1.63-.93,2.47-1.88v5.22c.62-3.03,1.18-5.1,1.84-5.1.55,0,.93,1.17.93,2.68,0,1.92-.42,3.16-.67,3.58-.19.29-.32.12-.43-.19-.24-.69-.43-1.36-.69-1.36s-.69.93-.97,2.97v9.09c0,2.98.09,3.16,1.17,3.51v1.53Z"/>
    <path class="cls-2" d="m359.11,258.41c-.26,2.4-.52,5.26-.66,6.58h-5.2l-.16-.8c1.25-6.21,2.34-12.09,3.51-18.41h-1c-1.02,0-1.34.31-1.94,4.66l-.47-.53c.18-2.04.38-4.89.52-7.22h.35c.1.78.31,1.07.88,1.07h3.64l.13.69c-1.15,6.13-2.27,12.13-3.44,18.55h1.17c1.07,0,1.52-.74,2.24-5.15l.44.56Z"/>
    <path class="cls-2" d="m364.13,260.5c-.92,4.15-2.05,5.06-2.63,5.06-1.92,0-3.04-4.77-3.04-10.42,0-3.33.44-6.54,1.06-8.56.65-2.19,1.48-3.41,2.28-3.41,1.4,0,2.39,3.79,2.38,7.69,0,.87-.03,1.55-.23,1.71-.29.22-2.31.59-3.86.78.02,5.56,1.02,8.17,2.08,8.17.59,0,1.16-.72,1.7-2.26l.26,1.23Zm-2.65-15.4c-.62,0-1.19,2.19-1.32,6.02.69-.03,1.34-.06,2.05-.14.23-.03.32-.18.32-.96.02-2.45-.39-4.91-1.05-4.91Z"/>
    <path class="cls-2" d="m367.54,264.99h-3.74v-1.53c.84-.29.92-.53.92-3.49v-10.33c0-2.67-.06-2.88-.81-3.31v-1.39c.85-.35,1.63-.93,2.47-1.88v5.22c.62-3.03,1.18-5.1,1.84-5.1.55,0,.93,1.17.93,2.68,0,1.92-.42,3.16-.67,3.58-.19.29-.32.12-.43-.19-.24-.69-.43-1.36-.69-1.36s-.69.93-.97,2.97v9.09c0,2.98.09,3.16,1.17,3.51v1.53Z"/>
    <path class="cls-2" d="m376.01,241.49c-.28-3.11-.7-6.48-2.07-6.48-.96,0-1.47,2.24-1.47,4.86,0,2.88.58,4.49,1.86,6.59,1.65,2.7,2.58,5.09,2.58,9.78,0,5.45-1.42,9.47-3.46,9.47-.93,0-1.75-.82-2.41-1.52-.1-1.19-.33-5.58-.43-7.95l.54-.42c.3,3.09,1.06,7.95,2.55,7.95.96,0,1.55-2.03,1.55-5.12s-.56-4.68-1.83-6.9c-1.55-2.71-2.51-5.07-2.51-9.88s1.17-8.77,3.31-8.77c.96,0,1.74.72,2.06.88.06,1.76.15,4.05.27,7.11l-.53.38Z"/>
    <path class="cls-2" d="m376.67,264.99v-1.53c.85-.32.94-.53.94-3.89v-9.55c0-3.13-.06-3.32-.83-3.68v-1.43c.88-.37,1.73-.99,2.48-1.8v16.45c0,3.26.07,3.57.97,3.89v1.53h-3.57Zm1.67-25.42c-.51,0-.97-1.42-.97-3.11,0-1.82.46-3.14.98-3.14s.96,1.32.96,3.14c0,1.69-.43,3.11-.97,3.11Z"/>
    <path class="cls-2" d="m383.93,264.99v-1.53c.71-.29.77-.53.77-3.83v-8.11c0-3.39-.47-4.87-1.15-4.87-.46,0-.88.72-1.3,1.81v11.48c0,3.06.07,3.22.77,3.51v1.53h-3.36v-1.53c.84-.4.93-.5.93-3.63v-9.95c0-2.96-.11-3.11-.82-3.54v-1.44c.81-.35,1.73-.98,2.49-1.86,0,.82-.02,2.45-.02,3.57.3-.67.61-1.39.97-2.11.43-.86.75-1.31,1.18-1.31,1.2,0,1.95,2.83,1.95,7.64v9.09c0,3.08.09,3.22.85,3.54v1.53h-3.27Z"/>
    <path class="cls-2" d="m391.01,264.99v-1.53c.71-.29.77-.53.77-3.83v-8.11c0-3.39-.47-4.87-1.15-4.87-.46,0-.88.72-1.3,1.81v11.48c0,3.06.07,3.22.77,3.51v1.53h-3.36v-1.53c.84-.4.93-.5.93-3.63v-9.95c0-2.96-.11-3.11-.82-3.54v-1.44c.81-.35,1.73-.98,2.49-1.86,0,.82-.02,2.45-.02,3.57.3-.67.61-1.39.97-2.11.43-.86.75-1.31,1.18-1.31,1.2,0,1.95,2.83,1.95,7.64v9.09c0,3.08.09,3.22.85,3.54v1.53h-3.27Z"/>
    <path class="cls-2" d="m395.34,265.6c-.64,0-1.1-1.53-1.1-3.7s.46-3.67,1.1-3.67,1.12,1.56,1.12,3.67-.47,3.7-1.12,3.7Z"/>
  </g>
</svg>