<?xml version="1.0" encoding="UTF-8"?>
<svg id="Ebene_2" data-name="Ebene 2" xmlns="http://www.w3.org/2000/svg" xmlns:xlink="http://www.w3.org/1999/xlink" viewBox="0 0 357.28 295.56">
  <defs>
    <style>
      .cls-1, .cls-2 {
        fill: none;
      }

      .cls-2, .cls-3 {
        stroke: #1d1d1b;
        stroke-width: 2px;
      }

      .cls-3 {
        stroke-miterlimit: 10;
      }

      .cls-3, .cls-4 {
        fill: #fbf7d0;
      }

      .cls-5 {
        clip-path: url(#clippath-1);
      }

      .cls-6 {
        letter-spacing: -.01em;
      }

      .cls-7 {
        fill: #1d1d1b;
        font-family: Rubik-Regular, Rubik;
        font-size: 48px;
        font-variation-settings: 'wght' 400;
      }

      .cls-8 {
        clip-path: url(#clippath);
      }
    </style>
    <clipPath id="clippath">
      <rect class="cls-1" x="259.97" y="133.82" width="97.31" height="161.74"/>
    </clipPath>
    <clipPath id="clippath-1">
      <rect class="cls-1" x="259.97" y="133.82" width="97.31" height="161.74"/>
    </clipPath>
  </defs>
  <g id="Ebene_1-2" data-name="Ebene 1">
    <g class="cls-8">
      <path class="cls-4" d="M280.74,252.4s-11,1.09-14-19.37c-3-20.46-.47-54.57-.47-63.66s-15.47-4.55,6.5-15.92c21.97-11.37,10.72-15.91,42.85-13.64,32.13,2.27,32.13-11.37,33.13-1.14s.49,67.07.49,73.89.63,19.28.63,29.56,14.12,11.43.5,11.43c-8.99,0-29.03.49-41.62.83-6.49.17-10.99.31-10.99.31,0,0-3.88-2.36-7.88-2.36s-9.12.08-9.12.08"/>
      <path class="cls-2" d="M280.74,252.4s-11,1.09-14-19.37c-3-20.46-.47-54.57-.47-63.66s-15.47-4.55,6.5-15.92c21.97-11.37,10.72-15.91,42.85-13.64,32.13,2.27,32.13-11.37,33.13-1.14s.49,67.07.49,73.89.63,19.28.63,29.56,14.12,11.43.5,11.43c-8.99,0-29.03.49-41.62.83-6.49.17-10.99.31-10.99.31,0,0-3.88-2.36-7.88-2.36s-9.12.08-9.12.08Z"/>
      <path class="cls-4" d="M289.3,270.3v15s-11.92,8.6-4.44,7.6c7.48-1,14.99-5.6,14.99-5.6,0,0,.32,4.6.32-6.2s.5-15.8.5-15.8l.19-10.32-11-1.87-.56,17.19Z"/>
      <path class="cls-2" d="M289.3,270.3v15s-11.92,8.6-4.44,7.6c7.48-1,14.99-5.6,14.99-5.6,0,0,.32,4.6.32-6.2s.5-15.8.5-15.8l.19-10.32-11-1.87-.56,17.19Z"/>
      <path class="cls-4" d="M318.86,254.61c1,16,5.53,22,5.53,26s-5.18,2-1.86,7c3.33,5,8.33,9.72,17.33,5s14-9,14-9l-7-4s-6.63,15-10.82-3-5.18-22-5.18-22h-12Z"/>
      <path class="cls-2" d="M318.86,254.61c1,16,5.53,22,5.53,26s-5.18,2-1.86,7c3.33,5,8.33,9.72,17.33,5s14-9,14-9l-7-4s-6.63,15-10.82-3-5.18-22-5.18-22h-12Z"/>
    </g>
    <g class="cls-5">
      <path class="cls-4" d="M297.41,164.79c2.7-.38,4.42-4.01,3.85-8.11-.58-4.1-3.24-7.12-5.94-6.74-2.7.38-4.42,4.01-3.85,8.11.58,4.1,3.23,7.12,5.94,6.74"/>
      <path class="cls-2" d="M297.41,164.79c2.7-.38,4.42-4.01,3.85-8.11-.58-4.1-3.24-7.12-5.94-6.74-2.7.38-4.42,4.01-3.85,8.11.58,4.1,3.23,7.12,5.94,6.74Z"/>
      <path class="cls-4" d="M338.51,177.83l-23.69,2.71s-6.76,2.71-6.76,8.13-.68,10.84-.68,10.84c0,0,2.03,2.88,4.73.08,2.7-2.79,4.88-5.5,4.88-5.5l9.99-4.77s-6.19-2.06,2.71,0c8.89,2.06,8.89,4.11,8.89,2.06s-1.93,2.66.68-2.06c2.6-4.72.59-4.72.59-4.72l1.42-5.42-2.76-1.36Z"/>
      <path class="cls-2" d="M338.51,177.83l-23.69,2.71s-6.76,2.71-6.76,8.13-.68,10.84-.68,10.84c0,0,2.03,2.88,4.73.08,2.7-2.79,4.88-5.5,4.88-5.5l9.99-4.77s-6.19-2.06,2.71,0c8.89,2.06,8.89,4.11,8.89,2.06s-1.93,2.66.68-2.06c2.6-4.72.59-4.72.59-4.72l1.42-5.42-2.76-1.36Z"/>
    </g>
    <path class="cls-3" d="M243.5,148.68s-41.84-23.63-62.75-14.97c-20.9,8.66-26.48,51-77.25,21.84s-83.58-5.56-95.95-36.52c-3.66-9.16-6.91-9.87-6.52-39.38.06-4.26,14.88-33.69,48.65-54.75C83.46,3.83,114.48,15.55,140.98,15.55s31.42-14.39,53.05,19.21c2.83,4.4,9.12,22.46,9.12,22.46,0,0-1.49,26.73,3.49,34.69s9.79,21.65,15.26,27.13,21.6,29.65,21.6,29.65Z"/>
    <text class="cls-7" transform="translate(25.71 40.8)"><tspan x="0" y="0"> </tspan><tspan class="cls-6" x="0" y="57.6">S</tspan><tspan x="29.33" y="57.6">WIPE!</tspan></text>
  </g>
</svg>