<?xml version="1.0" encoding="UTF-8"?>
<svg id="Ebene_2" data-name="Ebene 2" xmlns="http://www.w3.org/2000/svg" xmlns:xlink="http://www.w3.org/1999/xlink" viewBox="0 0 112.41 161.74">
  <defs>
    <style>
      .cls-1, .cls-2 {
        fill: none;
      }

      .cls-3 {
        clip-path: url(#clippath);
      }

      .cls-4 {
        fill: #1d1d1b;
        font-family: LEMONMILK-Medium, 'LEMON MILK';
        font-size: 14px;
        font-weight: 500;
      }

      .cls-5 {
        fill: #fbf7d0;
      }

      .cls-2 {
        stroke: #1d1d1b;
        stroke-width: 2px;
      }

      .cls-6 {
        letter-spacing: -.1em;
      }

      .cls-7 {
        clip-path: url(#clippath-1);
      }

      .cls-8 {
        letter-spacing: -.07em;
      }

      .cls-9 {
        letter-spacing: -.03em;
      }
    </style>
    <clipPath id="clippath">
      <rect class="cls-1" width="112.41" height="161.74"/>
    </clipPath>
    <clipPath id="clippath-1">
      <rect class="cls-1" width="112.41" height="161.74"/>
    </clipPath>
  </defs>
  <g id="Ebene_1-2" data-name="Ebene 1">
    <g class="cls-3">
      <path class="cls-5" d="m35.87,118.58s-11,1.09-14-19.37c-3-20.46-.47-54.57-.47-63.66s-15.47-4.55,6.5-15.92c21.97-11.37,10.72-15.91,42.85-13.64,32.13,2.27,32.13-11.37,33.13-1.14s.49,67.07.49,73.89.63,19.28.63,29.56,14.12,11.43.5,11.43c-8.99,0-29.03.49-41.62.83-6.49.17-10.99.31-10.99.31,0,0-3.88-2.36-7.88-2.36s-9.12.08-9.12.08"/>
      <path class="cls-2" d="m35.87,118.58s-11,1.09-14-19.37c-3-20.46-.47-54.57-.47-63.66s-15.47-4.55,6.5-15.92c21.97-11.37,10.72-15.91,42.85-13.64,32.13,2.27,32.13-11.37,33.13-1.14s.49,67.07.49,73.89.63,19.28.63,29.56,14.12,11.43.5,11.43c-8.99,0-29.03.49-41.62.83-6.49.17-10.99.31-10.99.31,0,0-3.88-2.36-7.88-2.36s-9.12.08-9.12.08Z"/>
      <path class="cls-5" d="m44.43,136.48v15s-11.92,8.6-4.44,7.6c7.48-1,14.99-5.6,14.99-5.6,0,0,.32,4.6.32-6.2s.5-15.8.5-15.8l.19-10.32-11-1.87-.56,17.19Z"/>
      <path class="cls-2" d="m44.43,136.48v15s-11.92,8.6-4.44,7.6c7.48-1,14.99-5.6,14.99-5.6,0,0,.32,4.6.32-6.2s.5-15.8.5-15.8l.19-10.32-11-1.87-.56,17.19Z"/>
      <path class="cls-5" d="m73.99,120.79c1,16,5.53,22,5.53,26s-5.18,2-1.86,7c3.33,5,8.33,9.72,17.33,5s14-9,14-9l-7-4s-6.63,15-10.82-3-5.18-22-5.18-22h-12Z"/>
      <path class="cls-2" d="m73.99,120.79c1,16,5.53,22,5.53,26s-5.18,2-1.86,7c3.33,5,8.33,9.72,17.33,5s14-9,14-9l-7-4s-6.63,15-10.82-3-5.18-22-5.18-22h-12Z"/>
    </g>
    <text class="cls-4" transform="translate(31.99 95.38)"><tspan x="0" y="0">GET IN </tspan></text>
    <text class="cls-4" transform="translate(31.99 112.18)"><tspan class="cls-9" x="0" y="0">C</tspan><tspan x="9.89" y="0">ON</tspan><tspan class="cls-6" x="33.08" y="0">T</tspan><tspan class="cls-8" x="39.94" y="0">A</tspan><tspan x="49.81" y="0">CT</tspan></text>
    <g class="cls-7">
      <path class="cls-5" d="m52.54,30.97c2.7-.38,4.42-4.01,3.85-8.11-.58-4.1-3.24-7.12-5.94-6.74-2.7.38-4.42,4.01-3.85,8.11.58,4.1,3.23,7.12,5.94,6.74"/>
      <path class="cls-2" d="m52.54,30.97c2.7-.38,4.42-4.01,3.85-8.11-.58-4.1-3.24-7.12-5.94-6.74-2.7.38-4.42,4.01-3.85,8.11.58,4.1,3.23,7.12,5.94,6.74Z"/>
      <path class="cls-5" d="m5.75,79.27l38.57-3.42s11.01-3.42,11.01-10.25,1.1-13.66,1.1-13.66c0,0-3.3-3.63-7.71-.11-4.4,3.52-7.95,6.94-7.95,6.94l-16.27,6.01s10.07,2.59-4.4,0c-14.48-2.59-14.48-5.18-14.48-2.59s3.14-3.36-1.1,2.59c-4.24,5.95-.96,5.95-.96,5.95l-2.31,6.83,4.5,1.71Z"/>
      <path class="cls-2" d="m5.75,79.27l38.57-3.42s11.01-3.42,11.01-10.25,1.1-13.66,1.1-13.66c0,0-3.3-3.63-7.71-.11-4.4,3.52-7.95,6.94-7.95,6.94l-16.27,6.01s10.07,2.59-4.4,0c-14.48-2.59-14.48-5.18-14.48-2.59s3.14-3.36-1.1,2.59c-4.24,5.95-.96,5.95-.96,5.95l-2.31,6.83,4.5,1.71Z"/>
    </g>
  </g>
</svg>