<?xml version="1.0" encoding="utf-8"?>
<!-- Generator: Adobe Illustrator 27.5.0, SVG Export Plug-In . SVG Version: 6.00 Build 0)  -->
<svg version="1.1" id="Ebene_2_00000065048468580664940820000003374132194668618155_"
	 xmlns="http://www.w3.org/2000/svg" xmlns:xlink="http://www.w3.org/1999/xlink" x="0px" y="0px" viewBox="0 0 125.3 173.6"
	 style="enable-background:new 0 0 125.3 173.6;" xml:space="preserve">
<style type="text/css">
	.st0{fill:#FBF7D0;}
	.st1{fill:#FBF7D0;stroke:#000000;stroke-miterlimit:10;}
	.st2{fill:none;}
	.st3{fill:none;stroke:#1D1D1B;}
	.st4{fill:#FBF7D0;stroke:#1D1D1B;stroke-miterlimit:10;}
	.st5{fill:none;stroke:#1D1D1B;stroke-width:0.8;}
	.st6{fill:#FBF7D0;stroke:#1D1D1B;stroke-width:0.8;stroke-miterlimit:10;}
</style>
<g id="Ebene_1-2">
	<g>
		<path class="st0" d="M51.5,30.4c2.7-0.4,4.4-4,3.8-8.1c-0.6-4.1-3.2-7.1-5.9-6.7c-2.7,0.4-4.4,4-3.8,8.1
			C46.2,27.8,48.8,30.8,51.5,30.4"/>
		<path class="st0" d="M92.6,43.4l-23.7,2.7c0,0-6.8,2.7-6.8,8.1S61.4,65,61.4,65s2,2.9,4.7,0c2.7-2.8,4.9-5.5,4.9-5.5l10-4.8
			c0,0-6.2-2.1,2.7,0s8.9,4.1,8.9,2.1s-1.9,2.7,0.7-2.1c2.6-4.7,0.6-4.7,0.6-4.7l1.4-5.4l-2.8-1.4l0,0L92.6,43.4z"/>
		<path class="st1" d="M34.9,118c0,0-11,1.1-14-19.4S20.4,44,20.4,34.9S4.9,30.4,26.9,19S37.6,3.1,69.7,5.4S101.8-6,102.8,4.3
			c1,10.2,0.5,67.1,0.5,73.9s0.6,19.3,0.6,29.6s14.1,11.4,0.5,11.4s-29,0.5-41.6,0.8c-6.5,0.2-11,0.3-11,0.3s-3.9-2.4-7.9-2.4
			s-9.1,0-9.1,0"/>
		<path class="st2" d="M34.9,118c0,0-11,1.1-14-19.4S20.4,44,20.4,34.9S4.9,30.4,26.9,19S37.6,3.1,69.7,5.4S101.8-6,102.8,4.3
			c1,10.2,0.5,67.1,0.5,73.9s0.6,19.3,0.6,29.6s14.1,11.4,0.5,11.4s-29,0.5-41.6,0.8c-6.5,0.2-11,0.3-11,0.3s-3.9-2.4-7.9-2.4
			s-9.1,0-9.1,0l0,0L34.9,118z"/>
		<path class="st0" d="M43.4,135.9v15c0,0-11.9,8.6-4.4,7.6s15-5.6,15-5.6s0.3,4.6,0.3-6.2s0.5-15.8,0.5-15.8l0.2-10.3l-11-1.9
			L43.4,135.9z"/>
		<path class="st3" d="M43.4,135.9v15c0,0-11.9,8.6-4.4,7.6s15-5.6,15-5.6s0.3,4.6,0.3-6.2s0.5-15.8,0.5-15.8l0.2-10.3l-11-1.9
			L43.4,135.9z"/>
		<path class="st0" d="M73,120.2c1,15.4,5.5,21.1,5.5,25s-5.2,1.9-1.9,6.7c3.3,4.8,8.3,9.3,17.3,4.8s14-8.6,14-8.6l-7-3.8
			c0,0-6.6,14.4-10.8-2.9c-4.2-17.3-5.2-21.1-5.2-21.1L73,120.2L73,120.2z"/>
		<path class="st3" d="M73,120.2c1,15.4,5.5,21.1,5.5,25s-5.2,1.9-1.9,6.7c3.3,4.8,8.3,9.3,17.3,4.8s14-8.6,14-8.6l-7-3.8
			c0,0-6.6,14.4-10.8-2.9c-4.2-17.3-5.2-21.1-5.2-21.1L73,120.2L73,120.2z"/>
		<path class="st3" d="M51.5,30.4c2.7-0.4,4.4-4,3.8-8.1c-0.6-4.1-3.2-7.1-5.9-6.7c-2.7,0.4-4.4,4-3.8,8.1
			C46.2,27.8,48.8,30.8,51.5,30.4z"/>
		<path class="st3" d="M92.6,43.4l-23.7,2.7c0,0-6.8,2.7-6.8,8.1S61.4,65,61.4,65s2,2.9,4.7,0c2.7-2.8,4.9-5.5,4.9-5.5l10-4.8
			c0,0-6.2-2.1,2.7,0s8.9,4.1,8.9,2.1s-1.9,2.7,0.7-2.1c2.6-4.7,0.6-4.7,0.6-4.7l1.4-5.4l-2.8-1.4l0,0L92.6,43.4z"/>
	</g>
	<g>
		<path class="st4" d="M17.9,157.1c0.5,0.1,2.9,2.3,7.2,2.2l79-0.3c1.8,0,3.9-1.1,5.3-1.8l10.7-4.7c0.5-0.2,1.9-0.7,3.5-0.6
			c1.4,0,1.7,2,0.5,2.6c-0.5,0.2-2,0.9-2.6,1.1l-11.5,5.7c-0.8,0.3-3.7,1.1-4.6,1.1L95.1,162l-10.6-0.2l-41.2-0.2
			c-0.4,0-0.8,0-1.1,0l-7.4,0.4l-1.5,0.3H29c-5.5,0-8.6-1.1-11.8-2.4l-7.8-3.1c-4.9-2.3-7.8-4-7.8-4c-1.1-0.8-1.2-1.4-0.6-2.6
			c0.5-1,1.9-0.8,3.8,0.3c2.7,1.6,5,2.7,7.8,4.1l5.3,2.3l0,0L17.9,157.1z"/>
		<path class="st0" d="M99.5,173.2c2.7-0.2,4.4-2.7,3.8-5.4c-0.6-2.8-3.2-4.8-5.9-4.5c-2.7,0.2-3.8,2.6-3.8,5.4
			S96.8,173.5,99.5,173.2"/>
		<path class="st5" d="M99.5,173.1c2.7-0.2,4.4-2.7,3.8-5.4s-3.2-4.7-5.9-4.5c-2.7,0.2-4.7,2.7-3.8,5.4S97,173.1,99.5,173.1z"/>
		<path class="st0" d="M34.1,173.4c2.7-0.3,2.6-2.9,2.1-5.9c-0.6-3-1.5-5.1-4.1-4.9c-2.7,0.3-6.2,2.9-5.6,5.9
			C27.1,171.5,31.5,173.6,34.1,173.4"/>
		<path class="st5" d="M34,172.7c2.7-0.2,2.6-2.6,2-5.4c-0.6-2.7-1.4-4.7-4.1-4.4s-6.2,2.6-5.6,5.4C26.9,171,31.3,173,34,172.7
			L34,172.7z"/>
		<ellipse class="st6" cx="99.2" cy="168.3" rx="0.9" ry="1.2"/>
		<circle class="st6" cx="31.8" cy="167.7" r="1.1"/>
	</g>
</g>
<g>
	<path d="M39.4,104.2c-1.1,0-1.9-0.2-2.5-0.6c-0.6-0.4-1.1-0.9-1.3-1.7c-0.2-0.7-0.3-1.5-0.1-2.5c0.1-0.5,0.2-1.1,0.3-1.7
		c0.1-0.6,0.3-1.1,0.4-1.7c0.2-1,0.6-1.8,1.2-2.5c0.5-0.7,1.2-1.2,2-1.6c0.8-0.4,1.7-0.6,2.8-0.6c0.8,0,1.5,0.1,2.1,0.4
		c0.6,0.2,1,0.5,1.3,0.9c0.3,0.4,0.5,0.7,0.6,1.1c0.1,0.4,0.1,0.7,0.1,1c0,0.1-0.1,0.2-0.2,0.3c-0.1,0.1-0.2,0.1-0.3,0.1h-1
		c-0.1,0-0.2,0-0.2-0.1c0,0-0.1-0.1-0.1-0.2c0-0.3-0.1-0.6-0.3-0.9c-0.2-0.3-0.5-0.5-0.8-0.7c-0.4-0.2-0.9-0.3-1.5-0.3
		c-0.9,0-1.7,0.3-2.4,0.8c-0.7,0.5-1.2,1.3-1.5,2.5c-0.1,0.5-0.2,1-0.4,1.6c-0.1,0.5-0.2,1.1-0.3,1.6c-0.2,1.2-0.1,2,0.4,2.5
		c0.5,0.5,1.2,0.8,2.1,0.8c0.6,0,1.2-0.1,1.7-0.4s1-0.6,1.4-1.1c0.4-0.5,0.7-1.1,0.8-1.8l0.2-0.7h-2.7c-0.1,0-0.2,0-0.3-0.1
		c-0.1-0.1-0.1-0.2-0.1-0.3l0.1-0.6c0-0.1,0.1-0.2,0.2-0.3c0.1-0.1,0.2-0.1,0.3-0.1h4c0.1,0,0.2,0,0.3,0.1c0.1,0.1,0.1,0.2,0,0.3
		l-0.4,1.7c-0.2,1-0.6,1.8-1.1,2.5c-0.6,0.7-1.3,1.3-2.1,1.7C41.4,104,40.5,104.2,39.4,104.2z"/>
	<path d="M47.2,104c-0.1,0-0.2,0-0.3-0.1c-0.1-0.1-0.1-0.2-0.1-0.3L49.3,92c0-0.1,0.1-0.2,0.2-0.3c0.1-0.1,0.2-0.1,0.3-0.1h7.3
		c0.1,0,0.2,0,0.3,0.1c0.1,0.1,0.1,0.2,0,0.3l-0.1,0.7c0,0.1-0.1,0.2-0.2,0.3c-0.1,0.1-0.2,0.1-0.3,0.1h-6L50,97h5.6
		c0.1,0,0.2,0,0.3,0.1c0.1,0.1,0.1,0.2,0.1,0.3L55.8,98c0,0.1-0.1,0.2-0.2,0.3c-0.1,0.1-0.2,0.1-0.3,0.1h-5.6l-0.9,4H55
		c0.1,0,0.2,0,0.3,0.1c0.1,0.1,0.1,0.2,0.1,0.3l-0.2,0.7c0,0.1-0.1,0.2-0.2,0.3c-0.1,0.1-0.2,0.1-0.3,0.1H47.2z"/>
	<path d="M60.6,104c-0.1,0-0.2,0-0.3-0.1c-0.1-0.1-0.1-0.2-0.1-0.3l2.2-10.4h-3.4c-0.1,0-0.2,0-0.3-0.1c-0.1-0.1-0.1-0.2-0.1-0.3
		l0.2-0.7c0-0.1,0.1-0.2,0.2-0.3c0.1-0.1,0.2-0.1,0.3-0.1H68c0.1,0,0.2,0,0.3,0.1c0.1,0.1,0.1,0.2,0,0.3l-0.2,0.7
		c0,0.1-0.1,0.2-0.2,0.3c-0.1,0.1-0.2,0.1-0.3,0.1h-3.4L62,103.6c0,0.1-0.1,0.2-0.2,0.3c-0.1,0.1-0.2,0.1-0.3,0.1H60.6z"/>
	<path d="M71.8,104.2c-0.1,0-0.2,0-0.3-0.1c-0.1-0.1-0.1-0.2-0.1-0.3l2.5-11.6c0-0.1,0.1-0.2,0.2-0.3c0.1-0.1,0.2-0.1,0.3-0.1h1
		c0.1,0,0.2,0,0.3,0.1c0.1,0.1,0.1,0.2,0.1,0.3l-2.5,11.6c0,0.1-0.1,0.2-0.2,0.3c-0.1,0.1-0.2,0.1-0.3,0.1H71.8z"/>
	<path d="M76.7,104.2c-0.1,0-0.2,0-0.3-0.1c-0.1-0.1-0.1-0.2-0.1-0.3l2.5-11.6c0-0.1,0.1-0.2,0.2-0.3c0.1-0.1,0.2-0.1,0.3-0.1h0.8
		c0.1,0,0.2,0,0.3,0.1c0.1,0.1,0.1,0.1,0.1,0.2l4,9.2l1.9-9c0-0.1,0.1-0.2,0.2-0.3c0.1-0.1,0.2-0.1,0.3-0.1h0.9c0.1,0,0.2,0,0.3,0.1
		c0.1,0.1,0.1,0.2,0,0.3l-2.5,11.6c0,0.1-0.1,0.2-0.2,0.3c-0.1,0.1-0.2,0.1-0.3,0.1h-0.8c-0.1,0-0.2,0-0.3-0.1
		c-0.1-0.1-0.1-0.1-0.1-0.2l-4-9.1l-1.9,8.9c0,0.1-0.1,0.2-0.2,0.3c-0.1,0.1-0.2,0.1-0.3,0.1H76.7z"/>
</g>
</svg>
