<?xml version="1.0" encoding="UTF-8"?>
<svg id="Ebene_2" xmlns="http://www.w3.org/2000/svg" viewBox="0 0 129.96 185.22">
  <defs>
    <style>
      .cls-1, .cls-2, .cls-3 {
        fill: none;
      }

      .cls-1, .cls-2, .cls-3, .cls-4, .cls-5 {
        stroke: #1d1d1b;
      }

      .cls-2 {
        stroke-width: .81px;
      }

      .cls-3 {
        stroke-width: .81px;
      }

      .cls-4, .cls-6, .cls-5 {
        fill: #fbf7d0;
      }

      .cls-4, .cls-5 {
        stroke-miterlimit: 10;
      }

      .cls-7 {
        fill: #1d1d1b;
        font-family: Rubik-BoldItalic, Rubik;
        font-size: 13px;
        font-style: italic;
        font-weight: 700;
      }

      .cls-5 {
        stroke-width: .75px;
      }

      .cls-8 {
        letter-spacing: 0em;
      }

      .cls-9 {
        letter-spacing: -.07em;
      }

      .cls-10 {
        letter-spacing: -.02em;
      }

      .cls-11 {
        letter-spacing: -.01em;
      }
    </style>
  </defs>
  <g id="Ebene_1-2" data-name="Ebene_1">
    <g>
      <path class="cls-6" d="M53.92,118.08s-11,1.09-14-19.37c-3-20.46-.47-54.57-.47-63.66s-15.47-4.55,6.5-15.92c21.97-11.37,10.72-15.91,42.84-13.64,32.13,2.27,32.13-11.37,33.13-1.14s.49,67.07.49,73.89.63,19.28.63,29.56,14.12,11.43.5,11.43c-8.99,0-29.03.5-41.62.83-6.49.17-10.99.31-10.99.31,0,0-3.88-2.36-7.88-2.36s-9.12.08-9.12.08"/>
      <path class="cls-1" d="M53.92,118.08s-11,1.09-14-19.37c-3-20.46-.47-54.57-.47-63.66s-15.47-4.55,6.5-15.92c21.97-11.37,10.72-15.91,42.84-13.64,32.13,2.27,32.13-11.37,33.13-1.14s.49,67.07.49,73.89.63,19.28.63,29.56,14.12,11.43.5,11.43c-8.99,0-29.03.5-41.62.83-6.49.17-10.99.31-10.99.31,0,0-3.88-2.36-7.88-2.36s-9.12.08-9.12.08Z"/>
      <path class="cls-6" d="M62.48,135.98v15s-11.92,8.6-4.44,7.6c7.48-1,14.99-5.6,14.99-5.6,0,0,.32,4.6.32-6.2s.5-15.8.5-15.8l.19-10.32-11-1.87-.56,17.19Z"/>
      <path class="cls-1" d="M62.48,135.98v15s-11.92,8.6-4.44,7.6c7.48-1,14.99-5.6,14.99-5.6,0,0,.32,4.6.32-6.2s.5-15.8.5-15.8l.19-10.32-11-1.87-.56,17.19Z"/>
      <path class="cls-6" d="M92.04,120.29c1,16,5.53,22,5.53,26s-5.18,2-1.86,7c3.33,5,8.33,9.72,17.33,5s14-9,14-9l-7-4s-6.63,15-10.82-3-5.18-22-5.18-22h-12Z"/>
      <path class="cls-1" d="M92.04,120.29c1,16,5.53,22,5.53,26s-5.18,2-1.86,7c3.33,5,8.33,9.72,17.33,5s14-9,14-9l-7-4s-6.63,15-10.82-3-5.18-22-5.18-22h-12Z"/>
      <path class="cls-6" d="M70.59,30.47c2.7-.38,4.42-4.01,3.85-8.11-.58-4.1-3.24-7.12-5.94-6.74-2.7.38-4.42,4.01-3.85,8.11.58,4.1,3.23,7.12,5.94,6.74"/>
      <path class="cls-1" d="M70.59,30.47c2.7-.38,4.42-4.01,3.85-8.11-.58-4.1-3.24-7.12-5.94-6.74-2.7.38-4.42,4.01-3.85,8.11.58,4.1,3.23,7.12,5.94,6.74Z"/>
      <path class="cls-6" d="M23.8,78.77l38.57-3.42s11.01-3.42,11.01-10.25,1.1-13.66,1.1-13.66c0,0-3.3-3.63-7.71-.11-4.4,3.52-7.95,6.94-7.95,6.94l-16.27,6.01s10.07,2.59-4.4,0c-14.48-2.59-14.48-5.18-14.48-2.59s3.14-3.36-1.1,2.59c-4.24,5.95-.96,5.95-.96,5.95l-2.31,6.83,4.5,1.71Z"/>
      <path class="cls-1" d="M23.8,78.77l38.57-3.42s11.01-3.42,11.01-10.25,1.1-13.66,1.1-13.66c0,0-3.3-3.63-7.71-.11-4.4,3.52-7.95,6.94-7.95,6.94l-16.27,6.01s10.07,2.59-4.4,0c-14.48-2.59-14.48-5.18-14.48-2.59s3.14-3.36-1.1,2.59c-4.24,5.95-.96,5.95-.96,5.95l-2.31,6.83,4.5,1.71Z"/>
    </g>
    <g>
      <path class="cls-4" d="M16.34,77.69c-.14.46-2.27,2.86-2.24,7.21l.72,80.88c-.03-2.3.35.4,1.03,1.83l4.99,12.4c.25.54.68,1.94.59,3.46-.09,1.39-2.02,1.74-2.55.46-.19-.46-.85-2-1.1-2.6l-5.68-11.53c-.32-.79-.65-3.3-.66-4.15l-.49-11.17.61-10.17.18-41.19c0-.37-.01-.75-.05-1.12l-.37-7.41c0-.06-.34-1.48-.34-1.54l.02-4.31c0-5.53,1.09-8.62,2.4-11.75l3.06-7.8c2.28-4.9,4.02-7.81,4.02-7.81.83-1.07,1.37-1.16,2.58-.57.98.48.75,1.93-.33,3.76-1.56,2.65-2.71,4.99-4.05,7.81l-2.34,5.33Z"/>
      <path class="cls-6" d="M.33,159.33c.25,2.7,2.69,4.42,5.43,3.85,2.75-.58,4.77-3.24,4.51-5.94-.25-2.7-2.63-3.85-5.43-3.85-3.36,0-4.77,3.23-4.51,5.94"/>
      <path class="cls-3" d="M.41,159.33c.25,2.7,2.66,4.42,5.39,3.85,2.72-.58,4.73-3.24,4.47-5.94-.25-2.7-2.74-4.71-5.39-3.85s-4.52,3.38-4.47,5.94Z"/>
      <path class="cls-6" d="M.12,93.92c.27,2.7,2.89,2.64,5.85,2.06,2.96-.58,5.13-1.45,4.86-4.15-.27-2.7-2.89-6.21-5.85-5.64-2.96.58-5.13,5.02-4.86,7.72"/>
      <path class="cls-2" d="M.74,93.86c.25,2.67,2.65,2.59,5.35,2.02,2.7-.57,4.69-1.41,4.44-4.08-.25-2.67-2.65-6.16-5.35-5.59-2.7.57-4.69,4.99-4.44,7.66Z"/>
      <ellipse class="cls-5" cx="5.22" cy="159" rx="1.24" ry=".88"/>
      <circle class="cls-5" cx="5.77" cy="91.62" r="1.14"/>
    </g>
    <text class="cls-7" transform="translate(53.93 94.84)"><tspan x="0" y="0">GE</tspan><tspan class="cls-10" x="17.65" y="0">T</tspan><tspan class="cls-8" x="25.51" y="0" xml:space="preserve"> IN </tspan></text>
    <text class="cls-7" transform="translate(53.93 108.31)"><tspan x="0" y="0">CON</tspan><tspan class="cls-9" x="27.73" y="0">T</tspan><tspan class="cls-11" x="34.93" y="0">A</tspan><tspan x="44.13" y="0">CT</tspan></text>
  </g>
</svg>