<?xml version="1.0" encoding="UTF-8"?>
<svg id="Ebene_2" xmlns="http://www.w3.org/2000/svg" version="1.1" viewBox="0 0 125.3 173.6">
  <!-- Generator: Adobe Illustrator 29.2.0, SVG Export Plug-In . SVG Version: 2.1.0 Build 108)  -->
  <defs>
    <style>
      .st0, .st1, .st2, .st3, .st4 {
        stroke: #1d1d1b;
      }

      .st0, .st2, .st3 {
        fill: none;
      }

      .st5 {
        fill: #1d1d1b;
      }

      .st1 {
        stroke-width: .8px;
      }

      .st1, .st6, .st4 {
        fill: #fbf7d0;
      }

      .st1, .st4 {
        stroke-miterlimit: 10;
      }

      .st7 {
        isolation: isolate;
      }

      .st2 {
        stroke-width: 1px;
      }

      .st3 {
        stroke-width: .8px;
      }
    </style>
  </defs>
  <g id="Ebene_1-2">
    <g>
      <path class="st6" d="M51.4,30.5c2.7-.4,4.4-4,3.8-8.1-.6-4.1-3.2-7.1-5.9-6.7-2.7.4-4.4,4-3.8,8.1.6,4.1,3.2,7.1,5.9,6.7"/>
      <path class="st6" d="M92.5,43.5l-23.7,2.7s-6.8,2.7-6.8,8.1-.7,10.8-.7,10.8c0,0,2,2.9,4.7,0,2.7-2.8,4.9-5.5,4.9-5.5l10-4.8s-6.2-2.1,2.7,0c8.9,2.1,8.9,4.1,8.9,2.1s-1.9,2.7.7-2.1c2.6-4.7.6-4.7.6-4.7l1.4-5.4-2.8-1.4h0Z"/>
      <path class="st6" d="M34.8,118.1s-11,1.1-14-19.4-.5-54.6-.5-63.7-15.5-4.5,6.5-15.9c22-11.4,10.7-15.9,42.8-13.6,32.1,2.3,32.1-11.4,33.1-1.1,1,10.2.5,67.1.5,73.9s.6,19.3.6,29.6,14.1,11.4.5,11.4-29,.5-41.6.8c-6.5.2-11,.3-11,.3,0,0-3.9-2.4-7.9-2.4s-9.1,0-9.1,0"/>
      <path class="st0" d="M34.8,118.1s-11,1.1-14-19.4-.5-54.6-.5-63.7-15.5-4.5,6.5-15.9c22-11.4,10.7-15.9,42.8-13.6,32.1,2.3,32.1-11.4,33.1-1.1,1,10.2.5,67.1.5,73.9s.6,19.3.6,29.6,14.1,11.4.5,11.4-29,.5-41.6.8c-6.5.2-11,.3-11,.3,0,0-3.9-2.4-7.9-2.4s-9.1,0-9.1,0h0Z"/>
      <path class="st6" d="M43.3,136v15s-11.9,8.6-4.4,7.6c7.5-1,15-5.6,15-5.6,0,0,.3,4.6.3-6.2s.5-15.8.5-15.8l.2-10.3-11-1.9-.6,17.2Z"/>
      <path class="st0" d="M43.3,136v15s-11.9,8.6-4.4,7.6c7.5-1,15-5.6,15-5.6,0,0,.3,4.6.3-6.2s.5-15.8.5-15.8l.2-10.3-11-1.9-.6,17.2Z"/>
      <path class="st6" d="M72.9,120.3c1,15.4,5.5,21.1,5.5,25s-5.2,1.9-1.9,6.7c3.3,4.8,8.3,9.3,17.3,4.8s14-8.6,14-8.6l-7-3.8s-6.6,14.4-10.8-2.9c-4.2-17.3-5.2-21.1-5.2-21.1h-12Z"/>
      <path class="st2" d="M72.9,120.3c1,15.4,5.5,21.1,5.5,25s-5.2,1.9-1.9,6.7c3.3,4.8,8.3,9.3,17.3,4.8s14-8.6,14-8.6l-7-3.8s-6.6,14.4-10.8-2.9c-4.2-17.3-5.2-21.1-5.2-21.1h-12Z"/>
      <g class="st7">
        <g class="st7">
          <path class="st5" d="M39,93.6c-.8,0-1.5-.1-2-.4-.5-.3-.9-.7-1.1-1.2-.2-.5-.3-1.2-.1-1.9,0-.4.1-.8.2-1.2,0-.4.2-.8.3-1.2.2-.7.5-1.4.9-1.9.4-.5,1-.9,1.6-1.2.7-.3,1.4-.4,2.2-.4s1.2,0,1.7.2c.5.2.8.4,1.1.6.3.3.5.6.6.9s.1.6,0,.9c0,0,0,.1-.1.2,0,0-.1,0-.2,0h-1.9c0,0-.2,0-.2,0s0,0-.1-.1c0-.1,0-.3-.2-.4,0-.1-.2-.3-.4-.4-.2-.1-.4-.2-.8-.2-.5,0-.9.1-1.2.4s-.6.7-.7,1.2c0,.4-.2.7-.3,1.1,0,.4-.2.8-.2,1.1-.1.6,0,1,.2,1.3.2.3.6.4,1.1.4s.6,0,.9-.2c.3-.1.5-.3.7-.5.2-.2.3-.5.4-.9v-.2c0,0-1.2,0-1.2,0,0,0-.2,0-.2,0,0,0,0-.1,0-.2l.2-1c0,0,0-.2.1-.2,0,0,.2,0,.3,0h3.3c0,0,.2,0,.2,0,0,0,0,.1,0,.2l-.3,1.5c-.2.7-.5,1.4-.9,1.9s-1,.9-1.7,1.2c-.7.3-1.4.4-2.3.4Z"/>
          <path class="st5" d="M44.7,93.5c0,0-.2,0-.2,0,0,0,0-.1,0-.2l1.8-8.5c0,0,0-.2.1-.2,0,0,.2,0,.2,0h6.1c0,0,.2,0,.2,0,0,0,0,.1,0,.2l-.3,1.2c0,0,0,.2-.1.2,0,0-.2,0-.3,0h-4.1l-.4,1.8h3.9c0,0,.2,0,.2,0,0,0,0,.1,0,.2l-.2,1.1c0,0,0,.2-.1.2,0,0-.2,0-.3,0h-3.9l-.4,1.8h4.2c0,0,.2,0,.2,0,0,0,0,.1,0,.2l-.3,1.2c0,0,0,.2-.1.2,0,0-.2,0-.3,0h-6.2Z"/>
        </g>
        <g class="st7">
          <path class="st5" d="M55,93.5c0,0-.2,0-.2,0,0,0,0-.1,0-.2l1.4-6.7h-2.3c0,0-.2,0-.2,0,0,0,0-.1,0-.2l.3-1.4c0,0,0-.2.1-.2s.2,0,.3,0h7c0,0,.2,0,.2,0,0,0,0,.1,0,.2l-.3,1.4c0,0,0,.2-.1.2,0,0-.2,0-.3,0h-2.3l-1.4,6.7c0,0,0,.2-.1.2,0,0-.2,0-.3,0h-1.7Z"/>
        </g>
        <g class="st7">
          <path class="st5" d="M63.7,93.5c0,0-.2,0-.2,0,0,0,0-.1,0-.2l1.8-8.5c0,0,0-.2.1-.2s.2,0,.2,0h1.8c0,0,.2,0,.2,0s0,.1,0,.2l-1.8,8.5c0,0,0,.2-.1.2,0,0-.2,0-.2,0h-1.8Z"/>
          <path class="st5" d="M67.9,93.5c0,0-.2,0-.2,0,0,0,0-.1,0-.2l1.8-8.5c0,0,0-.2.1-.2,0,0,.2,0,.3,0h1.4c.1,0,.2,0,.3,0s0,.1.1.2l2.1,5,1.1-5c0,0,0-.2.1-.2s.2,0,.2,0h1.6c0,0,.2,0,.2,0,0,0,0,.1,0,.2l-1.8,8.4c0,0,0,.2-.1.2,0,0-.2,0-.3,0h-1.4c-.1,0-.2,0-.3,0,0,0,0-.1-.1-.1l-2.1-4.8-1,4.8c0,0,0,.2-.1.2,0,0-.2,0-.3,0h-1.6Z"/>
        </g>
      </g>
      <g class="st7">
        <g class="st7">
          <path class="st5" d="M39,107.1c-.6,0-1.1,0-1.6-.2s-.9-.4-1.2-.7-.5-.7-.7-1.1c-.1-.4-.1-.9,0-1.5,0-.4.1-.7.2-1.1,0-.4.2-.8.3-1.2.2-.8.5-1.4.9-1.9.4-.5.9-.9,1.5-1.2.6-.3,1.3-.4,2.2-.4s1.1,0,1.5.2c.5.1.9.3,1.2.6.3.3.6.6.7,1,.2.4.2.8,0,1.3,0,0,0,.1-.1.2,0,0-.1,0-.2,0h-1.8c-.1,0-.2,0-.3,0,0,0,0-.1-.1-.3,0-.5-.1-.8-.4-.9-.2-.2-.6-.3-1-.3s-.9.1-1.2.4c-.3.3-.6.7-.7,1.3-.2.7-.3,1.4-.5,2.2-.1.6,0,1.1.2,1.3.2.3.6.4,1,.4s.8,0,1.1-.3c.3-.2.6-.5.8-.9,0-.1.1-.2.2-.3,0,0,.2,0,.3,0h1.8c0,0,.1,0,.2,0s0,.1,0,.2c-.1.5-.3.9-.6,1.3-.3.4-.6.7-1,1-.4.3-.8.5-1.3.6-.5.1-1.1.2-1.7.2Z"/>
          <path class="st5" d="M48.1,107.1c-.5,0-1.1,0-1.5-.2-.5-.1-.9-.4-1.2-.7-.3-.3-.6-.7-.7-1.1-.1-.4-.2-1,0-1.5,0-.4.1-.7.2-1.1,0-.4.2-.8.3-1.1.3-1.2.8-2.1,1.5-2.7.7-.6,1.8-.9,3-.9s1.1,0,1.5.2c.5.2.9.4,1.2.7.3.3.6.7.7,1.1.1.4.1,1,0,1.5,0,.4-.1.7-.2,1.1s-.2.8-.3,1.1c-.3,1.2-.8,2.1-1.6,2.7-.7.6-1.7.9-3,.9ZM48.2,105.2c.5,0,.9-.1,1.2-.4.4-.3.6-.7.7-1.3,0-.4.2-.7.3-1.1,0-.3.1-.7.2-1.1.1-.6,0-1-.2-1.3-.2-.3-.6-.4-1-.4s-.9.1-1.2.4c-.4.3-.6.7-.7,1.3,0,.4-.2.7-.3,1.1,0,.3-.1.7-.2,1.1-.1.6,0,1,.2,1.3s.6.4,1,.4Z"/>
          <path class="st5" d="M53.7,107c0,0-.2,0-.2,0,0,0,0-.1,0-.2l1.8-8.5c0,0,0-.2.1-.2s.2,0,.3,0h1.4c.1,0,.2,0,.3,0,0,0,0,.1.1.2l2.1,5,1.1-5c0,0,0-.2.1-.2,0,0,.2,0,.2,0h1.6c0,0,.2,0,.2,0,0,0,0,.1,0,.2l-1.8,8.4c0,0,0,.2-.1.2,0,0-.2,0-.3,0h-1.4c-.1,0-.2,0-.3,0,0,0,0-.1-.1-.1l-2.1-4.8-1,4.8c0,0,0,.2-.1.2,0,0-.2,0-.3,0h-1.6Z"/>
        </g>
        <g class="st7">
          <path class="st5" d="M65.1,107c0,0-.2,0-.2,0,0,0,0-.1,0-.2l1.4-6.7h-2.3c0,0-.2,0-.2,0,0,0,0-.1,0-.2l.3-1.4c0,0,0-.2.1-.2,0,0,.2,0,.3,0h7c0,0,.2,0,.2,0,0,0,0,.1,0,.2l-.3,1.4c0,0,0,.2-.1.2,0,0-.2,0-.3,0h-2.3l-1.4,6.7c0,0,0,.2-.1.2,0,0-.2,0-.3,0h-1.7Z"/>
        </g>
        <g class="st7">
          <path class="st5" d="M69.5,107c-.1,0-.2,0-.2-.1,0,0,0-.2,0-.3l4.8-8.3c0,0,.1-.2.2-.3,0,0,.2-.1.4-.1h2c.1,0,.3,0,.3.1,0,0,.1.2.1.3l1.3,8.3c0,.1,0,.2,0,.3s-.1.1-.2.1h-1.6c-.1,0-.2,0-.3,0s0-.1-.1-.2l-.2-1.3h-3.5l-.8,1.3c0,0-.1.1-.2.2,0,0-.2,0-.3,0h-1.7ZM73.4,103.5h2.4l-.5-3.4-1.9,3.4Z"/>
        </g>
        <g class="st7">
          <path class="st5" d="M83.1,107.1c-.6,0-1.1,0-1.6-.2-.5-.1-.9-.4-1.2-.7-.3-.3-.5-.7-.7-1.1s-.1-.9,0-1.5c0-.4.1-.7.2-1.1s.2-.8.3-1.2c.2-.8.5-1.4.9-1.9s.9-.9,1.5-1.2c.6-.3,1.3-.4,2.2-.4s1.1,0,1.5.2c.5.1.9.3,1.2.6.3.3.6.6.7,1,.2.4.2.8,0,1.3,0,0,0,.1-.1.2,0,0-.1,0-.2,0h-1.8c-.1,0-.2,0-.3,0,0,0,0-.1-.1-.3,0-.5-.1-.8-.4-.9-.2-.2-.6-.3-1-.3s-.9.1-1.2.4c-.3.3-.6.7-.7,1.3-.2.7-.3,1.4-.5,2.2-.1.6,0,1.1.2,1.3.2.3.6.4,1,.4s.8,0,1.1-.3c.3-.2.6-.5.8-.9,0-.1.1-.2.2-.3,0,0,.2,0,.3,0h1.8c0,0,.1,0,.2,0,0,0,0,.1,0,.2-.1.5-.3.9-.6,1.3s-.6.7-1,1c-.4.3-.8.5-1.3.6-.5.1-1.1.2-1.7.2Z"/>
          <path class="st5" d="M90.6,107c0,0-.2,0-.2,0,0,0,0-.1,0-.2l1.4-6.7h-2.3c0,0-.2,0-.2,0,0,0,0-.1,0-.2l.3-1.4c0,0,0-.2.1-.2,0,0,.2,0,.3,0h7c0,0,.2,0,.2,0s0,.1,0,.2l-.3,1.4c0,0,0,.2-.1.2,0,0-.2,0-.3,0h-2.3l-1.4,6.7c0,0,0,.2-.1.2,0,0-.2,0-.3,0h-1.7Z"/>
        </g>
      </g>
      <path class="st0" d="M51.4,30.5c2.7-.4,4.4-4,3.8-8.1-.6-4.1-3.2-7.1-5.9-6.7-2.7.4-4.4,4-3.8,8.1.6,4.1,3.2,7.1,5.9,6.7Z"/>
      <path class="st0" d="M92.5,43.5l-23.7,2.7s-6.8,2.7-6.8,8.1-.7,10.8-.7,10.8c0,0,2,2.9,4.7,0,2.7-2.8,4.9-5.5,4.9-5.5l10-4.8s-6.2-2.1,2.7,0c8.9,2.1,8.9,4.1,8.9,2.1s-1.9,2.7.7-2.1c2.6-4.7.6-4.7.6-4.7l1.4-5.4-2.8-1.4h0Z"/>
    </g>
    <g>
      <path class="st4" d="M17.8,157.2c.5.1,2.9,2.3,7.2,2.2l79-.3c1.8,0,3.9-1.1,5.3-1.8l10.7-4.7c.5-.2,1.9-.7,3.5-.6,1.4,0,1.7,2,.5,2.6-.5.2-2,.9-2.6,1.1l-11.5,5.7c-.8.3-3.7,1.1-4.6,1.1l-10.3-.4-10.6-.2-41.2-.2c-.4,0-.8,0-1.1,0l-7.4.4c0,0-1.5.3-1.5.3h-4.3c-5.5,0-8.6-1.1-11.8-2.4l-7.8-3.1c-4.9-2.3-7.8-4-7.8-4-1.1-.8-1.2-1.4-.6-2.6.5-1,1.9-.8,3.8.3,2.7,1.6,5,2.7,7.8,4.1l5.3,2.3h0Z"/>
      <path class="st6" d="M99.4,173.3c2.7-.2,4.4-2.7,3.8-5.4-.6-2.8-3.2-4.8-5.9-4.5-2.7.2-3.8,2.6-3.8,5.4s3.2,4.8,5.9,4.5"/>
      <path class="st3" d="M99.4,173.2c2.7-.2,4.4-2.7,3.8-5.4-.6-2.7-3.2-4.7-5.9-4.5-2.7.2-4.7,2.7-3.8,5.4s3.4,4.5,5.9,4.5Z"/>
      <path class="st6" d="M34,173.5c2.7-.3,2.6-2.9,2.1-5.9-.6-3-1.5-5.1-4.1-4.9-2.7.3-6.2,2.9-5.6,5.9.6,3,5,5.1,7.7,4.9"/>
      <path class="st3" d="M33.9,172.8c2.7-.2,2.6-2.6,2-5.4-.6-2.7-1.4-4.7-4.1-4.4s-6.2,2.6-5.6,5.4c.6,2.7,5,4.7,7.7,4.4h0Z"/>
      <ellipse class="st1" cx="99.1" cy="168.4" rx=".9" ry="1.2"/>
      <circle class="st1" cx="31.7" cy="167.8" r="1.1"/>
    </g>
  </g>
</svg>