<?xml version="1.0" encoding="UTF-8"?>
<svg id="Ebene_2" xmlns="http://www.w3.org/2000/svg" viewBox="0 0 125.29 173.58">
  <defs>
    <style>
      .cls-1, .cls-2, .cls-3, .cls-4 {
        fill: none;
      }

      .cls-1, .cls-2, .cls-3, .cls-4, .cls-5, .cls-6 {
        stroke: #1d1d1b;
      }

      .cls-2 {
        stroke-width: .98px;
      }

      .cls-3 {
        stroke-width: .81px;
      }

      .cls-4 {
        stroke-width: .81px;
      }

      .cls-5, .cls-7, .cls-6 {
        fill: #fbf7d0;
      }

      .cls-5, .cls-6 {
        stroke-miterlimit: 10;
      }

      .cls-8 {
        fill: #1d1d1b;
        font-family: Rubik-BoldItalic, Rubik;
        font-size: 13px;
        font-style: italic;
        font-weight: 700;
      }

      .cls-6 {
        stroke-width: .75px;
      }

      .cls-9 {
        letter-spacing: 0em;
      }

      .cls-10 {
        letter-spacing: -.07em;
      }

      .cls-11 {
        letter-spacing: -.02em;
      }

      .cls-12 {
        letter-spacing: -.01em;
      }
    </style>
  </defs>
  <g id="Ebene_1-2" data-name="Ebene_1">
    <g>
      <path class="cls-7" d="M51.43,30.47c2.7-.38,4.42-4.01,3.85-8.11-.58-4.1-3.24-7.12-5.94-6.74-2.7.38-4.42,4.01-3.85,8.11.58,4.1,3.23,7.12,5.94,6.74"/>
      <path class="cls-7" d="M92.53,43.51l-23.69,2.71s-6.76,2.71-6.76,8.13-.68,10.84-.68,10.84c0,0,2.03,2.88,4.73.08,2.7-2.79,4.88-5.5,4.88-5.5l9.99-4.77s-6.19-2.06,2.71,0c8.89,2.06,8.89,4.11,8.89,2.06s-1.93,2.66.68-2.06c2.6-4.72.59-4.72.59-4.72l1.42-5.42-2.76-1.36Z"/>
      <path class="cls-7" d="M34.75,118.08s-11,1.09-14-19.37-.47-54.57-.47-63.66-15.47-4.55,6.5-15.91c21.97-11.37,10.72-15.92,42.85-13.64,32.13,2.27,32.13-11.37,33.13-1.14,1,10.23.49,67.07.49,73.89s.63,19.28.63,29.56,14.12,11.43.5,11.43c-8.99,0-29.03.49-41.62.83-6.49.17-10.99.31-10.99.31,0,0-3.88-2.36-7.88-2.36s-9.12.08-9.12.08"/>
      <path class="cls-1" d="M34.75,118.08s-11,1.09-14-19.37-.47-54.57-.47-63.66-15.47-4.55,6.5-15.91c21.97-11.37,10.72-15.92,42.85-13.64,32.13,2.27,32.13-11.37,33.13-1.14,1,10.23.49,67.07.49,73.89s.63,19.28.63,29.56,14.12,11.43.5,11.43c-8.99,0-29.03.49-41.62.83-6.49.17-10.99.31-10.99.31,0,0-3.88-2.36-7.88-2.36s-9.12.08-9.12.08Z"/>
      <path class="cls-7" d="M43.32,135.98v15s-11.92,8.6-4.44,7.6c7.48-1,14.99-5.6,14.99-5.6,0,0,.32,4.6.32-6.2s.5-15.8.5-15.8l.19-10.32-11-1.87-.56,17.19Z"/>
      <path class="cls-1" d="M43.32,135.98v15s-11.92,8.6-4.44,7.6c7.48-1,14.99-5.6,14.99-5.6,0,0,.32,4.6.32-6.2s.5-15.8.5-15.8l.19-10.32-11-1.87-.56,17.19Z"/>
      <path class="cls-7" d="M72.88,120.29c1,15.37,5.53,21.13,5.53,24.97s-5.18,1.92-1.86,6.72c3.33,4.8,8.33,9.34,17.33,4.8,9-4.54,14-8.64,14-8.64l-7-3.84s-6.63,14.41-10.82-2.88c-4.18-17.29-5.18-21.13-5.18-21.13h-12Z"/>
      <path class="cls-2" d="M72.88,120.29c1,15.37,5.53,21.13,5.53,24.97s-5.18,1.92-1.86,6.72c3.33,4.8,8.33,9.34,17.33,4.8,9-4.54,14-8.64,14-8.64l-7-3.84s-6.63,14.41-10.82-2.88c-4.18-17.29-5.18-21.13-5.18-21.13h-12Z"/>
      <text class="cls-8" transform="translate(34.96 93.49)"><tspan x="0" y="0">GE</tspan><tspan class="cls-11" x="17.65" y="0">T</tspan><tspan class="cls-9" x="25.51" y="0" xml:space="preserve"> IN </tspan></text>
      <text class="cls-8" transform="translate(34.96 106.97)"><tspan x="0" y="0">CON</tspan><tspan class="cls-10" x="27.73" y="0">T</tspan><tspan class="cls-12" x="34.93" y="0">A</tspan><tspan x="44.13" y="0">CT</tspan></text>
      <path class="cls-1" d="M51.43,30.47c2.7-.38,4.42-4.01,3.85-8.11-.58-4.1-3.24-7.12-5.94-6.74-2.7.38-4.42,4.01-3.85,8.11.58,4.1,3.23,7.12,5.94,6.74Z"/>
      <path class="cls-1" d="M92.53,43.51l-23.69,2.71s-6.76,2.71-6.76,8.13-.68,10.84-.68,10.84c0,0,2.03,2.88,4.73.08,2.7-2.79,4.88-5.5,4.88-5.5l9.99-4.77s-6.19-2.06,2.71,0c8.89,2.06,8.89,4.11,8.89,2.06s-1.93,2.66.68-2.06c2.6-4.72.59-4.72.59-4.72l1.42-5.42-2.76-1.36Z"/>
    </g>
    <g>
      <path class="cls-5" d="M17.76,157.23c.46.14,2.86,2.27,7.21,2.24l79.04-.3c1.82,0,3.91-1.1,5.34-1.77l10.74-4.66c.54-.25,1.94-.68,3.46-.59,1.39.09,1.74,2.02.46,2.55-.46.19-2,.85-2.6,1.1l-11.53,5.68c-.79.32-3.74,1.08-4.59,1.09l-10.32-.35-10.58-.2-41.19-.18c-.37,0-.75.01-1.12.05l-7.41.37c-.06,0-1.48.34-1.54.34l-4.31-.02c-5.53,0-8.62-1.09-11.75-2.4l-7.8-3.06c-4.9-2.28-7.81-4.02-7.81-4.02-1.07-.83-1.16-1.37-.57-2.58.48-.98,1.93-.75,3.76.33,2.65,1.56,4.99,2.71,7.81,4.05l5.33,2.34Z"/>
      <path class="cls-7" d="M99.39,173.25c2.7-.25,4.42-2.69,3.85-5.43-.58-2.75-3.24-4.77-5.94-4.51-2.7.25-3.85,2.63-3.85,5.43,0,3.36,3.23,4.77,5.94,4.51"/>
      <path class="cls-4" d="M99.39,173.17c2.7-.25,4.42-2.66,3.85-5.39-.58-2.72-3.24-4.73-5.94-4.47-2.7.25-4.71,2.74-3.85,5.39s3.38,4.52,5.94,4.47Z"/>
      <path class="cls-7" d="M33.99,173.46c2.7-.27,2.64-2.89,2.06-5.85-.58-2.96-1.45-5.13-4.15-4.86-2.7.27-6.21,2.89-5.64,5.85.58,2.96,5.02,5.13,7.72,4.86"/>
      <path class="cls-3" d="M33.92,172.83c2.67-.25,2.59-2.65,2.02-5.35-.57-2.7-1.41-4.69-4.08-4.44-2.67.25-6.16,2.65-5.59,5.35.57,2.7,4.99,4.69,7.66,4.44Z"/>
      <ellipse class="cls-6" cx="99.06" cy="168.36" rx=".88" ry="1.24"/>
      <circle class="cls-6" cx="31.69" cy="167.8" r="1.14"/>
    </g>
  </g>
</svg>