<?xml version="1.0" encoding="UTF-8"?>
<svg id="Ebene_2" xmlns="http://www.w3.org/2000/svg" version="1.1" viewBox="0 0 130 185.2">
  <!-- Generator: Adobe Illustrator 29.2.0, SVG Export Plug-In . SVG Version: 2.1.0 Build 108)  -->
  <defs>
    <style>
      .st0, .st1, .st2, .st3 {
        stroke: #1d1d1b;
      }

      .st0, .st2 {
        fill: none;
      }

      .st4 {
        fill: #1d1d1b;
      }

      .st1 {
        stroke-width: .8px;
      }

      .st1, .st5, .st3 {
        fill: #fbf7d0;
      }

      .st1, .st3 {
        stroke-miterlimit: 10;
      }

      .st6 {
        isolation: isolate;
      }

      .st2 {
        stroke-width: .8px;
      }
    </style>
  </defs>
  <g id="Ebene_1-2">
    <g>
      <path class="st5" d="M53.9,118.1s-11,1.1-14-19.4-.5-54.6-.5-63.7-15.5-4.5,6.5-15.9c22-11.4,10.7-15.9,42.8-13.6,32.1,2.3,32.1-11.4,33.1-1.1s.5,67.1.5,73.9.6,19.3.6,29.6,14.1,11.4.5,11.4-29,.5-41.6.8c-6.5.2-11,.3-11,.3,0,0-3.9-2.4-7.9-2.4s-9.1,0-9.1,0"/>
      <path class="st0" d="M53.9,118.1s-11,1.1-14-19.4-.5-54.6-.5-63.7-15.5-4.5,6.5-15.9c22-11.4,10.7-15.9,42.8-13.6,32.1,2.3,32.1-11.4,33.1-1.1s.5,67.1.5,73.9.6,19.3.6,29.6,14.1,11.4.5,11.4-29,.5-41.6.8c-6.5.2-11,.3-11,.3,0,0-3.9-2.4-7.9-2.4s-9.1,0-9.1,0h0Z"/>
      <path class="st5" d="M62.5,136v15s-11.9,8.6-4.4,7.6,15-5.6,15-5.6c0,0,.3,4.6.3-6.2s.5-15.8.5-15.8l.2-10.3-11-1.9-.6,17.2Z"/>
      <path class="st0" d="M62.5,136v15s-11.9,8.6-4.4,7.6,15-5.6,15-5.6c0,0,.3,4.6.3-6.2s.5-15.8.5-15.8l.2-10.3-11-1.9-.6,17.2Z"/>
      <path class="st5" d="M92,120.3c1,16,5.5,22,5.5,26s-5.2,2-1.9,7c3.3,5,8.3,9.7,17.3,5s14-9,14-9l-7-4s-6.6,15-10.8-3-5.2-22-5.2-22c0,0-12,0-12,0Z"/>
      <path class="st0" d="M92,120.3c1,16,5.5,22,5.5,26s-5.2,2-1.9,7c3.3,5,8.3,9.7,17.3,5s14-9,14-9l-7-4s-6.6,15-10.8-3-5.2-22-5.2-22c0,0-12,0-12,0Z"/>
      <path class="st5" d="M70.6,30.5c2.7-.4,4.4-4,3.8-8.1-.6-4.1-3.2-7.1-5.9-6.7-2.7.4-4.4,4-3.8,8.1.6,4.1,3.2,7.1,5.9,6.7"/>
      <path class="st0" d="M70.6,30.5c2.7-.4,4.4-4,3.8-8.1-.6-4.1-3.2-7.1-5.9-6.7-2.7.4-4.4,4-3.8,8.1.6,4.1,3.2,7.1,5.9,6.7Z"/>
      <path class="st5" d="M23.8,78.8l38.6-3.4s11-3.4,11-10.2,1.1-13.7,1.1-13.7c0,0-3.3-3.6-7.7-.1-4.4,3.5-8,6.9-8,6.9l-16.3,6s10.1,2.6-4.4,0c-14.5-2.6-14.5-5.2-14.5-2.6s3.1-3.4-1.1,2.6c-4.2,5.9-1,5.9-1,5.9l-2.3,6.8s4.5,1.7,4.5,1.7Z"/>
      <path class="st0" d="M23.8,78.8l38.6-3.4s11-3.4,11-10.2,1.1-13.7,1.1-13.7c0,0-3.3-3.6-7.7-.1-4.4,3.5-8,6.9-8,6.9l-16.3,6s10.1,2.6-4.4,0c-14.5-2.6-14.5-5.2-14.5-2.6s3.1-3.4-1.1,2.6c-4.2,5.9-1,5.9-1,5.9l-2.3,6.8s4.5,1.7,4.5,1.7Z"/>
    </g>
    <g>
      <path class="st3" d="M16.3,77.7c-.1.5-2.3,2.9-2.2,7.2l.7,80.9c0-2.3.4.4,1,1.8l5,12.4c.2.5.7,1.9.6,3.5,0,1.4-2,1.7-2.5.5-.2-.5-.9-2-1.1-2.6l-5.7-11.5c-.3-.8-.6-3.3-.7-4.1l-.5-11.2.6-10.2.2-41.2c0-.4,0-.8,0-1.1l-.4-7.4c0,0-.3-1.5-.3-1.5v-4.3c0-5.5,1.1-8.6,2.4-11.8l3.1-7.8c2.3-4.9,4-7.8,4-7.8.8-1.1,1.4-1.2,2.6-.6,1,.5.8,1.9-.3,3.8-1.6,2.7-2.7,5-4.1,7.8l-2.3,5.3h0Z"/>
      <path class="st5" d="M.3,159.3c.3,2.7,2.7,4.4,5.4,3.9,2.8-.6,4.8-3.2,4.5-5.9-.2-2.7-2.6-3.9-5.4-3.9s-4.8,3.2-4.5,5.9"/>
      <path class="st2" d="M.4,159.3c.2,2.7,2.7,4.4,5.4,3.9,2.7-.6,4.7-3.2,4.5-5.9-.2-2.7-2.7-4.7-5.4-3.9s-4.5,3.4-4.5,5.9Z"/>
      <path class="st5" d="M.1,93.9c.3,2.7,2.9,2.6,5.8,2.1,3-.6,5.1-1.4,4.9-4.2-.3-2.7-2.9-6.2-5.8-5.6-3,.6-5.1,5-4.9,7.7"/>
      <path class="st2" d="M.7,93.9c.2,2.7,2.7,2.6,5.4,2,2.7-.6,4.7-1.4,4.4-4.1s-2.7-6.2-5.3-5.6c-2.7.6-4.7,5-4.4,7.7h0Z"/>
      <ellipse class="st1" cx="5.2" cy="159" rx="1.2" ry=".9"/>
      <circle class="st1" cx="5.8" cy="91.6" r="1.1"/>
    </g>
    <g class="st6">
      <g class="st6">
        <path class="st4" d="M57.9,95c-.8,0-1.5-.1-2-.4-.5-.3-.9-.7-1.1-1.2-.2-.5-.3-1.2-.1-1.9,0-.4.1-.8.2-1.2,0-.4.2-.8.3-1.2.2-.7.5-1.4.9-1.9.4-.5,1-.9,1.6-1.2.7-.3,1.4-.4,2.2-.4s1.2,0,1.7.2c.5.2.8.4,1.1.6.3.3.5.6.6.9s.1.6,0,.9c0,0,0,.1-.1.2,0,0-.1,0-.2,0h-1.9c0,0-.2,0-.2,0s0,0-.1-.1c0-.1,0-.3-.2-.4,0-.1-.2-.3-.4-.4-.2-.1-.4-.2-.8-.2-.5,0-.9.1-1.2.4s-.6.7-.7,1.2c0,.4-.2.7-.3,1.1,0,.4-.2.8-.2,1.1-.1.6,0,1,.2,1.3.2.3.6.4,1.1.4s.6,0,.9-.2c.3-.1.5-.3.7-.5.2-.2.3-.5.4-.9v-.2c0,0-1.2,0-1.2,0,0,0-.2,0-.2,0,0,0,0-.1,0-.2l.2-1c0,0,0-.2.1-.2,0,0,.2,0,.3,0h3.3c0,0,.2,0,.2,0,0,0,0,.1,0,.2l-.3,1.5c-.2.7-.5,1.4-.9,1.9s-1,.9-1.7,1.2c-.7.3-1.4.4-2.3.4Z"/>
        <path class="st4" d="M63.7,94.8c0,0-.2,0-.2,0,0,0,0-.1,0-.2l1.8-8.5c0,0,0-.2.1-.2,0,0,.2,0,.2,0h6.1c0,0,.2,0,.2,0s0,.1,0,.2l-.3,1.2c0,0,0,.2-.1.2,0,0-.2,0-.3,0h-4.1l-.4,1.8h3.9c0,0,.2,0,.2,0,0,0,0,.1,0,.2l-.2,1.1c0,0,0,.2-.1.2,0,0-.2,0-.3,0h-3.9l-.4,1.8h4.2c0,0,.2,0,.2,0s0,.1,0,.2l-.3,1.2c0,0,0,.2-.1.2,0,0-.2,0-.3,0h-6.2Z"/>
      </g>
      <g class="st6">
        <path class="st4" d="M74,94.8c0,0-.2,0-.2,0,0,0,0-.1,0-.2l1.4-6.7h-2.3c0,0-.2,0-.2,0,0,0,0-.1,0-.2l.3-1.4c0,0,0-.2.1-.2,0,0,.2,0,.3,0h7c0,0,.2,0,.2,0,0,0,0,.1,0,.2l-.3,1.4c0,0,0,.2-.1.2,0,0-.2,0-.3,0h-2.3l-1.4,6.7c0,0,0,.2-.1.2,0,0-.2,0-.3,0h-1.7Z"/>
      </g>
      <g class="st6">
        <path class="st4" d="M82.7,94.8c0,0-.2,0-.2,0,0,0,0-.1,0-.2l1.8-8.5c0,0,0-.2.1-.2,0,0,.2,0,.2,0h1.8c0,0,.2,0,.2,0,0,0,0,.1,0,.2l-1.8,8.5c0,0,0,.2-.1.2,0,0-.2,0-.2,0h-1.8Z"/>
        <path class="st4" d="M86.9,94.8c0,0-.2,0-.2,0,0,0,0-.1,0-.2l1.8-8.5c0,0,0-.2.1-.2,0,0,.2,0,.3,0h1.4c.1,0,.2,0,.3,0,0,0,0,.1.1.2l2.1,5,1.1-5c0,0,0-.2.1-.2,0,0,.2,0,.2,0h1.6c0,0,.2,0,.2,0s0,.1,0,.2l-1.8,8.4c0,0,0,.2-.1.2,0,0-.2,0-.3,0h-1.4c-.1,0-.2,0-.3,0,0,0,0-.1-.1-.1l-2.1-4.8-1,4.8c0,0,0,.2-.1.2,0,0-.2,0-.3,0h-1.6Z"/>
      </g>
    </g>
    <g class="st6">
      <g class="st6">
        <path class="st4" d="M57.9,108.4c-.6,0-1.1,0-1.6-.2s-.9-.4-1.2-.7-.5-.7-.7-1.1c-.1-.4-.1-.9,0-1.5,0-.4.1-.7.2-1.1,0-.4.2-.8.3-1.2.2-.8.5-1.4.9-1.9.4-.5.9-.9,1.5-1.2.6-.3,1.3-.4,2.2-.4s1.1,0,1.5.2c.5.1.9.3,1.2.6.3.3.6.6.7,1,.2.4.2.8,0,1.3,0,0,0,.1-.1.2,0,0-.1,0-.2,0h-1.8c-.1,0-.2,0-.3,0,0,0,0-.1-.1-.3,0-.5-.1-.8-.4-.9-.2-.2-.6-.3-1-.3s-.9.1-1.2.4c-.3.3-.6.7-.7,1.3-.2.7-.3,1.4-.5,2.2-.1.6,0,1.1.2,1.3.2.3.6.4,1,.4s.8,0,1.1-.3c.3-.2.6-.5.8-.9,0-.1.1-.2.2-.3,0,0,.2,0,.3,0h1.8c0,0,.1,0,.2,0s0,.1,0,.2c-.1.5-.3.9-.6,1.3-.3.4-.6.7-1,1-.4.3-.8.5-1.3.6-.5.1-1.1.2-1.7.2Z"/>
        <path class="st4" d="M67,108.4c-.5,0-1.1,0-1.5-.2-.5-.1-.9-.4-1.2-.7-.3-.3-.6-.7-.7-1.1-.1-.4-.2-1,0-1.5,0-.4.1-.7.2-1.1,0-.4.2-.8.3-1.1.3-1.2.8-2.1,1.5-2.7.7-.6,1.8-.9,3-.9s1.1,0,1.5.2c.5.2.9.4,1.2.7.3.3.6.7.7,1.1.1.4.1,1,0,1.5,0,.4-.1.7-.2,1.1,0,.4-.2.8-.3,1.1-.3,1.2-.8,2.1-1.6,2.7s-1.7.9-3,.9ZM67.2,106.6c.5,0,.9-.1,1.2-.4.4-.3.6-.7.7-1.3,0-.4.2-.7.3-1.1,0-.3.1-.7.2-1.1.1-.6,0-1-.2-1.3-.2-.3-.6-.4-1-.4s-.9.1-1.2.4c-.4.3-.6.7-.7,1.3,0,.4-.2.7-.3,1.1,0,.3-.1.7-.2,1.1-.1.6,0,1,.2,1.3s.6.4,1,.4Z"/>
        <path class="st4" d="M72.7,108.3c0,0-.2,0-.2,0,0,0,0-.1,0-.2l1.8-8.5c0,0,0-.2.1-.2,0,0,.2,0,.3,0h1.4c.1,0,.2,0,.3,0s0,.1.1.2l2.1,5,1.1-5c0,0,0-.2.1-.2s.2,0,.2,0h1.6c0,0,.2,0,.2,0,0,0,0,.1,0,.2l-1.8,8.4c0,0,0,.2-.1.2,0,0-.2,0-.3,0h-1.4c-.1,0-.2,0-.3,0,0,0,0-.1-.1-.1l-2.1-4.8-1,4.8c0,0,0,.2-.1.2,0,0-.2,0-.3,0h-1.6Z"/>
      </g>
      <g class="st6">
        <path class="st4" d="M84.1,108.3c0,0-.2,0-.2,0,0,0,0-.1,0-.2l1.4-6.7h-2.3c0,0-.2,0-.2,0,0,0,0-.1,0-.2l.3-1.4c0,0,0-.2.1-.2,0,0,.2,0,.3,0h7c0,0,.2,0,.2,0,0,0,0,.1,0,.2l-.3,1.4c0,0,0,.2-.1.2,0,0-.2,0-.3,0h-2.3l-1.4,6.7c0,0,0,.2-.1.2,0,0-.2,0-.3,0h-1.7Z"/>
      </g>
      <g class="st6">
        <path class="st4" d="M88.5,108.3c-.1,0-.2,0-.2-.1,0,0,0-.2,0-.3l4.8-8.3c0,0,.1-.2.2-.3,0,0,.2-.1.4-.1h2c.1,0,.3,0,.3.1,0,0,.1.2.1.3l1.3,8.3c0,.1,0,.2,0,.3s-.1.1-.2.1h-1.6c-.1,0-.2,0-.3,0,0,0,0-.1-.1-.2l-.2-1.3h-3.5l-.8,1.3c0,0-.1.1-.2.2,0,0-.2,0-.3,0h-1.7ZM92.3,104.8h2.4l-.5-3.4-1.9,3.4Z"/>
      </g>
      <g class="st6">
        <path class="st4" d="M102.1,108.4c-.6,0-1.1,0-1.6-.2-.5-.1-.9-.4-1.2-.7-.3-.3-.5-.7-.7-1.1s-.1-.9,0-1.5c0-.4.1-.7.2-1.1s.2-.8.3-1.2c.2-.8.5-1.4.9-1.9s.9-.9,1.5-1.2c.6-.3,1.3-.4,2.2-.4s1.1,0,1.5.2c.5.1.9.3,1.2.6.3.3.6.6.7,1,.2.4.2.8,0,1.3,0,0,0,.1-.1.2,0,0-.1,0-.2,0h-1.8c-.1,0-.2,0-.3,0,0,0,0-.1-.1-.3,0-.5-.1-.8-.4-.9-.2-.2-.6-.3-1-.3s-.9.1-1.2.4c-.3.3-.6.7-.7,1.3-.2.7-.3,1.4-.5,2.2-.1.6,0,1.1.2,1.3.2.3.6.4,1,.4s.8,0,1.1-.3c.3-.2.6-.5.8-.9,0-.1.1-.2.2-.3,0,0,.2,0,.3,0h1.8c0,0,.1,0,.2,0,0,0,0,.1,0,.2-.1.5-.3.9-.6,1.3s-.6.7-1,1c-.4.3-.8.5-1.3.6-.5.1-1.1.2-1.7.2Z"/>
        <path class="st4" d="M109.5,108.3c0,0-.2,0-.2,0,0,0,0-.1,0-.2l1.4-6.7h-2.3c0,0-.2,0-.2,0,0,0,0-.1,0-.2l.3-1.4c0,0,0-.2.1-.2,0,0,.2,0,.3,0h7c0,0,.2,0,.2,0s0,.1,0,.2l-.3,1.4c0,0,0,.2-.1.2,0,0-.2,0-.3,0h-2.3l-1.4,6.7c0,0,0,.2-.1.2,0,0-.2,0-.3,0h-1.7Z"/>
      </g>
    </g>
  </g>
</svg>