<?xml version="1.0" encoding="utf-8"?>
<!-- Generator: Adobe Illustrator 27.5.0, SVG Export Plug-In . SVG Version: 6.00 Build 0)  -->
<svg version="1.1" id="Ebene_2_00000001650449601150275780000015413507603675641737_"
	 xmlns="http://www.w3.org/2000/svg" xmlns:xlink="http://www.w3.org/1999/xlink" x="0px" y="0px" viewBox="0 0 130 185.2"
	 style="enable-background:new 0 0 130 185.2;" xml:space="preserve">
<style type="text/css">
	.st0{fill:#FBF7D0;}
	.st1{fill:none;stroke:#1D1D1B;}
	.st2{fill:#FBF7D0;stroke:#1D1D1B;stroke-miterlimit:10;}
	.st3{fill:none;stroke:#1D1D1B;stroke-width:0.8;}
	.st4{fill:#FBF7D0;stroke:#1D1D1B;stroke-width:0.8;stroke-miterlimit:10;}
</style>
<g id="Ebene_1-2">
	<g>
		<path class="st0" d="M53.9,118.1c0,0-11,1.1-14-19.4S39.4,44.1,39.4,35s-15.5-4.5,6.5-15.9S56.6,3.2,88.7,5.5s32.1-11.4,33.1-1.1
			s0.5,67.1,0.5,73.9s0.6,19.3,0.6,29.6s14.1,11.4,0.5,11.4s-29,0.5-41.6,0.8c-6.5,0.2-11,0.3-11,0.3s-3.9-2.4-7.9-2.4s-9.1,0-9.1,0
			"/>
		<path class="st1" d="M53.9,118.1c0,0-11,1.1-14-19.4S39.4,44.1,39.4,35s-15.5-4.5,6.5-15.9S56.6,3.2,88.7,5.5s32.1-11.4,33.1-1.1
			s0.5,67.1,0.5,73.9s0.6,19.3,0.6,29.6s14.1,11.4,0.5,11.4s-29,0.5-41.6,0.8c-6.5,0.2-11,0.3-11,0.3s-3.9-2.4-7.9-2.4s-9.1,0-9.1,0
			l0,0L53.9,118.1z"/>
		<path class="st0" d="M62.5,136v15c0,0-11.9,8.6-4.4,7.6s15-5.6,15-5.6s0.3,4.6,0.3-6.2s0.5-15.8,0.5-15.8l0.2-10.3l-11-1.9
			L62.5,136z"/>
		<path class="st1" d="M62.5,136v15c0,0-11.9,8.6-4.4,7.6s15-5.6,15-5.6s0.3,4.6,0.3-6.2s0.5-15.8,0.5-15.8l0.2-10.3l-11-1.9
			L62.5,136z"/>
		<path class="st0" d="M92,120.3c1,16,5.5,22,5.5,26s-5.2,2-1.9,7c3.3,5,8.3,9.7,17.3,5s14-9,14-9l-7-4c0,0-6.6,15-10.8-3
			s-5.2-22-5.2-22h-12H92z"/>
		<path class="st1" d="M92,120.3c1,16,5.5,22,5.5,26s-5.2,2-1.9,7c3.3,5,8.3,9.7,17.3,5s14-9,14-9l-7-4c0,0-6.6,15-10.8-3
			s-5.2-22-5.2-22h-12H92z"/>
		<path class="st0" d="M70.6,30.5c2.7-0.4,4.4-4,3.8-8.1s-3.2-7.1-5.9-6.7c-2.7,0.4-4.4,4-3.8,8.1S67.9,30.9,70.6,30.5"/>
		<path class="st1" d="M70.6,30.5c2.7-0.4,4.4-4,3.8-8.1s-3.2-7.1-5.9-6.7c-2.7,0.4-4.4,4-3.8,8.1S67.9,30.9,70.6,30.5z"/>
		<path class="st0" d="M23.8,78.8l38.6-3.4c0,0,11-3.4,11-10.2s1.1-13.7,1.1-13.7s-3.3-3.6-7.7-0.1c-4.4,3.5-8,6.9-8,6.9l-16.3,6
			c0,0,10.1,2.6-4.4,0s-14.5-5.2-14.5-2.6c0,2.6,3.1-3.4-1.1,2.6c-4.2,5.9-1,5.9-1,5.9L19.2,77l4.5,1.7L23.8,78.8z"/>
		<path class="st1" d="M23.8,78.8l38.6-3.4c0,0,11-3.4,11-10.2s1.1-13.7,1.1-13.7s-3.3-3.6-7.7-0.1c-4.4,3.5-8,6.9-8,6.9l-16.3,6
			c0,0,10.1,2.6-4.4,0s-14.5-5.2-14.5-2.6c0,2.6,3.1-3.4-1.1,2.6c-4.2,5.9-1,5.9-1,5.9L19.2,77l4.5,1.7L23.8,78.8z"/>
	</g>
	<g>
		<path class="st2" d="M16.3,77.7c-0.1,0.5-2.3,2.9-2.2,7.2l0.7,80.9c0-2.3,0.4,0.4,1,1.8l5,12.4c0.2,0.5,0.7,1.9,0.6,3.5
			c0,1.4-2,1.7-2.5,0.5c-0.2-0.5-0.9-2-1.1-2.6l-5.7-11.5c-0.3-0.8-0.6-3.3-0.7-4.1l-0.5-11.2l0.6-10.2l0.2-41.2c0-0.4,0-0.8,0-1.1
			l-0.4-7.4L11,93.2v-4.3c0-5.5,1.1-8.6,2.4-11.8l3.1-7.8c2.3-4.9,4-7.8,4-7.8c0.8-1.1,1.4-1.2,2.6-0.6c1,0.5,0.8,1.9-0.3,3.8
			c-1.6,2.7-2.7,5-4.1,7.8l-2.3,5.3l0,0L16.3,77.7z"/>
		<path class="st0" d="M0.3,159.3c0.3,2.7,2.7,4.4,5.4,3.9c2.8-0.6,4.8-3.2,4.5-5.9c-0.2-2.7-2.6-3.9-5.4-3.9S0,156.6,0.3,159.3"/>
		<path class="st3" d="M0.4,159.3c0.2,2.7,2.7,4.4,5.4,3.9c2.7-0.6,4.7-3.2,4.5-5.9s-2.7-4.7-5.4-3.9S0.4,156.8,0.4,159.3z"/>
		<path class="st0" d="M0.1,93.9C0.4,96.6,3,96.5,5.9,96c3-0.6,5.1-1.4,4.9-4.2c-0.3-2.7-2.9-6.2-5.8-5.6C2,86.8-0.1,91.2,0.1,93.9"
			/>
		<path class="st3" d="M0.7,93.9c0.2,2.7,2.7,2.6,5.4,2s4.7-1.4,4.4-4.1s-2.7-6.2-5.3-5.6C2.5,86.8,0.5,91.2,0.7,93.9L0.7,93.9
			L0.7,93.9z"/>
		<ellipse class="st4" cx="5.2" cy="159" rx="1.2" ry="0.9"/>
		<circle class="st4" cx="5.8" cy="91.6" r="1.1"/>
	</g>
</g>
<g>
	<path d="M53.2,105c-0.7,0-1.3-0.1-1.7-0.3c-0.5-0.2-0.9-0.5-1.2-0.8c-0.3-0.4-0.5-0.8-0.6-1.3c-0.1-0.5-0.1-1,0-1.7
		c0.1-0.4,0.2-0.8,0.3-1.3c0.1-0.5,0.2-0.9,0.3-1.3c0.2-0.8,0.5-1.5,0.9-2.1c0.4-0.6,0.9-1.1,1.6-1.4c0.7-0.3,1.4-0.5,2.4-0.5
		c0.7,0,1.3,0.1,1.8,0.3c0.5,0.2,0.9,0.4,1.2,0.8c0.3,0.3,0.5,0.7,0.6,1.1c0.1,0.4,0.1,0.8,0,1.2c0,0.1,0,0.2-0.1,0.2
		c-0.1,0.1-0.1,0.1-0.2,0.1h-0.9c-0.1,0-0.2,0-0.2-0.1c-0.1,0-0.1-0.1-0.1-0.3c0.1-0.8-0.1-1.3-0.5-1.6c-0.4-0.3-1-0.5-1.7-0.5
		c-0.8,0-1.5,0.2-2.1,0.7c-0.6,0.5-1,1.2-1.3,2.2c-0.2,0.8-0.4,1.7-0.5,2.5c-0.2,1-0.1,1.7,0.3,2.2s0.9,0.7,1.7,0.7
		c0.7,0,1.3-0.1,1.9-0.4s1-0.8,1.3-1.6c0.1-0.1,0.1-0.2,0.2-0.3c0.1-0.1,0.1-0.1,0.2-0.1h0.9c0.1,0,0.2,0,0.2,0.1
		c0.1,0.1,0.1,0.1,0,0.2c-0.1,0.4-0.3,0.8-0.5,1.2c-0.2,0.4-0.5,0.8-0.9,1.1c-0.4,0.3-0.8,0.6-1.4,0.8C54.5,104.9,53.9,105,53.2,105
		z"/>
	<path d="M63.1,105c-0.6,0-1.1-0.1-1.6-0.2s-0.9-0.4-1.2-0.8c-0.3-0.3-0.5-0.8-0.6-1.3c-0.1-0.5-0.1-1.1,0-1.8
		c0.1-0.4,0.2-0.9,0.3-1.3c0.1-0.4,0.2-0.8,0.3-1.3c0.3-1.4,0.9-2.4,1.7-3.1c0.8-0.7,1.9-1,3.1-1c0.6,0,1.1,0.1,1.6,0.3
		c0.5,0.2,0.9,0.4,1.2,0.8c0.3,0.4,0.5,0.8,0.6,1.3c0.1,0.5,0.1,1.1,0,1.8c-0.1,0.4-0.2,0.9-0.3,1.3c-0.1,0.4-0.2,0.8-0.3,1.3
		c-0.3,1.4-0.9,2.5-1.8,3.1C65.4,104.6,64.4,105,63.1,105z M63.2,103.7c0.8,0,1.5-0.2,2.1-0.7c0.6-0.5,1-1.2,1.3-2.2
		c0.1-0.5,0.2-0.9,0.3-1.2c0.1-0.4,0.2-0.8,0.2-1.2c0.2-1,0.1-1.8-0.2-2.2c-0.3-0.5-0.9-0.7-1.7-0.7c-0.8,0-1.5,0.2-2.1,0.7
		s-1,1.2-1.3,2.2c-0.1,0.4-0.2,0.8-0.3,1.2c-0.1,0.4-0.2,0.8-0.2,1.2c-0.2,1-0.1,1.8,0.2,2.2C61.8,103.5,62.4,103.7,63.2,103.7z"/>
	<path d="M69.7,104.8c-0.1,0-0.2,0-0.2-0.1c-0.1-0.1-0.1-0.1,0-0.2l2.1-9.8c0-0.1,0.1-0.2,0.1-0.3c0.1-0.1,0.2-0.1,0.3-0.1h0.7
		c0.1,0,0.2,0,0.2,0.1c0,0,0.1,0.1,0.1,0.1l3.4,7.7l1.6-7.6c0-0.1,0.1-0.2,0.2-0.3c0.1-0.1,0.2-0.1,0.3-0.1h0.7c0.1,0,0.2,0,0.2,0.1
		c0,0.1,0.1,0.2,0,0.3l-2.1,9.8c0,0.1-0.1,0.2-0.1,0.3c-0.1,0.1-0.2,0.1-0.3,0.1h-0.7c-0.1,0-0.2,0-0.2-0.1c0,0-0.1-0.1-0.1-0.1
		L72.5,97l-1.6,7.5c0,0.1-0.1,0.2-0.1,0.2c-0.1,0.1-0.2,0.1-0.3,0.1H69.7z"/>
	<path d="M82.5,104.8c-0.1,0-0.2,0-0.2-0.1c-0.1-0.1-0.1-0.1,0-0.2l1.9-8.8h-2.9c-0.1,0-0.2,0-0.2-0.1s-0.1-0.1,0-0.2l0.1-0.6
		c0-0.1,0.1-0.2,0.1-0.3c0.1-0.1,0.2-0.1,0.3-0.1h7.2c0.1,0,0.2,0,0.2,0.1c0,0.1,0.1,0.2,0,0.3l-0.1,0.6c0,0.1-0.1,0.2-0.1,0.2
		s-0.2,0.1-0.3,0.1h-2.9l-1.9,8.8c0,0.1-0.1,0.2-0.1,0.2c-0.1,0.1-0.2,0.1-0.3,0.1H82.5z"/>
	<path d="M86.6,104.8c-0.1,0-0.2-0.1-0.3-0.2c0-0.1,0-0.2,0-0.3l5.8-9.7c0.1-0.1,0.1-0.2,0.2-0.2c0.1-0.1,0.2-0.1,0.3-0.1h1.1
		c0.1,0,0.2,0,0.3,0.1c0.1,0.1,0.1,0.1,0.1,0.2l1.7,9.7c0,0.1,0,0.3,0,0.3c-0.1,0.1-0.1,0.1-0.2,0.1h-0.8c-0.1,0-0.2,0-0.3-0.1
		c-0.1-0.1-0.1-0.1-0.1-0.2l-0.4-2.1h-4.9l-1.3,2.1c0,0.1-0.1,0.1-0.2,0.2c-0.1,0.1-0.2,0.1-0.3,0.1H86.6z M89.9,101.2h4.1L93,95.8
		L89.9,101.2z"/>
	<path d="M101,105c-0.7,0-1.3-0.1-1.7-0.3c-0.5-0.2-0.9-0.5-1.2-0.8c-0.3-0.4-0.5-0.8-0.6-1.3c-0.1-0.5-0.1-1,0-1.7
		c0.1-0.4,0.2-0.8,0.3-1.3c0.1-0.5,0.2-0.9,0.3-1.3c0.2-0.8,0.5-1.5,0.9-2.1c0.4-0.6,0.9-1.1,1.6-1.4c0.7-0.3,1.4-0.5,2.4-0.5
		c0.7,0,1.3,0.1,1.8,0.3c0.5,0.2,0.9,0.4,1.2,0.8c0.3,0.3,0.5,0.7,0.6,1.1c0.1,0.4,0.1,0.8,0,1.2c0,0.1,0,0.2-0.1,0.2
		c0,0.1-0.1,0.1-0.2,0.1h-0.9c-0.1,0-0.2,0-0.2-0.1c-0.1,0-0.1-0.1-0.1-0.3c0.1-0.8-0.1-1.3-0.5-1.6c-0.4-0.3-1-0.5-1.7-0.5
		c-0.8,0-1.5,0.2-2.1,0.7s-1,1.2-1.3,2.2c-0.2,0.8-0.4,1.7-0.5,2.5c-0.2,1-0.1,1.7,0.3,2.2c0.4,0.5,0.9,0.7,1.7,0.7
		c0.7,0,1.3-0.1,1.9-0.4s1-0.8,1.3-1.6c0.1-0.1,0.1-0.2,0.2-0.3c0.1-0.1,0.1-0.1,0.2-0.1h0.9c0.1,0,0.2,0,0.2,0.1
		c0,0.1,0.1,0.1,0,0.2c-0.1,0.4-0.3,0.8-0.5,1.2c-0.2,0.4-0.5,0.8-0.9,1.1c-0.4,0.3-0.8,0.6-1.4,0.8C102.4,104.9,101.8,105,101,105z
		"/>
	<path d="M109.6,104.8c-0.1,0-0.2,0-0.2-0.1c-0.1-0.1-0.1-0.1,0-0.2l1.9-8.8h-2.9c-0.1,0-0.2,0-0.2-0.1s-0.1-0.1,0-0.2l0.1-0.6
		c0-0.1,0.1-0.2,0.1-0.3c0.1-0.1,0.2-0.1,0.3-0.1h7.2c0.1,0,0.2,0,0.2,0.1c0,0.1,0.1,0.2,0,0.3l-0.1,0.6c0,0.1-0.1,0.2-0.1,0.2
		s-0.2,0.1-0.3,0.1h-2.9l-1.9,8.8c0,0.1-0.1,0.2-0.1,0.2c-0.1,0.1-0.2,0.1-0.3,0.1H109.6z"/>
</g>
</svg>
