<?xml version="1.0" encoding="UTF-8"?>
<svg id="Ebene_2" data-name="Ebene 2" xmlns="http://www.w3.org/2000/svg" xmlns:xlink="http://www.w3.org/1999/xlink" viewBox="0 0 403.25 381.72">
  <defs>
    <style>
      .cls-1 {
        fill: none;
      }

      .cls-2 {
        fill: #da91b3;
      }

      .cls-3 {
        fill: #1d1d1b;
      }

      .cls-4 {
        clip-path: url(#clippath-17);
      }

      .cls-5 {
        clip-path: url(#clippath-11);
      }

      .cls-6 {
        clip-path: url(#clippath-16);
      }

      .cls-7 {
        clip-path: url(#clippath-10);
      }

      .cls-8 {
        clip-path: url(#clippath-15);
      }

      .cls-9 {
        clip-path: url(#clippath-13);
      }

      .cls-10 {
        clip-path: url(#clippath-14);
      }

      .cls-11 {
        clip-path: url(#clippath-12);
      }

      .cls-12 {
        clip-path: url(#clippath-1);
      }

      .cls-13 {
        clip-path: url(#clippath-3);
      }

      .cls-14 {
        clip-path: url(#clippath-4);
      }

      .cls-15 {
        clip-path: url(#clippath-2);
      }

      .cls-16 {
        clip-path: url(#clippath-7);
      }

      .cls-17 {
        clip-path: url(#clippath-6);
      }

      .cls-18 {
        clip-path: url(#clippath-9);
      }

      .cls-19 {
        clip-path: url(#clippath-8);
      }

      .cls-20 {
        clip-path: url(#clippath-5);
      }

      .cls-21 {
        fill: #221f1d;
      }

      .cls-22 {
        fill: #fff;
      }

      .cls-23 {
        stroke: #1d1d1b;
        stroke-width: 1.72px;
      }

      .cls-24 {
        fill: #f7a4c5;
      }

      .cls-25 {
        clip-path: url(#clippath);
      }

      .cls-26 {
        fill: #fdd900;
      }
    </style>
    <clipPath id="clippath">
      <rect class="cls-1" x="124.5" width="133" height="125.5"/>
    </clipPath>
    <clipPath id="clippath-1">
      <rect class="cls-1" x="124.5" width="133" height="125.5"/>
    </clipPath>
    <clipPath id="clippath-2">
      <rect class="cls-1" x="124.5" width="133" height="125.5"/>
    </clipPath>
    <clipPath id="clippath-3">
      <rect class="cls-1" x="124.5" width="133" height="125.5"/>
    </clipPath>
    <clipPath id="clippath-4">
      <rect class="cls-1" x="124.5" width="133" height="125.5"/>
    </clipPath>
    <clipPath id="clippath-5">
      <rect class="cls-1" x="83.25" y="280.1" width="82.5" height="76.7"/>
    </clipPath>
    <clipPath id="clippath-6">
      <rect class="cls-1" y="163.4" width="100.3" height="45.6"/>
    </clipPath>
    <clipPath id="clippath-7">
      <rect class="cls-1" y="163.4" width="100.3" height="45.6"/>
    </clipPath>
    <clipPath id="clippath-8">
      <rect class="cls-1" y="163.4" width="100.3" height="45.6"/>
    </clipPath>
    <clipPath id="clippath-9">
      <rect class="cls-1" y="163.4" width="100.3" height="45.6"/>
    </clipPath>
    <clipPath id="clippath-10">
      <rect class="cls-1" y="163.4" width="100.3" height="45.6"/>
    </clipPath>
    <clipPath id="clippath-11">
      <rect class="cls-1" x="326.6" y="99.8" width="60" height="65.3"/>
    </clipPath>
    <clipPath id="clippath-12">
      <rect class="cls-1" x="286.99" y="255.25" width="58.56" height="24.51"/>
    </clipPath>
    <clipPath id="clippath-13">
      <rect class="cls-1" x="286.99" y="255.25" width="58.56" height="24.51"/>
    </clipPath>
    <clipPath id="clippath-14">
      <rect class="cls-1" x="286.99" y="255.25" width="58.56" height="24.51"/>
    </clipPath>
    <clipPath id="clippath-15">
      <rect class="cls-1" x="286.99" y="255.25" width="58.56" height="24.51"/>
    </clipPath>
    <clipPath id="clippath-16">
      <rect class="cls-1" x="286.99" y="255.25" width="58.56" height="24.51"/>
    </clipPath>
    <clipPath id="clippath-17">
      <polygon class="cls-1" points="132.55 337.6 158.85 336.7 158.15 302.5 131.85 303.3 132.55 337.6"/>
    </clipPath>
  </defs>
  <g id="Ebene_1-2" data-name="Ebene 1">
    <path class="cls-23" d="M253.35,233.65c-2.6,3.84-7.58,10.49-8.1,11.73-3.43,7.37-12.46,29.07-13.29,30.74-1.25,2.6,2.6,3.84,2.6,3.84,6.65,2.18,5.81,1.66,25.13,4.15.73.1,4.67-3.32,7.06-13.19,3.32-13.6,2.6-8.62,2.6-8.62v5.19c0,9.03,1.45,41.02,1.25,42.57l-1.45,57.94c-.1,7.58,2.8,8.62,4.05,8.62,2.6,0,6.44,3.84,23.16,2.6,6.85-.52,20.66,0,33.54,1.25,13.08,1.35,11.94-1.25,33.54-1.25,6.96,0,5.3-3.01,6.44-16.72.42-4.88-1.25-42.05-1.25-63.96,0-14.54-2.6-40.39-1.25-37.8,3.84,7.68,2.7,17.03,5.19,21.91,1.25,2.6,13.6,2.6,17.13,1.25l9.86-.83c2.39-.1,3.32-.31,2.6-4.26-2.6-12.88-4.98-18.07-6.65-27.93-2.39-14.54-6.96-15.26-11.42-18.48-7.89-5.71-20.66-7.27-33.54-11.21-4.26-1.25-3.63,2.49-5.19,4.78s-2.39,5.09-10.28,7.79c-10.07,3.43-13.08,1.45-20.46,1.66-3.95.1-10.28-.93-14.02-2.39-16.09-6.54-8.51-13.29-13.39-11.84-13.5,4.05-19.21,3.22-28.14,7.68q-3.74,1.87-5.71,4.78h0Z"/>
    <g class="cls-25">
      <g>
        <path class="cls-2" d="M137.5,95.3c-.6,0-1.4.7-2.1,1.2-1.4.9-2.6.7-1.4-8,1.8-13.2-6.2-10.2-1.4-25.5s10.1-35.7,15.4-40.8c5.3-5.1,10.4-6,19.3-11.9,7.7-5.1,21.2-11.9,30-8.5s18.6-3.4,27.4,1.7,11.1,3.4,12.8,11.9c1.8,8.5,2,10.1,4.3,13.8,11.9,19.7,9.5,55.6,9.5,59.3s-.4,9.3-.4,9.3"/>
        <path class="cls-3" d="M251.9,97.8l-1.7-.1c0-.1.4-5.7.4-9.3v-1.8c.6-17.9-.5-42.4-9.4-57.1-2.3-3.8-2.6-5.4-4.2-13.3l-.2-.8c-1.2-5.8-2.5-6.4-6.6-8.3-1.5-.7-3.5-1.6-5.8-3-4.5-2.6-9.2-1.9-14.3-1.2-4.3.6-8.8,1.2-13-.4-9.6-3.7-24.8,5.5-29.2,8.4-3.8,2.5-6.9,4.1-9.6,5.5-3.7,1.9-6.6,3.4-9.6,6.3-4.1,3.9-8.4,18.3-12.2,30.9-1,3.4-2,6.5-2.9,9.6-2.6,8.2-1.5,10.8-.1,13.9,1.1,2.5,2.3,5.4,1.5,11.5-.7,5.5-.4,7-.3,7.4.1,0,.2-.1.4-.2s.4-.3.6-.4c.6-.5,1.3-.9,2-.9v1.7c-.2,0-.7.4-1,.6-.2.2-.4.3-.7.5s-1.3.8-2.2.3c-1-.6-1.4-2.4-.5-9.1.8-5.7-.3-8.2-1.4-10.6-1.4-3.2-2.7-6.3.1-15.1,1-3,1.9-6.2,2.9-9.5,4.1-13.5,8.3-27.4,12.7-31.7,3.1-3,6.2-4.6,10-6.6,2.7-1.4,5.8-3,9.5-5.4,4.6-3,20.4-12.6,30.8-8.6,3.8,1.5,7.9.9,12.2.3,5.1-.7,10.4-1.4,15.4,1.4,2.3,1.3,4.2,2.2,5.7,2.9,4.2,2,6.2,2.9,7.6,9.6l.2.8c1.6,7.8,1.9,9.2,4,12.7,7.3,12,10.5,31.6,9.6,58v1.7c-.3,3.7-.7,9.4-.7,9.4h0Z"/>
        <path class="cls-21" d="M191.7,115.9c-.4-1.1.1-1.1,1.1-1.7,1.4-.8,2.7-1.5,4.1-.4.4.3,1.5.8,1.2.3-1.6-2.7-4-8.7-4.4-8.9-.3-.1-.3.4-.5,1.6-.2,1.4-1.7,2.3-2.7,3.2-1.8,1.6-5.7,3.9-6.7,5.1,0,0,1.9,3.5,2.5,3.1.6-.3,2.9-2.2,3.1-1.7.2.6,1.5,3.6,2,5.1,0,.1.1.2.3.1.5-.1,1.1-.2,1.7-.4.2,0,.4-.3.3-.5-.4-1.1-1.5-3.6-2-4.9"/>
        <path class="cls-2" d="M129,87.4c-6.9,3.8-1.7,3.8-1.7,13.2s-.9,17-.9,17c0,0-1.9,7.8,24.9,3.8,15.3-2.3-18.9.9,30.9.9s32.6-.5,46.3,1.4,15.4,0,15.4,0c0,0,12.1,1.7,12-3.3.1,4.7.9-18.4.9-27.4,0-5.7-6-5.5-14.6-5.1s-15.4-.2-20.6-.2-41.1-.4-46.3,1.7-17.1-1.5-18.9-1.7c-1.7-.1-20.6-4.1-27.4-.3"/>
        <path class="cls-3" d="M238.5,125.5c-2.4,0-5.7-.2-10.2-.9-3.1-.4-4.6-.7-5.8-1-1.7-.3-6.8-.5-15.5-.4-5.5,0-13.5.1-24.9.1-21.7,0-27.2-.5-28.7-1.3-.6.1-1.2.2-2,.3-13.5,2-21.8,1.4-24.8-1.8-1.2-1.3-1.1-2.6-1-2.9.1-.6.9-7.9.9-16.9,0-3.5-.7-5.6-1.3-7.2-1-3-1-4.3,3.4-6.8h0c6.2-3.5,21.5-.8,26.6.1.7.1,1.2.2,1.4.2.4,0,1.1.2,2.3.5,4,.9,12.3,2.9,16.2,1.3,3.2-1.3,17.8-1.9,44.5-1.8h2.2c1.7,0,3.7.1,5.7.1,4.3.1,9.1.3,14.8,0,6.9-.3,11.5-.4,13.9,1.9,1,1,1.6,2.4,1.6,4.1,0,4.4-.2,11.7-.3,17.2-.3,8.5-.3,10.9-.7,11.5-.2.5-.5,1-1,1.4-2.8,2.4-9.7,1.8-11.5,1.5-.9.3-2.4.8-5.8.8h0ZM214.2,121.5c6.2,0,6.6.1,8.7.5,1.1.2,2.6.5,5.6.9,12.5,1.7,14.7.3,14.8.2l.3-.3.4.1c2.2.3,8.4.7,10.4-1.1.4-.4.6-.8.6-1.3h.1c.2-3,.8-20.1.8-27.5,0-1.3-.3-2.2-1-2.9-2-1.9-7.2-1.7-12.6-1.4-5.8.3-10.6.1-15,0-2-.1-4-.1-5.6-.1h-2.2c-26.1-.1-40.8.4-43.8,1.6-4.4,1.8-12.7-.2-17.2-1.2-.9-.2-1.8-.4-2.1-.4-.2,0-.8-.1-1.5-.2-13.1-2.3-21.6-2.4-25.4-.2h0c-3.6,2-3.4,2.4-2.6,4.7.5,1.6,1.4,4,1.4,7.8,0,9.4-.9,17.1-.9,17.1v.1s-.1.7.7,1.5c1.5,1.5,6.5,3.7,23.2,1.2,1-.1,1.8-.3,2.3-.4.5-.3,1.2-.4,1.8-.4,1-.1,1.1.6,1.1.8v.4c2.9.3,9.8.6,25.7.6,11.5,0,19.4,0,24.9-.1h7.1Z"/>
        <path class="cls-2" d="M228.4,25.6c-2.1.8-4.3.8-6.3,1.7-2.6,1.1-4.6,2.6-7.4,3.5"/>
        <path class="cls-3" d="M215,31.7l-.6-1.6c1.6-.6,3-1.3,4.4-2,1-.5,1.9-1,3-1.5s2.3-.8,3.5-1c1-.2,1.9-.4,2.8-.7l.6,1.6c-1,.4-2.1.6-3.1.8-1.1.2-2.2.4-3.1.9-1,.4-2,.9-2.9,1.4-1.4.7-2.9,1.5-4.6,2.1h0Z"/>
        <path class="cls-21" d="M178.9,107.6c-.4-1.1.1-1.1,1.1-1.7,1.4-.8,2.7-1.5,4.1-.4.4.3,1.5.8,1.2.3-1.6-2.7-4-8.7-4.4-8.9-.3-.1-.3.4-.5,1.6-.2,1.4-1.7,2.3-2.7,3.2-1.7,1.6-5.7,3.9-6.7,5.1,0,0,1.9,3.5,2.5,3.1.6-.3,2.9-2.2,3.1-1.7.2.6,1.5,3.6,2,5.1,0,.1.1.2.3.1.5-.1,1.1-.2,1.7-.4.2,0,.4-.3.3-.5-.4-1.1-1.6-3.6-2-4.9"/>
      </g>
    </g>
    <polygon class="cls-21" points="185.3 97.6 186 97.6 185 102 184.4 102 185.3 97.6"/>
    <g class="cls-12">
      <g>
        <path class="cls-21" d="M186.7,97.6h.9l.5,3.8,2.1-3.8h.9l-.9,4.4h-.6l.6-2.6c0-.1,0-.2.1-.4,0-.2.1-.4.1-.7l-2.1,3.7h-.6l-.5-3.7v.1c0,.1,0,.3-.1.5,0,.2-.1.4-.1.5l-.5,2.6h-.6l.8-4.4h0Z"/>
        <path class="cls-21" d="M194,98.2c-.1-.1-.3-.1-.5-.1h-1.2l-.3,1.5h1.2c.3,0,.5-.1.7-.2s.3-.3.4-.6c-.1-.3-.1-.5-.3-.6M191.7,97.6h2c.4,0,.7.1.9.3s.2.5.2.9c-.1.4-.2.6-.5.9s-.6.4-1.1.4h-1.4l-.4,1.9h-.6l.9-4.4h0Z"/>
        <path class="cls-21" d="M196.3,97.6l-.6,2.7c-.1.3-.1.6,0,.8.1.3.4.5.8.5.5,0,.9-.2,1.1-.5.1-.2.2-.4.3-.8l.6-2.7h.6l-.5,2.5c-.1.6-.3,1-.5,1.3-.4.5-1,.8-1.7.8s-1.2-.3-1.4-.8c-.1-.3-.1-.7,0-1.3l.5-2.5h.8Z"/>
      </g>
    </g>
    <polygon class="cls-21" points="199.9 97.6 200.5 97.6 199.6 101.5 201.9 101.5 201.8 102 198.9 102 199.9 97.6"/>
    <g class="cls-15">
      <path class="cls-21" d="M202.9,100.6v.6c.1.3.5.4,1,.4.2,0,.4,0,.6-.1.4-.1.6-.4.7-.7,0-.2,0-.4-.1-.5s-.4-.2-.7-.3l-.6-.1c-.4-.1-.6-.2-.8-.3-.2-.2-.3-.5-.2-.8.1-.4.3-.7.6-1s.8-.4,1.2-.4c.5,0,.8.1,1.1.3.3.2.4.6.3,1.1h-.6c0-.2,0-.4-.1-.6s-.4-.4-.9-.4c-.4,0-.6.1-.8.2s-.3.3-.3.5,0,.4.2.5c.1.1.4.1.8.2l.6.1c.3.1.5.2.6.3.2.2.3.5.2.9-.1.5-.4.8-.8,1.1-.4.2-.8.3-1.3.3s-1-.1-1.2-.4-.3-.7-.2-1.1l.7.2h0Z"/>
    </g>
    <polygon class="cls-21" points="207.1 97.6 210.3 97.6 210.2 98.1 207.6 98.1 207.3 99.5 209.7 99.5 209.6 100 207.2 100 206.9 101.5 209.5 101.5 209.4 102 206.1 102 207.1 97.6"/>
    <polygon class="cls-21" points="191.8 103 191.8 103.8 190.5 103.8 190.5 107.4 189.6 107.4 189.6 103.8 188.2 103.8 188.2 103 191.8 103"/>
    <g class="cls-13">
      <g>
        <path class="cls-21" d="M195.3,105.5v1.9h-.9v-2c0-.2,0-.3-.1-.4s-.2-.2-.5-.2-.4.1-.5.2-.2.4-.2.6v1.8h-.9v-4.4h.9v1.6c.1-.2.3-.3.4-.4.2-.1.3-.1.5-.1s.4,0,.5.1c.2.1.3.2.4.3s.1.2.2.4c.1.1.2.3.2.6"/>
        <path class="cls-21" d="M198,105.4c0-.2-.1-.4-.2-.5s-.3-.2-.5-.2-.4.1-.5.2-.2.3-.2.5h1.4ZM198.9,106.4c0,.2-.1.4-.3.6-.3.3-.7.5-1.2.5-.4,0-.8-.1-1.1-.4s-.5-.7-.5-1.3.1-1,.4-1.3.7-.5,1.1-.5c.3,0,.5.1.7.1.2.1.4.3.5.5s.2.4.2.7v.6h-2.2c0,.3.1.6.3.7.1.1.3.1.4.1.2,0,.3-.1.4-.1q.1-.1.2-.2h1.1Z"/>
        <path class="cls-21" d="M200.3,106.8c.1.1.2.1.3.1.2,0,.4-.1.5-.2.2-.1.2-.3.2-.6v-.3s-.1.1-.2.1-.1,0-.2.1h-.2c-.2,0-.3.1-.4.1-.1.1-.2.2-.2.4.1.1.1.2.2.3M199.6,104.5c.2-.3.6-.4,1.2-.4.4,0,.7.1,1,.2s.4.4.4.8v2.1l.1.1v.1h-.9v-.4c-.1.1-.3.2-.4.3-.2.1-.4.2-.6.2-.3,0-.5-.1-.7-.2-.2-.2-.3-.4-.3-.7,0-.4.2-.7.5-.9.2-.1.4-.2.8-.2h.3c.2,0,.3-.1.3-.1.1-.1.2-.1.2-.2s0-.2-.1-.3-.2-.1-.4-.1-.4.1-.4.1c-.1.1-.1.2-.1.3h-.8c-.3-.3-.2-.5-.1-.7"/>
        <path class="cls-21" d="M204.5,106.8v.6h-.4c-.4,0-.7,0-.8-.2-.1-.1-.1-.2-.1-.5v-2h-.5v-.6h.5v-.9h.9v.9h.5v.6h-.5v1.9s.1.1.3.1q-.1.1.1.1-.1,0,0,0"/>
        <path class="cls-21" d="M207,105.4c0-.2-.1-.4-.2-.5s-.3-.2-.5-.2-.4.1-.5.2-.2.3-.2.5h1.4ZM207.8,106.4c0,.2-.1.4-.3.6-.3.3-.7.5-1.2.5-.4,0-.8-.1-1.1-.4s-.5-.7-.5-1.3.1-1,.4-1.3.7-.5,1.1-.5c.3,0,.5.1.7.1.2.1.4.3.5.5s.2.4.2.7v.6h-2.2c0,.3.1.6.3.7.1.1.3.1.4.1.2,0,.3-.1.4-.1q.1-.1.2-.2h1.1Z"/>
        <path class="cls-21" d="M210.1,104.9c-.4,0-.6.1-.7.3-.1.1-.1.3-.1.6v1.6h-.9v-3.3h.8v.6c.1-.2.2-.4.4-.4.2-.1.4-.2.6-.2h.1v.9h-.1l-.1-.1"/>
      </g>
    </g>
    <polygon class="cls-21" points="186.2 109.7 184 109.7 184 110.7 185.9 110.7 185.9 111.4 184 111.4 184 113.2 183.1 113.2 183.1 108.9 186.2 108.9 186.2 109.7"/>
    <polygon class="cls-21" points="189.8 111.3 187.7 111.3 187.7 112.4 190.1 112.4 190.1 113.2 186.8 113.2 186.8 108.9 190 108.9 190 109.7 187.7 109.7 187.7 110.6 189.8 110.6 189.8 111.3"/>
    <g class="cls-14">
      <path class="cls-21" d="M192.4,112.6c.2,0,.4,0,.5-.1.2-.1.4-.3.4-.5,0-.1-.1-.2-.2-.3s-.3-.1-.6-.2l-.5-.1c-.5-.1-.8-.2-.9-.3-.3-.2-.4-.5-.4-.9s.1-.7.4-1,.7-.4,1.2-.4.8.1,1.2.4.5.6.5,1.1h-.9c0-.3-.1-.4-.3-.6-.1-.1-.3-.1-.5-.1s-.4.1-.6.1c-.1.1-.2.2-.2.4,0,.1.1.3.2.4.1.1.3.1.6.2l.7.2c.3.1.6.2.7.3.3.2.4.5.4.9s-.1.7-.5,1c-.3.3-.7.4-1.3.4s-1-.1-1.3-.4-.5-.6-.5-1.1h.9c0,.2.1.3.2.4.1.1.4.2.8.2"/>
    </g>
    <polygon class="cls-21" points="197.9 108.9 197.9 109.7 196.6 109.7 196.6 113.2 195.7 113.2 195.7 109.7 194.4 109.7 194.4 108.9 197.9 108.9"/>
    <rect class="cls-21" x="198.4" y="108.9" width=".9" height="4.3"/>
    <polygon class="cls-21" points="199.8 108.9 200.8 108.9 201.7 112.2 202.6 108.9 203.6 108.9 202.1 113.2 201.2 113.2 199.8 108.9"/>
    <path class="cls-21" d="M205.9,111.6l-.5-1.7-.6,1.7h1.1ZM206.2,112.3h-1.6l-.3.9h-.9l1.5-4.3h1l1.5,4.3h-1l-.2-.9Z"/>
    <polygon class="cls-21" points="208 108.9 208.9 108.9 208.9 112.4 211 112.4 211 113.2 208 113.2 208 108.9"/>
    <g class="cls-20">
      <g>
        <path class="cls-2" d="M160.85,347.3h0c.1.2.1.3.1.5-1.6,5.2-12.7,8.1-28.5,8.2-15.5,0-28.7-2.1-28.4-7.8"/>
        <path class="cls-3" d="M132.35,356.8c-8.6,0-23.4-.7-27.7-5.3-.9-1-1.4-2.1-1.3-3.4l1.7.1c-.1.8.2,1.5.8,2.1,2.9,3,12.5,4.8,26.5,4.8h.2c15.2,0,26-2.9,27.6-7.4v-.1l-.1-.4.2-.4.7.4h0v-.9l.7.4v.1h.1c.1.2.1.5.1.8v.2c-1.7,5.5-12.6,8.7-29.3,8.8l-.2.2h0Z"/>
        <path class="cls-2" d="M164.55,287.9c.9,6-14.9,5.9-31.6,5.9s-30.8,2.7-30-5.9c.4-3.9,14.3-6.7,31-6.7s29.8,1.4,30.6,6.7"/>
        <path class="cls-3" d="M133.95,282.4c-18.1,0-29.6,3.3-29.8,5.7-.1,1.3.1,2.2.8,2.9,2.3,2.5,9.7,2.2,18.2,1.9,3.2-.1,6.5-.2,9.9-.2h.9c13,0,26.4,0,29.2-3.2.3-.4.5-.8.4-1.4-.5-2.6-6-5.7-29.6-5.7M115.55,295.4c-5.8,0-10.1-.5-12.3-2.8-1.1-1.2-1.6-2.8-1.4-4.7.5-5.3,17-7.7,32.1-7.7,21.4,0,30.9,2.3,31.7,7.7.2,1.2-.1,2.3-.9,3.2-3.4,4-16.2,4-30.9,4h-.9c-3.4,0-6.7.1-9.8.2-2.7,0-5.3.1-7.6.1"/>
        <path class="cls-3" d="M158.15,287.7c0,1.5-10.9,2.7-24.3,2.7s-24.3-1.2-24.3-2.7,10.9-2.7,24.3-2.7,24.3,1.3,24.3,2.7"/>
        <path class="cls-2" d="M104.15,348.6h0l-1.6-57.9c0-.5.8-1.2,1-.7,1.2,2.2,12.7,3.6,28.4,3.6,19.3,0,32.3-.4,32.6-4.5l-3.7,59.5h0"/>
        <path class="cls-3" d="M160.25,348l.6.6-.6-.6ZM160.85,349.4h-.9l3.6-57.7c-3.8,2.2-13.7,2.7-31.6,2.7-6,0-24.8-.3-28.6-3.5l1.6,58.5h-.9v-.8l-.6.6-.1-.6h-.1l-1.6-57.9c0-.7.6-1.5,1.3-1.7.5-.1,1,.1,1.3.6.6,1.2,8.7,3.2,27.6,3.2,13.3,0,31.5,0,31.8-3.7l1.7.1h0l-3.7,59.3.1.3-.4.4-.6-.6.1.8h0Z"/>
        <path class="cls-2" d="M84.05,320c0,16.2-.1,22.9,20.6,25.4h2.1c1.6-.3,3.1-1.8,3.1-4.1,0-2.5-2.3-5-4.1-5.1l-.4-.1c-7.5,0-15.2-4.2-13-16.1,1.6-8.2,6.5-16,14-16h0c1.5-.1,2.8-2,2.8-4.2s-1.2-4.1-2.6-4.2c-.1,0-2.2-.1-2.6,0-.4,0-2,.1-2.4.2-.6.1-1.2.3-1.9.6h-.1c-.7.2-1.3.5-2,.8-.6.3-1.3.7-1.9,1-1,.6-2,1.4-2.9,2.1-.2.2-.4.4-.7.6-.2.2-.4.4-.6.6-4.6,4.6-7.4,11.2-7.4,18.5"/>
        <path class="cls-3" d="M104.75,344.6h1.9c1.2-.3,2.4-1.4,2.4-3.3,0-2.1-2-4.2-3.3-4.2l-.5-.1c-4.9,0-9-1.7-11.4-4.7-2.5-3-3.3-7.2-2.3-12.5,2.2-11.9,8.9-16.3,14.2-16.6h.5c.9-.1,1.9-1.4,1.9-3.4,0-1.8-.9-3.3-1.9-3.4h0c-.3,0-2.1-.1-2.4,0-.1,0-.4,0-.7.1-.4,0-1.4.1-1.6.2-.6.2-1.2.3-1.8.5h-.2c-.6.2-1.2.5-1.8.8s-1.2.6-1.8,1c-1,.6-1.9,1.3-2.8,2.1l-.7.6c-.2.2-.4.4-.6.6-4.5,4.6-7,11.1-7,17.8v.3c.1,15.8.1,21.8,19.9,24.2M105.75,346.3h-1.2c-21.3-2.6-21.3-9.9-21.3-26v-.3c0-7.2,2.7-14.1,7.5-19l.1-.1c.2-.2.4-.4.6-.6l.7-.6c1-.9,2-1.6,3-2.2.6-.4,1.3-.8,2-1.1.7-.3,1.4-.6,2.1-.9h.2c.6-.2,1.2-.4,1.8-.5.3-.1,1-.1,1.9-.2.3,0,.5,0,.6-.1h2.8c1.9.2,3.4,2.4,3.4,5.1s-1.5,4.9-3.5,5.1l-.4.1-.1-.1c-6.9.3-11.3,7.8-12.7,15.3-.9,4.7-.2,8.4,1.9,11.1,2.9,3.5,7.6,4.1,10.2,4.1h.1l.4.1c2.2.1,4.9,2.9,4.9,6,0,2.9-2,4.6-3.8,5-.1-.2-.2-.2-1.2-.2"/>
      </g>
    </g>
    <rect class="cls-21" y="163.4" width="100.3" height="45.6"/>
    <g class="cls-17">
      <path class="cls-22" d="M22.5,191.3c-.9-2.4.2-2.6,2.5-3.9,3.2-1.9,6.1-3.4,9.5-1,.8.6,3.4,1.8,2.8.7-3.7-6.1-9.1-19.9-10.1-20.3-.8-.3-.7,1-1.2,3.6-.6,3.2-3.9,5.3-6.1,7.2-4,3.5-13,8.9-15.2,11.6,0,0,4.4,8,5.8,7.2,1.3-.8,6.7-5.1,7.2-3.8.6,1.5,3.3,8.2,4.5,11.6.1.3.3.4.6.4,1.2-.3,2.5-.6,3.8-.8.5-.1.8-.6.7-1.1-1.1-2.8-3.7-8.4-4.8-11.4"/>
    </g>
    <polygon class="cls-22" points="37.3 168.4 38.7 168.4 36.5 178.5 35.1 178.5 37.3 168.4"/>
    <g class="cls-16">
      <g>
        <path class="cls-22" d="M40.4,168.4h2l1.1,8.6,4.7-8.6h1.9l-2.1,10.1h-1.3l1.3-6c0-.2.1-.5.2-1s.2-1,.3-1.5l-4.7,8.5h-1.4l-1.1-8.5-.1.3c-.1.2-.1.6-.2,1.1s-.2.9-.2,1.1l-1.3,6h-1.3l2.2-10.1h0Z"/>
        <path class="cls-22" d="M56.9,169.8c-.3-.1-.7-.2-1.2-.2h-2.7l-.7,3.5h2.7c.6,0,1.1-.1,1.6-.4s.7-.7.9-1.4c.1-.7-.1-1.2-.6-1.5M51.9,168.4h4.6c.9,0,1.6.2,2,.8.4.5.6,1.2.4,2.1-.2.8-.6,1.5-1.2,2.1s-1.4.9-2.5.9h-3.2l-.9,4.3h-1.4l2.2-10.2h0Z"/>
        <path class="cls-22" d="M62.2,168.4l-1.3,6.3c-.2.7-.1,1.4,0,1.8.2.7.9,1.1,1.8,1.1,1.2,0,2-.4,2.6-1.2.3-.4.6-1,.7-1.7l1.3-6.3h1.4l-1.2,5.7c-.3,1.2-.6,2.2-1.1,2.9-.9,1.2-2.2,1.8-3.9,1.8s-2.7-.6-3.1-1.8c-.2-.7-.2-1.6.1-2.9l1.2-5.7h1.5Z"/>
      </g>
    </g>
    <polygon class="cls-22" points="70.5 168.4 71.8 168.4 69.9 177.3 75.1 177.3 74.8 178.5 68.3 178.5 70.5 168.4"/>
    <g class="cls-19">
      <path class="cls-22" d="M77.3,175.3c-.1.6-.1,1,.1,1.4.3.7,1,1,2.2,1,.5,0,1-.1,1.5-.2.9-.3,1.4-.8,1.6-1.5.1-.5,0-.9-.3-1.2-.3-.2-.8-.4-1.5-.6l-1.3-.3c-.9-.2-1.4-.4-1.8-.7-.6-.4-.7-1-.6-1.9.2-.9.7-1.7,1.4-2.2s1.7-.9,2.9-.9c1.1,0,1.9.3,2.5.8s.8,1.3.6,2.5h-1.3c.1-.5,0-1-.2-1.2-.3-.5-1-.8-2-.8-.8,0-1.4.2-1.9.5-.4.3-.7.7-.8,1.2s0,.9.4,1.1c.2.1.8.3,1.7.5l1.4.3c.6.2,1.1.4,1.4.6.6.5.7,1.2.5,2.1-.2,1.1-.8,1.9-1.7,2.4s-1.9.7-3,.7c-1.3,0-2.2-.3-2.8-1-.6-.6-.7-1.5-.5-2.6h1.5Z"/>
    </g>
    <polygon class="cls-22" points="87 168.4 94.4 168.4 94.1 169.6 88 169.6 87.4 172.7 93 172.7 92.7 173.9 87.1 173.9 86.4 177.3 92.6 177.3 92.3 178.5 84.8 178.5 87 168.4"/>
    <polygon class="cls-22" points="52.1 180.7 52.1 182.5 49 182.5 49 190.8 46.9 190.8 46.9 182.5 43.8 182.5 43.8 180.7 52.1 180.7"/>
    <g class="cls-18">
      <g>
        <path class="cls-22" d="M59.9,186.4v4.4h-2v-4.6c0-.4-.1-.7-.2-1-.2-.4-.5-.5-1-.5s-.9.2-1.2.5c-.3.4-.4.8-.4,1.5v4.1h-2v-10.1h2v3.6c.3-.4.6-.7,1-.9s.8-.3,1.2-.3c.5,0,.9.1,1.3.2s.7.4.9.7c.2.3.3.6.4.9s.1.9,0,1.5"/>
        <path class="cls-22" d="M66.3,186.3c0-.5-.2-.9-.5-1.2s-.6-.4-1.1-.4-.8.1-1.1.4c-.2.3-.4.7-.5,1.2h3.2ZM68.2,188.6c-.1.5-.3.9-.7,1.4-.6.7-1.6,1.1-2.7,1.1-1,0-1.8-.3-2.5-.9s-1.1-1.6-1.1-3c0-1.3.3-2.3,1-3s1.5-1,2.6-1c.6,0,1.2.1,1.7.4.5.2.9.6,1.2,1.1s.5,1,.6,1.5c.1.3.1.8.1,1.5h-5.1c0,.8.3,1.3.7,1.6.3.2.6.3,1,.3s.7-.1,1-.3c.1-.1.3-.3.4-.5l1.8-.2h0Z"/>
        <path class="cls-22" d="M71.4,189.4c.2.1.4.2.7.2.4,0,.8-.1,1.2-.4s.5-.7.6-1.4v-.7c-.1.1-.2.1-.4.2s-.3.1-.5.1l-.4.1c-.4.1-.7.2-.9.3-.3.2-.4.5-.4.8-.2.5-.1.7.1.8M69.9,184.1c.5-.7,1.4-1,2.7-1,.8,0,1.6.2,2.2.5s1,.9,1,1.9v4.4c0,.3.1.4.1.5.1.1.2.2.3.2v.3h-2.1c-.1-.1-.1-.3-.1-.4s0-.3-.1-.5c-.3.3-.6.5-.9.8-.4.2-.9.4-1.4.4-.7,0-1.2-.2-1.7-.6-.4-.4-.7-.9-.7-1.6,0-.9.4-1.6,1.1-2,.4-.2,1-.4,1.7-.5l.7-.1c.4,0,.6-.1.8-.2.3-.1.4-.3.4-.6s-.1-.5-.3-.6-.5-.2-.9-.2c-.5,0-.8.1-1,.3-.1.2-.2.4-.3.7h-1.9c-.1-.7.1-1.2.4-1.7"/>
        <path class="cls-22" d="M81,189.5v1.5h-.9c-.9,0-1.6-.1-1.9-.5-.2-.2-.3-.6-.3-1v-4.6h-1.1v-1.4h1.1v-2.1h1.9v2.1h1.2v1.4h-1.2v4c0,.3,0,.5.1.6s.3.1.7.1h.2c.1,0,.1-.1.2-.1"/>
        <path class="cls-22" d="M86.7,186.3c0-.5-.2-.9-.5-1.2s-.6-.4-1.1-.4-.8.1-1.1.4c-.2.3-.4.7-.5,1.2h3.2ZM88.7,188.6c-.1.5-.3.9-.7,1.4-.6.7-1.6,1.1-2.7,1.1-1,0-1.8-.3-2.5-.9s-1.1-1.6-1.1-3c0-1.3.3-2.3,1-3s1.5-1,2.6-1c.6,0,1.2.1,1.7.4.5.2.9.6,1.2,1.1s.5,1,.6,1.5c.1.3.1.8.1,1.5h-5.1c0,.8.3,1.3.7,1.6.3.2.6.3,1,.3s.7-.1,1-.3c.1-.1.3-.3.4-.5l1.8-.2h0Z"/>
        <path class="cls-22" d="M93.9,185.1c-.8,0-1.3.3-1.6.8-.1.3-.2.7-.2,1.3v3.6h-2v-7.5h1.9v1.3c.3-.5.6-.8.8-1,.4-.3.9-.5,1.4-.5h.3v2h-.3c-.2,0-.3,0-.3,0"/>
      </g>
    </g>
    <polygon class="cls-22" points="39.2 196 34.3 196 34.3 198.2 38.6 198.2 38.6 199.9 34.3 199.9 34.3 204.1 32.2 204.1 32.2 194.2 39.2 194.2 39.2 196"/>
    <polygon class="cls-22" points="47.4 199.8 42.7 199.8 42.7 202.3 48.1 202.3 48.1 204.1 40.6 204.1 40.6 194.2 47.9 194.2 47.9 196 42.7 196 42.7 198.1 47.4 198.1 47.4 199.8"/>
    <g class="cls-7">
      <path class="cls-22" d="M53.3,202.6c.5,0,.9,0,1.2-.2.6-.2.9-.6.9-1.1,0-.3-.1-.6-.4-.8s-.7-.3-1.3-.5l-1-.2c-1-.2-1.7-.5-2.1-.8-.7-.5-1-1.2-1-2.1s.3-1.6,1-2.2c.6-.6,1.6-.9,2.8-.9,1,0,1.9.3,2.7.8.7.5,1.1,1.4,1.1,2.4h-2c0-.6-.3-1-.8-1.3-.3-.2-.7-.2-1.2-.2s-.9.1-1.3.3c-.3.2-.5.5-.5.9s.1.6.5.8c.2.1.6.2,1.3.4l1.7.4c.7.2,1.3.4,1.7.7.6.5.9,1.1.9,2s-.3,1.6-1,2.2-1.7.9-2.9.9-2.3-.3-3-.9-1.1-1.4-1.1-2.4h2c.1.5.2.8.4,1,0,.7.6.9,1.4.8"/>
    </g>
    <polygon class="cls-22" points="66 194.2 66 196 63.1 196 63.1 204.1 61 204.1 61 196 58 196 58 194.2 66 194.2"/>
    <rect class="cls-22" x="67.1" y="194.2" width="2" height="9.9"/>
    <polygon class="cls-22" points="70.3 194.2 72.5 194.2 74.6 201.7 76.8 194.2 78.9 194.2 75.6 204.1 73.6 204.1 70.3 194.2"/>
    <path class="cls-22" d="M84.3,200.4l-1.2-3.9-1.3,3.9h2.5ZM84.9,202.1h-3.6l-.7,2h-2.1l3.5-9.9h2.3l3.5,9.9h-2.2l-.7-2h0Z"/>
    <polygon class="cls-22" points="89 194.2 91.1 194.2 91.1 202.3 96 202.3 96 204.1 89 204.1 89 194.2"/>
    <g>
      <rect class="cls-22" x="326.6" y="99.8" width="60" height="65.3"/>
      <g class="cls-5">
        <g>
          <path class="cls-21" d="M359,138.8c-1.3-3.3.3-3.5,3.5-5.4,4.5-2.6,8.4-4.7,13.1-1.3,1.2.9,4.8,2.5,3.8.9-5.1-8.4-12.6-27.5-13.9-28.1-1-.5-.9,1.4-1.6,5-.8,4.4-5.4,7.3-8.5,10-5.5,4.9-18,12.3-21,16,0,0,6.1,11,8,10,1.8-1.1,9.3-7,10-5.3.8,2.1,4.6,11.4,6.2,16.1.1.4.5.6.8.5,1.7-.4,3.5-.8,5.3-1.1.7-.1,1.1-.8.9-1.5-1.4-4-5.1-11.8-6.6-15.8"/>
          <path class="cls-3" d="M386.6,165.2h-60v-65.3h60v65.3ZM327.6,164.2h58v-63.3h-58v63.3Z"/>
        </g>
      </g>
    </g>
    <g class="cls-11">
      <path class="cls-26" d="M286.99,269.78s2.91,5.19,3.74,4.67c.83-.52,4.36-3.32,4.67-2.49.42.93,2.18,5.3,2.91,7.48,0,.21.21.21.42.21.83-.21,1.66-.42,2.49-.52.31-.1.52-.42.42-.73-.52-1.87-2.28-5.5-3.01-7.37-.62-1.56.1-1.66,1.66-2.49,2.08-1.25,3.95-2.18,6.13-.62.52.42,2.18,1.14,1.77.42-2.39-3.95-5.92-12.88-6.44-13.08s-.42.62-.73,2.28c-.42,2.08-2.49,3.43-3.95,4.67-2.8,2.39-8.62,5.81-10.07,7.58"/>
    </g>
    <polygon class="cls-24" points="307.96 256.8 308.9 256.8 307.45 263.34 306.61 263.34 307.96 256.8"/>
    <g class="cls-9">
      <g>
        <path class="cls-24" d="M309.94,256.8h1.25l.73,5.5,3.01-5.5h1.25l-1.35,6.54h-.83l.83-3.84c0-.1.1-.31.1-.62.1-.31.1-.62.21-1.04l-3.01,5.5h-.83l-.73-5.5v.21c0,.1-.1.42-.1.73-.1.31-.1.52-.1.73l-.83,3.84h-.83l1.25-6.54h0Z"/>
        <path class="cls-24" d="M320.63,257.63c-.21-.1-.42-.1-.83-.1h-1.66l-.52,2.28h1.77c.42,0,.73-.1,1.04-.21.31-.21.52-.52.52-.93.1-.52,0-.83-.31-1.04M317.41,256.8h2.91c.62,0,1.04.21,1.25.52.31.31.42.83.21,1.35-.1.52-.42.93-.73,1.35s-.93.52-1.56.52h-2.08l-.62,2.8h-.73l1.35-6.54h0Z"/>
        <path class="cls-24" d="M324.06,256.8l-.83,4.05c-.1.52-.1.83,0,1.14.21.52.52.73,1.14.73.73,0,1.35-.21,1.66-.73.21-.31.31-.62.42-1.14l.83-4.05h.93l-.83,3.63c-.21.83-.42,1.45-.73,1.87-.52.83-1.45,1.14-2.49,1.14s-1.77-.42-1.97-1.14c-.1-.42-.1-1.04.1-1.87l.83-3.63h.93Z"/>
      </g>
    </g>
    <polygon class="cls-24" points="329.46 256.8 330.29 256.8 329.04 262.51 332.37 262.51 332.26 263.34 328 263.34 329.46 256.8"/>
    <g class="cls-10">
      <path class="cls-24" d="M333.82,261.16c0,.42,0,.62.1.93.21.42.62.62,1.45.62.31,0,.62,0,.93-.1.52-.21.93-.52,1.04-1.04.1-.31,0-.62-.21-.73s-.52-.31-.93-.42l-.83-.21c-.52-.1-.93-.31-1.14-.42-.31-.31-.52-.73-.42-1.25.1-.62.42-1.04.93-1.45s1.14-.52,1.87-.52,1.25.21,1.66.52.52.83.42,1.56h-.83c0-.31,0-.62-.1-.83-.21-.31-.62-.52-1.25-.52-.52,0-.93.1-1.14.31-.31.21-.42.52-.52.73-.1.31,0,.52.21.73.1.1.52.21,1.14.31l.83.21c.42.1.73.21.93.42.31.31.52.73.31,1.35-.1.73-.52,1.25-1.14,1.56s-1.25.52-1.97.52c-.83,0-1.45-.21-1.77-.62s-.52-.93-.31-1.66h.73Z"/>
    </g>
    <polygon class="cls-24" points="340.05 256.8 344.83 256.8 344.62 257.53 340.78 257.53 340.36 259.5 344 259.5 343.79 260.33 340.15 260.33 339.74 262.51 343.68 262.51 343.48 263.34 338.7 263.34 340.05 256.8"/>
    <polygon class="cls-26" points="316.69 264.69 316.69 265.94 314.71 265.94 314.71 271.34 313.36 271.34 313.36 265.94 311.39 265.94 311.39 264.69 316.69 264.69"/>
    <g class="cls-8">
      <g>
        <path class="cls-26" d="M321.77,268.43v2.91h-1.25v-3.01c0-.21,0-.52-.1-.62-.1-.21-.31-.31-.62-.31s-.62.1-.73.31c-.21.21-.21.52-.21.93v2.6h-1.25v-6.54h1.25v2.28c.21-.31.42-.52.62-.62s.52-.21.73-.21c.31,0,.52,0,.83.1.21.1.42.21.62.52.1.21.21.42.21.52-.1.42-.1.73-.1,1.14"/>
        <path class="cls-26" d="M325.82,268.43c0-.31-.1-.62-.31-.73-.21-.21-.42-.21-.62-.21-.31,0-.52.1-.73.31s-.21.42-.31.73l1.97-.1h0ZM327.07,269.89c0,.31-.21.62-.42.93-.42.52-1.04.73-1.77.73-.62,0-1.14-.21-1.66-.62s-.73-1.04-.73-1.97c0-.83.21-1.45.62-1.97s.93-.62,1.66-.62c.42,0,.73.1,1.04.21s.62.42.83.73c.21.31.31.62.42,1.04v.93h-3.32c0,.52.21.83.42,1.04.21.1.42.21.62.21s.52-.1.62-.21.21-.21.21-.31l1.45-.1h0Z"/>
        <path class="cls-26" d="M329.15,270.41c.1.1.21.1.42.1.31,0,.52-.1.73-.21s.31-.42.42-.93v-.52c-.1,0-.21.1-.21.1-.1,0-.21.1-.31.1h-.31c-.31,0-.42.1-.52.21-.21.1-.31.31-.31.52,0,.31,0,.52.1.62M328.21,266.98c.31-.42.93-.62,1.77-.62.52,0,1.04.1,1.45.31.42.21.62.62.62,1.14v2.7c0,.21,0,.31.1.31s.1.1.21.1v.21h-1.35c0-.1-.1-.21-.1-.31v-.31c-.21.21-.42.31-.62.52-.31.1-.62.21-.93.21-.42,0-.83-.1-1.04-.42s-.42-.62-.42-1.04c0-.62.21-1.04.73-1.25.21-.1.62-.21,1.14-.31h.42c.21,0,.42-.1.52-.1.21-.1.31-.21.31-.42s-.1-.31-.21-.42-.31-.1-.62-.1-.52.1-.62.21-.1.21-.21.42h-1.25c-.21-.21-.1-.62.1-.83"/>
        <path class="cls-26" d="M335.27,270.41v.93h-.62c-.62,0-1.04-.1-1.25-.31-.1-.1-.21-.42-.21-.62v-3.01h-.62v-.93h.62v-1.35h1.25v1.35h.83v.93h-.83v2.6c0,.21,0,.31.1.42,0,0,.21.1.52.1h.1l.1-.1"/>
        <path class="cls-26" d="M339.01,268.43c0-.31-.1-.62-.31-.73-.21-.21-.42-.21-.62-.21-.31,0-.52.1-.73.31s-.21.42-.31.73l1.97-.1h0ZM340.26,269.89c0,.31-.21.62-.42.93-.42.52-1.04.73-1.77.73-.62,0-1.14-.21-1.66-.62s-.73-1.04-.73-1.97c0-.83.21-1.45.62-1.97s.93-.62,1.66-.62c.42,0,.73.1,1.04.21s.62.42.83.73c.21.31.31.62.42,1.04v.93h-3.32c0,.52.21.83.42,1.04.21.1.42.21.62.21s.52-.1.62-.21.21-.21.21-.31l1.45-.1h0Z"/>
        <path class="cls-26" d="M343.68,267.6c-.52,0-.83.21-1.04.52-.1.21-.1.52-.1.83v2.28h-1.25v-4.88h1.25v.83c.21-.31.42-.52.52-.62.21-.21.52-.31.93-.31h.21v1.25h-.21c-.21.1-.31.1-.31.1"/>
      </g>
    </g>
    <polygon class="cls-26" points="308.9 274.04 305.78 274.04 305.78 275.49 308.59 275.49 308.59 276.53 305.78 276.53 305.78 279.23 304.43 279.23 304.43 272.9 308.9 272.9 308.9 274.04"/>
    <polygon class="cls-26" points="314.3 276.53 311.18 276.53 311.18 278.09 314.71 278.09 314.71 279.23 309.83 279.23 309.83 272.9 314.51 272.9 314.51 274.04 311.18 274.04 311.18 275.39 314.3 275.39 314.3 276.53"/>
    <g class="cls-6">
      <path class="cls-26" d="M318.04,278.3c.31,0,.52,0,.73-.1.42-.1.52-.42.52-.73,0-.21-.1-.42-.31-.52-.21-.1-.52-.21-.83-.31l-.62-.1c-.62-.1-1.14-.31-1.35-.52-.42-.31-.62-.73-.62-1.35,0-.52.21-1.04.62-1.45s1.04-.52,1.87-.52c.62,0,1.25.21,1.66.52.52.31.73.83.73,1.56h-1.25c0-.42-.21-.62-.52-.83-.21-.1-.52-.1-.73-.1-.31,0-.62.1-.83.21s-.31.31-.31.62c0,.21.1.42.31.52.1.1.42.21.83.21l1.14.21c.52.1.83.31,1.04.52.42.31.52.73.52,1.25s-.21,1.04-.62,1.45-1.04.62-1.87.62-1.45-.21-1.97-.52c-.52-.42-.73-.93-.73-1.56h1.25c0,.31.1.52.21.62.31.21.62.31,1.14.31"/>
    </g>
    <polygon class="cls-26" points="326.24 272.9 326.24 274.04 324.37 274.04 324.37 279.23 323.02 279.23 323.02 274.04 321.15 274.04 321.15 272.9 326.24 272.9"/>
    <rect class="cls-26" x="326.97" y="272.9" width="1.35" height="6.33"/>
    <polygon class="cls-26" points="329.04 272.9 330.5 272.9 331.85 277.67 333.2 272.9 334.65 272.9 332.47 279.23 331.12 279.23 329.04 272.9"/>
    <path class="cls-26" d="M338.08,276.84l-.83-2.49-.83,2.49h1.66ZM338.49,277.99h-2.39l-.42,1.35h-1.35l2.28-6.33h1.56l2.28,6.33h-1.56l-.42-1.35Z"/>
    <polygon class="cls-26" points="341.09 272.9 341.09 279.23 345.66 279.23 345.66 278.09 342.44 278.09 342.44 272.9 341.09 272.9"/>
    <g class="cls-4">
      <path class="cls-21" d="M146.65,325c-.8-2.1.1-2.3,1.9-3.6,2.6-1.8,4.9-3.2,7.6-1.1.7.5,2.8,1.5,2.2.5-3.1-5.4-7.7-17.7-8.5-18.1-.6-.3-.5.9-.9,3.3-.4,2.9-3,4.9-4.8,6.7-3.1,3.3-10.4,8.4-12.1,10.9,0,0,3.7,7.1,4.8,6.4,1-.7,5.3-4.8,5.7-3.6.5,1.3,2.8,7.3,3.8,10.4.1.2.3.4.5.3,1-.3,2-.6,3.1-.8.4-.1.6-.6.5-1-.6-2.6-2.9-7.7-3.8-10.3"/>
    </g>
  </g>
</svg>