<?xml version="1.0" encoding="UTF-8"?>
<svg id="Ebene_1" xmlns="http://www.w3.org/2000/svg" xmlns:xlink="http://www.w3.org/1999/xlink" version="1.1" viewBox="0 0 431.1 431.1">
  <!-- Generator: Adobe Illustrator 29.2.0, SVG Export Plug-In . SVG Version: 2.1.0 Build 108)  -->
  <defs>
    <style>
      .st0 {
        fill: none;
      }

      .st1 {
        fill: #da91b3;
      }

      .st2 {
        fill: #1d1d1b;
      }

      .st3 {
        clip-path: url(#clippath-17);
      }

      .st4 {
        clip-path: url(#clippath-11);
      }

      .st5 {
        clip-path: url(#clippath-16);
      }

      .st6 {
        clip-path: url(#clippath-10);
      }

      .st7 {
        clip-path: url(#clippath-15);
      }

      .st8 {
        clip-path: url(#clippath-13);
      }

      .st9 {
        clip-path: url(#clippath-14);
      }

      .st10 {
        clip-path: url(#clippath-12);
      }

      .st11 {
        clip-path: url(#clippath-1);
      }

      .st12 {
        clip-path: url(#clippath-3);
      }

      .st13 {
        clip-path: url(#clippath-4);
      }

      .st14 {
        clip-path: url(#clippath-2);
      }

      .st15 {
        clip-path: url(#clippath-7);
      }

      .st16 {
        clip-path: url(#clippath-6);
      }

      .st17 {
        clip-path: url(#clippath-9);
      }

      .st18 {
        clip-path: url(#clippath-8);
      }

      .st19 {
        clip-path: url(#clippath-5);
      }

      .st20 {
        fill: #221f1d;
      }

      .st21 {
        fill: #fff;
      }

      .st22 {
        stroke: #1d1d1b;
        stroke-width: 1.7px;
      }

      .st23 {
        fill: #f7a4c5;
      }

      .st24 {
        clip-path: url(#clippath);
      }

      .st25 {
        fill: #fdd900;
      }
    </style>
    <clipPath id="clippath">
      <rect class="st0" x="137.5" y="15.6" width="133" height="125.5"/>
    </clipPath>
    <clipPath id="clippath-1">
      <rect class="st0" x="137.5" y="15.6" width="133" height="125.5"/>
    </clipPath>
    <clipPath id="clippath-2">
      <rect class="st0" x="137.5" y="15.6" width="133" height="125.5"/>
    </clipPath>
    <clipPath id="clippath-3">
      <rect class="st0" x="137.5" y="15.6" width="133" height="125.5"/>
    </clipPath>
    <clipPath id="clippath-4">
      <rect class="st0" x="137.5" y="15.6" width="133" height="125.5"/>
    </clipPath>
    <clipPath id="clippath-5">
      <rect class="st0" x="96.3" y="295.7" width="82.5" height="76.7"/>
    </clipPath>
    <clipPath id="clippath-6">
      <rect class="st0" x="13" y="179" width="100.3" height="45.6"/>
    </clipPath>
    <clipPath id="clippath-7">
      <rect class="st0" x="13" y="179" width="100.3" height="45.6"/>
    </clipPath>
    <clipPath id="clippath-8">
      <rect class="st0" x="13" y="179" width="100.3" height="45.6"/>
    </clipPath>
    <clipPath id="clippath-9">
      <rect class="st0" x="13" y="179" width="100.3" height="45.6"/>
    </clipPath>
    <clipPath id="clippath-10">
      <rect class="st0" x="13" y="179" width="100.3" height="45.6"/>
    </clipPath>
    <clipPath id="clippath-11">
      <rect class="st0" x="339.6" y="115.4" width="60" height="65.3"/>
    </clipPath>
    <clipPath id="clippath-12">
      <rect class="st0" x="300" y="270.9" width="58.6" height="24.5"/>
    </clipPath>
    <clipPath id="clippath-13">
      <rect class="st0" x="300" y="270.9" width="58.6" height="24.5"/>
    </clipPath>
    <clipPath id="clippath-14">
      <rect class="st0" x="300" y="270.9" width="58.6" height="24.5"/>
    </clipPath>
    <clipPath id="clippath-15">
      <rect class="st0" x="300" y="270.9" width="58.6" height="24.5"/>
    </clipPath>
    <clipPath id="clippath-16">
      <rect class="st0" x="300" y="270.9" width="58.6" height="24.5"/>
    </clipPath>
    <clipPath id="clippath-17">
      <polygon class="st0" points="145.6 353.2 171.9 352.3 171.2 318.1 144.9 318.9 145.6 353.2"/>
    </clipPath>
  </defs>
  <path class="st22" d="M266.4,249.3c-2.6,3.8-7.6,10.5-8.1,11.7-3.4,7.4-12.5,29.1-13.3,30.7-1.2,2.6,2.6,3.8,2.6,3.8,6.6,2.2,5.8,1.7,25.1,4.2.7.1,4.7-3.3,7.1-13.2,3.3-13.6,2.6-8.6,2.6-8.6v5.2c0,9,1.5,41,1.2,42.6l-1.5,57.9c-.1,7.6,2.8,8.6,4,8.6,2.6,0,6.4,3.8,23.2,2.6,6.9-.5,20.7,0,33.5,1.2,13.1,1.3,11.9-1.2,33.5-1.2s5.3-3,6.4-16.7c.4-4.9-1.2-42.1-1.2-64s-2.6-40.4-1.2-37.8c3.8,7.7,2.7,17,5.2,21.9,1.2,2.6,13.6,2.6,17.1,1.2l9.9-.8c2.4-.1,3.3-.3,2.6-4.3-2.6-12.9-5-18.1-6.6-27.9-2.4-14.5-7-15.3-11.4-18.5-7.9-5.7-20.7-7.3-33.5-11.2-4.3-1.2-3.6,2.5-5.2,4.8s-2.4,5.1-10.3,7.8c-10.1,3.4-13.1,1.5-20.5,1.7-3.9.1-10.3-.9-14-2.4-16.1-6.5-8.5-13.3-13.4-11.8-13.5,4-19.2,3.2-28.1,7.7q-3.7,1.9-5.7,4.8h0Z"/>
  <g class="st24">
    <g>
      <path class="st1" d="M150.5,110.9c-.6,0-1.4.7-2.1,1.2-1.4.9-2.6.7-1.4-8,1.8-13.2-6.2-10.2-1.4-25.5s10.1-35.7,15.4-40.8c5.3-5.1,10.4-6,19.3-11.9,7.7-5.1,21.2-11.9,30-8.5s18.6-3.4,27.4,1.7,11.1,3.4,12.8,11.9c1.8,8.5,2,10.1,4.3,13.8,11.9,19.7,9.5,55.6,9.5,59.3s-.4,9.3-.4,9.3"/>
      <path class="st2" d="M264.9,113.4h-1.7c0-.2.4-5.8.4-9.4v-1.8c.6-17.9-.5-42.4-9.4-57.1-2.3-3.8-2.6-5.4-4.2-13.3l-.2-.8c-1.2-5.8-2.5-6.4-6.6-8.3-1.5-.7-3.5-1.6-5.8-3-4.5-2.6-9.2-1.9-14.3-1.2-4.3.6-8.8,1.2-13-.4-9.6-3.7-24.8,5.5-29.2,8.4-3.8,2.5-6.9,4.1-9.6,5.5-3.7,1.9-6.6,3.4-9.6,6.3-4.1,3.9-8.4,18.3-12.2,30.9-1,3.4-2,6.5-2.9,9.6-2.6,8.2-1.5,10.8-.1,13.9,1.1,2.5,2.3,5.4,1.5,11.5-.7,5.5-.4,7-.3,7.4.1,0,.2,0,.4-.2s.4-.3.6-.4c.6-.5,1.3-.9,2-.9v1.7c-.2,0-.7.4-1,.6-.2.2-.4.3-.7.5s-1.3.8-2.2.3c-1-.6-1.4-2.4-.5-9.1.8-5.7-.3-8.2-1.4-10.6-1.4-3.2-2.7-6.3.1-15.1,1-3,1.9-6.2,2.9-9.5,4.1-13.5,8.3-27.4,12.7-31.7,3.1-3,6.2-4.6,10-6.6,2.7-1.4,5.8-3,9.5-5.4,4.6-3,20.4-12.6,30.8-8.6,3.8,1.5,7.9.9,12.2.3,5.1-.7,10.4-1.4,15.4,1.4,2.3,1.3,4.2,2.2,5.7,2.9,4.2,2,6.2,2.9,7.6,9.6l.2.8c1.6,7.8,1.9,9.2,4,12.7,7.3,12,10.5,31.6,9.6,58v1.7c-.3,3.7-.7,9.4-.7,9.4h0Z"/>
      <path class="st20" d="M204.7,131.5c-.4-1.1.1-1.1,1.1-1.7,1.4-.8,2.7-1.5,4.1-.4.4.3,1.5.8,1.2.3-1.6-2.7-4-8.7-4.4-8.9-.3,0-.3.4-.5,1.6-.2,1.4-1.7,2.3-2.7,3.2-1.8,1.6-5.7,3.9-6.7,5.1,0,0,1.9,3.5,2.5,3.1.6-.3,2.9-2.2,3.1-1.7.2.6,1.5,3.6,2,5.1,0,.1.1.2.3.1.5-.1,1.1-.2,1.7-.4.2,0,.4-.3.3-.5-.4-1.1-1.5-3.6-2-4.9"/>
      <path class="st1" d="M142,103c-6.9,3.8-1.7,3.8-1.7,13.2s-.9,17-.9,17c0,0-1.9,7.8,24.9,3.8,15.3-2.3-18.9.9,30.9.9s32.6-.5,46.3,1.4,15.4,0,15.4,0c0,0,12.1,1.7,12-3.3.1,4.7.9-18.4.9-27.4s-6-5.5-14.6-5.1-15.4-.2-20.6-.2-41.1-.4-46.3,1.7-17.1-1.5-18.9-1.7c-1.7,0-20.6-4.1-27.4-.3"/>
      <path class="st2" d="M251.5,141.1c-2.4,0-5.7-.2-10.2-.9-3.1-.4-4.6-.7-5.8-1-1.7-.3-6.8-.5-15.5-.4-5.5,0-13.5.1-24.9.1-21.7,0-27.2-.5-28.7-1.3-.6.1-1.2.2-2,.3-13.5,2-21.8,1.4-24.8-1.8-1.2-1.3-1.1-2.6-1-2.9.1-.6.9-7.9.9-16.9s-.7-5.6-1.3-7.2c-1-3-1-4.3,3.4-6.8h0c6.2-3.5,21.5-.8,26.6,0,.7,0,1.2.2,1.4.2.4,0,1.1.2,2.3.5,4,.9,12.3,2.9,16.2,1.3,3.2-1.3,17.8-1.9,44.5-1.8h2.2c1.7,0,3.7,0,5.7,0,4.3,0,9.1.3,14.8,0,6.9-.3,11.5-.4,13.9,1.9,1,1,1.6,2.4,1.6,4.1,0,4.4-.2,11.7-.3,17.2-.3,8.5-.3,10.9-.7,11.5-.2.5-.5,1-1,1.4-2.8,2.4-9.7,1.8-11.5,1.5-.9.3-2.4.8-5.8.8h0ZM227.2,137.1c6.2,0,6.6.1,8.7.5,1.1.2,2.6.5,5.6.9,12.5,1.7,14.7.3,14.8.2l.3-.3h.4c2.2.4,8.4.8,10.4-1,.4-.4.6-.8.6-1.3h.1c.2-3,.8-20.1.8-27.5s-.3-2.2-1-2.9c-2-1.9-7.2-1.7-12.6-1.4-5.8.3-10.6,0-15,0-2,0-4,0-5.6,0h-2.2c-26.1,0-40.8.4-43.8,1.6-4.4,1.8-12.7-.2-17.2-1.2-.9-.2-1.8-.4-2.1-.4s-.8,0-1.5-.2c-13.1-2.3-21.6-2.4-25.4-.2h0c-3.6,2-3.4,2.4-2.6,4.7.5,1.6,1.4,4,1.4,7.8,0,9.4-.9,17.1-.9,17.1h0c0,.1-.1.8.7,1.6,1.5,1.5,6.5,3.7,23.2,1.2,1-.1,1.8-.3,2.3-.4.5-.3,1.2-.4,1.8-.4,1-.1,1.1.6,1.1.8v.4c2.9.3,9.8.6,25.7.6s19.4,0,24.9-.1h7.1Z"/>
      <path class="st1" d="M241.4,41.2c-2.1.8-4.3.8-6.3,1.7-2.6,1.1-4.6,2.6-7.4,3.5"/>
      <path class="st2" d="M228,47.3l-.6-1.6c1.6-.6,3-1.3,4.4-2,1-.5,1.9-1,3-1.5s2.3-.8,3.5-1c1-.2,1.9-.4,2.8-.7l.6,1.6c-1,.4-2.1.6-3.1.8-1.1.2-2.2.4-3.1.9-1,.4-2,.9-2.9,1.4-1.4.7-2.9,1.5-4.6,2.1h0Z"/>
      <path class="st20" d="M191.9,123.2c-.4-1.1.1-1.1,1.1-1.7,1.4-.8,2.7-1.5,4.1-.4.4.3,1.5.8,1.2.3-1.6-2.7-4-8.7-4.4-8.9-.3,0-.3.4-.5,1.6-.2,1.4-1.7,2.3-2.7,3.2-1.7,1.6-5.7,3.9-6.7,5.1,0,0,1.9,3.5,2.5,3.1.6-.3,2.9-2.2,3.1-1.7.2.6,1.5,3.6,2,5.1,0,0,.1.2.3,0,.5,0,1.1-.2,1.7-.4.2,0,.4-.3.3-.5-.4-1.1-1.6-3.6-2-4.9"/>
    </g>
  </g>
  <polygon class="st20" points="198.3 113.2 199 113.2 198 117.6 197.4 117.6 198.3 113.2"/>
  <g class="st11">
    <g>
      <path class="st20" d="M199.7,113.2h.9l.5,3.8,2.1-3.8h.9l-.9,4.4h-.6l.6-2.6c0,0,0-.2.1-.4,0-.2.1-.4.1-.7l-2.1,3.7h-.6l-.5-3.7h0c0,.2,0,.4-.1.6,0,.2-.1.4-.1.5l-.5,2.6h-.6l.8-4.4h0Z"/>
      <path class="st20" d="M207,113.8c-.1,0-.3,0-.5,0h-1.2l-.3,1.5h1.2c.3,0,.5,0,.7-.2s.3-.3.4-.6c0-.3,0-.5-.3-.6M204.7,113.2h2c.4,0,.7,0,.9.3s.2.5.2.9c-.1.4-.2.6-.5.9s-.6.4-1.1.4h-1.4l-.4,1.9h-.6l.9-4.4h0Z"/>
      <path class="st20" d="M209.3,113.2l-.6,2.7c-.1.3-.1.6,0,.8.1.3.4.5.8.5s.9-.2,1.1-.5c.1-.2.2-.4.3-.8l.6-2.7h.6l-.5,2.5c-.1.6-.3,1-.5,1.3-.4.5-1,.8-1.7.8s-1.2-.3-1.4-.8c-.1-.3-.1-.7,0-1.3l.5-2.5h.8Z"/>
    </g>
  </g>
  <polygon class="st20" points="212.9 113.2 213.5 113.2 212.6 117.1 214.9 117.1 214.8 117.6 211.9 117.6 212.9 113.2"/>
  <g class="st14">
    <path class="st20" d="M215.9,116.2v.6c.1.3.5.4,1,.4s.4,0,.6,0c.4,0,.6-.4.7-.7,0-.2,0-.4-.1-.5s-.4-.2-.7-.3h-.6c-.4-.2-.6-.3-.8-.4-.2-.2-.3-.5-.2-.8.1-.4.3-.7.6-1s.8-.4,1.2-.4.8,0,1.1.3c.3.2.4.6.3,1.1h-.6c0-.2,0-.4-.1-.6s-.4-.4-.9-.4-.6,0-.8.2-.3.3-.3.5,0,.4.2.5c.1,0,.4,0,.8.2h.6c.3.2.5.3.6.4.2.2.3.5.2.9-.1.5-.4.8-.8,1.1-.4.2-.8.3-1.3.3s-1,0-1.2-.4-.3-.7-.2-1.1l.7.2h0Z"/>
  </g>
  <polygon class="st20" points="220.1 113.2 223.3 113.2 223.2 113.7 220.6 113.7 220.3 115.1 222.7 115.1 222.6 115.6 220.2 115.6 219.9 117.1 222.5 117.1 222.4 117.6 219.1 117.6 220.1 113.2"/>
  <polygon class="st20" points="204.8 118.6 204.8 119.4 203.5 119.4 203.5 123 202.6 123 202.6 119.4 201.2 119.4 201.2 118.6 204.8 118.6"/>
  <g class="st12">
    <g>
      <path class="st20" d="M208.3,121.1v1.9h-.9v-2c0-.2,0-.3-.1-.4s-.2-.2-.5-.2-.4,0-.5.2-.2.4-.2.6v1.8h-.9v-4.4h.9v1.6c.1-.2.3-.3.4-.4.2,0,.3,0,.5,0s.4,0,.5,0c.2,0,.3.2.4.3s.1.2.2.4c.1,0,.2.3.2.6"/>
      <path class="st20" d="M211,121c0-.2-.1-.4-.2-.5s-.3-.2-.5-.2-.4,0-.5.2-.2.3-.2.5h1.4ZM211.9,122c0,.2-.1.4-.3.6-.3.3-.7.5-1.2.5s-.8,0-1.1-.4-.5-.7-.5-1.3.1-1,.4-1.3.7-.5,1.1-.5.5,0,.7,0c.2,0,.4.3.5.5s.2.4.2.7v.6h-2.2c0,.3.1.6.3.7.1,0,.3,0,.4,0,.2,0,.3,0,.4,0q.1,0,.2-.2h1.1Z"/>
      <path class="st20" d="M213.3,122.4c.1,0,.2,0,.3,0,.2,0,.4,0,.5-.2.2,0,.2-.3.2-.6v-.3s-.1,0-.2,0-.1,0-.2,0h-.2c-.2,0-.3,0-.4,0-.1,0-.2.2-.2.4,0,.1,0,.2.2.3M212.6,120.1c.2-.3.6-.4,1.2-.4s.7,0,1,.2.4.4.4.8v2.1h.1v.2h-.9v-.4c-.1,0-.3.2-.4.3-.2,0-.4.2-.6.2-.3,0-.5,0-.7-.2-.2-.2-.3-.4-.3-.7s.2-.7.5-.9c.2,0,.4-.2.8-.2h.3c.2,0,.3,0,.3,0,.1,0,.2,0,.2-.2s0-.2-.1-.3-.2,0-.4,0-.4,0-.4,0c-.1,0-.1.2-.1.3h-.8c-.3-.3-.2-.5-.1-.7"/>
      <path class="st20" d="M217.5,122.4v.6h-.4c-.4,0-.7,0-.8-.2-.1,0-.1-.2-.1-.5v-2h-.5v-.6h.5v-.9h.9v.9h.5v.6h-.5v1.9s.1,0,.3,0q-.1.1,0,.1t0,0"/>
      <path class="st20" d="M220,121c0-.2-.1-.4-.2-.5s-.3-.2-.5-.2-.4,0-.5.2-.2.3-.2.5h1.4ZM220.8,122c0,.2-.1.4-.3.6-.3.3-.7.5-1.2.5s-.8,0-1.1-.4-.5-.7-.5-1.3.1-1,.4-1.3.7-.5,1.1-.5.5,0,.7,0c.2,0,.4.3.5.5s.2.4.2.7v.6h-2.2c0,.3.1.6.3.7.1,0,.3,0,.4,0,.2,0,.3,0,.4,0q.1,0,.2-.2h1.1Z"/>
      <path class="st20" d="M223.1,120.5c-.4,0-.6,0-.7.3-.1,0-.1.3-.1.6v1.6h-.9v-3.3h.8v.6c.1-.2.2-.4.4-.4.2,0,.4-.2.6-.2h.1v.9h-.2"/>
    </g>
  </g>
  <polygon class="st20" points="199.2 125.3 197 125.3 197 126.3 198.9 126.3 198.9 127 197 127 197 128.8 196.1 128.8 196.1 124.5 199.2 124.5 199.2 125.3"/>
  <polygon class="st20" points="202.8 126.9 200.7 126.9 200.7 128 203.1 128 203.1 128.8 199.8 128.8 199.8 124.5 203 124.5 203 125.3 200.7 125.3 200.7 126.2 202.8 126.2 202.8 126.9"/>
  <g class="st13">
    <path class="st20" d="M205.4,128.2c.2,0,.4,0,.5,0,.2,0,.4-.3.4-.5s-.1-.2-.2-.3-.3,0-.6-.2h-.5c-.5-.2-.8-.3-.9-.4-.3-.2-.4-.5-.4-.9s.1-.7.4-1,.7-.4,1.2-.4.8,0,1.2.4.5.6.5,1.1h-.9c0-.3-.1-.4-.3-.6-.1,0-.3,0-.5,0s-.4,0-.6,0c-.1,0-.2.2-.2.4s.1.3.2.4c.1,0,.3,0,.6.2l.7.2c.3,0,.6.2.7.3.3.2.4.5.4.9s-.1.7-.5,1c-.3.3-.7.4-1.3.4s-1,0-1.3-.4-.5-.6-.5-1.1h.9c0,.2.1.3.2.4.1,0,.4.2.8.2"/>
  </g>
  <polygon class="st20" points="210.9 124.5 210.9 125.3 209.6 125.3 209.6 128.8 208.7 128.8 208.7 125.3 207.4 125.3 207.4 124.5 210.9 124.5"/>
  <rect class="st20" x="211.4" y="124.5" width=".9" height="4.3"/>
  <polygon class="st20" points="212.8 124.5 213.8 124.5 214.7 127.8 215.6 124.5 216.6 124.5 215.1 128.8 214.2 128.8 212.8 124.5"/>
  <path class="st20" d="M218.9,127.2l-.5-1.7-.6,1.7h1.1ZM219.2,127.9h-1.6l-.3.9h-.9l1.5-4.3h1l1.5,4.3h-1l-.2-.9Z"/>
  <polygon class="st20" points="221 124.5 221.9 124.5 221.9 128 224 128 224 128.8 221 128.8 221 124.5"/>
  <g class="st19">
    <g>
      <path class="st1" d="M173.9,362.9h0c.1.2.1.3.1.5-1.6,5.2-12.7,8.1-28.5,8.2-15.5,0-28.7-2.1-28.4-7.8"/>
      <path class="st2" d="M145.4,372.4c-8.6,0-23.4-.7-27.7-5.3-.9-1-1.4-2.1-1.3-3.4h1.7c0,.9.2,1.6.8,2.2,2.9,3,12.5,4.8,26.5,4.8h.2c15.2,0,26-2.9,27.6-7.4h0c0-.1-.1-.5-.1-.5l.2-.4.7.4h0v-.9l.7.4h0c0,.1.1.1.1.1.1.2.1.5.1.8v.2c-1.7,5.5-12.6,8.7-29.3,8.8l-.2.2h0Z"/>
      <path class="st1" d="M177.6,303.5c.9,6-14.9,5.9-31.6,5.9s-30.8,2.7-30-5.9c.4-3.9,14.3-6.7,31-6.7s29.8,1.4,30.6,6.7"/>
      <path class="st2" d="M147,298c-18.1,0-29.6,3.3-29.8,5.7,0,1.3,0,2.2.8,2.9,2.3,2.5,9.7,2.2,18.2,1.9,3.2-.1,6.5-.2,9.9-.2h.9c13,0,26.4,0,29.2-3.2.3-.4.5-.8.4-1.4-.5-2.6-6-5.7-29.6-5.7M128.6,311c-5.8,0-10.1-.5-12.3-2.8-1.1-1.2-1.6-2.8-1.4-4.7.5-5.3,17-7.7,32.1-7.7,21.4,0,30.9,2.3,31.7,7.7.2,1.2-.1,2.3-.9,3.2-3.4,4-16.2,4-30.9,4h-.9c-3.4,0-6.7.1-9.8.2-2.7,0-5.3,0-7.6,0"/>
      <path class="st2" d="M171.2,303.3c0,1.5-10.9,2.7-24.3,2.7s-24.3-1.2-24.3-2.7,10.9-2.7,24.3-2.7,24.3,1.3,24.3,2.7"/>
      <path class="st1" d="M117.2,364.2h0l-1.6-57.9c0-.5.8-1.2,1-.7,1.2,2.2,12.7,3.6,28.4,3.6s32.3-.4,32.6-4.5l-3.7,59.5h0"/>
      <path class="st2" d="M173.3,363.6l.6.6-.6-.6ZM173.9,365h-.9l3.6-57.7c-3.8,2.2-13.7,2.7-31.6,2.7s-24.8-.3-28.6-3.5l1.6,58.5h-.9v-.8l-.6.6v-.6h-.2l-1.6-57.9c0-.7.6-1.5,1.3-1.7.5-.1,1,.1,1.3.6.6,1.2,8.7,3.2,27.6,3.2s31.5,0,31.8-3.7h1.7c0,.1-3.7,59.4-3.7,59.4v.3c.1,0-.3.4-.3.4l-.6-.6v.8h0Z"/>
      <path class="st1" d="M97.1,335.6c0,16.2,0,22.9,20.6,25.4h2.1c1.6-.3,3.1-1.8,3.1-4.1s-2.3-5-4.1-5.1h-.4c-7.5-.1-15.2-4.3-13-16.2,1.6-8.2,6.5-16,14-16h0c1.5-.1,2.8-2,2.8-4.2s-1.2-4.1-2.6-4.2c0,0-2.2-.1-2.6,0-.4,0-2,.1-2.4.2-.6.1-1.2.3-1.9.6h0c-.7.2-1.3.5-2,.8-.6.3-1.3.7-1.9,1-1,.6-2,1.4-2.9,2.1-.2.2-.4.4-.7.6-.2.2-.4.4-.6.6-4.6,4.6-7.4,11.2-7.4,18.5"/>
      <path class="st2" d="M117.8,360.2h1.9c1.2-.3,2.4-1.4,2.4-3.3s-2-4.2-3.3-4.2h-.5c-4.9-.1-9-1.8-11.4-4.8-2.5-3-3.3-7.2-2.3-12.5,2.2-11.9,8.9-16.3,14.2-16.6h.5c.9-.1,1.9-1.4,1.9-3.4s-.9-3.3-1.9-3.4h0c-.3,0-2.1-.1-2.4,0,0,0-.4,0-.7.1-.4,0-1.4.1-1.6.2-.6.2-1.2.3-1.8.5h-.2c-.6.2-1.2.5-1.8.8s-1.2.6-1.8,1c-1,.6-1.9,1.3-2.8,2.1l-.7.6c-.2.2-.4.4-.6.6-4.5,4.6-7,11.1-7,17.8v.3c.1,15.8.1,21.8,19.9,24.2M118.8,361.9h-1.2c-21.3-2.6-21.3-9.9-21.3-26v-.3c0-7.2,2.7-14.1,7.5-19h0c.2-.3.4-.5.6-.7l.7-.6c1-.9,2-1.6,3-2.2.6-.4,1.3-.8,2-1.1.7-.3,1.4-.6,2.1-.9h.2c.6-.2,1.2-.4,1.8-.5.3-.1,1-.1,1.9-.2.3,0,.5,0,.6-.1h2.8c1.9.2,3.4,2.4,3.4,5.1s-1.5,4.9-3.5,5.1h-.4c0,.1,0,0,0,0-6.9.3-11.3,7.8-12.7,15.3-.9,4.7-.2,8.4,1.9,11.1,2.9,3.5,7.6,4.1,10.2,4.1h.5c2.2.2,4.9,3,4.9,6.1s-2,4.6-3.8,5c0-.2-.2-.2-1.2-.2"/>
    </g>
  </g>
  <rect class="st20" x="13" y="179" width="100.3" height="45.6"/>
  <g class="st16">
    <path class="st21" d="M35.5,206.9c-.9-2.4.2-2.6,2.5-3.9,3.2-1.9,6.1-3.4,9.5-1,.8.6,3.4,1.8,2.8.7-3.7-6.1-9.1-19.9-10.1-20.3-.8-.3-.7,1-1.2,3.6-.6,3.2-3.9,5.3-6.1,7.2-4,3.5-13,8.9-15.2,11.6,0,0,4.4,8,5.8,7.2,1.3-.8,6.7-5.1,7.2-3.8.6,1.5,3.3,8.2,4.5,11.6,0,.3.3.4.6.4,1.2-.3,2.5-.6,3.8-.8.5-.1.8-.6.7-1.1-1.1-2.8-3.7-8.4-4.8-11.4"/>
  </g>
  <polygon class="st21" points="50.3 184 51.7 184 49.5 194.1 48.1 194.1 50.3 184"/>
  <g class="st15">
    <g>
      <path class="st21" d="M53.4,184h2l1.1,8.6,4.7-8.6h1.9l-2.1,10.1h-1.3l1.3-6c0-.2,0-.5.2-1s.2-1,.3-1.5l-4.7,8.5h-1.4l-1.1-8.5v.3c-.2.2-.2.6-.3,1.1s-.2.9-.2,1.1l-1.3,6h-1.3l2.2-10.1h0Z"/>
      <path class="st21" d="M69.9,185.4c-.3-.1-.7-.2-1.2-.2h-2.7l-.7,3.5h2.7c.6,0,1.1-.1,1.6-.4s.7-.7.9-1.4c.1-.7,0-1.2-.6-1.5M64.9,184h4.6c.9,0,1.6.2,2,.8.4.5.6,1.2.4,2.1-.2.8-.6,1.5-1.2,2.1s-1.4.9-2.5.9h-3.2l-.9,4.3h-1.4l2.2-10.2h0Z"/>
      <path class="st21" d="M75.2,184l-1.3,6.3c-.2.7,0,1.4,0,1.8.2.7.9,1.1,1.8,1.1s2-.4,2.6-1.2c.3-.4.6-1,.7-1.7l1.3-6.3h1.4l-1.2,5.7c-.3,1.2-.6,2.2-1.1,2.9-.9,1.2-2.2,1.8-3.9,1.8s-2.7-.6-3.1-1.8c-.2-.7-.2-1.6,0-2.9l1.2-5.7h1.5Z"/>
    </g>
  </g>
  <polygon class="st21" points="83.5 184 84.8 184 82.9 192.9 88.1 192.9 87.8 194.1 81.3 194.1 83.5 184"/>
  <g class="st18">
    <path class="st21" d="M90.3,190.9c0,.6,0,1,0,1.4.3.7,1,1,2.2,1s1-.1,1.5-.2c.9-.3,1.4-.8,1.6-1.5,0-.5,0-.9-.3-1.2-.3-.2-.8-.4-1.5-.6l-1.3-.3c-.9-.2-1.4-.4-1.8-.7-.6-.4-.7-1-.6-1.9.2-.9.7-1.7,1.4-2.2s1.7-.9,2.9-.9,1.9.3,2.5.8.8,1.3.6,2.5h-1.3c0-.5,0-1-.2-1.2-.3-.5-1-.8-2-.8s-1.4.2-1.9.5c-.4.3-.7.7-.8,1.2s0,.9.4,1.1c.2.1.8.3,1.7.5l1.4.3c.6.2,1.1.4,1.4.6.6.5.7,1.2.5,2.1-.2,1.1-.8,1.9-1.7,2.4s-1.9.7-3,.7-2.2-.3-2.8-1c-.6-.6-.7-1.5-.5-2.6h1.5Z"/>
  </g>
  <polygon class="st21" points="100 184 107.4 184 107.1 185.2 101 185.2 100.4 188.3 106 188.3 105.7 189.5 100.1 189.5 99.4 192.9 105.6 192.9 105.3 194.1 97.8 194.1 100 184"/>
  <polygon class="st21" points="65.1 196.3 65.1 198.1 62 198.1 62 206.4 59.9 206.4 59.9 198.1 56.8 198.1 56.8 196.3 65.1 196.3"/>
  <g class="st17">
    <g>
      <path class="st21" d="M72.9,202v4.4h-2v-4.6c0-.4,0-.7-.2-1-.2-.4-.5-.5-1-.5s-.9.2-1.2.5c-.3.4-.4.8-.4,1.5v4.1h-2v-10.1h2v3.6c.3-.4.6-.7,1-.9s.8-.3,1.2-.3.9.1,1.3.2.7.4.9.7c.2.3.3.6.4.9s0,.9,0,1.5"/>
      <path class="st21" d="M79.3,201.9c0-.5-.2-.9-.5-1.2s-.6-.4-1.1-.4-.8.1-1.1.4c-.2.3-.4.7-.5,1.2h3.2ZM81.2,204.2c0,.5-.3.9-.7,1.4-.6.7-1.6,1.1-2.7,1.1s-1.8-.3-2.5-.9-1.1-1.6-1.1-3,.3-2.3,1-3,1.5-1,2.6-1,1.2.1,1.7.4c.5.2.9.6,1.2,1.1s.5,1,.6,1.5c0,.3,0,.8,0,1.5h-5.1c0,.8.3,1.3.7,1.6.3.2.6.3,1,.3s.7-.1,1-.3c0-.1.3-.3.4-.5l1.8-.2h0Z"/>
      <path class="st21" d="M84.4,205c.2.1.4.2.7.2s.8-.1,1.2-.4.5-.7.6-1.4v-.7c0,.1-.2.1-.4.2s-.3.1-.5.1h-.4c-.4.2-.7.3-.9.4-.3.2-.4.5-.4.8-.2.5,0,.7.1.8M82.9,199.7c.5-.7,1.4-1,2.7-1s1.6.2,2.2.5,1,.9,1,1.9v4.4c0,.3,0,.4,0,.5,0,.1.2.2.3.2v.3h-2.1c0-.1,0-.3,0-.4s0-.3,0-.5c-.3.3-.6.5-.9.8-.4.2-.9.4-1.4.4s-1.2-.2-1.7-.6c-.4-.4-.7-.9-.7-1.6s.4-1.6,1.1-2c.4-.2,1-.4,1.7-.5h.7c.4-.1.6-.2.8-.3.3-.1.4-.3.4-.6s0-.5-.3-.6-.5-.2-.9-.2-.8.1-1,.3c0,.2-.2.4-.3.7h-1.9c0-.7.1-1.2.4-1.7"/>
      <path class="st21" d="M94,205.1v1.5h-.9c-.9,0-1.6-.1-1.9-.5-.2-.2-.3-.6-.3-1v-4.6h-1.1v-1.4h1.1v-2.1h1.9v2.1h1.2v1.4h-1.2v4c0,.3,0,.5,0,.6s.3.1.7.1h.2c0,0,.1-.1.2-.1"/>
      <path class="st21" d="M99.7,201.9c0-.5-.2-.9-.5-1.2s-.6-.4-1.1-.4-.8.1-1.1.4c-.2.3-.4.7-.5,1.2h3.2ZM101.7,204.2c0,.5-.3.9-.7,1.4-.6.7-1.6,1.1-2.7,1.1s-1.8-.3-2.5-.9-1.1-1.6-1.1-3,.3-2.3,1-3,1.5-1,2.6-1,1.2.1,1.7.4c.5.2.9.6,1.2,1.1s.5,1,.6,1.5c0,.3,0,.8,0,1.5h-5.1c0,.8.3,1.3.7,1.6.3.2.6.3,1,.3s.7-.1,1-.3c0-.1.3-.3.4-.5l1.8-.2h0Z"/>
      <path class="st21" d="M106.9,200.7c-.8,0-1.3.3-1.6.8,0,.3-.2.7-.2,1.3v3.6h-2v-7.5h1.9v1.3c.3-.5.6-.8.8-1,.4-.3.9-.5,1.4-.5h.3v2h-.3c-.2,0-.3,0-.3,0"/>
    </g>
  </g>
  <polygon class="st21" points="52.2 211.6 47.3 211.6 47.3 213.8 51.6 213.8 51.6 215.5 47.3 215.5 47.3 219.7 45.2 219.7 45.2 209.8 52.2 209.8 52.2 211.6"/>
  <polygon class="st21" points="60.4 215.4 55.7 215.4 55.7 217.9 61.1 217.9 61.1 219.7 53.6 219.7 53.6 209.8 60.9 209.8 60.9 211.6 55.7 211.6 55.7 213.7 60.4 213.7 60.4 215.4"/>
  <g class="st6">
    <path class="st21" d="M66.3,218.2c.5,0,.9,0,1.2-.2.6-.2.9-.6.9-1.1s0-.6-.4-.8-.7-.3-1.3-.5l-1-.2c-1-.2-1.7-.5-2.1-.8-.7-.5-1-1.2-1-2.1s.3-1.6,1-2.2c.6-.6,1.6-.9,2.8-.9s1.9.3,2.7.8c.7.5,1.1,1.4,1.1,2.4h-2c0-.6-.3-1-.8-1.3-.3-.2-.7-.2-1.2-.2s-.9.1-1.3.3c-.3.2-.5.5-.5.9s0,.6.5.8c.2.1.6.2,1.3.4l1.7.4c.7.2,1.3.4,1.7.7.6.5.9,1.1.9,2s-.3,1.6-1,2.2-1.7.9-2.9.9-2.3-.3-3-.9-1.1-1.4-1.1-2.4h2c0,.5.2.8.4,1,0,.7.6.9,1.4.8"/>
  </g>
  <polygon class="st21" points="79 209.8 79 211.6 76.1 211.6 76.1 219.7 74 219.7 74 211.6 71 211.6 71 209.8 79 209.8"/>
  <rect class="st21" x="80.1" y="209.8" width="2" height="9.9"/>
  <polygon class="st21" points="83.3 209.8 85.5 209.8 87.6 217.3 89.8 209.8 91.9 209.8 88.6 219.7 86.6 219.7 83.3 209.8"/>
  <path class="st21" d="M97.3,216l-1.2-3.9-1.3,3.9h2.5ZM97.9,217.7h-3.6l-.7,2h-2.1l3.5-9.9h2.3l3.5,9.9h-2.2l-.7-2h0Z"/>
  <polygon class="st21" points="102 209.8 104.1 209.8 104.1 217.9 109 217.9 109 219.7 102 219.7 102 209.8"/>
  <g>
    <rect class="st21" x="339.6" y="115.4" width="60" height="65.3"/>
    <g class="st4">
      <g>
        <path class="st20" d="M372,154.4c-1.3-3.3.3-3.5,3.5-5.4,4.5-2.6,8.4-4.7,13.1-1.3,1.2.9,4.8,2.5,3.8.9-5.1-8.4-12.6-27.5-13.9-28.1-1-.5-.9,1.4-1.6,5-.8,4.4-5.4,7.3-8.5,10-5.5,4.9-18,12.3-21,16,0,0,6.1,11,8,10,1.8-1.1,9.3-7,10-5.3.8,2.1,4.6,11.4,6.2,16.1.1.4.5.6.8.5,1.7-.4,3.5-.8,5.3-1.1.7-.1,1.1-.8.9-1.5-1.4-4-5.1-11.8-6.6-15.8"/>
        <path class="st2" d="M399.6,180.8h-60v-65.3h60v65.3ZM340.6,179.8h58v-63.3h-58v63.3Z"/>
      </g>
    </g>
  </g>
  <g class="st10">
    <path class="st25" d="M300,285.4s2.9,5.2,3.7,4.7c.8-.5,4.4-3.3,4.7-2.5.4.9,2.2,5.3,2.9,7.5,0,.2.2.2.4.2.8-.2,1.7-.4,2.5-.5.3-.1.5-.4.4-.7-.5-1.9-2.3-5.5-3-7.4-.6-1.6.1-1.7,1.7-2.5,2.1-1.2,3.9-2.2,6.1-.6.5.4,2.2,1.1,1.8.4-2.4-3.9-5.9-12.9-6.4-13.1s-.4.6-.7,2.3c-.4,2.1-2.5,3.4-3.9,4.7-2.8,2.4-8.6,5.8-10.1,7.6"/>
  </g>
  <polygon class="st23" points="321 272.4 321.9 272.4 320.5 279 319.6 279 321 272.4"/>
  <g class="st8">
    <g>
      <path class="st23" d="M323,272.4h1.2l.7,5.5,3-5.5h1.2l-1.3,6.5h-.8l.8-3.8c0-.1.1-.3.1-.6.1-.3.1-.6.2-1l-3,5.5h-.8l-.7-5.5v.2c0,.1-.1.4-.1.7-.1.3-.1.5-.1.7l-.8,3.8h-.8l1.2-6.5h0Z"/>
      <path class="st23" d="M333.7,273.3c-.2-.1-.4-.1-.8-.1h-1.7l-.5,2.3h1.8c.4,0,.7-.1,1-.2.3-.2.5-.5.5-.9.1-.5,0-.8-.3-1M330.4,272.4h2.9c.6,0,1,.2,1.2.5.3.3.4.8.2,1.3-.1.5-.4.9-.7,1.3s-.9.5-1.6.5h-2.1l-.6,2.8h-.7l1.3-6.5h0Z"/>
      <path class="st23" d="M337.1,272.4l-.8,4c-.1.5-.1.8,0,1.1.2.5.5.7,1.1.7s1.3-.2,1.7-.7c.2-.3.3-.6.4-1.1l.8-4h.9l-.8,3.6c-.2.8-.4,1.5-.7,1.9-.5.8-1.5,1.1-2.5,1.1s-1.8-.4-2-1.1c-.1-.4-.1-1,.1-1.9l.8-3.6h.9Z"/>
    </g>
  </g>
  <polygon class="st23" points="342.5 272.4 343.3 272.4 342.1 278.2 345.4 278.2 345.3 279 341 279 342.5 272.4"/>
  <g class="st9">
    <path class="st23" d="M346.9,276.8c0,.4,0,.6.1.9.2.4.6.6,1.5.6s.6,0,.9-.1c.5-.2.9-.5,1-1,.1-.3,0-.6-.2-.7s-.5-.3-.9-.4l-.8-.2c-.5-.1-.9-.3-1.1-.4-.3-.3-.5-.7-.4-1.2.1-.6.4-1,.9-1.5s1.1-.5,1.9-.5,1.2.2,1.7.5.5.8.4,1.6h-.8c0-.3,0-.6-.1-.8-.2-.3-.6-.5-1.2-.5s-.9.1-1.1.3c-.3.2-.4.5-.5.7-.1.3,0,.5.2.7s.5.2,1.1.3l.8.2c.4.1.7.2.9.4.3.3.5.7.3,1.3-.1.7-.5,1.2-1.1,1.6s-1.2.5-2,.5-1.5-.2-1.8-.6-.5-.9-.3-1.7h.7Z"/>
  </g>
  <polygon class="st23" points="353.1 272.4 357.9 272.4 357.7 273.2 353.8 273.2 353.4 275.1 357 275.1 356.8 276 353.2 276 352.8 278.2 356.7 278.2 356.5 279 351.7 279 353.1 272.4"/>
  <polygon class="st25" points="329.7 280.3 329.7 281.6 327.7 281.6 327.7 287 326.4 287 326.4 281.6 324.4 281.6 324.4 280.3 329.7 280.3"/>
  <g class="st7">
    <g>
      <path class="st25" d="M334.8,284.1v2.9h-1.2v-3c0-.2,0-.5-.1-.6-.1-.2-.3-.3-.6-.3s-.6.1-.7.3c-.2.2-.2.5-.2.9v2.6h-1.2v-6.5h1.2v2.3c.2-.3.4-.5.6-.6s.5-.2.7-.2c.3,0,.5,0,.8.1.2.1.4.2.6.5.1.2.2.4.2.5-.1.4-.1.7-.1,1.1"/>
      <path class="st25" d="M338.9,284.1c0-.3-.1-.6-.3-.7-.2-.2-.4-.2-.6-.2-.3,0-.5.1-.7.3s-.2.4-.3.7h2ZM340.1,285.5c0,.3-.2.6-.4.9-.4.5-1,.7-1.8.7s-1.1-.2-1.7-.6-.7-1-.7-2,.2-1.5.6-2,.9-.6,1.7-.6.7.1,1,.2.6.4.8.7c.2.3.3.6.4,1v.9h-3.3c0,.5.2.8.4,1,.2.1.4.2.6.2s.5-.1.6-.2.2-.2.2-.3h1.5Z"/>
      <path class="st25" d="M342.2,286.1c.1.1.2.1.4.1.3,0,.5-.1.7-.2s.3-.4.4-.9v-.5c-.1,0-.2.1-.2.1-.1,0-.2.1-.3.1h-.3c-.3,0-.4.1-.5.2-.2.1-.3.3-.3.5,0,.3,0,.5.1.6M341.2,282.6c.3-.4.9-.6,1.8-.6s1,.1,1.5.3c.4.2.6.6.6,1.1v2.7c0,.2,0,.3.1.3s.1.1.2.1v.2h-1.3c0-.1-.1-.2-.1-.3v-.3c-.2.2-.4.3-.6.5-.3.1-.6.2-.9.2s-.8-.1-1-.4-.4-.6-.4-1c0-.6.2-1,.7-1.2.2-.1.6-.2,1.1-.3h.4c.2,0,.4-.1.5-.1.2-.1.3-.2.3-.4s-.1-.3-.2-.4-.3-.1-.6-.1-.5.1-.6.2-.1.2-.2.4h-1.2c-.2-.2-.1-.6.1-.8"/>
      <path class="st25" d="M348.3,286.1v.9h-.6c-.6,0-1-.1-1.2-.3-.1-.1-.2-.4-.2-.6v-3h-.6v-.9h.6v-1.3h1.2v1.3h.8v.9h-.8v2.6c0,.2,0,.3.1.4,0,0,.2.1.5.1h.2"/>
      <path class="st25" d="M352,284.1c0-.3-.1-.6-.3-.7-.2-.2-.4-.2-.6-.2-.3,0-.5.1-.7.3s-.2.4-.3.7h2ZM353.3,285.5c0,.3-.2.6-.4.9-.4.5-1,.7-1.8.7s-1.1-.2-1.7-.6-.7-1-.7-2,.2-1.5.6-2,.9-.6,1.7-.6.7.1,1,.2.6.4.8.7c.2.3.3.6.4,1v.9h-3.3c0,.5.2.8.4,1,.2.1.4.2.6.2s.5-.1.6-.2.2-.2.2-.3h1.5Z"/>
      <path class="st25" d="M356.7,283.2c-.5,0-.8.2-1,.5-.1.2-.1.5-.1.8v2.3h-1.2v-4.9h1.2v.8c.2-.3.4-.5.5-.6.2-.2.5-.3.9-.3h.2v1.2h-.2c-.2.1-.3.1-.3.1"/>
    </g>
  </g>
  <polygon class="st25" points="321.9 289.7 318.8 289.7 318.8 291.1 321.6 291.1 321.6 292.2 318.8 292.2 318.8 294.9 317.5 294.9 317.5 288.5 321.9 288.5 321.9 289.7"/>
  <polygon class="st25" points="327.3 292.2 324.2 292.2 324.2 293.7 327.7 293.7 327.7 294.9 322.9 294.9 322.9 288.5 327.5 288.5 327.5 289.7 324.2 289.7 324.2 291 327.3 291 327.3 292.2"/>
  <g class="st5">
    <path class="st25" d="M331.1,293.9c.3,0,.5,0,.7-.1.4-.1.5-.4.5-.7s-.1-.4-.3-.5c-.2-.1-.5-.2-.8-.3h-.6c-.6-.2-1.1-.4-1.3-.6-.4-.3-.6-.7-.6-1.3s.2-1,.6-1.5,1-.5,1.9-.5,1.2.2,1.7.5c.5.3.7.8.7,1.6h-1.2c0-.4-.2-.6-.5-.8-.2-.1-.5-.1-.7-.1-.3,0-.6.1-.8.2s-.3.3-.3.6.1.4.3.5c.1.1.4.2.8.2l1.1.2c.5.1.8.3,1,.5.4.3.5.7.5,1.2s-.2,1-.6,1.5-1,.6-1.9.6-1.5-.2-2-.5c-.5-.4-.7-.9-.7-1.6h1.2c0,.3.1.5.2.6.3.2.6.3,1.1.3"/>
  </g>
  <polygon class="st25" points="339.3 288.5 339.3 289.7 337.4 289.7 337.4 294.9 336.1 294.9 336.1 289.7 334.2 289.7 334.2 288.5 339.3 288.5"/>
  <rect class="st25" x="340" y="288.5" width="1.3" height="6.3"/>
  <polygon class="st25" points="342.1 288.5 343.5 288.5 344.9 293.3 346.2 288.5 347.7 288.5 345.5 294.9 344.2 294.9 342.1 288.5"/>
  <path class="st25" d="M351.1,292.5l-.8-2.5-.8,2.5h1.7ZM351.5,293.6h-2.4l-.4,1.3h-1.3l2.3-6.3h1.6l2.3,6.3h-1.6l-.4-1.3Z"/>
  <polygon class="st25" points="354.1 288.5 354.1 294.9 358.7 294.9 358.7 293.7 355.5 293.7 355.5 288.5 354.1 288.5"/>
  <g class="st3">
    <path class="st20" d="M159.7,340.6c-.8-2.1.1-2.3,1.9-3.6,2.6-1.8,4.9-3.2,7.6-1.1.7.5,2.8,1.5,2.2.5-3.1-5.4-7.7-17.7-8.5-18.1-.6-.3-.5.9-.9,3.3-.4,2.9-3,4.9-4.8,6.7-3.1,3.3-10.4,8.4-12.1,10.9,0,0,3.7,7.1,4.8,6.4,1-.7,5.3-4.8,5.7-3.6.5,1.3,2.8,7.3,3.8,10.4.1.2.3.4.5.3,1-.3,2-.6,3.1-.8.4-.1.6-.6.5-1-.6-2.6-2.9-7.7-3.8-10.3"/>
  </g>
</svg>