<?xml version="1.0" encoding="UTF-8"?>
<svg id="Ebene_2" data-name="Ebene 2" xmlns="http://www.w3.org/2000/svg" viewBox="0 0 93.96 96.66">
  <defs>
    <style>
      .cls-1 {
        fill: #000d1c;
      }

      .cls-2 {
        fill: #ffed00;
      }

      .cls-3 {
        fill: #1d1d1b;
      }
    </style>
  </defs>
  <g id="Ebene_2-2" data-name="Ebene 2">
    <g>
      <g>
        <ellipse class="cls-2" cx="46.01" cy="50.56" rx="35.8" ry="36.86"/>
        <g>
          <path class="cls-1" d="m92.02,50.22c-.14.43,1.62.27,1.94.34-.42-.74-2.39-.31-1.94-.34Z"/>
          <path class="cls-1" d="m87.48,43.81h.73c-.63-.23-1.25-.45-1.88-.65l1.15.65Z"/>
          <path class="cls-1" d="m86.22,37.88c-1.37.71-1.12,1.17-.63,1.66.5.48,1.25,1.01.85,1.64l-.63.31,2.48-.02c-.7-1.26-2.66-2.49-2.08-3.6Z"/>
          <path class="cls-1" d="m91.21,32.51c-1.01.63-1.21-.39-.05.94.09-.12.15-.17.23-.25-.07-.14-.13-.33-.18-.69Z"/>
          <path class="cls-1" d="m91.38,33.2c.33.67.76-.79,0,0h0Z"/>
          <path class="cls-1" d="m89.5,30.33l1.36.46c.55-.45.32-1.32.92-1.22-.95-.7-1.48-.2-2.28.76Z"/>
          <path class="cls-1" d="m87.14,30.44l.6.25c.23-.19.26-.36-.6-.25Z"/>
          <path class="cls-1" d="m89.02,31.23l-1.28-.55c-.38.32-1.27.73.5.29-.85.29.02.12.78.27Z"/>
          <path class="cls-1" d="m88.84,31.94c-.39.73-.58,1.49-1.84,1.04.95,1.44,2.88.49,1.84-1.04Z"/>
          <path class="cls-1" d="m83.16,38.5c-.21.27-.45.54-.68.81l1.09.21c-.54-.1.5-1.33-.41-1.02Z"/>
          <path class="cls-1" d="m88.09,24.26c-.58.28-1.29,1.15-1.96,1.63l.99.23c.2-.53.19-1.33.98-1.86Z"/>
          <path class="cls-1" d="m86.12,25.89l-1.46-.31c.35.84.88.72,1.46.31Z"/>
          <path class="cls-1" d="m84.06,31.71c.91.14,1.83.3,2.76.49-.98-.28-1.96-.53-2.92-.74l.15.26Z"/>
          <path class="cls-1" d="m85.87,20.74l1.57-.34c-.83.12-1.65.25-2.47.4l.89-.05Z"/>
          <path class="cls-1" d="m84.02,18.68c1.26-.41,1.19-1.79,2.1-1.88-.69-.47-1.93-.29-3.03-.11.8.12,1.15.72.93,1.99Z"/>
          <path class="cls-1" d="m81.43,16.88c.42.03,1.02-.09,1.67-.19-.43-.06-.95-.03-1.67.19Z"/>
          <path class="cls-1" d="m84.01,23.94c.27-.28,1.03-.97,1.03-1.69l-1.24,1.35c.06.1.14.22.21.34Z"/>
          <path class="cls-1" d="m83.76,23.64l.04-.04c-.22-.38-.37-.64-.42-.76.05.1.16.34.38.81Z"/>
          <path class="cls-1" d="m84.06,24.03s-.03-.06-.05-.09c-.12.13-.16.18.05.09Z"/>
          <path class="cls-1" d="m84.4,28.74c-1.18-.03-2.67-.44-3.46,1.24,1.27-.26,1.71-1.25,3.46-1.24Z"/>
          <path class="cls-1" d="m82.46,25.66l.18,1.1c.39-.27.88-.8,1.45-.81l-1.63-.29Z"/>
          <path class="cls-1" d="m81.7,25.56c.25.03.52.06.76.1-.02-.14-.06-.27-.09-.4l-.67.3Z"/>
          <path class="cls-1" d="m81.43,19.43c-.91.15-1.29-.19-1.77-.54.15.7.42,1.29.81,1.74.49-.3,1.45-.73.96-1.2Z"/>
          <path class="cls-1" d="m82.49,21.55c-.05,0-.09-.02-.14-.02-.08.14-.09.21.14.02Z"/>
          <path class="cls-1" d="m75.65,14.89c-.05.1-.1.2-.15.31.07-.07.14-.14.22-.22l-.07-.09Z"/>
          <path class="cls-1" d="m80.29,20.92c.03.56.55.48,1.13.36-.34-.17-.68-.36-.94-.65-.22.13-.35.24-.19.29Z"/>
          <path class="cls-1" d="m79.71,16.23c-.09.44-.14.87-.16,1.29.25-.56.56-1.56.16-1.29Z"/>
          <path class="cls-1" d="m82.65,21.1s.08,0,.1,0c.21-.36.08-.23-.1,0Z"/>
          <path class="cls-1" d="m82.65,21.1c-.35-.04-.81.08-1.23.18.28.14.58.23.93.25.07-.12.19-.29.3-.43Z"/>
          <path class="cls-1" d="m67.09,22.77c1.07-1.28,2.88-1.85,2.29.09,1.42-.38,4.8-4.72,6.13-7.66-.51.54-.93.99-2.35,1.12-.26.9.21,3.06-1.38,3.63-1.45-.19-.36-1.11-.28-2.17-.93,1.9-3.12,1.4-4.75,4l1.43-.26c-.29.38-1.03.76-1.1,1.26Z"/>
          <path class="cls-1" d="m76.87,16.7l.46.15c-.16-.55.04-1.27.42-2.7-1.1.08-1.62.45-2.02.83l1.42,1.64-.28.08Z"/>
          <path class="cls-1" d="m78.71,18.23c-1.54.97-2.78.84-3.75,2.62.87.76,1.64-.44,2.7-.43-1.64-1.17,1.13-.25.91-2.03.49.09.81.3,1.09.51-.08-.43-.12-.88-.11-1.37-.02.04-.03.07-.05.11h.01s-.01.01-.02.02c-.1.22-.18.34-.16.17-.02.01-.04,0-.06,0-.19.16-.38.28-.56.4-.13-.7.28-.4.56-.4.07-.06.14-.1.21-.17v-.02c-.68-.31-1.43-.55-2.17-.79.13.5.61.78,1.39,1.38Z"/>
          <path class="cls-1" d="m77.09,31.12c.11-.13.22-.19.33-.26-.25.02-.4.06-.33.26Z"/>
          <path class="cls-1" d="m77.68,29.95c.28-.03.95-.31,1,.14-.29.58-.75.44-1.25.76.53-.05,1.56.09,1.92-1.03l-.28.02c.18-.91,1.59-2.96,1.86-2.99-1.25,1.07-2.13,1.87-3.26,3.1Z"/>
          <path class="cls-1" d="m78.22,24.52c-.53-.24-1.08-.47-1.65-.65-.23.53-.46,1.04-.72,1.57l.71-.62c.21.91,1.02.06,1.66-.3Z"/>
          <path class="cls-1" d="m76.1,14.08l1.43-1.28c-.85.44-1.69.89-2.53,1.38.38-.05.75-.08,1.11-.1Z"/>
          <polygon class="cls-1" points="74.16 12.82 75.26 11.56 74.15 11.98 74.16 12.82"/>
          <path class="cls-1" d="m23.79,64.2h.56c-.2-.03-.38-.03-.56,0Z"/>
          <path class="cls-1" d="m22.93,62.27l-.76.3c.45-.1.77-.21.76-.3Z"/>
          <path class="cls-1" d="m21.3,10.59c-1.47-.91-3.61-2.39-2.46-.91l1.24,1.37c.26-.55.72-.61,1.23-.46Z"/>
          <path class="cls-1" d="m11.3,43.49c.18-.02.38-.04.57-.06-.58-.26-1.13-.5-1.62-.73.32.24.67.51,1.06.79Z"/>
          <path class="cls-1" d="m18.67,45.23l-1.25.42c.43-.08.84-.21,1.25-.42Z"/>
          <path class="cls-1" d="m32.52,71.13l1.31-1.33c-.36-.28-.75.61-1.31,1.33Z"/>
          <path class="cls-1" d="m52.64,4.25c-.54-.8-1.03-1.18-1.47-1.33.68,1.16,1.05,2.8,1.47,1.33Z"/>
          <path class="cls-1" d="m6.25,72.52c.45.11.84.04,1.19-.16-.43-.12-.83-.11-1.19.16Z"/>
          <path class="cls-1" d="m49.27,2.78c.1.19.21.29.32.45.5-.26,1.02-.52,1.59-.31-.49-.87-1.16-1.35-1.9-.14Z"/>
          <path class="cls-1" d="m67.08,65.32c.08.02.13,0,.23.04-.2-.14-.23-.11-.23-.04Z"/>
          <path class="cls-1" d="m89.39,56.41c.08.21.04.53.02.84.15-.13.17-.38-.02-.84Z"/>
          <path class="cls-1" d="m66.72,7.18c.5.12.16-.14,0,0h0Z"/>
          <path class="cls-1" d="m65.32,14.56c-.18.13-.36.32-.58.69.24-.37.43-.58.58-.69Z"/>
          <path class="cls-1" d="m44.77,14.03s-.02,0-.03,0c.12.35.1.28.03,0Z"/>
          <path class="cls-1" d="m67.01,8.25c-.06-.28-.17-.54-.32-.76.03.17.12.41.32.76Z"/>
          <path class="cls-1" d="m67.32,7.44c.12.15.21.25.31.35.2-.24.24-.43-.31-.35Z"/>
          <path class="cls-1" d="m66.06,6.96c.27.1.47.29.63.53-.03-.15-.02-.26.03-.31-.14-.04-.34-.1-.66-.22Z"/>
          <path class="cls-1" d="m50.02,81.59c.03.05.06.09.09.16.21-.8.09-.66-.09-.16Z"/>
          <path class="cls-1" d="m25.95,31.34s-.04-.06-.04-.08c-.02,0-.05,0-.08-.01l.12.09Z"/>
          <path class="cls-1" d="m26.3,32.97c-1.46-1.76-1.06-1.8-.48-1.73-1.39-1.08-2.79-2.14-4.2-3.18,1.52,1.68,3.09,3.32,4.68,4.92Z"/>
          <path class="cls-1" d="m27.08,68c.27-.52.54-1.03.82-1.53,2.6-1.15,2.17-.24,3.58-2.11-2.17,1.82-2.74,1.52-3.17,1.1-.46-.4-.92-.78-3.31.79l.73-1.03c.03.13.32-.04.35.09.87-1.09-.05-.64-1.21-.13-1.17.52-2.58,1.1-2.54.36.16-.59.74-1.23,1.47-1.33-.56-.02-1.14-.05-1.7-.1-.01-.3.89-.69.91-.41l-.99-1.06.16-.06c-.89.21-2.36.34-3.01.35.59-.67.64-.06,1.25-.44-.53-.06-1.1-.13-1.61-.23,1.27-.86,2.8-.76,2.86-.22,2.47-1.46,2.06-1.4,1.38-1.41-.68.02-1.7-.02-.38-1.27l.91.39c2.9-1.51,1.64-1.57,3.33-2.78-.48.22-1.58.9-2.74,1.55-1.17.65-2.4,1.26-3.21,1.09.34-.37.4-.68-.81-.8,1.94-.58,1.37-.85,1.13-1.34l2.61-.64c-.88-.32-2.2.04-3.47-.03.08-.7,2.11-1.23,3.82-1.69.15-.49-.65-.19-1.57.12-.92.31-1.95.65-2.28.08.45-.52.38-.86-.03-1.21-.41-.34-1.16-.68-1.96-1.17.9-.71,1.64-.01,2.4-.3-.72-.12-1.44-.26-2.16-.41.04-.14.7-.13,1.04-.13-.85-.43-2.68.11-3.46-.68-1.48-.07-.45-.54.6-1.04,1.06-.51,2.07-1.01.42-1.59.77-.19,1.64.21,2.68.19-1.07-.68-1.46-1.01-1.95-1.3-.49-.3-1.02-.57-2.41-1.33.63-.25,1.26-.49,1.89-.71-2.1.39-4.33-.83-6.12-2.15-1,.11-1.88.22-2.31.33-.39-.6-.81-1.23-1.13-1.85.48-.1,1.34.26,2.38.73-.19-.15-.38-.29-.56-.41,1.1-.33,2.54.31,3.93.96-.58.06-1.17.12-1.74.17,1.55.68,3.29,1.29,4.85,1.5-.29-.14-.53-.34-.65-.55.42.17.81.29,1.07.3.29.01-.29-.23-.92-.57l3,.33-1.15-.31c.74-.38,1.48-.74,2.2-1.06-.72-.49-1.44-.97-2.17-1.47-.75-.52-1.46-1.07-2.13-1.65-1.33-1.15-2.39-2.44-2.57-3.72,1.83,1.33,3.28,1.46,5.67,2.48-1.36-.28-1.21.19-.82.79.39.6,1.03,1.3.61,1.65.44-.37,1.58.13,1.95.38-.62-.75-1.22-1.55-1.81-2.39,1.98.82,1.57.24,2.58.22-4.02-1.34-2.03-2.24-2.89-3.47,1.28.6,2.5,1.39,1.85,1.98,1.62.27.62-.5-.41-1.37-1.04-.85-2.09-1.8-.65-1.56-.08.2-.33.2.26.61-.84-1.03.65-1.61,1.56-.72l-.08.19c1.03-.97,2.3-3.32-.35-5.8.37.28,3.26,2.84,3.79,3.34-2.7-3.09-5.1-6.35-7.34-9.9,1.04,1.15,3.08,2.75,4.88,4.38,1.81,1.62,3.4,3.23,3.7,4.21.54.06,1.12.13.78-1.09-.46-.18-3.57-2.66-3.56-3.1,1.54.86,1.98,1.11,2.38,1.26.4.17.79.26,2.14.99-.69-.26-3.73-4.01-3.17-4.32.42.6,3.21,3.51,3.41,4-.75-1.44-1.49-2.98-2.1-4.46.26.87,2.53,3.1,3.58,3.98-.68-.64.89-.57.85-1.14l-1.08-.55c.78-.14.06-1.72-.59-3.35-.65-1.62-1.26-3.33-.45-3.69.32.95,2.81,5.33,3.72,5.46-.49-1.12-1.67-3.83-2.53-6.62-.86-2.74-1.37-5.59-.93-6.84l.9,1.1c.19-.67.38-1.38.62-2.03.29,1.82.73,4.8,1.28,7.58.54,2.81,1.19,5.41,1.55,6.94.98.68.92,1.35,1.52.91.82,1.04.58,1.91.44,2.05l1.77.07c-.64-1.26-.67-2.04-.64-2.78.02-.74.13-1.38-.35-2.46-.13.55-.24,1.13-.31,1.73-.08.59-.15,1.17-.2,1.74-.67-1.24-1.33-3.15-1.56-4.82-.11-.83-.12-1.6,0-2.18.14-.54.41-.89.82-.91.75.92,1.59,4.77,1.99,5.63-.23-.95.49-2.17.83-1.56,0,.54,0,1.08,0,1.61.5.38.44-.6.5-1.41.05-.83.26-1.38,1.05-.21.36.09,1.75,3.3,1.38,1.67-1.18-3.02-4.02-12.58-4.15-15.05.1.09.87.68,1.65,1.45.79.74,1.62,1.78,1.98,2.52.55,1.19.56,2.71.62,4.18.05,1.47.13,2.89.55,3.92-.13-.76-.03-1.74.04-2.06.45.6.29,2.37.92,1.92-.33-2.85,1.49,0-.03-2.45.63-.91.85.42,1.68.24-.22-.92-.19-2.49.06-3.95.24-1.46.7-2.8,1.14-3.23-.02.73.22,1.67.32,2.1.44.04.83.15,1.18.29.35.16.68.38.99.57.63.39,1.22.76,1.99.81.09.69.71,1.59.28,2.78.25-.47.56-1.4,1.02-1.4.52,2.59-1.03.22-.75,3.28.24-1.64,1.39-2.1,2.23-3.02.25-2.56-1.49-.73-2.21.2.35-3.53,2.05-7.03,4.36-8.31,1.72-.54.17,2.39.54,1.94,1.28.65,2.25-.69,3.18-1.79.46-.55.91-1.04,1.35-1.2.43-.13.85.08,1.24.91.15,2.47-1.5,4.24-1.85,5.85-.68.2-.96-.29-1.19-.86-.24-.55-.43-1.16-.83-1.22l.63,1.27c-.59.62-1.45.98-1.67.24.08,1.09,1.1,1.37,2.2,1.92,1.11.5,2.4,1.02,2.82,2.33.62-.54,1.52-.97,1.67-1.91h-.71c.23-1.92,2.22-1.71,1.84-2.85,1.37-.73,3.4-2.05,4.04-.38l-1.12,2.34c.38-.65.05-1.78-.66-1.29.52-.35.52.68.63,1.45.12.77.35,1.29,1.53.04.07-.66.12-1.33.16-2,1.49-.6,4.18-2.16,4.74-.66,1.02-2.42-.39.06.56-2.94-1.4,3.46-2.85-2.01-3.84,1.97.53-1.71.35-2.25.11-2.75-.25-.5-.53-1-.42-2.58-.37.76-.37,1.63-1.2.74-.16.2-.42.42-.57.55-.02-.04-.03-.05-.04-.09,0,.04,0,.08,0,.12-.1.09-.12.11,0,.04.07.45.05.94-.1,1.4-1.41,1.47-2.88.67-3.81,1.35-.39-.64.64-.77.71-1.75-.47.34-.92.65-1.38,1.02.7-1.75-.43-3.52,1.49-3.97l-1.32-.6c-.41-1.29-1.44-2.12-2.37-1.61-.56-.59-2.27,1.54-1.28.28-.84.17-1.67.36-2.48.55l.09-.46c-1.05-.43-2.34.17-3.53.37-1.21.22-2.32-.03-3.45-1.76-.79.43-1.56.97-2.78.38l-.22-1.64c-.49.24-1.23-.12-1.91-.36-.68-.24-1.3-.33-1.46.53-.33-1.08-.82-1.66-1.39-1.94-.29-.14-.59-.2-.91-.2-.32.02-.64.09-.97.19-1.31.41-2.58,1.29-3.54,1.05l.36,2.1c-1.18.12-2.16,1.04-3.3,2.22l.61,1.79c-.35.89-1.16.75-2.11.59-.95-.18-2.09-.48-2.95-.04-.16-.71.38-.72.86-.43-.92-.78-1.64-.89-2.18-.61-.53.3-.91.96-1.24,1.64-.67,1.38-1.16,2.73-2.79,1.96-.09.86-.52.85-1.07.64.04-.03.06-.08.06-.15-.06,0-.13.05-.19.09-.37-.15-.77-.35-1.15-.46.44.27.81.47,1.06.53-.32.24-.71.77-.93,1.47l-1.36-1.53s-.06.07-.09.12c-.92-.26.17,1.06,1.29,2.12-.04.45-.02.93.11,1.45-1.14-1.19-1.28-.73-1.45-.29-.17.44-.35.86-1.69-.31.38.79-.02,1.46-.18,2.35-.16.9-.12,1.94.99,3.35-.33-.33-.6-.38-.4-.6-.71.1-1.45.24-1.12,1.32l-2.01-1.64c.47,1.11,1.04,2.26,1.59,3.36-1.66-.49-2.6-.8-3.51-2.76.45,1.79.42,2.25.4,2.71,0,.46-.06.86.66,2.44l-1.26-1.09c-.31.53.94,2.59-.37,2.06-.83-.2-1.51.02-2.14.49-.6.48-1.08,1.24-1.61,2.04-1.12,1.59-1.98,3.55-4.1,4.58,2.41.64,1.7.78.91,1-.81.21-1.79.52-.04,1.24-1.15-.22-1.94.04-2.69-.86.22,1.07-.44,1.57-.84,2.11-.42.53-.47,1.12.91,2.15-1.18-.1-1.54-.83-2.25-.83.2.22.82.84.11.86-.71.02-.87-.51-1.28-.95-.31,2.01,3.14,2.97,6.38,3.81-1.77.5-1.62,1.04.45,2.03-1.12.1-2.33.44-2.56-.72-.24.55-2.18,3.61.54,3.92-.69.13-.24.83.06,1.01-.23,1.34-.48,1.46-.28,2.8l.46-.36c3.19.54.72,1.07,1.16,2.12l-.33-.02c-1.11,1.25-.81,1.53-.56,1.76.13.12.24.24.17.49-.08.25-.34.64-.9,1.32l1.98-.36c2.17-.13,1.6.41.74,1.2-.87.77-2.03,1.84-1.11,2.38l1.06-.7c.77.23-.57.99-2.12,1.9-1.56.9-3.34,1.94-3.49,2.43-.32.28-.66-.14-.99-.33-1.92,2.86,2.63-.35,3.62,1.04-1.29.69-3.59.61-3.54,1.8-.46.44.93.91,2.14,1.48,1.23.57,2.24,1.24,1.29,2.46.87-.74,1.76-1.42,2.82-1.08.41.42-.23,1.52-.49,2.49-.26.96-.18,1.81,1.59,1.44-.19.27-.42.45-.65.58,1.23.34,2.72,1.7,4.55,1.1-2.78,2.22-1.21,2.88.23,3.32.73.22,1.44.39,1.65.75.23.35-.01.9-1.25,1.92l2.03,1.78-.53.39c.41.8,1.04,1.02,1.73.94.69-.07,1.44-.42,2.17-.79-.02.58-.63.83-.89,1.05.89,2.64,1.45,2.66,4.95,1.33l-1.08,1.8c.59-.33.76.91,1.38,2.05.6,1.15,1.55,2.4,3.23,1.92-.13.2-.37.53-.69.69,1.84-.45,2.63,1.61,3.73,2.94,1.09,1.28,2.34,1.91,4.01-1.51.75-.36,1.51-.82,2.24-1.27-.99-.57-.65-1.33-.15-2.14.5-.8,1.13-1.66.92-2.37.84-.24,1.37,2.73.31,2.85l-.05-.41c-1.43,3.71,2.25,2.06,1.64,4.64,1.14.14,2.24.41,3.33.76.55.19,1.1.34,1.66.49.56.16,1.12.32,1.67.48.57.16,1.13.33,1.69.49.57.13,1.13.22,1.71.31,1.14.15,2.29.31,3.41.21-.29-1-.56-1.98-.83-2.99.49,0,.98-.02,1.47-.04.48.65.88,2.3-.24,2.34.83,1.64,1.62-1.73,1.51-2.39,1.12.45,1.11,1.36.85,2.16-.26.8-.77,1.49-.42,1.47l.88-.37-.27-.32c.5-1.37.3-2.62,1.57-2.81.93.39.86,1.74,1.21,1.77.05.21.19.28.52-.05l1.99-.27c-.5-.7-.98-1.41-1.45-2.12.47-1.34,1.7-.39.07-2.73,1.2,1.83,2.99,1.56,4.57.97,1.54-.7,2.81-1.75,3.48-1.34.2-2.07,1.07-2.67,2.38-3.21-.57-.24-2.2-2.43-1.09-2.74,1.4,2.44,2.21,2.68,3.03,2.55.83-.11,1.68-.49,3.35.77-1.2-.77-.59-1.45-.15-2.19.41-.78.63-1.61-1.12-2.58,1.02-.33,1.44,1.54,2.9,1.99.17-1.66,1.4-2.26,2.72-3.02,1.35-.71,2.96-1.42,3.55-2.94-.57-.47-1.77-.75-2.28-1.91,1.3.31,2.62.59,3.96.82.07-.73-3.22-2.79-.51-2.35-.61-.19-1.51-.51-1.51-.97.75-.38,1.38-.87,1.9-1.42.26-.28.51-.57.72-.88.19-.32.37-.65.53-.99.63-1.37,1.08-2.82,1.37-4.31.17-.73.36-1.46.62-2.16.27-.7.48-1.41.87-2.08.37-.68.86-1.34,1.5-1.98.63-.65,1.34-1.3,2.31-1.95-1.54.62-1.6.03-1.56-.6-.4.35-1.8-.28-2.81-.34,1.02-.66,2.1-1.36,3.09-2.13-2.74-.68-.05-2.72-2.69-3.07l.44.78c-1.54-.57-3.3-.26-5.17.05-1.87.32-3.85.64-5.86.43,1.77.57.42,1.07-.82,1.53-1.22.49-2.22.92.19,2.06-.85.15-1.24-.49-2.18-.5,1.67.64,1.91,1.15.96,1.72l-.39-.18c-.07,2.19-2.05,2.61-3.89,4.2l1.9.63c-.46.35-1.08.19-1.63.19,2.5,1.77.75-1.19,3.59.59-2.02-.46-2.41.32-2.85,1.07-.2.38-.48.72-.95.84-.47.13-1.13.04-2.17-.45-.39.61,2.09.99,1.69,1.62l-1.16-.48,1.26,1.02c-.47.31-1.93-.36-2.81-.94.17-.02-.05-.42-.08-.57-1.53-.33-.56,1.62-1.07,1.53l1.02-.09c-.05.56-.26,1.06-.53,1.53-.32.43-.7.82-1.04,1.25-.64.9-1.32,1.7-1.19,3.36l.74.6c0,1.22-.46,1.2-.96,1.12-.51-.08-1.08-.27-1.52.59l-.08-.22c.14.48.18.9.13,1.22-.06.3-.22.5-.46.59-.25-1.14-1.85-1.37-2.04-2.68-.16,1.2-.16,1.64.02,2.2.17.56.53,1.27.86,3.1l-1-1.24c.31,1.42.62,2.09-.07,2.88.09-1.54-1.55-1.88-1.6-3.83-1.53-1.14-1.68-.08-1.96.7-.24.8-.52,1.4-1.71-.81.64,4.37,2.28,1.69,2.17,2.73.93,1.16.46,3.27-.31,3.1-.33.06-1.02-1.11-1.78-2.33-.76-1.2-1.55-2.38-2.2-2.16.14-.02.06-.33.2-.35-.38-.47-.52-.04-.72.31-.19.35-.43.63-.91-.21.13,2.61-.82-.03-.39,3.27l1.21-.96c-.29.48-.44,1.71-.76,2.61-.32.91-.83,1.49-1.62.67.04-.68.32-1.63.51-2.15-.49-.92-.64.79-1.14-.2-.1-1.64.26-1.89.71-2.05.45-.16,1.02-.23,1.15-1.53-.57-1.34-1.02,2.6-1.18-1.03.08,2.31-.31,2.22-.71,2.01-.42-.25-.84-.66-1.21,1.12l-.06-1.99c-.12.32-.37,1.28-.65,1.24.13-.87.25-1.74.35-2.61-.29,1.12-.67.66-.99.07-.34-.56-.62-1.36-.95-.77.66.02.74.62.72,1.4-.02.79-.16,1.78.17,2.49-.97,1.33-1.26-.03-1.46-1.55-.22-1.54-.37-3.26-1.3-2.84.25-.24.83,1.23.35,2.15-.35-.4-.73-1.26-.8-2.33-1.25.21-.09,2.06-.79,3.19-.08-2.47-.78.88-1.58,1.54l.38-1.99c-1.21-1.58-1.32,4.04-2.41,2.14.45-.85.88-1.71,1.29-2.57l-.88.52.74-2.19c-1.15,1.44-1.34,1.02-1.8.12-.3,1.42-1.28,3.45-2.02,3.23-.04-1.3.94-1.71-.1-1.79.7-1.09,1.46-2.51,1.19-.61.27-.6.63-1.12.89-1.72.05-1.46-.95-.69-1.27-.79.09.11.18.26.14.55-.77.74-1.55,1.37-2.39,2,.13-.79.56-1.26.96-1.72-.33.08-.92.83-1.38.79.84-1.42,1.61-2.94,2.4-3.41-.6.38-1.24.75-1.9,1.11.25-.65.43-2.01.86-2.46-.01-.59-.72-.1-1.5.32-.76.41-1.61.8-1.58-.03-.22.23-.48.42-.77.49-.49-.88.24-2.75-1.96-1.8.52-.86,1.06-1.7,1.62-2.53-.5,0-1.02.78-1.61,1.58-.59.79-1.25,1.61-2.17,1.51-1.41-.06,1.55-2.02,1.91-2.83-.68.34-1.73.87-2.47,1-.74.13-1.19-.12-.54-1.21.62-.12.45.32.8.38Zm-6.17-8.35c.48.07,1.84,0,.77.54-2.26.57-1.28,0-.77-.54Zm-5.35-17.21c.61.34.22.51-.61.66-.11-.26.03-.5.61-.66ZM61.16,6.58s-.04.04-.07.08c-.47-1.02-.31-.63.07-.08Zm1.19,1.39c.26-.21.35-.47.39-.76-.3.43-.65.34-.98.06-.08.54-.03.95.59.7Zm-5.63,86.18l-.42-.44c.51-.74.46-.18.42.44Z"/>
          <path class="cls-1" d="m17.82,45.03c-.35,0-.72-.05-1.1-.1.32.15.71.22,1.1.1Z"/>
          <path class="cls-1" d="m32.27,71.37s0,.02,0,.04c.08-.09.16-.18.24-.28l-.25.24Z"/>
          <path class="cls-1" d="m41.21,22.43c-.25-.26-.43-.61-.58-.97.08.49.26.89.58.97Z"/>
          <path class="cls-1" d="m71.68,8.95l-1.2-.13c.5.19.42.67.47,1.08.24-.41.43-1.1.74-.95Z"/>
          <path class="cls-1" d="m70.36,23.84c.26-.1.2.15.46.05l.64-.69c-.43-.32-1.21,0-1.1.64Z"/>
          <path class="cls-1" d="m68.76,15.07c-.89,1.45-.08,1.27.6,1.42-.03-.02-.07-.03-.09-.07,1.54-1.8.53-1.65-.51-1.35Z"/>
          <path class="cls-1" d="m69.52,16.54c.21.06.39.14.5.33.64-.72-.08-.31-.5-.33Z"/>
          <path class="cls-1" d="m64.68,7.73c.13.55,1.11-1.88,1-1.16.64-.89-.19-.57-.86-.02-.68.54-1.22,1.3-.14,1.19Z"/>
          <polygon class="cls-1" points="66.01 19.97 67.02 18.13 65.79 19.36 66.01 19.97"/>
          <path class="cls-1" d="m62.86,16.31l.57.93c.16-.31.37-.45.57-.5-.48-.34-.87-.99-1.14-.43Z"/>
          <path class="cls-1" d="m64,16.74c.24.2.51.31.83.11-.15-.07-.49-.2-.83-.11Z"/>
          <polygon class="cls-1" points="64.61 19.85 64.62 19.33 64.16 18.86 64.61 19.85"/>
          <path class="cls-1" d="m53.36,12.48l-1.14.43c-.22.7-.03,1.17.39.95.33-.46.77-.67.75-1.38Z"/>
          <path class="cls-1" d="m54.8,18.8c-.11-.48,0-.94.06-1.64l-.73,2.51.68-.87Z"/>
          <path class="cls-1" d="m52.18,18.75c-.25.69-1.59,1.86-.53,1.85.22-.71,1.18-1.1.53-1.85Z"/>
          <polygon class="cls-1" points="38.48 15.68 38.71 15.58 37.74 11.42 38.48 15.68"/>
          <path class="cls-1" d="m32.63,29.22c1.25.44-1.29-2.3.05-1.63-.36-.97-1.11-.54-1.41-1.38.12,1.18-.44.81,1.35,3.01Z"/>
          <path class="cls-1" d="m31.28,26.2c-.02-.19-.05-.41-.11-.7,0,.31.05.52.11.7Z"/>
          <polygon class="cls-1" points="91.98 53.2 92.92 52.28 91.45 52.84 91.98 53.2"/>
          <path class="cls-1" d="m88.89,51.31l2.74-.18-2.45-.57c.11.2.33.6-.29.75Z"/>
          <path class="cls-1" d="m25.74,56.68l-.64.14c-.67.26-.69.38-.75.64l1.39-.78Z"/>
          <polygon class="cls-1" points="26.43 63.42 26.42 63.29 24.42 64.76 26.43 63.42"/>
          <path class="cls-1" d="m32.1,65.7c-.08-.2-.61-.02-.67-.24.59.03-1.49,2.44.67.24Z"/>
        </g>
      </g>
      <g>
        <path class="cls-3" d="m32.03,35.91h3.73v.59h-1.55v4.42h1.55v.59h-3.73v-.59h1.54v-4.42h-1.54v-.59Z"/>
        <path class="cls-3" d="m39.78,37.79l.08-.76h-.04l-.37.69-.79,1.37h-.19l-.83-1.38-.36-.68h-.04l.09.75v3.73h-.63v-5.61h.6l1.29,2.13h.02l1.24-2.13h.58v5.61h-.65v-3.72Z"/>
        <path class="cls-3" d="m41.67,35.97c.2-.05.41-.08.64-.1.23-.02.45-.02.68-.02.24,0,.48.02.73.07.25.05.47.14.67.26s.37.3.49.53c.13.22.19.51.19.86s-.06.63-.18.86c-.12.24-.28.43-.47.57-.2.15-.42.25-.68.32-.25.06-.52.1-.79.1h-.13c-.06,0-.12,0-.19,0-.07,0-.13,0-.19-.01-.06,0-.11-.01-.13-.02v2.13h-.65v-5.55Zm1.33.46c-.13,0-.26,0-.39,0-.12,0-.22.02-.3.04v2.32s.07.02.12.02c.06,0,.12,0,.18,0s.12,0,.18,0h.12c.18,0,.35-.02.53-.05.17-.04.33-.1.47-.19.14-.09.25-.22.34-.38.09-.17.13-.38.13-.63,0-.22-.04-.4-.12-.55-.08-.15-.19-.26-.32-.35-.13-.09-.28-.15-.45-.19-.17-.04-.33-.06-.5-.06Z"/>
        <path class="cls-3" d="m49.14,35.91h.61v3.74c0,.34-.04.63-.13.87-.09.25-.21.45-.36.6-.16.16-.34.27-.57.35s-.47.11-.74.11c-.64,0-1.12-.15-1.45-.45s-.48-.75-.48-1.36v-3.87h.65v3.56c0,.28.03.52.08.72.05.19.13.35.24.47s.24.21.4.26.35.08.57.08c.42,0,.72-.12.9-.36s.27-.63.27-1.17v-3.56Z"/>
        <path class="cls-3" d="m50.93,35.91h.65v5.01h2.2v-1.39h.58v1.99h-3.42v-5.61Z"/>
        <path class="cls-3" d="m56.06,40.72c.16.09.33.16.53.21.19.06.39.08.59.08.17,0,.33-.02.48-.05.15-.03.28-.09.39-.17s.2-.17.26-.29c.06-.12.1-.26.1-.42,0-.22-.07-.4-.21-.54s-.32-.26-.53-.37c-.21-.11-.44-.21-.69-.31s-.48-.22-.69-.36c-.21-.14-.39-.31-.53-.51s-.21-.46-.21-.76c0-.22.04-.42.13-.59.09-.18.21-.33.36-.45.16-.12.34-.22.56-.28.22-.07.46-.1.73-.1.31,0,.59.02.85.07.25.05.46.11.61.18h.02s0,0,0,0h0v.02s0,1.28,0,1.28h-.58v-.86c-.13-.03-.27-.06-.43-.08-.16-.02-.32-.03-.5-.03s-.33.02-.46.06c-.14.04-.25.1-.35.17-.1.07-.17.16-.22.25-.05.1-.08.2-.08.3,0,.21.07.38.21.52.14.14.32.26.53.37.21.11.44.22.69.32.25.11.48.23.69.37.21.14.39.31.53.51.14.2.21.44.21.74,0,.24-.04.46-.13.65-.09.19-.21.36-.37.5s-.35.25-.58.32c-.23.07-.49.11-.78.11-.2,0-.38-.02-.56-.05-.18-.03-.34-.07-.49-.12s-.28-.1-.4-.15c-.12-.05-.21-.1-.28-.14v-.02s0-1.3,0-1.3h.58v.89Z"/>
        <path class="cls-3" d="m60.39,35.91h3.2v.59h-2.55v1.83h2.36v.59h-2.36v1.99h2.59v.59h-3.23v-5.61Z"/>
        <path class="cls-3" d="m31.88,45.52h4.04v1.47h-.58v-.87h-1.13v4.42h.86v.59h-2.36v-.59h.86v-4.42h-1.12v.87h-.58v-1.47Z"/>
        <path class="cls-3" d="m39.78,48.56h-2.44v2.57h-.65v-5.61h.65v2.44h2.44v-2.44h.65v5.61h-.65v-2.57Z"/>
        <path class="cls-3" d="m41.73,45.52h3.2v.59h-2.55v1.83h2.36v.59h-2.36v1.99h2.59v.59h-3.23v-5.61Z"/>
        <path class="cls-3" d="m48.91,49.57h-2.09l-.5,1.55h-.65l1.82-5.61h.76l1.83,5.61h-.68l-.51-1.55Zm-1.89-.58h1.71l-.8-2.63h-.09l-.81,2.63Z"/>
        <path class="cls-3" d="m50.54,45.52h4.04v1.47h-.58v-.87h-1.13v4.42h.86v.59h-2.36v-.59h.86v-4.42h-1.12v.87h-.58v-1.47Z"/>
        <path class="cls-3" d="m55.73,45.52h3.2v.59h-2.55v1.83h2.36v.59h-2.36v1.99h2.59v.59h-3.23v-5.61Z"/>
        <path class="cls-3" d="m60.34,45.58c.2-.04.42-.07.68-.09.26-.02.49-.03.7-.03.24,0,.46.03.68.08.21.05.4.14.57.26s.29.28.39.48c.1.2.15.44.15.72,0,.22-.04.41-.1.58-.07.17-.16.31-.26.43-.1.12-.21.22-.31.29-.11.07-.2.13-.28.16l1.44,2.66h-.75l-1.28-2.47h-.97v2.47h-.65v-5.55Zm1.4.46h-.21c-.07,0-.14,0-.21,0-.07,0-.13.01-.19.02-.06,0-.11.01-.14.02v2.07h.61c.36,0,.65-.09.89-.27s.35-.46.35-.85c0-.29-.1-.53-.29-.71-.19-.19-.46-.28-.8-.28Z"/>
        <path class="cls-3" d="m32.47,55.13h3.12v.59h-2.47v1.91h2.32v.59h-2.32v2.51h-.65v-5.61Z"/>
        <path class="cls-3" d="m37.06,55.13h3.2v.59h-2.55v1.83h2.36v.59h-2.36v1.99h2.59v.59h-3.23v-5.61Z"/>
        <path class="cls-3" d="m42.06,59.94c.16.09.33.16.53.21.19.06.39.08.59.08.17,0,.33-.02.48-.05.15-.03.28-.09.39-.17s.2-.17.26-.29c.06-.12.1-.26.1-.42,0-.22-.07-.4-.21-.54s-.32-.26-.53-.37c-.21-.11-.44-.21-.69-.31s-.48-.22-.69-.36c-.21-.14-.39-.31-.53-.51s-.21-.46-.21-.76c0-.22.04-.42.13-.59.09-.18.21-.33.36-.45.16-.12.34-.22.56-.28.22-.07.46-.1.73-.1.31,0,.59.02.85.07.25.05.46.11.61.18h.02s0,0,0,0h0v.02s0,1.28,0,1.28h-.58v-.86c-.13-.03-.27-.06-.43-.08-.16-.02-.32-.03-.5-.03s-.33.02-.46.06c-.14.04-.25.1-.35.17-.1.07-.17.16-.22.25-.05.1-.08.2-.08.3,0,.21.07.38.21.52.14.14.32.26.53.37.21.11.44.22.69.32.25.11.48.23.69.37.21.14.39.31.53.51.14.2.21.44.21.74,0,.24-.04.46-.13.65-.09.19-.21.36-.37.5s-.35.25-.58.32c-.23.07-.49.11-.78.11-.2,0-.38-.02-.56-.05-.18-.03-.34-.07-.49-.12s-.28-.1-.4-.15c-.12-.05-.21-.1-.28-.14v-.02s0-1.3,0-1.3h.58v.89Z"/>
        <path class="cls-3" d="m45.87,55.13h4.04v1.47h-.58v-.87h-1.13v4.42h.86v.59h-2.36v-.59h.86v-4.42h-1.12v.87h-.58v-1.47Z"/>
        <path class="cls-3" d="m50.69,55.13h3.73v.59h-1.55v4.42h1.55v.59h-3.73v-.59h1.54v-4.42h-1.54v-.59Z"/>
        <path class="cls-3" d="m57.24,59.91h.08l1.48-4.78h.65l-1.83,5.61h-.75l-1.87-5.61h.71l1.53,4.78Z"/>
        <path class="cls-3" d="m62.91,59.18h-2.09l-.5,1.55h-.65l1.82-5.61h.76l1.83,5.61h-.68l-.51-1.55Zm-1.89-.58h1.71l-.8-2.63h-.09l-.81,2.63Z"/>
        <path class="cls-3" d="m64.93,55.13h.65v5.01h2.2v-1.39h.58v1.99h-3.42v-5.61Z"/>
      </g>
    </g>
  </g>
</svg>