<?xml version="1.0" encoding="UTF-8"?>
<svg id="Ebene_2" data-name="Ebene 2" xmlns="http://www.w3.org/2000/svg" viewBox="0 0 177.34 97.01">
  <defs>
    <style>
      .cls-1 {
        fill: #060710;
        font-family: Helvetica, Helvetica;
        font-size: 16.48px;
      }

      .cls-2 {
        letter-spacing: -.02em;
      }

      .cls-3 {
        fill: #1d1d1b;
        font-family: Helvetica-Bold, Helvetica;
        font-size: 18.28px;
        font-weight: 700;
      }

      .cls-4 {
        stroke-width: .64px;
      }

      .cls-4, .cls-5, .cls-6 {
        fill: none;
        stroke: #e71d73;
        stroke-miterlimit: 10;
      }

      .cls-7 {
        letter-spacing: -.07em;
      }

      .cls-5 {
        stroke-width: 1.29px;
      }

      .cls-8 {
        fill: #ffdd4b;
        opacity: .82;
      }

      .cls-6 {
        stroke-width: 1.93px;
      }
    </style>
  </defs>
  <g id="Ebene_2-2" data-name="Ebene 2">
    <g>
      <text/>
      <path class="cls-8" d="m59.69,38.75v.06c0,2.32-.38,4.55-1.06,6.65-.93,2.86-2.43,5.45-4.37,7.66-1.98,2.25-4.41,4.1-7.15,5.41-2.03.97-4.23,1.65-6.55,1.97-1.02.14-2.07.22-3.13.22-.58,0-1.15-.02-1.71-.06-1.24-.09-2.44-.29-3.61-.57-1.42-.34-2.78-.82-4.08-1.42-4.16-1.92-7.63-5.07-9.9-8.98-.71-1.22-1.31-2.51-1.77-3.86-.38-1.12-.68-2.28-.88-3.47-.2-1.17-.3-2.38-.3-3.61,0-.36,0-.72.02-1.07.11-2.16.53-4.24,1.23-6.2,1.04-2.94,2.71-5.6,4.84-7.82.14-.15.28-.29.43-.44,2.23-2.2,4.93-3.93,7.94-5.04,2.1-.78,4.36-1.25,6.71-1.36.36-.02.73-.02,1.1-.02,1.4,0,2.76.13,4.08.37,1.45.26,2.84.66,4.17,1.19,2.49.98,4.76,2.4,6.72,4.15.13.12.27.24.4.36,2.02,1.9,3.67,4.17,4.86,6.69.61,1.3,1.09,2.66,1.43,4.08.4,1.65.61,3.36.61,5.12Z"/>
      <g>
        <path class="cls-5" d="m43.05,47.06c-4.68.31-10.22-1.32-12.37-5.62-2.15-4.27-.11-10.79,4.57-11.09,4.68-.25,10.22,5.36,12.37,9.47,2.15,4.21.11,6.75-4.57,7.24Z"/>
        <path class="cls-5" d="m44.61,50c-6.55.51-14.31-.72-17.32-6.22-3.02-5.46-.15-16.5,6.4-17.07,6.55-.39,14.31,8.64,17.32,13.76,3.02,5.34.15,8.58-6.4,9.53Z"/>
        <path class="cls-6" d="m46.25,52.89c-8.52.8-18.6.6-22.52-5.56-3.92-6.13-.19-23.46,8.32-24.53,8.52-.6,18.6,12.78,22.52,18.3,3.92,5.93.19,10.08-8.32,11.79Z"/>
        <path class="cls-5" d="m47.67,55.24c-10.22,1.13-22.32,2.31-27.02-3.79-4.71-6.12-.23-30.36,9.99-32.08,10.22-.84,22.32,16.95,27.02,22.13,4.7,5.82.23,11.1-9.99,13.74Z"/>
        <path class="cls-6" d="m49.38,57.83c-6.13,1.75-12.83,1.8-18.7,2.37-5.87.28-10.91,1.1-13.73-2.36-5.64-5.18-.28-39.8,11.99-42.64,6.13-1.59,12.83,5.37,18.7,11.5,5.87,6.44,10.91,12.06,13.73,14.9,5.64,4.76.28,12.06-11.99,16.22Z"/>
        <path class="cls-5" d="m50.9,59.94c-7.21,2.58-15.04,2.83-21.89,4.75-6.85,1.44-12.71,4.54-15.95,1.77-3.24-2.2-3.26-13.89-.66-26.87,2.6-12.74,7.81-26.77,15.01-28.12,7.21-2.37,15.04,6.97,21.89,14.24,6.85,7.77,12.71,13.48,15.95,15.42,3.24,2.02,3.26,4.09.66,7.89-2.6,3.53-7.81,8.78-15.01,10.93Z"/>
        <path class="cls-5" d="m52.07,61.41c-7.93,3.34-16.55,3.67-24.08,6.67-7.53,2.36-13.98,7.37-17.54,5.35-3.57-1.31-3.59-14.79-.73-30.4,2.86-15.29,8.59-32.7,16.51-34.47,7.93-3.08,16.55,8.18,24.08,16.3,7.53,8.78,13.97,14.42,17.54,15.44,3.57,1.08,3.59,2.94.73,7.44-2.86,4.14-8.59,10.93-16.51,13.67Z"/>
        <path class="cls-5" d="m53.55,63.08c-8.9,4.52-18.56,4.93-27,9.74-8.44,3.91-15.64,12.23-19.62,11.68-3.98.41-3.97-15.7-.75-35.32C9.41,30.01,15.86,7.33,24.75,4.92c8.9-4.2,18.56,9.96,27,19.12,8.44,10.09,15.64,15.16,19.62,14.45,3.98-.69,3.97.81.75,6.47-3.22,5.17-9.67,14.5-18.57,18.13Z"/>
        <path class="cls-4" d="m55,64.48c-9.79,5.9-20.42,6.27-29.7,13.06-9.28,5.59-17.21,17.6-21.58,18.92-4.37,2.55-4.37-16.19-.82-40.1C6.44,33.05,13.53,4.56,23.31,1.38c9.79-5.51,20.42,11.76,29.7,21.86,9.28,11.35,17.21,15.55,21.58,12.7,4.37-2.88,4.37-1.83.82,5.18-3.55,6.36-10.64,18.69-20.42,23.35Z"/>
      </g>
      <text class="cls-1" transform="translate(79.93 22.35)"><tspan x="0" y="0">IMPULSE</tspan></text>
      <text class="cls-3" transform="translate(62.35 33.01)"><tspan x="0" y="0">Theater </tspan></text>
      <text class="cls-3" transform="translate(78.76 47.12)"><tspan x="0" y="0">FESTI</tspan><tspan class="cls-7" x="51.79" y="0">V</tspan><tspan x="62.63" y="0">A</tspan><tspan class="cls-2" x="75.83" y="0">L</tspan></text>
    </g>
  </g>
</svg>