<?xml version="1.0" encoding="UTF-8"?>
<svg id="Ebene_2" data-name="Ebene 2" xmlns="http://www.w3.org/2000/svg" viewBox="0 0 184.03 67.24">
  <defs>
    <style>
      .cls-1 {
        font-size: 20.11px;
      }

      .cls-1, .cls-2, .cls-3 {
        fill: #fbd900;
        font-weight: 700;
      }

      .cls-1, .cls-3 {
        font-family: Helvetica-Bold, Helvetica;
      }

      .cls-4 {
        stroke-width: 1.1px;
      }

      .cls-4, .cls-5, .cls-6 {
        fill: none;
        stroke: #951b81;
        stroke-miterlimit: 10;
      }

      .cls-7 {
        letter-spacing: 0em;
      }

      .cls-8 {
        letter-spacing: -.02em;
      }

      .cls-2 {
        font-family: HelveticaNeue-Bold, 'Helvetica Neue';
        font-size: 19.94px;
      }

      .cls-5 {
        stroke-width: .71px;
      }

      .cls-6 {
        stroke-width: 1.42px;
      }

      .cls-3 {
        font-size: 22.72px;
      }

      .cls-9 {
        letter-spacing: -.07em;
      }

      .cls-10 {
        letter-spacing: -.07em;
      }
    </style>
  </defs>
  <g id="Ebene_2-2" data-name="Ebene 2">
    <g>
      <g>
        <path class="cls-4" d="m145.92,33.24c-.86-3.93-.18-8.84,3.2-11.21,3.35-2.37,9.14-1.46,9.99,2.47.8,3.94-3.25,9.35-6.46,11.7-3.29,2.36-5.71.95-6.72-2.96Z"/>
        <path class="cls-4" d="m143.63,34.94c-1.27-5.49-1.21-12.23,3.07-15.48,4.24-3.25,13.97-2.22,15.3,3.26,1.16,5.51-5.51,13.23-9.47,16.44-4.14,3.24-7.26,1.22-8.9-4.22Z"/>
        <path class="cls-6" d="m141.38,36.7c-1.76-7.12-2.87-15.7,1.86-19.81,4.7-4.1,19.87-3.14,21.86,3.94,1.59,7.15-8.48,17.4-12.66,21.43-4.53,4.08-8.53,1.45-11.06-5.56Z"/>
        <path class="cls-4" d="m139.57,38.2c-2.26-8.53-4.8-18.64-.22-23.4,4.59-4.77,25.73-4.05,28.48,4.4,2.01,8.56-11.54,21.09-15.34,25.73-4.34,4.73-9.39,1.61-12.92-6.73Z"/>
        <path class="cls-4" d="m137.58,39.97c-2.27-4.98-3.15-10.65-4.39-15.56-.99-4.94-2.32-9.11.26-11.95,3.68-5.45,33.72-5.29,37.69,4.75,2.13,5-2.93,11.56-7.38,17.32-4.72,5.8-8.84,10.79-10.9,13.54-3.32,5.39-10.2,1.77-15.28-8.11Z"/>
        <path class="cls-4" d="m135.99,41.53c-3.1-5.79-4.31-12.4-6.81-17.97-2.09-5.63-5.46-10.2-3.52-13.3,1.46-3.03,11.37-4.53,22.71-3.98,11.14.58,23.7,3.22,25.76,9.16,2.92,5.81-4,13.65-9.29,20.38-5.72,6.8-9.82,12.49-11.05,15.49-1.3,3.01-2.85,2.99-6.4,1.27-3.32-1.75-8.64-5.21-11.39-11.05Z"/>
        <path class="cls-4" d="m134.89,42.72c-3.84-6.3-5.22-13.57-8.72-19.58-2.96-6.09-8.03-10.92-6.77-14.2.66-3.19,12.09-4.92,25.7-4.48,13.33.48,28.83,3.13,31.33,9.63,3.62,6.33-4.36,15.49-10.29,22.91-6.49,7.5-10.94,13.27-11.35,16.43-.46,3.16-2.03,3.19-6.21,1.34-3.88-1.9-10.37-5.67-13.7-12.05Z"/>
        <path class="cls-4" d="m133.67,44.18c-4.97-6.97-6.54-15.12-11.7-21.67-4.39-6.66-12.36-11.72-12.4-15.16-.86-3.32,12.81-5.36,29.87-5.12,16.67.3,36.73,2.88,39.91,10.12,4.69,7.01-5.75,17.82-12.44,26.14-7.49,8.44-11.22,14.39-10.11,17.67,1.09,3.29-.18,3.47-5.39,1.45-4.79-2.08-13.52-6.36-17.73-13.45Z"/>
        <path class="cls-5" d="m132.67,45.58c-6.25-7.55-7.91-16.53-14.85-23.53-5.92-7.16-17.11-12.36-18.79-15.9-2.71-3.39,13.18-5.76,33.91-5.79,20.22.05,45.29,2.44,49.23,10.34,5.92,7.6-6.85,19.4-14.25,28.55-8.45,9.31-11.53,15.99-8.56,19.34,3,3.34,1.97,4.16-4.38,1.91-5.71-2.02-17.11-7.21-22.31-14.92Z"/>
      </g>
      <text class="cls-1" transform="translate(40.22 57.57)"><tspan x="0" y="0">FESTI</tspan><tspan class="cls-10" x="56.97" y="0">V</tspan><tspan class="cls-7" x="68.9" y="0">A</tspan><tspan class="cls-8" x="83.42" y="0">L</tspan></text>
      <text class="cls-2" transform="translate(11.94 25)"><tspan x="0" y="0">IMPULSE</tspan></text>
      <text class="cls-3" transform="translate(0 42.06)"><tspan x="0" y="0">THE</tspan><tspan class="cls-9" x="45.44" y="0">A</tspan><tspan x="60.17" y="0">TER</tspan></text>
    </g>
  </g>
</svg>