<?xml version="1.0" encoding="UTF-8"?>
<svg id="Ebene_2" data-name="Ebene 2" xmlns="http://www.w3.org/2000/svg" viewBox="0 0 132.99 125.51">
  <defs>
    <style>
      .cls-1 {
        fill: #da91b3;
      }

      .cls-2 {
        fill: #d9e021;
      }

      .cls-3 {
        fill: #221f1d;
      }

      .cls-4 {
        fill: #1d1d1b;
      }

      .cls-5 {
        fill: #fff;
        stroke: #000;
        stroke-miterlimit: 10;
        stroke-width: .25px;
      }
    </style>
  </defs>
  <g id="Ebene_1-2" data-name="Ebene 1">
    <g>
      <g>
        <path class="cls-2" d="m12.95,95.36c-.6,0-1.4.74-2.12,1.2-1.41.89-2.55.72-1.39-8.01,1.76-13.21-6.23-10.21-1.36-25.53,4.87-15.32,10.14-35.74,15.41-40.84,5.27-5.11,10.41-6.04,19.32-11.91,7.7-5.07,21.2-11.91,29.99-8.5,8.78,3.4,18.65-3.39,27.43,1.71,8.78,5.11,11.09,3.38,12.84,11.89,1.76,8.51,2.03,10.06,4.3,13.82,11.91,19.69,9.47,55.59,9.47,59.26s-.35,9.32-.35,9.32"/>
        <path class="cls-4" d="m127.34,97.83l-1.71-.11c0-.06.35-5.66.35-9.26,0-.33.02-.94.05-1.76.6-17.95-.54-42.42-9.39-57.05-2.28-3.76-2.61-5.4-4.24-13.27l-.17-.82c-1.2-5.82-2.46-6.4-6.61-8.34-1.54-.71-3.45-1.61-5.82-2.98-4.48-2.6-9.23-1.94-14.26-1.24-4.32.6-8.79,1.23-13.05-.42-9.6-3.72-24.78,5.5-29.21,8.42-3.79,2.5-6.89,4.1-9.62,5.52-3.7,1.92-6.62,3.43-9.58,6.3-4.06,3.94-8.41,18.28-12.24,30.93-1.02,3.35-1.98,6.52-2.94,9.56-2.6,8.17-1.46,10.8-.13,13.85,1.1,2.53,2.34,5.39,1.52,11.53-.73,5.52-.43,6.98-.27,7.36.07-.03.18-.08.35-.19.19-.12.38-.26.58-.4.64-.46,1.3-.93,2.01-.93v1.71c-.18.02-.7.39-1.01.61-.22.16-.45.32-.66.46-.32.2-1.29.82-2.16.26-.99-.64-1.43-2.38-.53-9.1.75-5.66-.34-8.18-1.4-10.62-1.4-3.22-2.72-6.27.07-15.05.96-3.03,1.92-6.19,2.94-9.54,4.08-13.48,8.31-27.41,12.69-31.66,3.14-3.04,6.16-4.61,9.98-6.59,2.69-1.4,5.75-2.98,9.46-5.43,4.6-3.03,20.41-12.6,30.77-8.59,3.84,1.49,7.9.92,12.19.32,5.1-.71,10.37-1.45,15.36,1.45,2.31,1.34,4.18,2.21,5.68,2.91,4.25,1.98,6.19,2.88,7.57,9.55l.17.82c1.61,7.81,1.9,9.22,4.03,12.73,7.28,12.03,10.52,31.55,9.64,58-.03.8-.05,1.38-.05,1.71,0,3.65-.35,9.31-.35,9.37Z"/>
        <path class="cls-3" d="m67.12,115.95c-.41-1.05.1-1.12,1.09-1.69,1.42-.82,2.66-1.49,4.15-.42.37.27,1.51.78,1.21.29-1.61-2.67-3.99-8.71-4.4-8.89-.33-.15-.3.43-.5,1.57-.25,1.39-1.69,2.3-2.68,3.17-1.75,1.55-5.71,3.88-6.66,5.07,0,0,1.94,3.48,2.52,3.15.57-.33,2.94-2.22,3.15-1.67.25.65,1.46,3.59,1.95,5.09.04.11.15.18.27.15.55-.12,1.1-.25,1.66-.35.22-.04.35-.27.28-.48-.39-1.24-1.56-3.72-2.06-4.99"/>
        <path class="cls-2" d="m4.4,87.42c-6.85,3.82-1.72,3.79-1.72,13.25s-.86,17.04-.86,17.04c0,0-1.85,7.8,24.86,3.79,15.26-2.3-18.86.95,30.86.95s32.58-.52,46.29,1.37c13.72,1.89,15.43,0,15.43,0,0,0,12.09,1.7,12-3.26.08,4.7.86-18.35.86-27.45,0-5.68-6-5.54-14.57-5.12-8.57.42-15.43-.17-20.57-.17s-41.15-.37-46.29,1.71c-5.14,2.08-17.14-1.53-18.86-1.71-1.71-.19-20.59-4.21-27.44-.39"/>
        <path class="cls-4" d="m113.95,125.51c-2.37,0-5.66-.22-10.22-.85-3.13-.43-4.65-.74-5.75-.96q-2.5-.5-15.5-.45c-5.55.02-13.46.05-24.92.05-21.66,0-27.25-.53-28.71-1.27-.57.09-1.23.19-2.02.31-13.49,2.03-21.84,1.42-24.82-1.82-1.21-1.32-1.08-2.61-1.02-2.95.06-.56.85-7.92.85-16.91,0-3.52-.73-5.65-1.27-7.21-1.04-3.03-1.01-4.32,3.42-6.79h0c6.23-3.48,21.52-.82,26.55.06.7.12,1.19.21,1.4.23.4.04,1.14.21,2.26.47,4,.93,12.33,2.85,16.18,1.3,3.25-1.31,17.78-1.89,44.45-1.78h2.16c1.72,0,3.66.07,5.71.14,4.28.15,9.12.31,14.82.03,6.86-.34,11.53-.39,13.91,1.87,1.03.98,1.56,2.37,1.56,4.1,0,4.37-.18,11.73-.34,17.17-.26,8.5-.33,10.85-.71,11.51-.19.53-.52,1-.97,1.4-2.75,2.43-9.72,1.75-11.48,1.53-.67.37-2.18.81-5.53.81Zm-24.36-4c6.19,0,6.65.09,8.72.51,1.09.22,2.57.52,5.65.94,12.48,1.72,14.66.27,14.75.21l.3-.34.38.13c2.22.31,8.41.72,10.44-1.07.41-.37.6-.79.59-1.32h.11c.22-3.02.75-20.1.75-27.47,0-1.27-.34-2.21-1.03-2.86-2.02-1.93-7.18-1.67-12.65-1.4-5.77.28-10.65.12-14.96-.03-2.04-.07-3.96-.14-5.65-.14h-2.17c-26.07-.12-40.8.44-43.8,1.65-4.35,1.76-12.72-.18-17.21-1.22-.95-.22-1.77-.41-2.06-.44-.23-.02-.75-.11-1.51-.25-13.08-2.27-21.64-2.36-25.42-.25h0c-3.57,1.99-3.43,2.41-2.64,4.73.54,1.58,1.36,3.97,1.36,7.77,0,9.4-.85,17.06-.86,17.13l-.02.1s-.12.72.66,1.52c1.49,1.54,6.5,3.74,23.24,1.22.99-.15,1.75-.27,2.32-.37.48-.28,1.19-.41,1.83-.45.97-.07,1.12.57,1.15.77.02.14.02.25,0,.36,2.95.3,9.79.63,25.68.63,11.46,0,19.37-.03,24.92-.05,2.99-.01,5.31-.02,7.13-.02Z"/>
        <path class="cls-1" d="m103.81,25.66c-2.07.77-4.3.83-6.27,1.7-2.59,1.14-4.63,2.57-7.43,3.54"/>
        <path class="cls-4" d="m90.4,31.71l-.56-1.62c1.61-.56,2.95-1.27,4.37-2.02.95-.5,1.93-1.02,2.99-1.49,1.14-.5,2.34-.75,3.5-.99.99-.2,1.92-.4,2.81-.73l.6,1.61c-1.02.38-2.06.6-3.07.8-1.12.23-2.18.45-3.15.88-1.01.45-1.96.95-2.88,1.44-1.41.75-2.87,1.53-4.61,2.13Z"/>
      </g>
      <g>
        <g>
          <path class="cls-5" d="m56,103.84c-.07.09-.1.15-.2.26-.25.28-.96.88-.63,2.49.15.73.38,2.09,1.27,2.85.59.5,1.55.69,2.05.69,1.27,0,5.56-1.57,11.23-3.9.22-.09,1.46-.75,1.68-.84,6.96-2.88,14.05-6.89,14.67-7.63.39-.47.57-1.03-.15-1.07-1.06-.06-1.97.24-2.89.55-12.45,4.2-2.4.23-4.2.42-.02,0-4.43,1.14-4.45,1.14-.85.16-8.94,2.77-15.72,3.56-1.42.16-2.22.92-2.66,1.48Z"/>
          <path class="cls-5" d="m58.49,110.22h0c-.51,0-1.49-.19-2.1-.71-.87-.74-1.12-2.02-1.28-2.78l-.02-.12c-.31-1.55.3-2.2.59-2.51l.06-.06c.06-.07.09-.11.12-.16.02-.03.04-.06.07-.09.68-.88,1.6-1.39,2.72-1.52,5.35-.62,11.61-2.4,14.28-3.16.75-.21,1.25-.36,1.43-.39.02,0,.74-.19,1.56-.4,2.77-.71,2.89-.74,2.9-.74.15-.02.28-.02.32.09.05.15-.16.3-1.33.92-.3.16-.69.37-.89.5.61-.11,2.65-.75,6.09-1.92.86-.29,1.82-.62,2.92-.56.28.01.46.11.54.28.14.32-.18.76-.33.94-.66.79-7.88,4.83-14.71,7.66-.11.04-.47.23-.83.41-.38.2-.74.38-.85.43-6.31,2.59-10.1,3.91-11.26,3.91Zm20.42-12.48s-.04,0-.07,0c-.05.01-1.68.43-2.87.74-1.32.34-1.56.4-1.57.4-.18.03-.7.18-1.41.39-2.68.76-8.95,2.55-14.31,3.17-1.07.12-1.95.61-2.6,1.45h0s-.04.06-.06.09c-.04.05-.07.11-.14.18l-.06.06c-.27.29-.84.89-.55,2.35l.02.12c.15.74.39,1.98,1.22,2.68.57.49,1.52.67,1.99.67h0c1.14,0,4.91-1.31,11.19-3.89.11-.04.48-.24.84-.42.37-.19.73-.37.84-.42,7.19-2.97,14.07-6.92,14.64-7.61.25-.31.37-.59.3-.75-.05-.1-.17-.16-.38-.17-1.07-.06-2.02.26-2.86.55-6.33,2.14-6.38,2.01-6.45,1.87-.06-.13.08-.22,1.11-.77.41-.22.99-.53,1.19-.68Z"/>
        </g>
        <path class="cls-4" d="m47.25,109.48s-.03,0-.04-.01c-.04-.02-.06-.08-.03-.12.77-1.31,6.18-2.66,7.69-2.95-2.6-.85-4.1-1.72-5.2-2.36-.94-.54-1.61-.93-2.47-1.04-.05,0-.08-.05-.08-.1,0-.05.05-.08.1-.08.89.11,1.58.51,2.54,1.07,1.13.66,2.69,1.56,5.44,2.43.05.01.08.06.07.11,0,.05-.04.09-.09.1-1.13.16-7.08,1.62-7.84,2.92-.02.03-.05.04-.08.04Zm7.88-3h0,0Z"/>
        <path class="cls-4" d="m51.01,112.53s-.02,0-.03,0c-.05-.02-.07-.07-.05-.11.28-.73.84-1.27,1.48-1.89.92-.89,1.96-1.9,2.5-3.77-.24.1-.55.21-.92.33-1.72.59-4.59,1.57-5.77,3.69-.02.04-.08.06-.12.03-.04-.02-.06-.08-.03-.12,1.21-2.18,4.12-3.18,5.86-3.77.43-.15.8-.28,1.05-.39.03-.05.07-.07.1-.06h.07s.02.07.02.07c0,.03,0,.08-.04.11-.54,2.02-1.63,3.07-2.59,4-.63.61-1.18,1.14-1.44,1.83-.01.03-.05.06-.08.06Z"/>
        <path class="cls-4" d="m54.96,106.53s-.02,0-.04,0c-6.27-1.09-8.3-.67-8.32-.67-.05,0-.09-.02-.1-.07-.01-.05.02-.09.07-.1.08-.02,2.08-.43,8.39.67.02-.02.03-.04.01-.07-.14-.22-.5-.54-.92-.92-1.07-.96-2.55-2.27-2.11-3.43.38-1-.42-1.74-.45-1.77-.04-.03-.04-.09,0-.12.03-.04.09-.04.12,0,0,0,.92.86.5,1.96-.4,1.05,1.02,2.32,2.06,3.24.43.38.8.72.95.96.05.08.05.18,0,.26-.04.05-.09.08-.16.08Z"/>
        <path class="cls-4" d="m47.07,107.45c-.3,0-.5-.02-.52-.02-.05,0-.08-.05-.08-.09s.05-.08.09-.08c.02,0,1.78.14,2.74-.42.92-.53,5.5-.57,5.67-.48l.04.02v.05s-.02.09-.07.1c-.02,0-.04,0-.06-.01-.28-.05-4.63-.02-5.5.48-.68.39-1.7.46-2.32.46Z"/>
        <g>
          <path d="m63.77,108.23s0,0,0,0c-.05,0-1.18-.07-1.55-2.03,0-.05.02-.09.07-.1.05,0,.09.02.1.07.34,1.81,1.34,1.88,1.39,1.88.05,0,.09.04.08.09,0,.05-.04.08-.09.08Z"/>
          <path d="m77.63,102.39s-.02,0-.03,0c-.63-.2-.92-.85-.99-1.05-.02-.05,0-.1.05-.11.04-.02.1,0,.11.05.07.18.33.77.88.94.05.01.07.06.06.11-.01.04-.05.06-.08.06Z"/>
          <path d="m62.72,108.57c-.35,0-1.31-.57-1.7-2.54,0-.05.02-.09.07-.1.05,0,.09.02.1.07.29,1.46.87,2.04,1.18,2.25.16.11.29.14.33.14.01-.01.03-.02.05-.03.05,0,.09.03.1.08,0,.05-.03.11-.11.12-.01,0-.02,0-.04,0Zm-.03-.11h0s0,0,0,0Z"/>
          <path d="m64.55,107.78c-.13,0-.62-.06-.92-.85-.02-.05,0-.1.05-.11.05-.02.1,0,.11.05.28.77.75.73.77.73.05,0,.09.03.1.08,0,.05-.03.09-.08.1,0,0-.02,0-.03,0Z"/>
          <path d="m78.26,102.13s-.03,0-.05-.02c-.02-.01-.03-.03-.04-.06-.03-.02-.1-.06-.16-.08-.28-.13-.7-.33-.74-.69,0-.05.03-.09.08-.1.05,0,.09.03.1.08.03.26.4.44.64.55.16.08.24.12.26.19,0,.02,0,.07-.02.09-.02.02-.04.04-.07.04Zm-.07-.14s0,0,0,0c0,0,0,0,0,0Z"/>
          <path d="m58.24,109.58s0,0,0,0c-.02,0-.03,0-.04-.01-.42-.1-1.58-.54-1.65-2.17,0-.05.04-.09.08-.09.05,0,.09.04.09.08.06,1.57,1.19,1.94,1.53,2.02.09.02.09.07.09.1,0,.02-.02.08-.1.08Z"/>
          <path d="m58.28,103.75s-.08-.03-.09-.08c-.11-.81.23-.99.26-1.01.04-.02.1,0,.12.04.02.04,0,.09-.04.12,0,0-.26.15-.17.83,0,.05-.03.09-.08.1,0,0,0,0-.01,0Z"/>
        </g>
        <path class="cls-4" d="m49.04,112.61s-.08-.03-.09-.08c-.06-.44.59-1.06,1.28-1.71.49-.46.99-.94,1.03-1.2.15-1.01,3.65-2.98,3.8-3.06.04-.02.1,0,.12.03.02.04,0,.1-.03.12-.99.56-3.6,2.17-3.71,2.93-.05.32-.53.77-1.08,1.3-.6.57-1.27,1.22-1.22,1.56,0,.05-.03.09-.07.1,0,0,0,0-.01,0Z"/>
      </g>
    </g>
  </g>
</svg>