<?xml version="1.0" encoding="UTF-8"?>
<svg id="Ebene_2" data-name="Ebene 2" xmlns="http://www.w3.org/2000/svg" viewBox="0 0 95.26 80.1">
  <defs>
    <style>
      .cls-1 {
        fill: #fafafa;
      }

      .cls-2 {
        fill: #1d1d1b;
      }

      .cls-3 {
        fill: #2b1508;
      }
    </style>
  </defs>
  <g id="Ebene_1-2" data-name="Ebene 1">
    <g>
      <ellipse class="cls-3" cx="88.86" cy="42.03" rx="6.34" ry="6.75" transform="translate(-8.97 32.47) rotate(-19.73)"/>
      <path class="cls-3" d="m43.31,36.96l5.09,15.35c.84,2.54,3.59,3.92,6.13,3.06l7.27-2.44c2.35-.79,3.62-3.32,2.85-5.68l-5.11-15.59-5.28,1.73,3.71,11.34c.52,1.58-.34,3.28-1.92,3.8h0c-1.5.5-3.12-.31-3.62-1.81l-3.84-11.5-5.28,1.73Z"/>
      <path class="cls-3" d="m61.7,25.43l8.94,24.93,5.09-1.83-4.42-11.74c-.31-.81-.17-1.72.35-2.41l5.4-7.11-3.86-2.93-3.84,4.77c-.18.23-.54.17-.64-.11l-1.73-4.33-5.28.77Z"/>
      <path class="cls-3" d="m40.89,77.5l-5.45,2.6-11.67-37.12,5.44-2.59.44,1.39,1.26,4c-1.32,1.16-1.81,3.6-1.09,5.91.72,2.33,2.43,3.75,4.05,3.51l1.55,4.93,5.46,17.36Z"/>
      <path class="cls-3" d="m44.49,46.7c-2.14-5.3-7.15-8.02-11.21-6.08-1.05.5-1.93,1.27-2.62,2.21-1.99,2.73-2.44,6.97-.86,10.9,1.76,4.37,5.48,6.99,9.01,6.68.75-.06,1.49-.26,2.2-.6,4.06-1.95,5.61-7.82,3.47-13.12Zm-7.12,8.7c-.24.13-.49.23-.75.29-1.77.44-3.8-.77-4.82-3.01-1.02-2.21-.71-4.71.64-6.02.21-.21.44-.38.69-.52,1.9-1.06,4.4.16,5.57,2.72,1.17,2.55.58,5.48-1.33,6.54Z"/>
      <polygon class="cls-3" points="89.17 32.54 82.99 34.82 70.12 .83 77.17 0 89.17 32.54"/>
      <g>
        <path class="cls-1" d="m21.34,22.2c-.15.2-.22.34-.44.58-.56.62-2.14,1.96-1.41,5.58.33,1.64.84,4.69,2.84,6.38,1.32,1.12,3.46,1.54,4.58,1.54,2.83,0,12.45-3.52,25.13-8.73.49-.2,3.26-1.68,3.75-1.88,15.58-6.45,32.36-14.49,33.01-16.56.43-1.39,1.1-2.89-.5-2.91-2.54-.04-4.4.54-6.47,1.24-27.86,9.41-5.37.51-9.4.94-.05,0-9.91,2.54-9.96,2.55-1.91.36-20,6.2-35.17,7.96-3.17.37-4.97,2.06-5.95,3.32Z"/>
        <path class="cls-2" d="m26.91,36.48h0c-1.14,0-3.34-.42-4.71-1.59-1.95-1.65-2.52-4.51-2.85-6.22l-.05-.27c-.7-3.47.67-4.92,1.33-5.61l.13-.14c.13-.15.2-.25.28-.36.05-.07.09-.13.15-.21,1.53-1.96,3.58-3.1,6.08-3.39,11.96-1.38,25.98-5.38,31.96-7.08,1.68-.48,2.79-.79,3.2-.87.06-.01,1.67-.43,3.55-.91,6.08-1.56,6.4-1.64,6.43-1.65.33-.03.64-.03.71.2.1.34-.37.67-2.98,2.05-.68.36-1.54.82-2,1.11,1.36-.25,5.93-1.69,13.63-4.29,2.16-.73,4.01-1.29,6.54-1.25.49,0,.83.14,1.02.42.38.53.09,1.41-.21,2.35-.04.14-.09.27-.13.41-.74,2.36-19.81,11.18-33.12,16.68-.24.1-1.05.52-1.84.92-.85.44-1.65.85-1.91.96-14.11,5.8-22.59,8.75-25.2,8.75Zm45.69-27.92s-.09,0-.16.01c-.1.02-3.73.96-6.38,1.64-3.01.77-3.55.91-3.57.92-.39.07-1.56.41-3.17.86-5.99,1.71-20.03,5.71-32.02,7.09-2.4.28-4.36,1.37-5.82,3.24h0c-.05.07-.1.13-.14.19-.08.12-.16.24-.31.4l-.13.14c-.61.65-1.89,2-1.23,5.26l.05.27c.33,1.66.88,4.44,2.72,6,1.29,1.1,3.37,1.49,4.45,1.49h0c2.56,0,10.98-2.93,25.05-8.72.24-.1,1.07-.53,1.88-.94.83-.43,1.62-.83,1.87-.94,17.58-7.27,32.34-14.65,32.9-16.44.04-.14.09-.27.13-.41.26-.8.53-1.62.26-2-.12-.17-.35-.25-.71-.25-2.46-.04-4.28.51-6.4,1.23-14.16,4.78-14.29,4.51-14.43,4.19-.13-.29.18-.5,2.48-1.73.91-.48,2.22-1.18,2.65-1.53Z"/>
      </g>
      <path class="cls-2" d="m38.71,32.02s0,0,0,0c-.11,0-2.64-.15-3.47-4.53-.02-.11.05-.21.16-.23.11-.02.21.05.23.16.77,4.06,3.01,4.21,3.1,4.22.11,0,.19.1.19.2,0,.11-.09.19-.2.19Z"/>
      <path class="cls-2" d="m69.74,18.95s-.04,0-.06,0c-1.41-.44-2.06-1.9-2.22-2.34-.04-.1.01-.21.11-.25.1-.04.21.01.25.11.15.4.73,1.72,1.97,2.1.1.03.16.14.13.25-.03.08-.1.14-.19.14Z"/>
      <path class="cls-2" d="m36.37,32.79c-.78,0-2.93-1.28-3.79-5.68-.02-.11.05-.21.15-.23.11-.02.21.05.23.15.64,3.27,1.94,4.56,2.65,5.04.36.24.64.31.75.32.03-.03.07-.05.12-.06.11,0,.2.07.21.18.01.11-.06.24-.24.27-.03,0-.05,0-.09,0Zm-.07-.24h0s0,0,0,0Z"/>
      <path class="cls-2" d="m40.47,31.03c-.3,0-1.39-.13-2.05-1.89-.04-.1.01-.21.12-.25.1-.04.21.01.25.12.64,1.73,1.71,1.64,1.71,1.64.11-.01.21.07.22.17.01.11-.07.2-.17.22,0,0-.03,0-.08,0Z"/>
      <path class="cls-2" d="m1.52,34.82s-.07,0-.1-.03c-.09-.05-.12-.18-.07-.27,1.73-2.94,13.82-5.95,17.2-6.61-5.82-1.9-9.18-3.85-11.64-5.28-2.09-1.21-3.61-2.09-5.53-2.33-.11-.01-.18-.11-.17-.22.01-.11.11-.18.22-.17,2,.25,3.54,1.15,5.68,2.38,2.54,1.47,6.01,3.48,12.16,5.43.1.03.17.13.16.24,0,.11-.09.2-.2.22-2.53.36-15.83,3.63-17.54,6.53-.04.06-.1.1-.17.1Zm17.63-6.71h0,0Z"/>
      <path class="cls-2" d="m10.17,41.65s-.05,0-.07-.01c-.1-.04-.15-.15-.11-.25.62-1.63,1.87-2.84,3.32-4.24,2.06-1.99,4.39-4.24,5.59-8.44-.53.22-1.23.46-2.07.75-3.84,1.32-10.27,3.52-12.91,8.26-.05.09-.17.13-.27.08-.09-.05-.13-.17-.08-.27,2.71-4.88,9.23-7.11,13.12-8.44.96-.33,1.8-.62,2.34-.87.06-.11.15-.15.22-.14h.15s.05.17.05.17c.02.07,0,.17-.1.25-1.2,4.52-3.64,6.87-5.79,8.95-1.41,1.37-2.63,2.55-3.22,4.1-.03.08-.1.13-.18.13Z"/>
      <path class="cls-2" d="m19,28.22s-.05,0-.08,0C4.89,25.77.33,26.71.29,26.72c-.11.02-.21-.04-.23-.15-.02-.11.04-.21.15-.23.18-.04,4.65-.97,18.78,1.49.05-.04.06-.1.02-.16-.31-.49-1.12-1.21-2.06-2.05-2.4-2.15-5.7-5.08-4.71-7.68.84-2.23-.93-3.9-1.01-3.97-.08-.07-.09-.2-.01-.28.07-.08.2-.09.28-.01.02.02,2.05,1.91,1.11,4.4-.89,2.35,2.29,5.18,4.61,7.25.96.86,1.8,1.6,2.13,2.14.11.18.12.41,0,.58-.08.12-.21.19-.35.19Z"/>
      <path class="cls-2" d="m1.35,30.28c-.67,0-1.12-.03-1.17-.04-.11,0-.19-.1-.18-.21,0-.11.1-.19.21-.18.04,0,3.99.3,6.13-.93,2.05-1.18,12.3-1.28,12.68-1.08l.09.05.02.12c.01.11-.07.2-.17.22-.04,0-.09,0-.12-.03-.63-.11-10.37-.04-12.31,1.07-1.52.87-3.81,1.02-5.19,1.02Z"/>
      <path class="cls-2" d="m71.15,18.37s-.08-.01-.11-.03c-.05-.03-.07-.08-.08-.13-.07-.05-.24-.13-.37-.19-.62-.3-1.56-.75-1.65-1.55-.01-.11.07-.2.17-.22.1-.01.2.07.22.17.07.58.89.97,1.43,1.24.36.17.55.26.59.42.01.06,0,.15-.03.2-.04.06-.1.09-.16.09Zm-.16-.31s0,0,0,0c0,0,0,0,0,0Z"/>
      <path class="cls-2" d="m26.34,35.05s-.01,0-.02,0c-.03,0-.07-.01-.09-.03-.95-.23-3.53-1.2-3.68-4.86,0-.11.08-.2.19-.2.11,0,.2.08.2.19.14,3.51,2.66,4.34,3.43,4.51.19.04.2.16.2.23,0,.05-.04.17-.22.17Z"/>
      <path class="cls-2" d="m26.43,22.01c-.1,0-.18-.07-.19-.17-.24-1.81.5-2.22.59-2.26.1-.05.22,0,.26.09.05.1,0,.21-.09.26-.02.01-.57.34-.37,1.85.01.11-.06.21-.17.22,0,0-.02,0-.03,0Z"/>
      <path class="cls-2" d="m5.75,41.82c-.1,0-.18-.07-.19-.17-.14-.98,1.32-2.37,2.85-3.84,1.09-1.04,2.21-2.11,2.3-2.69.34-2.26,8.17-6.66,8.51-6.85.09-.05.21-.02.27.08s.02.21-.08.27c-2.22,1.24-8.05,4.85-8.31,6.57-.11.71-1.18,1.73-2.42,2.91-1.33,1.27-2.85,2.72-2.74,3.5.01.11-.06.21-.17.22,0,0-.02,0-.03,0Z"/>
    </g>
  </g>
</svg>