<?xml version="1.0" encoding="utf-8"?>
<!-- Generator: Adobe Illustrator 27.5.0, SVG Export Plug-In . SVG Version: 6.00 Build 0)  -->
<svg version="1.1" id="Ebene_2_00000139995861355851764170000014297607732232610945_"
	 xmlns="http://www.w3.org/2000/svg" xmlns:xlink="http://www.w3.org/1999/xlink" x="0px" y="0px" viewBox="0 0 466.1 466.9"
	 style="enable-background:new 0 0 466.1 466.9;" xml:space="preserve">
<style type="text/css">
	.st0{fill:#1D1D1B;}
	.st1{fill:#D9E021;}
	.st2{fill:#DA91B3;}
	.st3{fill:#FFFFFF;stroke:#000000;stroke-width:0.25;stroke-miterlimit:10;}
	.st4{stroke:#1D1D1B;stroke-width:1.66;}
	.st5{fill:#FFFFFF;}
	.st6{fill:#F9F9F9;}
	.st7{fill:none;stroke:#1D1D1B;stroke-width:2;stroke-miterlimit:10;}
	.st8{fill:none;stroke:#1D1D1B;stroke-width:1.96;stroke-miterlimit:10;}
</style>
<circle class="st0" cx="56.1" cy="225.5" r="29.9"/>
<path d="M21.9,189.5h66.8c2.9,0,5.3,2.4,5.3,5.3v66.8c0,2.9-2.4,5.3-5.3,5.3H21.9c-2.9,0-5.3-2.4-5.3-5.3v-66.8
	C16.6,191.9,19,189.5,21.9,189.5z"/>
<g>
	<g>
		<path class="st1" d="M174.6,118.4c-0.6,0-1.4,0.7-2.1,1.2c-1.4,0.9-2.6,0.7-1.4-8c1.8-13.2-6.2-10.2-1.4-25.5s10.1-35.7,15.4-40.8
			c5.3-5.1,10.4-6,19.3-11.9c7.7-5.1,21.2-11.9,30-8.5c8.8,3.4,18.6-3.4,27.4,1.7c8.8,5.1,11.1,3.4,12.8,11.9
			c1.8,8.5,2,10.1,4.3,13.8c11.9,19.7,9.5,55.6,9.5,59.3s-0.4,9.3-0.4,9.3"/>
		<path class="st0" d="M288.9,120.9l-1.7-0.1c0-0.1,0.4-5.7,0.4-9.3c0-0.3,0-0.9,0-1.8c0.6-17.9-0.5-42.4-9.4-57.1
			c-2.3-3.8-2.6-5.4-4.2-13.3l-0.2-0.8c-1.2-5.8-2.5-6.4-6.6-8.3c-1.5-0.7-3.5-1.6-5.8-3c-4.5-2.6-9.2-1.9-14.3-1.2
			c-4.3,0.6-8.8,1.2-13-0.4c-9.6-3.7-24.8,5.5-29.2,8.4c-3.8,2.5-6.9,4.1-9.6,5.5c-3.7,1.9-6.6,3.4-9.6,6.3
			c-4.1,3.9-8.4,18.3-12.2,30.9c-1,3.4-2,6.5-2.9,9.6c-2.6,8.2-1.5,10.8-0.1,13.9c1.1,2.5,2.3,5.4,1.5,11.5c-0.7,5.5-0.4,7-0.3,7.4
			c0.1,0,0.2-0.1,0.4-0.2c0.2-0.1,0.4-0.3,0.6-0.4c0.6-0.5,1.3-0.9,2-0.9v1.7c-0.2,0-0.7,0.4-1,0.6c-0.2,0.2-0.4,0.3-0.7,0.5
			c-0.3,0.2-1.3,0.8-2.2,0.3c-1-0.6-1.4-2.4-0.5-9.1c0.8-5.7-0.3-8.2-1.4-10.6c-1.4-3.2-2.7-6.3,0.1-15.1c1-3,1.9-6.2,2.9-9.5
			c4.1-13.5,8.3-27.4,12.7-31.7c3.1-3,6.2-4.6,10-6.6c2.7-1.4,5.8-3,9.5-5.4c4.6-3,20.4-12.6,30.8-8.6c3.8,1.5,7.9,0.9,12.2,0.3
			c5.1-0.7,10.4-1.4,15.4,1.4c2.3,1.3,4.2,2.2,5.7,2.9c4.2,2,6.2,2.9,7.6,9.6l0.2,0.8c1.6,7.8,1.9,9.2,4,12.7
			c7.3,12,10.5,31.6,9.6,58c0,0.8,0,1.4,0,1.7C289.3,115.2,289,120.9,288.9,120.9L288.9,120.9z"/>
		<path class="st0" d="M228.7,139c-0.4-1.1,0.1-1.1,1.1-1.7c1.4-0.8,2.7-1.5,4.1-0.4c0.4,0.3,1.5,0.8,1.2,0.3
			c-1.6-2.7-4-8.7-4.4-8.9c-0.3-0.1-0.3,0.4-0.5,1.6c-0.2,1.4-1.7,2.3-2.7,3.2c-1.8,1.6-5.7,3.9-6.7,5.1c0,0,1.9,3.5,2.5,3.1
			c0.6-0.3,2.9-2.2,3.1-1.7c0.2,0.6,1.5,3.6,2,5.1c0,0.1,0.1,0.2,0.3,0.1c0.5-0.1,1.1-0.2,1.7-0.4c0.2,0,0.4-0.3,0.3-0.5
			C230.4,142.8,229.2,140.3,228.7,139"/>
		<path class="st1" d="M166,110.5c-6.9,3.8-1.7,3.8-1.7,13.2s-0.9,17-0.9,17s-1.9,7.8,24.9,3.8c15.3-2.3-18.9,0.9,30.9,0.9
			s32.6-0.5,46.3,1.4c13.7,1.9,15.4,0,15.4,0s12.1,1.7,12-3.3c0.1,4.7,0.9-18.3,0.9-27.4c0-5.7-6-5.5-14.6-5.1s-15.4-0.2-20.6-0.2
			c-5.1,0-41.2-0.4-46.3,1.7s-17.1-1.5-18.9-1.7C191.7,110.7,172.8,106.7,166,110.5"/>
		<path class="st0" d="M275.6,148.6c-2.4,0-5.7-0.2-10.2-0.9c-3.1-0.4-4.6-0.7-5.8-1c-1.7-0.3-6.8-0.5-15.5-0.4
			c-5.5,0-13.5,0.1-24.9,0.1c-21.7,0-27.2-0.5-28.7-1.3c-0.6,0.1-1.2,0.2-2,0.3c-13.5,2-21.8,1.4-24.8-1.8c-1.2-1.3-1.1-2.6-1-2.9
			c0.1-0.6,0.9-7.9,0.9-16.9c0-3.5-0.7-5.6-1.3-7.2c-1-3-1-4.3,3.4-6.8l0,0c6.2-3.5,21.5-0.8,26.6,0.1c0.7,0.1,1.2,0.2,1.4,0.2
			c0.4,0,1.1,0.2,2.3,0.5c4,0.9,12.3,2.9,16.2,1.3c3.2-1.3,17.8-1.9,44.5-1.8h2.2c1.7,0,3.7,0.1,5.7,0.1c4.3,0.1,9.1,0.3,14.8,0
			c6.9-0.3,11.5-0.4,13.9,1.9c1,1,1.6,2.4,1.6,4.1c0,4.4-0.2,11.7-0.3,17.2c-0.3,8.5-0.3,10.9-0.7,11.5c-0.2,0.5-0.5,1-1,1.4
			c-2.8,2.4-9.7,1.8-11.5,1.5C280.4,148.1,278.9,148.6,275.6,148.6L275.6,148.6z M251.2,144.6c6.2,0,6.7,0.1,8.7,0.5
			c1.1,0.2,2.6,0.5,5.6,0.9c12.5,1.7,14.7,0.3,14.8,0.2l0.3-0.3l0.4,0.1c2.2,0.3,8.4,0.7,10.4-1.1c0.4-0.4,0.6-0.8,0.6-1.3h0.1
			c0.2-3,0.8-20.1,0.8-27.5c0-1.3-0.3-2.2-1-2.9c-2-1.9-7.2-1.7-12.6-1.4c-5.8,0.3-10.6,0.1-15,0c-2-0.1-4-0.1-5.6-0.1h-2.2
			c-26.1-0.1-40.8,0.4-43.8,1.6c-4.4,1.8-12.7-0.2-17.2-1.2c-1-0.2-1.8-0.4-2.1-0.4c-0.2,0-0.8-0.1-1.5-0.2
			c-13.1-2.3-21.6-2.4-25.4-0.2l0,0c-3.6,2-3.4,2.4-2.6,4.7c0.5,1.6,1.4,4,1.4,7.8c0,9.4-0.9,17.1-0.9,17.1l0,0.1
			c0,0-0.1,0.7,0.7,1.5c1.5,1.5,6.5,3.7,23.2,1.2c1-0.1,1.8-0.3,2.3-0.4c0.5-0.3,1.2-0.4,1.8-0.4c1-0.1,1.1,0.6,1.1,0.8
			c0,0.1,0,0.2,0,0.4c3,0.3,9.8,0.6,25.7,0.6c11.5,0,19.4,0,24.9-0.1C247.1,144.6,249.4,144.6,251.2,144.6L251.2,144.6z"/>
		<path class="st2" d="M265.4,48.7c-2.1,0.8-4.3,0.8-6.3,1.7c-2.6,1.1-4.6,2.6-7.4,3.5"/>
		<path class="st0" d="M252,54.8l-0.6-1.6c1.6-0.6,3-1.3,4.4-2c1-0.5,1.9-1,3-1.5c1.1-0.5,2.3-0.8,3.5-1c1-0.2,1.9-0.4,2.8-0.7
			l0.6,1.6c-1,0.4-2.1,0.6-3.1,0.8c-1.1,0.2-2.2,0.4-3.1,0.9c-1,0.4-2,0.9-2.9,1.4C255.2,53.4,253.7,54.2,252,54.8L252,54.8z"/>
	</g>
	<g>
		<g>
			<path class="st3" d="M217.6,126.9c-0.1,0.1-0.1,0.1-0.2,0.3c-0.2,0.3-1,0.9-0.6,2.5c0.1,0.7,0.4,2.1,1.3,2.9
				c0.6,0.5,1.5,0.7,2,0.7c1.3,0,5.6-1.6,11.2-3.9c0.2-0.1,1.5-0.8,1.7-0.8c7-2.9,14-6.9,14.7-7.6c0.4-0.5,0.6-1-0.1-1.1
				c-1.1-0.1-2,0.2-2.9,0.6c-12.5,4.2-2.4,0.2-4.2,0.4c0,0-4.4,1.1-4.5,1.1c-0.9,0.2-8.9,2.8-15.7,3.6
				C218.8,125.6,218,126.3,217.6,126.9L217.6,126.9z"/>
			<path class="st3" d="M220.1,133.3L220.1,133.3c-0.5,0-1.5-0.2-2.1-0.7c-0.9-0.7-1.1-2-1.3-2.8l0-0.1c-0.3-1.6,0.3-2.2,0.6-2.5
				l0.1-0.1c0.1-0.1,0.1-0.1,0.1-0.2c0,0,0-0.1,0.1-0.1c0.7-0.9,1.6-1.4,2.7-1.5c5.4-0.6,11.6-2.4,14.3-3.2c0.8-0.2,1.2-0.4,1.4-0.4
				c0,0,0.7-0.2,1.6-0.4c2.8-0.7,2.9-0.7,2.9-0.7c0.1,0,0.3,0,0.3,0.1c0,0.1-0.2,0.3-1.3,0.9c-0.3,0.2-0.7,0.4-0.9,0.5
				c0.6-0.1,2.6-0.8,6.1-1.9c0.9-0.3,1.8-0.6,2.9-0.6c0.3,0,0.5,0.1,0.5,0.3c0.1,0.3-0.2,0.8-0.3,0.9c-0.7,0.8-7.9,4.8-14.7,7.7
				c-0.1,0-0.5,0.2-0.8,0.4c-0.4,0.2-0.7,0.4-0.9,0.4C225,132,221.3,133.3,220.1,133.3L220.1,133.3z M240.5,120.8
				C240.5,120.8,240.5,120.8,240.5,120.8c-0.1,0-1.8,0.4-2.9,0.7c-1.3,0.3-1.6,0.4-1.6,0.4c-0.2,0-0.7,0.2-1.4,0.4
				c-2.7,0.8-9,2.6-14.3,3.2c-1.1,0.1-2,0.6-2.6,1.4l0,0c0,0,0,0.1-0.1,0.1c0,0.1-0.1,0.1-0.1,0.2l-0.1,0.1
				c-0.3,0.3-0.8,0.9-0.5,2.3l0,0.1c0.1,0.7,0.4,2,1.2,2.7c0.6,0.5,1.5,0.7,2,0.7l0,0c1.1,0,4.9-1.3,11.2-3.9c0.1,0,0.5-0.2,0.8-0.4
				c0.4-0.2,0.7-0.4,0.8-0.4c7.2-3,14.1-6.9,14.6-7.6c0.2-0.3,0.4-0.6,0.3-0.8c0-0.1-0.2-0.2-0.4-0.2c-1.1-0.1-2,0.3-2.9,0.6
				c-6.3,2.1-6.4,2-6.5,1.9c-0.1-0.1,0.1-0.2,1.1-0.8C239.7,121.3,240.3,121,240.5,120.8L240.5,120.8z"/>
		</g>
		<path class="st0" d="M208.9,132.5C208.9,132.5,208.8,132.5,208.9,132.5c-0.1,0-0.1-0.1-0.1-0.1c0.8-1.3,6.2-2.7,7.7-2.9
			c-2.6-0.9-4.1-1.7-5.2-2.4c-0.9-0.5-1.6-0.9-2.5-1c0,0-0.1-0.1-0.1-0.1s0-0.1,0.1-0.1c0.9,0.1,1.6,0.5,2.5,1.1
			c1.1,0.7,2.7,1.6,5.4,2.4c0,0,0.1,0.1,0.1,0.1c0,0.1,0,0.1-0.1,0.1C215.7,129.8,209.7,131.2,208.9,132.5
			C208.9,132.5,208.9,132.6,208.9,132.5L208.9,132.5z M216.7,129.5L216.7,129.5L216.7,129.5z"/>
		<path class="st0" d="M212.6,135.6C212.6,135.6,212.6,135.6,212.6,135.6c-0.1,0-0.1-0.1-0.1-0.1c0.3-0.7,0.8-1.3,1.5-1.9
			c0.9-0.9,2-1.9,2.5-3.8c-0.2,0.1-0.5,0.2-0.9,0.3c-1.7,0.6-4.6,1.6-5.8,3.7c0,0-0.1,0.1-0.1,0c0,0-0.1-0.1,0-0.1
			c1.2-2.2,4.1-3.2,5.9-3.8c0.4-0.1,0.8-0.3,1-0.4c0-0.1,0.1-0.1,0.1-0.1h0.1l0,0.1c0,0,0,0.1,0,0.1c-0.5,2-1.6,3.1-2.6,4
			C213.5,134.3,213,134.9,212.6,135.6C212.7,135.6,212.7,135.6,212.6,135.6L212.6,135.6z"/>
		<path class="st0" d="M216.6,129.6C216.6,129.6,216.5,129.6,216.6,129.6c-6.3-1.1-8.3-0.7-8.4-0.7c0,0-0.1,0-0.1-0.1s0-0.1,0.1-0.1
			c0.1,0,2.1-0.4,8.4,0.7c0,0,0,0,0-0.1c-0.1-0.2-0.5-0.5-0.9-0.9c-1.1-1-2.5-2.3-2.1-3.4c0.4-1-0.4-1.7-0.5-1.8c0,0,0-0.1,0-0.1
			c0,0,0.1,0,0.1,0c0,0,0.9,0.9,0.5,2c-0.4,1.1,1,2.3,2.1,3.2c0.4,0.4,0.8,0.7,1,1c0,0.1,0,0.2,0,0.3
			C216.7,129.6,216.6,129.6,216.6,129.6L216.6,129.6z"/>
		<path class="st0" d="M208.7,130.5c-0.3,0-0.5,0-0.5,0c0,0-0.1-0.1-0.1-0.1s0-0.1,0.1-0.1c0,0,1.8,0.1,2.7-0.4
			c0.9-0.5,5.5-0.6,5.7-0.5l0,0v0.1c0,0,0,0.1-0.1,0.1c0,0,0,0-0.1,0c-0.3-0.1-4.6,0-5.5,0.5C210.3,130.5,209.3,130.5,208.7,130.5
			L208.7,130.5z"/>
		<g>
			<path d="M225.4,131.3L225.4,131.3c0,0-1.2-0.1-1.5-2c0-0.1,0-0.1,0.1-0.1c0,0,0.1,0,0.1,0.1c0.3,1.8,1.3,1.9,1.4,1.9
				C225.4,131.1,225.5,131.1,225.4,131.3C225.5,131.2,225.4,131.3,225.4,131.3L225.4,131.3z"/>
			<path d="M239.2,125.4C239.2,125.4,239.2,125.4,239.2,125.4c-0.7-0.2-1-0.9-1-1.1c0-0.1,0-0.1,0-0.1c0,0,0.1,0,0.1,0.1
				c0.1,0.2,0.3,0.8,0.9,0.9C239.3,125.3,239.3,125.3,239.2,125.4C239.3,125.4,239.3,125.4,239.2,125.4z"/>
			<path d="M224.3,131.6c-0.4,0-1.3-0.6-1.7-2.5c0-0.1,0-0.1,0.1-0.1c0,0,0.1,0,0.1,0.1c0.3,1.5,0.9,2,1.2,2.2
				c0.2,0.1,0.3,0.1,0.3,0.1c0,0,0,0,0,0c0,0,0.1,0,0.1,0.1C224.5,131.6,224.4,131.6,224.3,131.6
				C224.3,131.6,224.3,131.6,224.3,131.6L224.3,131.6z M224.3,131.5L224.3,131.5L224.3,131.5z"/>
			<path d="M226.2,130.8c-0.1,0-0.6-0.1-0.9-0.9c0-0.1,0-0.1,0-0.1c0,0,0.1,0,0.1,0.1c0.3,0.8,0.8,0.7,0.8,0.7c0,0,0.1,0,0.1,0.1
				C226.3,130.8,226.2,130.8,226.2,130.8C226.2,130.8,226.2,130.8,226.2,130.8L226.2,130.8z"/>
			<path d="M239.9,125.2C239.9,125.2,239.8,125.2,239.9,125.2C239.8,125.2,239.8,125.1,239.9,125.2c-0.1-0.1-0.2-0.1-0.2-0.2
				c-0.3-0.1-0.7-0.3-0.7-0.7c0-0.1,0-0.1,0.1-0.1c0,0,0.1,0,0.1,0.1c0,0.3,0.4,0.4,0.6,0.6c0.2,0.1,0.2,0.1,0.3,0.2
				C240,125.1,240,125.1,239.9,125.2C239.9,125.2,239.9,125.2,239.9,125.2L239.9,125.2z M239.8,125.1L239.8,125.1L239.8,125.1z"/>
			<path d="M219.8,132.6L219.8,132.6C219.8,132.6,219.8,132.6,219.8,132.6c-0.5-0.1-1.6-0.5-1.7-2.2c0-0.1,0-0.1,0.1-0.1
				c0,0,0.1,0,0.1,0.1c0.1,1.6,1.2,1.9,1.5,2C219.9,132.5,219.9,132.5,219.8,132.6C219.9,132.6,219.9,132.7,219.8,132.6L219.8,132.6
				z"/>
			<path d="M219.9,126.8C219.9,126.8,219.8,126.8,219.9,126.8c-0.2-0.9,0.1-1.1,0.2-1.1c0,0,0.1,0,0.1,0s0,0.1,0,0.1
				c0,0-0.3,0.1-0.2,0.8C220,126.8,219.9,126.8,219.9,126.8C219.9,126.8,219.9,126.8,219.9,126.8L219.9,126.8z"/>
		</g>
		<path class="st0" d="M210.6,135.7C210.6,135.7,210.6,135.6,210.6,135.7c-0.1-0.5,0.5-1.1,1.2-1.8c0.5-0.5,1-0.9,1-1.2
			c0.1-1,3.6-3,3.8-3.1c0,0,0.1,0,0.1,0c0,0,0,0.1,0,0.1c-1,0.6-3.6,2.2-3.7,2.9c0,0.3-0.5,0.8-1.1,1.3c-0.6,0.6-1.3,1.2-1.2,1.6
			C210.7,135.6,210.7,135.6,210.6,135.7C210.7,135.7,210.7,135.7,210.6,135.7L210.6,135.7z"/>
	</g>
</g>
<g>
	<path class="st4" d="M315.5,193.3c-2.5,3.7-7.3,10.1-7.8,11.3c-3.3,7.1-12,28-12.8,29.6c-1.2,2.5,2.5,3.7,2.5,3.7
		c6.4,2.1,5.6,1.6,24.2,4c0.7,0.1,4.5-3.2,6.8-12.7c3.2-13.1,2.5-8.3,2.5-8.3v5c0,8.7,1.4,39.5,1.2,41l-1.4,55.8
		c-0.1,7.3,2.7,8.3,3.9,8.3c2.5,0,6.2,3.7,22.3,2.5c6.6-0.5,19.9,0,32.3,1.2c12.6,1.3,11.5-1.2,32.3-1.2c6.7,0,5.1-2.9,6.2-16.1
		c0.4-4.7-1.2-40.5-1.2-61.6c0-14-2.5-38.9-1.2-36.4c3.7,7.4,2.6,16.4,5,21.1c1.2,2.5,13.1,2.5,16.5,1.2l9.5-0.8
		c2.3-0.1,3.2-0.3,2.5-4.1c-2.5-12.4-4.8-17.4-6.4-26.9c-2.3-14-6.7-14.7-11-17.8c-7.6-5.5-19.9-7-32.3-10.8c-4.1-1.2-3.5,2.4-5,4.6
		c-1.5,2.2-2.3,4.9-9.9,7.4c-9.7,3.3-12.6,1.4-19.7,1.6c-3.8,0.1-9.9-0.9-13.5-2.3c-15.5-6.3-8.2-12.8-12.9-11.4
		c-13,3.9-18.5,3.1-27.1,7.4C317.3,190.5,317.3,190.5,315.5,193.3L315.5,193.3z"/>
	<g>
		<path class="st5" d="M398.7,235.9c-5.1,0-9.3-4.2-9.3-9.3s4.2-9.3,9.3-9.3s9.3,4.2,9.3,9.3S403.9,235.9,398.7,235.9z M398.7,218.3
			c-4.6,0-8.4,3.8-8.4,8.4s3.8,8.4,8.4,8.4s8.4-3.8,8.4-8.4S403.4,218.3,398.7,218.3z"/>
		<path class="st5" d="M396.9,226.5l0.8,2.3c0.1,0.4,0.5,0.6,0.9,0.5l1.1-0.4c0.4-0.1,0.5-0.5,0.4-0.8l-0.8-2.3l-0.8,0.3l0.5,1.7
			c0.1,0.2,0,0.5-0.3,0.6l0,0c-0.2,0.1-0.5,0-0.5-0.3l-0.6-1.7L396.9,226.5L396.9,226.5z"/>
		<path class="st5" d="M399.7,224.9l1.2,3.5l0.8-0.3l-0.6-1.7c0-0.1,0-0.2,0-0.4l0.8-1l-0.6-0.4l-0.6,0.7c0,0-0.1,0-0.1,0l-0.2-0.5
			L399.7,224.9L399.7,224.9z"/>
		<path class="st5" d="M396.6,232.5l-0.8,0.4l-1.7-5.5l0.8-0.4l0.1,0.2l0.2,0.6c-0.2,0.2-0.3,0.5-0.2,0.9s0.4,0.5,0.6,0.5l0.2,0.7
			L396.6,232.5L396.6,232.5z"/>
		<path class="st5" d="M397.1,227.9c-0.3-0.8-1.1-1.2-1.6-0.9c-0.1,0.1-0.3,0.2-0.4,0.3c-0.3,0.4-0.4,1-0.1,1.6c0.3,0.6,0.8,1,1.3,1
			c0.1,0,0.2,0,0.3-0.1C397.2,229.6,397.4,228.7,397.1,227.9L397.1,227.9z M396.1,229.2c0,0-0.1,0-0.1,0c-0.3,0.1-0.6-0.1-0.7-0.4
			c-0.1-0.3-0.1-0.7,0.1-0.9c0,0,0.1-0.1,0.1-0.1c0.3-0.2,0.6,0,0.8,0.4S396.3,229,396.1,229.2L396.1,229.2z"/>
		<polygon class="st5" points="403.7,225.8 402.8,226.2 400.9,221.1 401.9,221 		"/>
		<ellipse class="st5" cx="403.6" cy="227" rx="0.8" ry="0.7"/>
		<g>
			<path class="st6" d="M395.1,224.3C395.1,224.3,395.1,224.3,395.1,224.3c-0.1,0.2-0.3,0.4-0.2,0.8c0.1,0.2,0.2,0.6,0.4,0.8
				c0.2,0.1,0.5,0.1,0.6,0.1c0.4,0,1.5-0.6,3.1-1.4c0.1,0,0.4-0.3,0.5-0.3c1.9-1,3.8-2.3,4-2.5c0.4-0.4,0.1-0.4-0.1-0.4
				c-0.3,0-0.5,0.1-0.8,0.2c-4.3,2.1-0.9,0.3-1.4,0.4c0,0-1,0.3-1,0.3c-0.2,0.1-2.5,1-4.4,1.5C395.4,223.9,395.2,224.1,395.1,224.3
				L395.1,224.3z"/>
			<path class="st0" d="M395.9,226.1c-0.1,0-0.4,0-0.5-0.1c-0.3-0.2-0.4-0.5-0.4-0.8v0c-0.1-0.4,0-0.6,0.1-0.7v0c0,0,0,0,0,0
				c0,0,0,0,0,0l0,0c0.2-0.3,0.4-0.4,0.7-0.5c1.5-0.3,3.2-1,4-1.3c0.2-0.1,0.3-0.1,0.4-0.1c0,0,0.1,0,0.2-0.1
				c0.7-0.2,0.8-0.2,0.8-0.2c0,0,0.1,0,0.1,0c0,0,0,0.1-0.5,0.4c-0.1,0.1-0.2,0.1-0.3,0.2c0.4-0.1,1.6-0.8,2.1-1
				c0.2-0.1,0.5-0.2,0.8-0.2c0.1,0,0.3,0,0.3,0.1c0,0.1,0,0.2-0.2,0.4c-0.2,0.2-2.2,1.5-4,2.5c0,0-0.1,0.1-0.2,0.1
				c-0.1,0.1-0.2,0.1-0.2,0.1C397.4,225.5,396.3,226,395.9,226.1C396,226.1,395.9,226.1,395.9,226.1L395.9,226.1z M401.1,222.1
				c-0.1,0-0.5,0.2-0.8,0.2c-0.1,0-0.2,0-0.2,0.1c0,0-0.2,0.1-0.4,0.1c-0.7,0.3-2.5,1-4,1.3c-0.3,0.1-0.5,0.2-0.7,0.5l0,0
				c0,0,0,0,0,0c0,0,0,0,0,0.1v0c-0.1,0.1-0.2,0.3-0.1,0.7v0c0.1,0.2,0.2,0.6,0.4,0.7c0.2,0.1,0.5,0.1,0.6,0.1
				c0.3,0,1.4-0.5,3.1-1.4c0,0,0.1-0.1,0.2-0.1c0.1-0.1,0.2-0.1,0.2-0.1c1.9-1,3.8-2.3,4-2.5c0.2-0.2,0.2-0.3,0.2-0.3
				c0-0.1-0.2,0-0.3,0c-0.3,0-0.6,0.1-0.8,0.2c-2.2,1.1-2.2,1-2.3,1c0,0,0-0.1,0.4-0.3C400.9,222.3,401.1,222.1,401.1,222.1
				L401.1,222.1z"/>
		</g>
		<path class="st0" d="M397.4,225.3c0,0-0.4,0-0.5-0.5c0,0,0,0,0,0c0,0,0,0,0,0C397.2,225.3,397.4,225.3,397.4,225.3
			C397.5,225.3,397.5,225.3,397.4,225.3C397.5,225.3,397.5,225.3,397.4,225.3L397.4,225.3L397.4,225.3z"/>
		<path class="st0" d="M401.3,223.3L401.3,223.3c-0.2,0-0.3-0.2-0.3-0.3c0,0,0,0,0,0c0,0,0,0,0,0C401,223,401.1,223.2,401.3,223.3
			C401.3,223.2,401.3,223.2,401.3,223.3C401.3,223.3,401.3,223.3,401.3,223.3L401.3,223.3z"/>
		<path class="st0" d="M397.2,225.5c-0.1,0-0.4-0.1-0.5-0.7c0,0,0,0,0,0c0,0,0,0,0,0C396.8,225.3,397.1,225.4,397.2,225.5
			L397.2,225.5C397.2,225.4,397.2,225.4,397.2,225.5C397.2,225.4,397.2,225.4,397.2,225.5C397.2,225.5,397.2,225.5,397.2,225.5
			C397.2,225.5,397.2,225.5,397.2,225.5L397.2,225.5z M397.2,225.4L397.2,225.4L397.2,225.4z"/>
		<path class="st0" d="M397.7,225.2c0,0-0.2,0-0.3-0.2c0,0,0,0,0,0c0,0,0,0,0,0C397.5,225.2,397.7,225.1,397.7,225.2
			C397.7,225.1,397.7,225.1,397.7,225.2C397.7,225.2,397.7,225.2,397.7,225.2C397.7,225.2,397.7,225.2,397.7,225.2L397.7,225.2z"/>
		<path class="st5" d="M392.4,226.4C392.4,226.4,392.4,226.4,392.4,226.4C392.4,226.4,392.4,226.4,392.4,226.4
			c0.2-0.5,1.9-1.1,2.4-1.3c-0.9-0.2-1.4-0.4-1.8-0.6c-0.3-0.1-0.6-0.3-0.8-0.3c0,0,0,0,0,0s0,0,0,0c0.3,0,0.5,0.1,0.9,0.3
			c0.4,0.2,0.9,0.4,1.9,0.6c0,0,0,0,0,0c0,0,0,0,0,0C394.6,225.2,392.7,225.9,392.4,226.4C392.5,226.4,392.5,226.4,392.4,226.4
			L392.4,226.4z M394.9,225.1L394.9,225.1L394.9,225.1z"/>
		<path class="st5" d="M393.9,226.9L393.9,226.9C393.9,226.9,393.9,226.9,393.9,226.9c0-0.3,0.2-0.4,0.4-0.6
			c0.2-0.3,0.5-0.6,0.6-1.1c-0.1,0-0.1,0.1-0.2,0.1c-0.5,0.2-1.3,0.6-1.5,1.2c0,0,0,0,0,0s0,0,0,0c0.3-0.7,1.1-1,1.6-1.2
			c0.1,0,0.2-0.1,0.3-0.1c0,0,0,0,0,0h0v0c0,0,0,0,0,0c-0.1,0.6-0.4,0.9-0.6,1.2C394.1,226.5,394,226.7,393.9,226.9
			C393.9,226.9,393.9,226.9,393.9,226.9L393.9,226.9z"/>
		<path class="st5" d="M392,225.4C392,225.4,392,225.4,392,225.4C392,225.4,391.9,225.4,392,225.4c0-0.1,0.5-0.7,2.9-0.4l0,0
			c0,0,0,0,0,0c-0.1-0.1-0.2-0.1-0.4-0.2c-0.4-0.2-1-0.6-0.9-0.9c0.1-0.3-0.2-0.5-0.2-0.5c0,0,0,0,0,0c0,0,0,0,0,0
			c0,0,0.4,0.2,0.2,0.6c-0.1,0.3,0.4,0.6,0.8,0.9c0.2,0.1,0.3,0.2,0.4,0.2c0,0,0,0,0,0.1c0,0,0,0-0.1,0
			C392.5,224.8,392,225.4,392,225.4C392,225.4,392,225.4,392,225.4L392,225.4z"/>
		<path class="st5" d="M392.5,225.8C392.5,225.8,392.4,225.8,392.5,225.8C392.4,225.8,392.4,225.7,392.5,225.8
			c0.1-0.1,0.7-0.4,0.9-0.4c0.1,0,1.5-0.3,1.5-0.4c0,0,0,0,0,0c0,0,0,0,0,0c0,0.1-1.5,0.4-1.6,0.4
			C393.1,225.5,392.6,225.7,392.5,225.8C392.5,225.8,392.5,225.8,392.5,225.8L392.5,225.8z"/>
		<path class="st0" d="M401.4,223.2C401.4,223.2,401.4,223.2,401.4,223.2C401.4,223.2,401.4,223.2,401.4,223.2
			C401.4,223.2,401.4,223.2,401.4,223.2c-0.1-0.1-0.3-0.1-0.3-0.2c0,0,0,0,0,0s0,0,0,0C401.2,223,401.3,223.1,401.4,223.2
			C401.4,223.1,401.5,223.1,401.4,223.2C401.5,223.1,401.5,223.2,401.4,223.2C401.5,223.2,401.4,223.2,401.4,223.2L401.4,223.2z
			 M401.4,223.1L401.4,223.1L401.4,223.1z"/>
		<path class="st0" d="M395.9,225.9C395.9,225.9,395.9,225.9,395.9,225.9c-0.1,0-0.5-0.1-0.6-0.6c0,0,0,0,0,0s0,0,0,0
			C395.5,225.7,395.8,225.8,395.9,225.9C395.9,225.8,395.9,225.8,395.9,225.9C395.9,225.9,395.9,225.9,395.9,225.9L395.9,225.9
			L395.9,225.9z"/>
		<path class="st0" d="M395.8,224.2C395.8,224.2,395.7,224.2,395.8,224.2c-0.1-0.2,0-0.3,0-0.3c0,0,0,0,0,0c0,0,0,0,0,0
			C395.8,223.9,395.7,224,395.8,224.2C395.8,224.2,395.8,224.2,395.8,224.2L395.8,224.2L395.8,224.2z"/>
		<path class="st5" d="M393.1,227.3C393.1,227.3,393.1,227.3,393.1,227.3c-0.1-0.2,0.1-0.4,0.3-0.6c0.1-0.2,0.3-0.3,0.3-0.4
			c0-0.3,1.1-1.1,1.2-1.1c0,0,0,0,0,0c0,0,0,0,0,0c-0.3,0.2-1.1,0.8-1.1,1.1c0,0.1-0.1,0.3-0.3,0.5
			C393.3,226.9,393.1,227.1,393.1,227.3C393.1,227.3,393.1,227.3,393.1,227.3L393.1,227.3L393.1,227.3z"/>
	</g>
</g>
<g>
	<g>
		<path class="st1" d="M226.2,420.2C226.2,420.2,226.2,420.2,226.2,420.2c0.1,0.2,0.2-2.6,0.2-2.4c3.1,8.5-16.6,13.4-36.9,13.5
			c-20,0-37.2-2.7-36.7-10"/>
		<path class="st7" d="M226.2,420.2C226.2,420.2,226.2,420.2,226.2,420.2c0.1,0.2,0.2-2.6,0.2-2.4c3.1,8.5-16.6,13.4-36.9,13.5
			c-20,0-37.2-2.7-36.7-10"/>
		<path class="st1" d="M230.9,346.4c-2,7.5-15,9.6-41.4,8.2c-21.2-1.1-40.4,0-39.3-11c0.5-4.9,19.6-7.9,41.2-7.9
			S233.1,338,230.9,346.4"/>
		<path class="st7" d="M230.9,346.4c-2,7.5-15,9.6-41.4,8.2c-21.2-1.1-40.4,0-39.3-11c0.5-4.9,19.6-7.9,41.2-7.9
			S233.1,338,230.9,346.4L230.9,346.4z"/>
		<path class="st0" d="M222.1,344.4c0,1.9-10.8,6.4-31.5,5c-17.3-1.2-31.5-3.2-31.5-5s14.1-3.4,31.5-3.4S222.1,342.5,222.1,344.4"/>
		<path class="st1" d="M152.8,421.8L152.8,421.8l1.5-34.9l-3-36.9c0.6,2.3-0.7-5-0.6-4.3c0.7,5.7,15.5,5.5,35.5,8.2
			c29.7,4,42.4-5.6,42.4-5.6l-2.3,71.1c0,0-0.1,2.3-0.1,2.3"/>
		<path class="st8" d="M152.8,421.8L152.8,421.8l1.5-34.9l-3-36.9c0.6,2.3-0.7-5-0.6-4.3c0.7,5.7,15.5,5.5,35.5,8.2
			c29.7,4,42.4-5.6,42.4-5.6l-2.3,71.1c0,0-0.1,2.3-0.1,2.3"/>
		<path class="st1" d="M130.4,385.3c0,20.7-0.2,29.3,26.6,32.5c0,0,2.5,0,2.7,0c2.1-0.4,4-2.3,4-5.3c0-3.2-3-6.5-5.3-6.5l-0.6-0.1
			c-9.7,0-19.7-5.4-16.8-20.6c2-10.5,8.4-20.4,18-20.4c0,0,0,0,0,0c2-0.1,3.6-2.5,3.6-5.4s-1.5-5.2-3.4-5.4c-0.1,0-2.9-0.1-3.4-0.1
			c-0.5,0.1-2.6,0.2-3.1,0.3c-0.8,0.2-1.6,0.4-2.4,0.7c0,0-0.1,0-0.1,0c-0.9,0.3-1.7,0.7-2.6,1.1c-0.8,0.4-1.6,0.8-2.4,1.3
			c-1.3,0.8-2.6,1.7-3.8,2.8c-0.3,0.3-0.6,0.5-0.9,0.8c-0.3,0.3-0.6,0.5-0.8,0.8C134,367.6,130.4,376,130.4,385.3"/>
		<path class="st7" d="M130.4,385.3c0,20.7-0.2,29.3,26.6,32.5c0,0,2.5,0,2.7,0c2.1-0.4,4-2.3,4-5.3c0-3.2-3-6.5-5.3-6.5l-0.6-0.1
			c-9.7,0-19.7-5.4-16.8-20.6c2-10.5,8.4-20.4,18-20.4c0,0,0,0,0,0c2-0.1,3.6-2.5,3.6-5.4s-1.5-5.2-3.4-5.4c-0.1,0-2.9-0.1-3.4-0.1
			c-0.5,0.1-2.6,0.2-3.1,0.3c-0.8,0.2-1.6,0.4-2.4,0.7c0,0-0.1,0-0.1,0c-0.9,0.3-1.7,0.7-2.6,1.1c-0.8,0.4-1.6,0.8-2.4,1.3
			c-1.3,0.8-2.6,1.7-3.8,2.8c-0.3,0.3-0.6,0.5-0.9,0.8c-0.3,0.3-0.6,0.5-0.8,0.8C134,367.6,130.4,376,130.4,385.3L130.4,385.3z"/>
	</g>
	<g>
		<g>
			<circle class="st5" cx="201.8" cy="387.1" r="15.2"/>
			<path d="M201.8,403.1c-8.8,0-16-7.2-16-16s7.2-16,16-16s16,7.2,16,16S210.6,403.1,201.8,403.1z M201.8,372.8
				c-7.9,0-14.3,6.4-14.3,14.3s6.4,14.3,14.3,14.3s14.3-6.4,14.3-14.3S209.7,372.8,201.8,372.8z"/>
		</g>
		<g>
			<path d="M199,386.7l1.4,4.1c0.2,0.7,1,1,1.6,0.8l1.9-0.6c0.6-0.2,1-0.9,0.8-1.5l-1.4-4.1l-1.4,0.5l1,3c0.1,0.4-0.1,0.9-0.5,1l0,0
				c-0.4,0.1-0.8-0.1-1-0.5l-1-3L199,386.7L199,386.7z"/>
			<path d="M204,383.9l2.2,6.4l1.4-0.5l-1.2-3.1c-0.1-0.2,0-0.5,0.1-0.6l1.4-1.9l-1-0.8l-1,1.3c0,0.1-0.1,0-0.2,0l-0.4-1L204,383.9
				L204,383.9z"/>
			<path d="M199.3,389.3c-0.6-1.4-1.9-2.1-3-1.6c-0.3,0.1-0.5,0.3-0.7,0.6c0,0.1-0.1,0.1-0.1,0.2l-0.1-0.5l-0.1-0.4l-1.4,0.7
				l3.1,9.8l1.4-0.7l-1.5-4.6l0-0.1c0.3,0.1,0.6,0.2,0.9,0.2c0.2,0,0.4-0.1,0.6-0.2C199.5,392.3,199.9,390.7,199.3,389.3
				L199.3,389.3z M197.4,391.6c-0.1,0-0.1,0.1-0.2,0.1c-0.5,0.1-1-0.2-1.3-0.8s-0.2-1.2,0.2-1.6c0,0,0.1-0.1,0.2-0.1
				c0.5-0.3,1.2,0,1.5,0.7S197.9,391.3,197.4,391.6L197.4,391.6z"/>
			<polygon points="211.2,385.5 209.5,386.1 206.1,377.1 208,376.9 			"/>
			<ellipse cx="210.9" cy="387.7" rx="1.4" ry="1.3"/>
			<g>
				<path class="st6" d="M195.7,382.8c0,0,0,0.1-0.1,0.1c-0.1,0.1-0.4,0.5-0.2,1.3c0.1,0.4,0.3,1.1,0.8,1.4c0.3,0.2,0.8,0.3,1.1,0.2
					c0.6-0.1,2.8-1.1,5.5-2.6c0.1-0.1,0.7-0.5,0.8-0.5c3.4-1.8,6.8-4.1,7.2-4.5c0.7-0.8,0.2-0.8-0.2-0.7c-0.6,0-1,0.2-1.5,0.4
					c-7.8,3.7-1.7,0.5-2.6,0.7c0,0-1.8,0.5-1.8,0.5c-0.4,0.1-4.4,1.9-7.8,2.6C196.3,382,195.9,382.5,195.7,382.8L195.7,382.8z"/>
				<path class="st0" d="M197.2,386c-0.3,0-0.7-0.1-1-0.3c-0.5-0.3-0.7-1-0.8-1.4l0-0.1c-0.2-0.8,0-1.1,0.2-1.3l0,0
					c0,0,0-0.1,0.1-0.1c0,0,0,0,0,0l0,0c0.3-0.5,0.8-0.8,1.3-0.9c2.7-0.6,5.8-1.8,7.1-2.4c0.4-0.1,0.6-0.2,0.7-0.3
					c0,0,0.1,0,0.3-0.1c1.3-0.4,1.4-0.4,1.4-0.4c0,0,0.1,0,0.1,0c0,0.1-0.1,0.2-0.9,0.7c-0.2,0.1-0.4,0.2-0.5,0.3
					c0.7-0.3,3-1.4,3.8-1.7c0.4-0.2,0.8-0.4,1.5-0.4c0.2,0,0.5,0,0.6,0.1c0.1,0.1,0,0.4-0.3,0.7c-0.4,0.4-3.9,2.8-7.2,4.5
					c0,0-0.2,0.1-0.4,0.3c-0.2,0.1-0.4,0.2-0.4,0.3c-3.1,1.7-5,2.5-5.5,2.6C197.3,386,197.2,386,197.2,386L197.2,386z M206.6,378.8
					c-0.1,0-1,0.3-1.4,0.4c-0.2,0.1-0.3,0.1-0.3,0.1c-0.1,0-0.3,0.1-0.7,0.3c-1.3,0.5-4.4,1.8-7.1,2.4c-0.5,0.1-1,0.4-1.2,0.9l0,0
					c0,0,0,0,0,0c0,0,0,0.1-0.1,0.1l0,0c-0.1,0.2-0.4,0.5-0.2,1.2l0,0.1c0.1,0.4,0.3,1,0.8,1.3c0.3,0.2,0.8,0.3,1,0.2
					c0.6-0.1,2.4-0.9,5.5-2.6c0,0,0.2-0.1,0.4-0.3c0.2-0.1,0.4-0.2,0.4-0.3c3.4-1.9,6.8-4.1,7.2-4.5c0.3-0.4,0.3-0.5,0.3-0.6
					c0-0.1-0.3-0.1-0.5-0.1c-0.6,0-1,0.2-1.4,0.4c-4,1.9-4,1.9-4.1,1.8c0-0.1,0-0.1,0.7-0.5C206.1,379.1,206.4,378.9,206.6,378.8
					L206.6,378.8z"/>
			</g>
			<path class="st0" d="M199.9,384.7c-0.1,0-0.6,0-0.9-1c0,0,0-0.1,0-0.1c0,0,0.1,0,0.1,0C199.4,384.6,199.9,384.6,199.9,384.7
				C200,384.6,200,384.6,199.9,384.7C200,384.7,200,384.7,199.9,384.7C199.9,384.7,199.9,384.7,199.9,384.7L199.9,384.7z"/>
			<path class="st0" d="M206.8,380.9C206.8,380.9,206.8,380.9,206.8,380.9c-0.4-0.1-0.5-0.4-0.6-0.5c0,0,0-0.1,0-0.1
				c0,0,0.1,0,0.1,0c0,0.1,0.2,0.4,0.5,0.4C206.8,380.8,206.8,380.9,206.8,380.9C206.8,380.9,206.8,380.9,206.8,380.9z"/>
			<path class="st0" d="M199.4,384.9c-0.2,0-0.7-0.3-1-1.2c0,0,0-0.1,0-0.1s0.1,0,0.1,0c0.3,1,0.8,1.1,0.9,1.1l0,0c0,0,0,0,0,0
				C199.4,384.8,199.5,384.8,199.4,384.9C199.5,384.8,199.5,384.9,199.4,384.9C199.4,384.9,199.4,384.9,199.4,384.9L199.4,384.9z
				 M199.4,384.8L199.4,384.8L199.4,384.8z"/>
			<path class="st0" d="M200.3,384.4c-0.1,0-0.3,0-0.5-0.4c0,0,0-0.1,0-0.1c0,0,0.1,0,0.1,0c0.2,0.4,0.4,0.3,0.4,0.3
				C200.3,384.3,200.4,384.3,200.3,384.4C200.4,384.4,200.4,384.4,200.3,384.4C200.3,384.4,200.3,384.4,200.3,384.4L200.3,384.4z"/>
			<path class="st0" d="M190.9,386.6C190.9,386.6,190.9,386.6,190.9,386.6C190.9,386.5,190.9,386.5,190.9,386.6
				c0.3-0.9,3.4-2.1,4.3-2.3c-1.6-0.4-2.5-0.8-3.2-1.1c-0.6-0.3-1-0.5-1.5-0.5c0,0,0,0,0,0s0,0,0,0c0.5,0,1,0.2,1.5,0.5
				c0.7,0.3,1.7,0.8,3.3,1.1c0,0,0,0,0,0.1s0,0.1,0,0.1C194.8,384.5,191.3,385.7,190.9,386.6C191,386.5,190.9,386.6,190.9,386.6
				L190.9,386.6z M195.4,384.3L195.4,384.3L195.4,384.3z"/>
			<path class="st0" d="M193.6,387.5C193.6,387.5,193.6,387.5,193.6,387.5C193.5,387.5,193.5,387.5,193.6,387.5
				c0.1-0.5,0.3-0.8,0.6-1.1c0.4-0.5,0.9-1.1,1.1-2.1c-0.1,0.1-0.3,0.1-0.5,0.2c-0.9,0.4-2.3,1-2.8,2.2c0,0,0,0-0.1,0s0,0,0-0.1
				c0.5-1.2,2-1.9,2.8-2.2c0.2-0.1,0.4-0.2,0.5-0.2c0,0,0,0,0,0h0l0,0c0,0,0,0,0,0.1c-0.2,1.1-0.7,1.7-1.1,2.2
				C194,386.8,193.7,387.1,193.6,387.5C193.6,387.5,193.6,387.5,193.6,387.5L193.6,387.5z"/>
			<path class="st0" d="M190.1,384.8C190.1,384.8,190.1,384.8,190.1,384.8C190.1,384.8,190,384.7,190.1,384.8c0-0.1,0.9-1.3,5.2-0.7
				h0c0,0,0,0,0,0c-0.1-0.1-0.4-0.2-0.6-0.4c-0.7-0.4-1.8-1-1.5-1.7c0.2-0.5-0.4-0.9-0.4-0.9c0,0,0,0,0-0.1c0,0,0,0,0.1,0
				c0,0,0.6,0.4,0.4,1c-0.2,0.5,0.8,1.1,1.5,1.5c0.3,0.2,0.5,0.3,0.7,0.4c0,0,0,0.1,0,0.1c0,0-0.1,0.1-0.1,0.1
				C191.1,383.7,190.2,384.8,190.1,384.8C190.1,384.8,190.1,384.8,190.1,384.8L190.1,384.8z"/>
			<path class="st0" d="M191,385.5C191,385.5,190.9,385.4,191,385.5c-0.1-0.1,0-0.1,0-0.1c0.1-0.1,1.2-0.6,1.5-0.6
				c0.3,0.1,2.6-0.6,2.8-0.7c0,0,0,0,0.1,0c0,0,0,0,0,0.1c-0.1,0.1-2.6,0.8-2.9,0.7C192.2,384.8,191.3,385.3,191,385.5L191,385.5
				L191,385.5z"/>
			<path class="st0" d="M207.1,380.8C207.1,380.8,207.1,380.8,207.1,380.8C207.1,380.8,207,380.8,207.1,380.8c-0.1,0-0.1,0-0.1-0.1
				c-0.1-0.1-0.4-0.1-0.4-0.3c0,0,0-0.1,0-0.1s0.1,0,0.1,0c0,0.1,0.2,0.2,0.4,0.2C207.1,380.7,207.1,380.7,207.1,380.8
				C207.1,380.7,207.1,380.8,207.1,380.8C207.1,380.8,207.1,380.8,207.1,380.8L207.1,380.8z M207,380.7L207,380.7L207,380.7z"/>
			<path class="st0" d="M197.1,385.6L197.1,385.6c-0.2,0-0.9-0.2-1-1c0,0,0,0,0-0.1c0,0,0,0,0.1,0c0.1,0.8,0.7,0.9,0.9,1
				C197.2,385.5,197.2,385.6,197.1,385.6C197.2,385.6,197.2,385.7,197.1,385.6L197.1,385.6L197.1,385.6z"/>
			<path class="st0" d="M196.9,382.6C196.9,382.6,196.8,382.6,196.9,382.6c-0.1-0.5,0-0.6,0-0.6s0.1,0,0.1,0s0,0.1,0,0.1
				C197,382.1,196.8,382.2,196.9,382.6C196.9,382.6,196.9,382.6,196.9,382.6C196.9,382.6,196.9,382.6,196.9,382.6L196.9,382.6z"/>
			<path class="st0" d="M192.1,388.1C192.1,388.1,192.1,388.1,192.1,388.1c-0.1-0.3,0.2-0.7,0.6-1.1c0.3-0.3,0.5-0.6,0.5-0.8
				c0-0.6,2-2,2.1-2c0,0,0.1,0,0.1,0c0,0,0,0.1,0,0.1c-0.6,0.4-2,1.5-2.1,2c0,0.2-0.3,0.5-0.6,0.8
				C192.5,387.5,192.1,387.9,192.1,388.1C192.2,388.1,192.2,388.1,192.1,388.1C192.1,388.1,192.1,388.1,192.1,388.1z"/>
			<g>
				<path d="M201.8,402.9c-8.8,0-15.9-7.1-15.9-15.9s7.1-15.9,15.9-15.9s15.9,7.1,15.9,15.9S210.6,402.9,201.8,402.9z M201.8,372.7
					c-7.9,0-14.3,6.4-14.3,14.3s6.4,14.3,14.3,14.3s14.3-6.4,14.3-14.3S209.7,372.7,201.8,372.7z"/>
				<path d="M201.8,403.1c-8.9,0-16.1-7.2-16.1-16.1s7.2-16.1,16.1-16.1s16.1,7.2,16.1,16.1S210.7,403.1,201.8,403.1z M201.8,371.2
					c-8.7,0-15.8,7.1-15.8,15.8s7.1,15.8,15.8,15.8s15.8-7.1,15.8-15.8S210.5,371.2,201.8,371.2z M201.8,401.5
					c-8,0-14.5-6.5-14.5-14.5s6.5-14.5,14.5-14.5s14.5,6.5,14.5,14.5S209.8,401.5,201.8,401.5z M201.8,372.8
					c-7.8,0-14.2,6.4-14.2,14.2s6.4,14.2,14.2,14.2S216,394.8,216,387S209.6,372.8,201.8,372.8z"/>
			</g>
		</g>
	</g>
</g>
<g>
	<path class="st5" d="M55.4,258.1c-16.5,0-29.9-13.4-29.9-29.9s13.4-29.9,29.9-29.9s29.9,13.4,29.9,29.9S71.8,258.1,55.4,258.1z
		 M55.4,201.4c-14.8,0-26.9,12.1-26.9,26.9s12.1,26.9,26.9,26.9s26.9-12.1,26.9-26.9S70.2,201.4,55.4,201.4z"/>
	<path class="st5" d="M49.5,227.8l2.4,7.3c0.4,1.2,1.7,1.9,2.9,1.5l3.5-1.2c1.1-0.4,1.7-1.6,1.4-2.7l-2.4-7.4l-2.5,0.8l1.8,5.4
		c0.2,0.8-0.2,1.6-0.9,1.8l0,0c-0.7,0.2-1.5-0.1-1.7-0.9L52,227L49.5,227.8L49.5,227.8z"/>
	<path class="st5" d="M58.5,222.8l4,11.4l2.4-0.9l-2.1-5.6c-0.1-0.4-0.1-0.8,0.2-1.1l2.6-3.4l-1.8-1.4l-1.8,2.3
		c-0.1,0.1-0.3,0.1-0.3,0l-0.7-1.8L58.5,222.8L58.5,222.8z"/>
	<path class="st5" d="M50.1,232.5c-1-2.5-3.4-3.8-5.3-2.9c-0.5,0.2-0.9,0.6-1.2,1c-0.1,0.1-0.2,0.2-0.2,0.3l-0.3-0.8l-0.2-0.7
		l-2.6,1.2l5.6,17.6l2.6-1.2l-2.6-8.2l-0.1-0.2c0.5,0.2,1.1,0.3,1.7,0.3c0.4,0,0.7-0.1,1.1-0.3C50.4,237.8,51.1,235,50.1,232.5
		L50.1,232.5z M46.7,236.6c-0.1,0.1-0.2,0.1-0.4,0.1c-0.8,0.2-1.8-0.4-2.3-1.4c-0.5-1-0.3-2.2,0.3-2.9c0.1-0.1,0.2-0.2,0.3-0.2
		c0.9-0.5,2.1,0.1,2.7,1.3C47.9,234.7,47.6,236.1,46.7,236.6L46.7,236.6z"/>
	<polygon class="st5" points="71.3,225.7 68.4,226.8 62.3,210.7 65.6,210.3 	"/>
	<ellipse class="st5" cx="70.9" cy="229.6" rx="2.4" ry="2.4"/>
	<g>
		<path class="st6" d="M43.6,220.8c-0.1,0.1-0.1,0.1-0.2,0.3c-0.2,0.3-0.8,0.9-0.3,2.4c0.2,0.7,0.5,1.9,1.4,2.5
			c0.6,0.4,1.5,0.5,1.9,0.5c1.2-0.1,4.9-2,9.9-4.6c0.2-0.1,1.3-0.8,1.4-0.9c6.1-3.3,12.2-7.4,12.8-8.1c1.2-1.4,0.3-1.3-0.4-1.3
			c-1.1,0.1-1.8,0.4-2.6,0.8c-13.9,6.6-3,0.9-4.6,1.3c0,0-3.1,1-3.2,1c-0.8,0.2-7.9,3.4-14,4.7C44.6,219.5,44,220.2,43.6,220.8
			L43.6,220.8z"/>
		<path class="st0" d="M46.2,226.5c-0.5,0-1.2-0.1-1.7-0.5c-0.9-0.6-1.2-1.8-1.4-2.5l0-0.1c-0.4-1.4,0.1-2.1,0.3-2.4l0.1-0.1
			c0.1-0.1,0.1-0.1,0.1-0.2c0,0,0-0.1,0.1-0.1l0,0c0.6-0.9,1.3-1.4,2.3-1.6c4.8-1.1,10.4-3.3,12.8-4.2c0.7-0.3,1.1-0.4,1.3-0.5
			c0,0,0.2-0.1,0.6-0.2c2.4-0.7,2.6-0.8,2.6-0.8c0.1,0,0.2,0,0.3,0.1c0.1,0.1-0.2,0.3-1.6,1.2c-0.3,0.2-0.6,0.4-0.9,0.6
			c1.2-0.5,5.3-2.4,6.8-3.1c0.8-0.4,1.5-0.7,2.6-0.8c0.4,0,0.9,0,1,0.2c0.1,0.2-0.1,0.6-0.6,1.2c-0.6,0.7-7,4.9-12.9,8.1
			c-0.1,0-0.4,0.3-0.7,0.5c-0.3,0.2-0.6,0.4-0.7,0.5c-5.5,3-8.9,4.5-9.9,4.6C46.4,226.5,46.3,226.5,46.2,226.5L46.2,226.5z
			 M63.1,213.6c-0.3,0.1-1.7,0.5-2.5,0.8c-0.3,0.1-0.6,0.2-0.6,0.2c-0.2,0-0.6,0.2-1.2,0.5c-2.4,1-7.9,3.2-12.8,4.2
			c-1,0.2-1.7,0.7-2.2,1.6l0,0c0,0,0,0.1-0.1,0.1c0,0-0.1,0.1-0.1,0.2l-0.1,0.1c-0.2,0.3-0.7,0.9-0.3,2.2l0,0.1
			c0.2,0.7,0.5,1.8,1.3,2.4c0.6,0.4,1.4,0.5,1.9,0.4c1-0.1,4.4-1.7,9.9-4.6c0.1,0,0.4-0.3,0.7-0.5c0.3-0.2,0.6-0.4,0.7-0.5
			c6.2-3.3,12.3-7.4,12.8-8c0.6-0.7,0.6-0.9,0.6-1c-0.1-0.2-0.6-0.1-0.9-0.1c-1.1,0.1-1.8,0.4-2.6,0.8c-7.1,3.4-7.2,3.3-7.3,3.2
			c-0.1-0.1,0-0.2,1.2-1C62.2,214.2,62.8,213.8,63.1,213.6L63.1,213.6z"/>
	</g>
	<path class="st0" d="M51.2,224.2c-0.2,0-1.1-0.1-1.6-1.7c0,0,0-0.1,0.1-0.1c0.1,0,0.1,0,0.1,0.1c0.5,1.6,1.4,1.6,1.4,1.6
		c0.1,0,0.1,0,0.1,0.1S51.3,224.2,51.2,224.2C51.2,224.2,51.2,224.2,51.2,224.2L51.2,224.2z"/>
	<path class="st0" d="M63.5,217.5C63.5,217.5,63.5,217.5,63.5,217.5c-0.6-0.1-0.9-0.7-1-0.9c0,0,0-0.1,0-0.1c0.1,0,0.1,0,0.1,0
		c0.1,0.2,0.4,0.7,0.9,0.8C63.5,217.3,63.6,217.4,63.5,217.5C63.5,217.5,63.5,217.5,63.5,217.5L63.5,217.5z"/>
	<path class="st0" d="M50.2,224.6c-0.3,0-1.3-0.5-1.8-2.2c0,0,0-0.1,0.1-0.1c0.1,0,0.1,0,0.1,0.1c0.5,1.8,1.4,2.1,1.6,2.1l0,0
		c0,0,0,0,0.1,0c0.1,0,0.1,0,0.1,0.1C50.4,224.5,50.4,224.5,50.2,224.6C50.3,224.6,50.3,224.6,50.2,224.6L50.2,224.6z M50.2,224.5
		L50.2,224.5L50.2,224.5z"/>
	<path class="st0" d="M51.8,223.7c-0.2,0-0.6-0.1-0.9-0.7c0,0,0-0.1,0-0.1c0.1,0,0.1,0,0.1,0c0.3,0.7,0.7,0.6,0.8,0.6
		c0.1,0,0.1,0,0.1,0.1C52,223.6,52,223.7,51.8,223.7C51.9,223.7,51.9,223.7,51.8,223.7L51.8,223.7z"/>
	<path class="st5" d="M35.1,227.6C35.1,227.6,35,227.6,35.1,227.6c-0.1,0-0.1-0.1-0.1-0.1c0.7-1.5,6.3-3.6,7.8-4
		c-2.8-0.6-4.5-1.4-5.7-2c-1-0.5-1.8-0.8-2.7-0.9c-0.1,0-0.1,0-0.1-0.1c0,0,0-0.1,0.1-0.1c0.9,0,1.7,0.4,2.8,0.9
		c1.3,0.6,3,1.4,6,2.1c0.1,0,0.1,0.1,0.1,0.1s0,0.1-0.1,0.1C41.9,223.8,35.8,226,35.1,227.6C35.1,227.5,35.1,227.6,35.1,227.6
		L35.1,227.6z M43.1,223.5L43.1,223.5L43.1,223.5z"/>
	<path class="st5" d="M39.8,229.3L39.8,229.3c-0.1,0-0.1-0.1-0.1-0.1c0.2-0.7,0.7-1.2,1.2-1.9c0.8-0.9,1.6-1.9,2-3.7
		c-0.2,0.1-0.5,0.2-0.8,0.4c-1.5,0.7-4.1,1.9-5,3.9c0,0-0.1,0.1-0.1,0s-0.1-0.1-0.1-0.1c0.9-2.1,3.5-3.3,5.1-4
		c0.4-0.2,0.7-0.3,0.9-0.5c0,0,0.1-0.1,0.1-0.1h0.1l0,0.1c0,0,0,0.1,0,0.1c-0.3,1.9-1.2,3-2,3.9C40.5,228.1,40.1,228.6,39.8,229.3
		C39.9,229.3,39.9,229.3,39.8,229.3L39.8,229.3z"/>
	<path class="st5" d="M33.6,224.4C33.6,224.4,33.6,224.4,33.6,224.4c-0.1,0-0.1-0.1-0.1-0.1c0.1-0.1,1.7-2.1,9.4-1.1h0c0,0,0,0,0,0
		c-0.2-0.2-0.6-0.5-1.1-0.8c-1.3-0.8-3.1-1.9-2.8-3c0.3-0.9-0.7-1.5-0.7-1.6c0,0-0.1-0.1,0-0.1c0,0,0.1-0.1,0.1,0
		c0,0,1.1,0.7,0.8,1.8c-0.3,1,1.4,2,2.7,2.8c0.6,0.3,1,0.6,1.2,0.8c0.1,0.1,0.1,0.2,0,0.2s-0.1,0.1-0.2,0.1
		C35.3,222.4,33.7,224.4,33.6,224.4C33.7,224.4,33.6,224.4,33.6,224.4L33.6,224.4z"/>
	<path class="st5" d="M35.1,225.6C35.1,225.6,35,225.6,35.1,225.6c-0.1-0.1-0.1-0.1,0-0.2c0.2-0.1,2.2-1.1,2.8-1
		c0.5,0.1,4.7-1,5-1.2c0,0,0.1,0,0.1,0s0.1,0.1,0,0.1c-0.1,0.2-4.7,1.3-5.2,1.2C37.4,224.5,35.7,225.3,35.1,225.6
		C35.1,225.6,35.1,225.6,35.1,225.6z"/>
	<path class="st0" d="M64,217.2C64,217.2,64,217.2,64,217.2C64,217.2,63.9,217.2,64,217.2c-0.1-0.1-0.2-0.1-0.2-0.1
		c-0.3-0.1-0.7-0.2-0.8-0.6c0,0,0-0.1,0.1-0.1c0.1,0,0.1,0,0.1,0.1c0.1,0.2,0.4,0.4,0.6,0.4c0.2,0.1,0.2,0.1,0.3,0.2
		C64.1,217.1,64.1,217.1,64,217.2C64.1,217.2,64.1,217.2,64,217.2L64,217.2z M63.9,217.1L63.9,217.1L63.9,217.1z"/>
	<path class="st0" d="M46.2,225.9C46.2,225.9,46.2,225.9,46.2,225.9c-0.4-0.1-1.6-0.4-1.8-1.9c0,0,0-0.1,0.1-0.1
		c0.1,0,0.1,0,0.1,0.1c0.2,1.4,1.2,1.7,1.6,1.7c0.1,0,0.1,0.1,0.1,0.1C46.3,225.9,46.3,225.9,46.2,225.9
		C46.2,225.9,46.2,225.9,46.2,225.9z"/>
	<path class="st0" d="M45.7,220.5C45.7,220.5,45.6,220.5,45.7,220.5c-0.3-0.8,0-1,0.1-1c0,0,0.1,0,0.1,0s0,0.1,0,0.1
		c0,0-0.2,0.2-0.1,0.8C45.8,220.5,45.8,220.5,45.7,220.5C45.8,220.5,45.7,220.5,45.7,220.5L45.7,220.5z"/>
	<path class="st5" d="M37.2,230.4C37.2,230.4,37.1,230.4,37.2,230.4c-0.2-0.5,0.4-1.2,1.1-2c0.5-0.5,1-1.1,1-1.4
		c0.1-1.1,3.6-3.5,3.8-3.6c0,0,0.1,0,0.1,0c0,0,0,0.1,0,0.1c-1,0.7-3.7,2.7-3.7,3.5c0,0.3-0.5,0.9-1,1.5c-0.6,0.7-1.2,1.4-1.2,1.8
		C37.3,230.4,37.3,230.4,37.2,230.4L37.2,230.4L37.2,230.4z"/>
</g>
</svg>
