<?xml version="1.0" encoding="UTF-8"?>
<svg id="Ebene_2" data-name="Ebene 2" xmlns="http://www.w3.org/2000/svg" viewBox="0 0 165.97 155.74">
  <defs>
    <style>
      .cls-1 {
        fill: #f9f9f9;
      }

      .cls-2 {
        fill: #fff;
      }

      .cls-3 {
        fill: #1d1d1b;
      }

      .cls-4 {
        stroke: #1d1d1b;
        stroke-width: 1.66px;
      }
    </style>
  </defs>
  <g id="Ebene_1-2" data-name="Ebene 1">
    <path class="cls-4" d="m21.71,13.08c-2.48,3.72-7.28,10.13-7.83,11.31-3.28,7.09-11.95,27.96-12.8,29.65-1.24,2.48,2.48,3.72,2.48,3.72,6.38,2.08,5.63,1.56,24.24,4.04.72.1,4.48-3.19,6.78-12.72,3.17-13.1,2.48-8.29,2.48-8.29v4.96c0,8.69,1.35,39.55,1.24,40.95l-1.42,55.84c-.14,7.33,2.66,8.29,3.9,8.29,2.48,0,6.2,3.72,22.34,2.48,6.57-.51,19.85,0,32.26,1.24,12.59,1.26,11.52-1.24,32.26-1.24,6.68,0,5.14-2.88,6.2-16.13.38-4.71-1.24-40.55-1.24-61.65,0-14-2.48-38.86-1.24-36.38,3.72,7.44,2.62,16.41,4.96,21.09,1.24,2.48,13.11,2.52,16.54,1.17l9.51-.78c2.3-.15,3.25-.27,2.48-4.12-2.48-12.41-4.81-17.35-6.38-26.9-2.31-14.05-6.66-14.67-10.99-17.77-7.65-5.46-19.88-7.01-32.26-10.77-4.12-1.25-3.51,2.41-4.96,4.57-1.49,2.21-2.31,4.85-9.93,7.45-9.71,3.31-12.61,1.44-19.68,1.65-3.84.11-9.93-.85-13.49-2.29C51.63,6.18,58.92-.3,54.27,1.09c-12.95,3.85-18.51,3.13-27.12,7.44-3.61,1.81-3.59,1.79-5.43,4.55Z"/>
    <g>
      <path class="cls-2" d="m104.99,55.71c-5.12,0-9.28-4.16-9.28-9.28s4.16-9.28,9.28-9.28,9.28,4.16,9.28,9.28-4.16,9.28-9.28,9.28Zm0-17.64c-4.61,0-8.36,3.75-8.36,8.36s3.75,8.36,8.36,8.36,8.36-3.75,8.36-8.36-3.75-8.36-8.36-8.36Z"/>
      <path class="cls-2" d="m103.18,46.3l.75,2.26c.12.38.53.58.9.45l1.07-.36c.35-.12.53-.49.42-.84l-.75-2.3-.78.26.55,1.67c.08.23-.05.48-.28.56h0c-.22.07-.46-.05-.53-.27l-.57-1.7-.78.26Z"/>
      <path class="cls-2" d="m105.96,44.72l1.25,3.55.75-.27-.65-1.73c-.05-.12-.03-.25.05-.36l.8-1.05-.57-.43-.57.7s-.08.02-.09-.02l-.22-.55-.75.14Z"/>
      <path class="cls-2" d="m102.82,52.28l-.8.38-1.72-5.48.8-.38.06.21.19.59c-.19.17-.27.53-.16.87.11.34.36.55.6.52l.23.73.81,2.56Z"/>
      <path class="cls-2" d="m103.35,47.74c-.32-.78-1.06-1.18-1.65-.9-.15.07-.28.19-.39.33-.29.4-.36,1.03-.13,1.61.26.64.81,1.03,1.33.99.11,0,.22-.04.32-.09.6-.29.83-1.15.51-1.94Zm-1.05,1.28s-.07.03-.11.04c-.26.06-.56-.11-.71-.44-.15-.33-.1-.69.09-.89.03-.03.06-.06.1-.08.28-.16.65.02.82.4.17.38.09.81-.2.96Z"/>
      <polygon class="cls-2" points="109.94 45.65 109.03 45.98 107.13 40.97 108.17 40.85 109.94 45.65"/>
      <ellipse class="cls-2" cx="109.82" cy="46.86" rx=".76" ry=".73"/>
      <g>
        <path class="cls-1" d="m101.34,44.12s-.02.05-.05.08c-.06.09-.25.28-.11.73.06.21.17.59.44.78.18.13.46.15.6.14.36-.04,1.53-.61,3.07-1.44.06-.03.39-.26.45-.29,1.89-1.02,3.8-2.3,3.99-2.5.38-.43.1-.42-.12-.4-.34.02-.55.12-.8.24-4.31,2.06-.92.29-1.43.39,0,0-.97.3-.98.3-.24.07-2.46,1.05-4.36,1.46-.4.09-.6.33-.71.5Z"/>
        <path class="cls-3" d="m102.15,45.88c-.15,0-.38-.04-.54-.15-.27-.19-.38-.55-.44-.76v-.03c-.14-.44.01-.64.09-.74v-.02s.04-.03.04-.05c0,0,.01-.02.02-.03h0c.17-.27.42-.44.73-.51,1.5-.33,3.22-1.02,3.96-1.31.21-.08.34-.14.39-.15,0,0,.08-.02.18-.06.74-.23.8-.25.8-.25.02,0,.07-.01.09.02.02.05-.05.11-.49.38-.09.06-.2.13-.27.18.38-.15,1.64-.75,2.1-.97.24-.11.47-.22.82-.24.13,0,.28-.02.32.07.04.08-.02.2-.19.38-.2.22-2.18,1.53-4,2.51-.03.02-.13.08-.22.14-.1.07-.2.13-.23.15-1.72.92-2.75,1.41-3.09,1.44-.02,0-.05,0-.08,0Zm5.23-4c-.08.03-.53.16-.79.24-.11.03-.18.05-.18.06-.05.01-.19.07-.39.15-.74.29-2.47.98-3.97,1.31-.3.07-.53.23-.69.49h0s-.01.02-.01.03c0,.02-.02.03-.03.06v.02c-.08.09-.23.28-.1.69v.03c.07.21.18.56.43.73.18.12.45.15.58.13.32-.03,1.35-.51,3.06-1.43.03-.02.13-.08.23-.14.1-.07.2-.13.23-.14,1.92-1.04,3.81-2.3,3.98-2.5.19-.21.19-.29.18-.31-.03-.06-.18-.05-.27-.04-.34.02-.56.13-.79.24-2.22,1.06-2.23,1.03-2.26.99-.02-.04,0-.06.38-.3.15-.09.35-.23.43-.29Z"/>
      </g>
      <path class="cls-3" d="m103.69,45.16s-.35-.02-.5-.54c0-.02,0-.03.02-.04.02,0,.03,0,.04.02.15.51.44.5.45.5.02,0,.03.01.03.03s-.01.03-.03.03c0,0,0,0,0,0Z"/>
      <path class="cls-3" d="m107.51,43.09s0,0,0,0c-.19-.04-.29-.22-.32-.27,0-.01,0-.03.01-.04.01,0,.03,0,.04.01.02.05.11.21.28.24.02,0,.03.02.02.03,0,.01-.01.02-.03.02Z"/>
      <path class="cls-3" d="m103.4,45.29c-.11,0-.39-.15-.55-.68,0-.02,0-.03.02-.04.02,0,.03,0,.04.02.16.55.44.64.5.64,0,0,0,0,0,0,0,0,0,0,.02,0,.02,0,.03,0,.03.02,0,.02,0,.04-.03.04,0,0-.01,0-.02,0Zm0-.03h0,0Z"/>
      <path class="cls-3" d="m103.89,45.01c-.05,0-.18-.02-.27-.22,0-.01,0-.03.01-.04.01,0,.03,0,.04.01.1.21.23.19.24.19.02,0,.03,0,.03.02,0,.02,0,.03-.02.03,0,0-.01,0-.03,0Z"/>
      <path class="cls-2" d="m98.68,46.21s0,0-.01,0c-.01,0-.02-.02-.01-.04.21-.47,1.94-1.11,2.42-1.26-.88-.2-1.4-.44-1.78-.62-.32-.15-.56-.26-.84-.27-.02,0-.03-.01-.03-.03,0-.02.01-.03.03-.03.3,0,.54.12.86.28.39.18.93.44,1.86.64.02,0,.03.02.03.03,0,.02-.01.03-.03.04-.36.09-2.26.78-2.47,1.25,0,.01-.02.02-.03.02Zm2.48-1.28h0,0Z"/>
      <path class="cls-2" d="m100.16,46.76s0,0,0,0c-.02,0-.02-.02-.02-.04.06-.22.2-.39.37-.59.24-.28.51-.6.61-1.14-.06.03-.15.07-.25.12-.47.22-1.27.58-1.55,1.22,0,.01-.02.02-.04.02s-.02-.02-.02-.04c.29-.66,1.09-1.03,1.58-1.25.12-.05.22-.1.29-.14,0-.02.02-.02.03-.02h.02s0,.02,0,.02c0,0,0,.02,0,.04-.1.59-.38.93-.63,1.22-.16.19-.3.36-.36.56,0,.01-.02.02-.03.02Z"/>
      <path class="cls-2" d="m98.23,45.24s-.01,0-.02,0c-.01,0-.02-.03,0-.04.02-.03.52-.65,2.91-.33,0,0,0,0,0,0,0,0,0,0,0-.01-.06-.06-.19-.14-.36-.24-.41-.25-.98-.58-.86-.93.1-.29-.21-.48-.22-.49-.01,0-.02-.03,0-.04,0-.01.03-.02.04,0,0,0,.35.22.24.56-.1.31.44.63.83.86.17.1.31.18.37.25.02.02.03.05.01.08-.01.02-.04.04-.07.03-2.34-.31-2.85.3-2.85.31,0,0-.01.01-.02.01Z"/>
      <path class="cls-2" d="m98.7,45.6s-.02,0-.03-.02c0-.01,0-.03.01-.04.07-.04.68-.35.87-.31.15.03,1.45-.31,1.54-.36,0,0,.02-.01.03,0,.01,0,.02.03.01.04-.04.07-1.46.41-1.6.39-.14-.03-.64.21-.83.31,0,0,0,0-.01,0Z"/>
      <path class="cls-3" d="m107.68,43s0,0-.01,0c0,0-.01,0-.01-.02-.01,0-.03-.01-.05-.02-.08-.03-.21-.08-.23-.18,0-.02,0-.03.02-.03.02,0,.03,0,.03.02.02.07.12.11.2.14.05.02.07.03.08.05,0,0,0,.02,0,.03,0,0-.02.01-.03.01Zm-.03-.04s0,0,0,0c0,0,0,0,0,0Z"/>
      <path class="cls-3" d="m102.15,45.71s0,0-.01,0c-.13-.02-.47-.11-.54-.58,0-.02,0-.03.02-.03.02,0,.03,0,.03.02.06.43.37.52.49.53.03,0,.03.02.03.03,0,.02-.02.03-.03.03,0,0,0,0,0,0Z"/>
      <path class="cls-3" d="m101.99,44.03s-.03,0-.03-.02c-.05-.23.04-.29.05-.3.01,0,.03,0,.04.01,0,.01,0,.03,0,.04,0,0-.07.05-.02.24,0,.02,0,.03-.02.03,0,0,0,0,0,0Z"/>
      <path class="cls-2" d="m99.34,47.1s-.02,0-.03-.02c-.04-.14.16-.37.37-.61.15-.17.3-.34.31-.43.02-.34,1.13-1.1,1.18-1.13.01,0,.03,0,.04,0,0,.01,0,.03,0,.04-.32.22-1.14.83-1.15,1.09,0,.11-.15.27-.32.46-.18.21-.39.44-.36.56,0,.02,0,.03-.02.04,0,0,0,0,0,0Z"/>
    </g>
  </g>
</svg>