<?xml version="1.0" encoding="UTF-8"?>
<svg id="Ebene_2" data-name="Ebene 2" xmlns="http://www.w3.org/2000/svg" viewBox="0 0 354.14 159.24">
  <defs>
    <style>
      .cls-1, .cls-2 {
        fill: #d9e021;
      }

      .cls-2 {
        stroke-miterlimit: 10;
      }

      .cls-2, .cls-3 {
        stroke: #1d1d1b;
      }

      .cls-3 {
        stroke-width: 1.66px;
      }
    </style>
  </defs>
  <g id="Ebene_1-2" data-name="Ebene 1">
    <g>
      <path class="cls-3" d="m21.71,13.08c-2.48,3.72-7.28,10.13-7.83,11.31-3.28,7.09-11.95,27.96-12.8,29.65-1.24,2.48,2.48,3.72,2.48,3.72,6.38,2.08,5.63,1.56,24.24,4.04.72.1,4.48-3.19,6.78-12.72,3.17-13.1,2.48-8.29,2.48-8.29v4.96c0,8.69,1.35,39.55,1.24,40.95l-1.42,55.84c-.14,7.33,2.66,8.29,3.9,8.29,2.48,0,6.2,3.72,22.34,2.48,6.57-.51,19.85,0,32.26,1.24,12.59,1.26,11.52-1.24,32.26-1.24,6.68,0,5.14-2.88,6.2-16.13.38-4.71-1.24-40.55-1.24-61.65,0-14-2.48-38.86-1.24-36.38,3.72,7.44,2.62,16.41,4.96,21.09,1.24,2.48,13.11,2.52,16.54,1.17l9.51-.78c2.3-.15,3.25-.27,2.48-4.12-2.48-12.41-4.81-17.35-6.38-26.9-2.31-14.05-6.66-14.67-10.99-17.77-7.65-5.46-19.88-7.01-32.26-10.77-4.12-1.25-3.51,2.41-4.96,4.57-1.49,2.21-2.31,4.85-9.93,7.45-9.71,3.31-12.61,1.44-19.68,1.65-3.84.11-9.93-.85-13.49-2.29C51.63,6.18,58.92-.3,54.27,1.09c-12.95,3.85-18.51,3.13-27.12,7.44-3.61,1.81-3.59,1.79-5.43,4.55Z"/>
      <g>
        <g>
          <path class="cls-1" d="m98.6,44.58s-.05.07-.09.12c-.12.13-.45.42-.3,1.18.07.35.18.99.6,1.35.28.24.73.33.97.33.6,0,2.64-.75,5.33-1.85.1-.04.69-.36.8-.4,3.31-1.37,6.67-3.27,6.97-3.62.18-.22.27-.49-.07-.51-.5-.03-.93.11-1.37.26-5.91,2-1.14.11-2,.2-.01,0-2.1.54-2.11.54-.41.08-4.24,1.32-7.46,1.69-.67.08-1.05.44-1.26.7Z"/>
          <path class="cls-1" d="m99.78,47.6h0c-.24,0-.71-.09-1-.34-.41-.35-.53-.96-.61-1.32v-.06c-.16-.74.13-1.04.27-1.19l.03-.03s.04-.05.06-.08c0-.01.02-.03.03-.04.32-.42.76-.66,1.29-.72,2.54-.29,5.51-1.14,6.78-1.5.36-.1.59-.17.68-.19.01,0,.35-.09.74-.19,1.31-.34,1.37-.35,1.38-.35.07,0,.13,0,.15.04.02.07-.08.14-.63.43-.14.08-.33.17-.42.24.29-.05,1.26-.36,2.89-.91.41-.14.87-.29,1.39-.26.13,0,.22.05.25.13.07.15-.09.36-.15.44-.31.38-3.74,2.3-6.98,3.64-.05.02-.22.11-.39.2-.18.09-.35.18-.4.2-2.99,1.23-4.79,1.86-5.35,1.86Zm9.7-5.92s-.02,0-.03,0c-.02,0-.8.2-1.36.35-.63.16-.74.19-.75.19-.08.02-.33.09-.67.18-1.27.36-4.25,1.21-6.79,1.51-.51.06-.92.29-1.23.69h0s-.02.03-.03.04c-.02.02-.03.05-.07.08l-.03.03c-.13.14-.4.42-.26,1.12v.06c.08.35.2.94.59,1.27.27.23.72.32.94.32h0c.54,0,2.33-.62,5.32-1.85.05-.02.23-.11.4-.2.18-.09.34-.18.4-.2,3.41-1.41,6.68-3.29,6.95-3.61.12-.15.18-.28.14-.36-.02-.05-.08-.08-.18-.08-.51-.03-.96.13-1.36.26-3.01,1.02-3.03.96-3.06.89-.03-.06.04-.11.53-.37.19-.1.47-.25.56-.32Z"/>
        </g>
        <path d="m102.28,46.66s0,0,0,0c-.02,0-.56-.03-.74-.96,0-.02.01-.04.03-.05.02,0,.04.01.05.03.16.86.64.89.66.89.02,0,.04.02.04.04,0,.02-.02.04-.04.04Z"/>
        <path class="cls-1" d="m108.87,43.89s0,0-.01,0c-.3-.09-.44-.4-.47-.5,0-.02,0-.05.02-.05.02,0,.05,0,.05.02.03.08.16.36.42.45.02,0,.03.03.03.05,0,.02-.02.03-.04.03Z"/>
        <path d="m101.79,46.82c-.16,0-.62-.27-.81-1.21,0-.02.01-.04.03-.05.02,0,.04.01.05.03.14.69.41.97.56,1.07.08.05.14.07.16.07,0,0,.02-.01.03-.01.02,0,.04.01.05.04,0,.02-.01.05-.05.06,0,0-.01,0-.02,0Zm-.01-.05h0s0,0,0,0Z"/>
        <path d="m102.66,46.45c-.06,0-.3-.03-.43-.4,0-.02,0-.05.02-.05.02,0,.05,0,.05.02.14.36.35.35.36.35.02,0,.04.01.05.04,0,.02-.01.04-.04.05,0,0,0,0-.02,0Z"/>
        <path class="cls-1" d="m94.44,47.25s-.01,0-.02,0c-.02-.01-.03-.04-.01-.06.37-.62,2.93-1.26,3.65-1.4-1.24-.4-1.95-.82-2.47-1.12-.44-.26-.77-.44-1.17-.5-.02,0-.04-.02-.04-.05,0-.02.02-.04.05-.04.42.05.75.24,1.2.51.54.31,1.28.74,2.58,1.15.02,0,.04.03.03.05,0,.02-.02.04-.04.05-.54.08-3.36.77-3.72,1.39,0,.01-.02.02-.04.02Zm3.74-1.42h0,0Z"/>
        <path class="cls-1" d="m96.23,48.7s0,0-.01,0c-.02,0-.03-.03-.02-.05.13-.35.4-.6.7-.9.44-.42.93-.9,1.19-1.79-.11.05-.26.1-.44.16-.81.28-2.18.75-2.74,1.75-.01.02-.04.03-.06.02-.02-.01-.03-.04-.02-.06.58-1.03,1.96-1.51,2.78-1.79.2-.07.38-.13.5-.18.01-.02.03-.03.05-.03h.03s0,.04,0,.04c0,.02,0,.04-.02.05-.26.96-.77,1.46-1.23,1.9-.3.29-.56.54-.68.87,0,.02-.02.03-.04.03Z"/>
        <path class="cls-1" d="m98.1,45.85s-.01,0-.02,0c-2.98-.52-3.94-.32-3.95-.32-.02,0-.04,0-.05-.03,0-.02,0-.04.03-.05.04,0,.99-.2,3.98.32.01,0,.01-.02,0-.03-.07-.1-.24-.26-.44-.44-.51-.46-1.21-1.08-1-1.63.18-.47-.2-.83-.21-.84-.02-.02-.02-.04,0-.06.02-.02.04-.02.06,0,0,0,.44.41.24.93-.19.5.49,1.1.98,1.54.2.18.38.34.45.45.02.04.02.09,0,.12-.02.03-.04.04-.07.04Z"/>
        <path class="cls-1" d="m94.36,46.29c-.14,0-.24,0-.25,0-.02,0-.04-.02-.04-.04s.02-.04.04-.04c0,0,.85.06,1.3-.2.44-.25,2.61-.27,2.69-.23h.02s0,.03,0,.03c0,.02-.01.04-.04.05,0,0-.02,0-.03,0-.13-.02-2.2,0-2.61.23-.32.19-.81.22-1.1.22Z"/>
        <path class="cls-1" d="m109.17,43.76s-.02,0-.02,0c0,0-.02-.02-.02-.03-.02-.01-.05-.03-.08-.04-.13-.06-.33-.16-.35-.33,0-.02.01-.04.04-.05.02,0,.04.01.05.04.01.12.19.21.3.26.08.04.12.06.12.09,0,.01,0,.03,0,.04,0,.01-.02.02-.03.02Zm-.03-.07s0,0,0,0c0,0,0,0,0,0Z"/>
        <path class="cls-1" d="m99.66,47.3s0,0,0,0c0,0-.01,0-.02,0-.2-.05-.75-.25-.78-1.03,0-.02.02-.04.04-.04.02,0,.04.02.04.04.03.74.57.92.73.96.04,0,.04.03.04.05,0,.01,0,.04-.05.04Z"/>
        <path class="cls-1" d="m99.68,44.53s-.04-.02-.04-.04c-.05-.38.11-.47.13-.48.02,0,.05,0,.06.02,0,.02,0,.04-.02.05,0,0-.12.07-.08.39,0,.02-.01.04-.04.05,0,0,0,0,0,0Z"/>
        <path class="cls-1" d="m95.29,48.74s-.04-.02-.04-.04c-.03-.21.28-.5.61-.81.23-.22.47-.45.49-.57.07-.48,1.73-1.41,1.8-1.45.02-.01.05,0,.06.02.01.02,0,.05-.02.06-.47.26-1.71,1.03-1.76,1.39-.02.15-.25.37-.51.62-.28.27-.6.58-.58.74,0,.02-.01.04-.04.05,0,0,0,0,0,0Z"/>
      </g>
    </g>
    <g>
      <path class="cls-3" d="m332.42,16.57c2.48,3.72,7.28,10.13,7.83,11.31,3.28,7.09,11.95,27.96,12.8,29.65,1.24,2.48-2.48,3.72-2.48,3.72-6.38,2.08-5.63,1.56-24.24,4.04-.72.1-4.48-3.19-6.78-12.72-3.17-13.1-2.48-8.29-2.48-8.29v4.96c0,8.69-1.35,39.55-1.24,40.95l1.42,55.84c.14,7.33-2.66,8.29-3.9,8.29-2.48,0-6.2,3.72-22.34,2.48-6.57-.51-19.85,0-32.26,1.24-12.59,1.26-11.52-1.24-32.26-1.24-6.68,0-5.14-2.88-6.2-16.13-.38-4.71,1.24-40.55,1.24-61.65,0-14,2.48-38.86,1.24-36.38-3.72,7.44-2.62,16.41-4.96,21.09-1.24,2.48-13.11,2.52-16.54,1.17l-9.51-.78c-2.3-.15-3.25-.27-2.48-4.12,2.48-12.41,4.81-17.35,6.38-26.9,2.31-14.05,6.66-14.67,10.99-17.77,7.65-5.46,19.88-7.01,32.26-10.77,4.12-1.25,5.27,4.42,12.89,7.01,9.71,3.31,12.61,1.44,19.68,1.65,3.84.11,9.93-.85,13.49-2.29,15.54-6.29,10.25-7.76,14.91-6.37,12.95,3.85,18.51,3.13,27.12,7.44,3.61,1.81,3.59,1.79,5.43,4.55Z"/>
      <g>
        <path class="cls-2" d="m270.11,88.13c-15.46,0-28.04-12.58-28.04-28.04s12.58-28.04,28.04-28.04,28.04,12.58,28.04,28.04-12.58,28.04-28.04,28.04Zm0-53.27c-13.92,0-25.24,11.32-25.24,25.24s11.32,25.24,25.24,25.24,25.24-11.32,25.24-25.24-11.32-25.24-25.24-25.24Z"/>
        <path class="cls-1" d="m264.64,59.71l2.27,6.84c.38,1.13,1.6,1.75,2.73,1.36l3.24-1.09c1.05-.35,1.61-1.48,1.27-2.53l-2.28-6.95-2.35.77,1.65,5.06c.23.7-.15,1.46-.86,1.7h0c-.67.22-1.39-.14-1.61-.81l-1.71-5.13-2.35.77Z"/>
        <path class="cls-1" d="m273.03,54.95l3.78,10.73,2.27-.81-1.97-5.23c-.14-.36-.08-.77.16-1.07l2.41-3.17-1.72-1.31-1.71,2.13c-.08.1-.24.07-.29-.05l-.67-1.65-2.25.44Z"/>
        <path class="cls-1" d="m263.56,77.78l-2.43,1.16-5.2-16.54,2.43-1.16.2.62.56,1.78c-.59.52-.81,1.61-.49,2.63.32,1.04,1.09,1.67,1.81,1.56l.69,2.2,2.43,7.74Z"/>
        <path class="cls-1" d="m265.16,64.05c-.95-2.36-3.19-3.58-5-2.71-.47.22-.86.56-1.17.99-.89,1.21-1.09,3.11-.38,4.86.78,1.95,2.44,3.12,4.01,2.98.33-.03.66-.12.98-.27,1.81-.87,2.5-3.48,1.55-5.85Zm-3.17,3.88c-.11.06-.22.1-.33.13-.79.19-1.69-.35-2.15-1.34-.45-.99-.31-2.1.29-2.68.09-.09.19-.17.31-.23.85-.47,1.96.07,2.48,1.21.52,1.14.26,2.44-.59,2.91Z"/>
        <polygon class="cls-1" points="285.07 57.74 282.32 58.76 276.58 43.61 279.73 43.24 285.07 57.74"/>
        <ellipse class="cls-1" cx="284.7" cy="61.4" rx="2.29" ry="2.21"/>
        <g>
          <path class="cls-1" d="m259.11,53.12c-.05.08-.07.14-.15.24-.19.26-.74.84-.33,2.21.19.62.5,1.78,1.33,2.37.55.38,1.38.47,1.81.42,1.08-.11,4.63-1.84,9.28-4.34.18-.1,1.18-.77,1.36-.87,5.72-3.09,11.49-6.94,12.05-7.56,1.16-1.29.29-1.26-.35-1.22-1.01.06-1.67.36-2.43.73-13.03,6.23-2.79.86-4.32,1.18-.02,0-2.94.9-2.96.91-.72.21-7.42,3.16-13.16,4.42-1.2.26-1.82.99-2.15,1.51Z"/>
          <path class="cls-1" d="m261.55,58.46c-.47,0-1.15-.11-1.64-.45-.81-.57-1.14-1.66-1.33-2.31l-.03-.1c-.4-1.32.07-1.94.3-2.23l.04-.06c.04-.06.07-.1.09-.15.02-.03.03-.06.05-.09h0c.51-.82,1.26-1.34,2.21-1.55,4.52-.99,9.74-3.07,11.96-3.96.62-.25,1.04-.41,1.19-.46,0,0,.23-.07.54-.17,2.24-.69,2.42-.74,2.43-.75.07-.01.22-.05.26.06.06.14-.16.32-1.48,1.16-.28.18-.6.38-.82.53,1.15-.44,4.96-2.27,6.33-2.92.72-.35,1.41-.67,2.46-.73.38-.02.85-.05.98.22.11.23-.07.59-.56,1.14-.61.68-6.58,4.61-12.07,7.58-.09.05-.38.24-.67.43-.31.2-.6.39-.69.44-5.18,2.79-8.32,4.25-9.32,4.35-.07,0-.15.01-.23.01Zm15.81-12.09c-.25.08-1.61.5-2.37.73-.32.1-.54.17-.54.17-.15.04-.58.22-1.18.46-2.23.89-7.45,2.97-11.99,3.97-.9.2-1.61.69-2.1,1.47h0s-.03.05-.05.08c-.03.05-.05.1-.11.17l-.05.06c-.21.27-.64.84-.27,2.08l.03.1c.19.63.5,1.68,1.27,2.22.53.37,1.36.45,1.75.41.98-.1,4.09-1.55,9.25-4.33.09-.05.39-.24.68-.43.3-.2.59-.39.68-.44,5.79-3.13,11.5-6.96,12.03-7.55.56-.62.57-.86.53-.95-.08-.17-.54-.14-.81-.13-1.02.06-1.69.38-2.4.72-6.7,3.2-6.75,3.11-6.82,2.98-.06-.11,0-.17,1.14-.9.44-.28,1.07-.68,1.31-.88Z"/>
        </g>
        <path d="m266.19,56.27c-.15,0-1.05-.07-1.51-1.63-.01-.05.01-.09.06-.11.05-.01.1.01.11.06.45,1.53,1.31,1.51,1.35,1.51.05,0,.09.03.09.08s-.03.09-.08.09c0,0,0,0-.02,0Z"/>
        <path d="m277.72,50.03s-.01,0-.02,0c-.57-.12-.88-.66-.96-.83-.02-.04,0-.1.04-.12.04-.02.1,0,.12.04.07.15.35.63.84.73.05,0,.08.06.07.1,0,.04-.05.07-.09.07Z"/>
        <path d="m265.3,56.66c-.33,0-1.18-.44-1.67-2.06-.01-.05.01-.1.06-.11.05-.01.1.01.11.06.5,1.65,1.33,1.94,1.5,1.94,0,0,0,0,0,0,.01-.01.03-.02.05-.03.05,0,.09.02.1.07,0,.05-.01.11-.09.13-.02,0-.04,0-.06,0Zm-.02-.1h0,0Z"/>
        <path d="m266.81,55.82c-.16,0-.54-.07-.83-.66-.02-.04,0-.1.04-.12.04-.02.1,0,.12.04.31.63.7.56.71.56.05,0,.09.02.1.07,0,.05-.02.09-.07.1,0,0-.03,0-.08,0Z"/>
        <path class="cls-1" d="m251.07,59.45s-.02,0-.04,0c-.04-.02-.06-.07-.04-.12.64-1.42,5.87-3.35,7.32-3.8-2.66-.61-4.23-1.34-5.38-1.89-.98-.46-1.68-.79-2.54-.82-.05,0-.09-.04-.08-.09,0-.05.04-.08.09-.08.9.03,1.62.36,2.61.83,1.18.56,2.81,1.32,5.61,1.93.05.01.08.05.08.1,0,.05-.03.09-.08.11-1.1.28-6.83,2.37-7.46,3.77-.01.03-.05.05-.08.05Zm7.5-3.86h0,0Z"/>
        <path class="cls-1" d="m255.53,61.09s-.02,0-.02,0c-.05-.01-.07-.06-.06-.11.18-.66.62-1.17,1.12-1.77.72-.85,1.53-1.8,1.83-3.45-.2.1-.45.22-.75.36-1.43.66-3.84,1.75-4.67,3.69-.02.04-.07.06-.12.05s-.06-.07-.05-.12c.87-1.99,3.3-3.11,4.76-3.78.36-.16.67-.31.87-.42.02-.05.06-.07.09-.07h.07s.03.06.03.06c0,.03,0,.07-.03.11-.29,1.79-1.15,2.8-1.9,3.69-.49.58-.92,1.08-1.09,1.7-.01.04-.05.06-.08.06Z"/>
        <path class="cls-1" d="m249.69,56.52s-.04,0-.05-.02c-.04-.03-.05-.08-.02-.12.06-.08,1.58-1.96,8.78-1,0,0,.02,0,.02,0,0,0,0-.02-.01-.04-.17-.18-.59-.43-1.07-.72-1.24-.74-2.95-1.75-2.6-2.81.29-.88-.62-1.45-.66-1.48-.04-.03-.05-.08-.03-.12.03-.04.08-.05.12-.03.01,0,1.07.67.74,1.68-.31.93,1.33,1.9,2.52,2.61.52.31.93.55,1.11.75.06.07.08.16.04.24-.04.07-.11.11-.2.1-7.07-.94-8.6.91-8.62.93-.02.02-.04.03-.07.03Z"/>
        <path class="cls-1" d="m251.11,57.61s-.06-.02-.08-.05c-.02-.04,0-.1.04-.12.21-.11,2.07-1.05,2.61-.94.47.09,4.38-.94,4.66-1.1.03-.03.07-.03.1-.01.04.02.06.08.03.12-.12.22-4.42,1.25-4.84,1.17-.41-.08-1.94.64-2.5.92-.01,0-.03,0-.04,0Z"/>
        <path d="m278.24,49.75s-.03,0-.04-.01c-.02-.01-.03-.03-.04-.05-.03-.02-.09-.04-.14-.06-.25-.09-.64-.23-.71-.54-.01-.05.02-.09.07-.1.05-.01.09.02.1.07.05.22.38.34.59.42.15.05.23.08.25.15,0,.02,0,.07,0,.09-.02.03-.05.05-.08.05Zm-.08-.13s0,0,0,0c0,0,0,0,0,0Z"/>
        <path d="m261.53,57.92s-.03,0-.04,0c-.38-.05-1.42-.33-1.62-1.75,0-.05.03-.09.07-.1.05,0,.09.03.1.07.18,1.31,1.1,1.56,1.49,1.61.09.01.1.07.09.09,0,.05-.05.08-.1.09,0,0,0,0,0,0Z"/>
        <path d="m261.07,52.86s-.08-.03-.09-.07c-.16-.7.11-.89.15-.91.04-.02.1-.01.12.03.02.04.01.09-.03.12,0,0-.2.15-.07.72.01.05-.02.09-.07.11,0,0-.01,0-.02,0Z"/>
        <path class="cls-1" d="m253.07,62.12s-.08-.03-.08-.07c-.11-.43.49-1.11,1.12-1.83.45-.51.91-1.04.92-1.3.05-1.02,3.41-3.33,3.55-3.42.04-.03.09-.02.12.02.03.04.02.09-.02.12-.95.65-3.44,2.51-3.48,3.29-.02.32-.46.82-.97,1.4-.55.63-1.17,1.34-1.09,1.68.01.05-.02.09-.06.11,0,0-.01,0-.02,0Z"/>
      </g>
    </g>
  </g>
</svg>