<?xml version="1.0" encoding="UTF-8"?>
<svg id="Ebene_2" data-name="Ebene 2" xmlns="http://www.w3.org/2000/svg" viewBox="0 0 93.92 90.21">
  <defs>
    <style>
      .cls-1 {
        fill: #f9f9f9;
      }

      .cls-2 {
        fill: #fff;
      }

      .cls-3 {
        fill: #d9e021;
      }

      .cls-4 {
        fill: #1d1d1b;
      }

      .cls-5 {
        fill: #2b1508;
      }

      .cls-6 {
        stroke-width: 2px;
      }

      .cls-6, .cls-7 {
        fill: none;
        stroke: #1d1d1b;
        stroke-miterlimit: 10;
      }

      .cls-7 {
        stroke-width: 1.96px;
      }
    </style>
  </defs>
  <g id="Ebene_1-2" data-name="Ebene 1">
    <g>
      <g>
        <path class="cls-3" d="m88.46,78.98s0,0,0,.02c.07.18.23-2.41.23-2.21,2.8,7.83-15.17,12.4-33.72,12.42-18.24.02-33.93-2.49-33.49-9.23"/>
        <path class="cls-6" d="m88.46,78.98s0,0,0,.02c.07.18.23-2.41.23-2.21,2.8,7.83-15.17,12.4-33.72,12.42-18.24.02-33.93-2.49-33.49-9.23"/>
        <path class="cls-3" d="m92.77,10.8c-1.81,6.96-13.72,8.84-37.76,7.6-19.4-1-36.92-.02-35.91-10.15.45-4.56,17.93-7.25,37.6-7.25s38.09,2.02,36.06,9.8"/>
        <path class="cls-6" d="m92.77,10.8c-1.81,6.96-13.72,8.84-37.76,7.6-19.4-1-36.92-.02-35.91-10.15.45-4.56,17.93-7.25,37.6-7.25s38.09,2.02,36.06,9.8Z"/>
        <path class="cls-4" d="m84.72,8.95c0,1.73-9.88,5.94-28.73,4.65-15.83-1.08-28.73-2.92-28.73-4.65s12.86-3.14,28.73-3.14,28.73,1.41,28.73,3.14"/>
        <path class="cls-3" d="m21.49,80.48s0,0,0,0l1.38-32.18-2.7-34.06c.55,2.13-.63-4.64-.55-4,.65,5.23,14.12,5.09,32.41,7.59,27.08,3.71,38.7-5.18,38.7-5.18l-2.13,65.71s-.12,2.13-.13,2.14"/>
        <path class="cls-7" d="m21.49,80.48s0,0,0,0l1.38-32.18-2.7-34.06c.55,2.13-.63-4.64-.55-4,.65,5.23,14.12,5.09,32.41,7.59,27.08,3.71,38.7-5.18,38.7-5.18l-2.13,65.71s-.12,2.13-.13,2.14"/>
        <path class="cls-3" d="m1,46.75c0,19.12-.15,27.08,24.3,30.04,0,0,2.27.02,2.43-.02,1.89-.34,3.63-2.09,3.65-4.87.02-2.99-2.74-5.96-4.83-6.02l-.53-.07c-8.83-.02-17.98-4.98-15.31-19.07,1.84-9.73,7.65-18.84,16.48-18.84-.03,0-.04.01,0,0,1.82-.09,3.26-2.3,3.26-5.01s-1.38-4.82-3.13-5.01c-.08-.02-2.65-.11-3.09-.06-.43.06-2.34.16-2.85.3-.73.18-1.47.4-2.18.66-.02,0-.05,0-.08.02-.79.29-1.58.62-2.34.99-.76.37-1.51.78-2.23,1.23-1.21.74-2.35,1.59-3.44,2.54-.26.24-.53.48-.79.72-.25.24-.51.5-.76.75C4.3,30.4,1,38.14,1,46.75"/>
        <path class="cls-6" d="m1,46.75c0,19.12-.15,27.08,24.3,30.04,0,0,2.27.02,2.43-.02,1.89-.34,3.63-2.09,3.65-4.87.02-2.99-2.74-5.96-4.83-6.02l-.53-.07c-8.83-.02-17.98-4.98-15.31-19.07,1.84-9.73,7.65-18.84,16.48-18.84-.03,0-.04.01,0,0,1.82-.09,3.26-2.3,3.26-5.01s-1.38-4.82-3.13-5.01c-.08-.02-2.65-.11-3.09-.06-.43.06-2.34.16-2.85.3-.73.18-1.47.4-2.18.66-.02,0-.05,0-.08.02-.79.29-1.58.62-2.34.99-.76.37-1.51.78-2.23,1.23-1.21.74-2.35,1.59-3.44,2.54-.26.24-.53.48-.79.72-.25.24-.51.5-.76.75C4.3,30.4,1,38.14,1,46.75Z"/>
      </g>
      <g>
        <path class="cls-2" d="m78.92,46.85c-.16-7.99-6.6-13.76-15-13.82-8.39-.06-15.01,6.36-14.85,14.4.17,8.03,6.62,15.31,15.02,15.16,8.4-.15,14.98-7.75,14.82-15.74Z"/>
        <g>
          <path class="cls-5" d="m64.01,63.89c-8.86-.03-15.49-8.12-15.49-16.79s7.19-15.52,16.03-15.26c8.84.26,15.43,6.59,15.43,15.26s-7.11,16.83-15.97,16.79Zm.51-30.46c-7.96-.22-14.45,5.91-14.48,13.76-.03,7.85,6.02,15.05,13.99,15.09,7.97.04,14.41-7.19,14.43-15,.02-7.82-5.99-13.63-13.95-13.85Z"/>
          <path class="cls-5" d="m61.15,47.56c.49,1.58.74,2.37,1.23,3.95.2.65.9,1.02,1.55.81.75-.24,1.12-.36,1.87-.61.6-.2.94-.85.75-1.44-.5-1.58-.74-2.38-1.24-3.97-.54.17-.81.25-1.35.42.36,1.16.54,1.74.9,2.9.13.4-.1.83-.51.96h0c-.39.12-.79-.09-.92-.48-.37-1.18-.56-1.77-.93-2.96-.54.16-.81.24-1.35.4Z"/>
          <path class="cls-5" d="m66,44.94c.82,2.46,1.24,3.68,2.06,6.12.52-.19.78-.29,1.3-.49-.43-1.18-.65-1.77-1.08-2.96-.07-.2-.04-.44.1-.61.56-.73.84-1.09,1.39-1.82-.39-.29-.58-.44-.97-.73-.4.49-.59.73-.99,1.22-.05.06-.14.04-.16-.03-.15-.38-.22-.56-.37-.94-.51.1-.77.15-1.29.24Z"/>
          <path class="cls-5" d="m60.37,57.88c-.56.25-.83.37-1.39.61-1.12-3.84-1.68-5.77-2.8-9.62.55-.23.83-.35,1.38-.59.04.14.06.22.11.36.12.41.18.62.3,1.04-.34.28-.47.9-.3,1.49.17.6.6.99,1.01.94.15.51.22.77.37,1.28.53,1.8.79,2.69,1.31,4.49Z"/>
          <path class="cls-5" d="m61.41,50.06c-.52-1.37-1.79-2.11-2.82-1.66-.27.12-.49.3-.67.53-.51.67-.64,1.75-.26,2.77.43,1.14,1.36,1.85,2.25,1.81.19,0,.38-.05.56-.13,1.04-.46,1.46-1.95.94-3.32Zm-1.84,2.16c-.06.03-.13.05-.19.07-.45.09-.96-.24-1.21-.82-.25-.58-.16-1.21.18-1.53.05-.05.11-.09.18-.12.48-.25,1.11.09,1.4.75.29.66.12,1.41-.36,1.66Z"/>
          <path class="cls-5" d="m72.8,46.41c-.62.26-.93.39-1.56.64-1.25-3.39-1.87-5.11-3.12-8.56.71-.08,1.07-.13,1.78-.22,1.16,3.28,1.74,4.91,2.9,8.14Z"/>
          <path class="cls-5" d="m73.85,48.42c0,.69-.59,1.28-1.3,1.32-.71.04-1.28-.5-1.27-1.19,0-.69.59-1.27,1.3-1.3.71-.03,1.27.49,1.27,1.18Z"/>
          <g>
            <path class="cls-1" d="m58.05,43.66s-.04.08-.09.13c-.11.14-.43.46-.21,1.26.1.36.27,1.03.74,1.39.31.23.78.3,1.03.29.62-.04,2.67-.94,5.35-2.33.1-.05.68-.43.79-.49,3.3-1.73,6.56-4,6.88-4.37.66-.75.17-.72-.19-.68-.57.05-.94.23-1.36.45-7.36,3.68-1.58.51-2.45.7-.01,0-1.68.51-1.69.51-.41.12-4.28,1.74-7.57,2.33-.69.12-1.05.52-1.24.81Z"/>
            <path class="cls-4" d="m59.4,46.78c-.27-.01-.66-.09-.93-.3-.46-.35-.63-.98-.74-1.36l-.02-.06c-.22-.77.06-1.11.19-1.27.01-.01.02-.02.03-.03.03-.03.04-.06.05-.08,0-.02.02-.03.03-.05h0c.3-.46.73-.74,1.27-.83,2.59-.46,5.6-1.58,6.88-2.07.36-.14.6-.23.68-.26,0,0,.13-.04.31-.09,1.28-.38,1.38-.42,1.39-.42.04,0,.12-.03.15.03.03.08-.09.18-.85.66-.16.1-.34.22-.47.3.66-.25,2.83-1.3,3.6-1.69.41-.2.79-.4,1.38-.45.21-.02.47-.04.54.11.06.13-.04.34-.32.66-.34.39-3.73,2.72-6.89,4.38-.05.03-.22.14-.39.24-.18.11-.35.22-.4.25-2.99,1.55-4.8,2.3-5.37,2.34-.04,0-.08,0-.13,0Zm9.14-6.72c-.14.04-.92.28-1.35.41-.18.05-.31.09-.31.09-.08.02-.33.12-.68.25-1.28.49-4.29,1.61-6.9,2.08-.52.09-.93.36-1.21.79h0s-.02.03-.03.04c-.02.03-.03.05-.06.09-.01.01-.02.02-.03.03-.12.15-.37.47-.17,1.18,0,.02.01.04.02.06.1.36.27.98.7,1.3.3.23.77.29,1,.28.56-.03,2.35-.79,5.33-2.32.05-.03.22-.14.39-.24.18-.11.34-.22.4-.24,3.34-1.75,6.57-4.01,6.87-4.35.32-.36.33-.5.3-.55-.04-.09-.3-.07-.45-.06-.57.05-.95.24-1.35.44-3.78,1.89-3.84,1.79-3.88,1.72-.03-.07,0-.1.65-.51.25-.16.61-.39.75-.5Z"/>
          </g>
          <path class="cls-4" d="m62.07,45.62c-.09,0-.6-.06-.85-.96,0-.03,0-.05.03-.06.03,0,.05,0,.06.04.24.89.74.89.76.89.03,0,.05.02.05.05,0,.03-.02.05-.05.05,0,0,0,0-.01,0Z"/>
          <path class="cls-4" d="m68.71,42.14s0,0-.01,0c-.32-.06-.49-.38-.54-.47-.01-.02,0-.05.02-.07.02-.01.05,0,.07.02.04.08.19.36.47.42.03,0,.04.03.04.06,0,.02-.03.04-.05.04Z"/>
          <path class="cls-4" d="m61.56,45.82c-.19,0-.67-.27-.93-1.21,0-.03,0-.05.03-.06.03,0,.05,0,.06.04.27.95.74,1.14.84,1.14,0,0,0,0,0,0,0,0,.02-.01.03-.01.03,0,.05.01.06.04,0,.03,0,.06-.05.07-.01,0-.02,0-.04,0Zm0-.06h0s0,0,0,0Z"/>
          <path class="cls-4" d="m62.43,45.37c-.09,0-.31-.05-.47-.39-.01-.03,0-.05.02-.07.02-.01.05,0,.07.03.17.37.39.33.4.33.03,0,.05.01.06.04,0,.03-.01.05-.04.06,0,0-.02,0-.05,0Z"/>
          <path class="cls-4" d="m53.47,47.04s-.01,0-.02,0c-.02-.01-.04-.04-.02-.07.36-.79,3.33-1.73,4.15-1.95-1.51-.42-2.39-.89-3.03-1.23-.55-.29-.94-.5-1.42-.54-.03,0-.05-.03-.05-.05,0-.03.02-.05.05-.05.49.03.91.25,1.46.55.66.35,1.57.84,3.16,1.26.03,0,.05.03.05.06,0,.03-.02.05-.05.06-.63.13-3.88,1.16-4.24,1.93,0,.02-.03.03-.04.03Zm4.26-1.98h0s0,0,0,0Z"/>
          <path class="cls-4" d="m55.96,48.12s0,0-.01,0c-.03,0-.04-.04-.03-.06.11-.37.36-.65.65-.98.41-.46.88-.99,1.07-1.93-.11.05-.26.11-.43.18-.82.34-2.18.89-2.67,1.97-.01.02-.04.03-.06.02-.02-.01-.04-.04-.02-.07.5-1.11,1.88-1.67,2.71-2.02.2-.08.38-.16.5-.22.01-.03.03-.04.05-.04.02,0,.02,0,.04,0,0,.02,0,.02.01.04,0,.02,0,.04-.02.06-.18,1.02-.67,1.57-1.11,2.06-.28.32-.53.59-.63.94,0,.02-.03.04-.05.03Z"/>
          <path class="cls-4" d="m52.71,45.33s-.02,0-.03-.01c-.02-.02-.03-.05,0-.07.03-.04.87-1.05,4.95-.31,0,0,0,0,.01,0,0,0,0-.01,0-.02-.09-.11-.33-.26-.6-.44-.7-.46-1.66-1.08-1.45-1.68.17-.49-.34-.85-.36-.86-.02-.02-.03-.05-.02-.07.01-.02.05-.03.07-.01,0,0,.6.41.41.98-.18.52.74,1.12,1.41,1.56.29.19.52.34.63.46.03.04.04.09.02.14-.02.04-.06.06-.11.05-4.01-.73-4.85.27-4.86.28,0,.01-.02.02-.04.02Z"/>
          <path class="cls-4" d="m53.5,45.99s-.03-.01-.04-.03c-.01-.03,0-.05.02-.07.12-.05,1.17-.53,1.47-.45.26.07,2.49-.41,2.65-.5.02-.01.04-.02.06,0,.02.01.03.05.02.07-.07.12-2.51.59-2.75.53-.23-.06-1.1.3-1.41.45,0,0-.01,0-.02,0Z"/>
          <path class="cls-4" d="m69.01,41.98s-.02,0-.02,0c-.01,0-.02-.02-.02-.03-.02,0-.05-.02-.08-.03-.14-.05-.36-.13-.4-.31,0-.03.01-.05.04-.06.03,0,.05.01.06.04.02.12.21.19.33.23.08.03.13.05.14.08,0,.01,0,.04,0,.05,0,.02-.03.03-.04.03Zm-.04-.07s0,0,0,0c0,0,0,0,0,0Z"/>
          <path class="cls-4" d="m59.39,46.47s-.01,0-.02,0c-.22-.04-.81-.22-.91-1.04,0-.03.02-.05.04-.05.03,0,.05.02.06.05.09.75.62.92.84.96.05,0,.05.04.05.06,0,.03-.03.05-.06.05,0,0,0,0,0,0Z"/>
          <path class="cls-4" d="m59.17,43.56s-.04-.02-.05-.04c-.09-.41.07-.51.09-.52.02-.01.05,0,.07.02.01.02,0,.05-.02.07,0,0-.12.08-.05.41,0,.03-.01.05-.04.06,0,0,0,0-.01,0Z"/>
          <path class="cls-4" d="m54.57,48.63s-.04-.02-.05-.04c-.06-.25.28-.62.64-1.01.25-.28.52-.56.53-.71.04-.58,1.96-1.81,2.04-1.86.02-.01.05,0,.07.02.02.02,0,.05-.01.07-.55.35-1.97,1.34-2,1.78-.01.18-.26.46-.55.77-.31.34-.67.72-.62.92,0,.03-.01.05-.04.06,0,0,0,0-.01,0Z"/>
        </g>
      </g>
    </g>
  </g>
</svg>