<?xml version="1.0" encoding="UTF-8"?>
<svg id="Ebene_2" data-name="Ebene 2" xmlns="http://www.w3.org/2000/svg" viewBox="0 0 97.05 38.82">
  <defs>
    <style>
      .cls-1 {
        fill: #f9f9f9;
      }

      .cls-2 {
        fill: #1d1d1b;
      }
    </style>
  </defs>
  <g id="Ebene_1-2" data-name="Ebene 1">
    <g>
      <g>
        <path class="cls-1" d="m23.12,17.57c-.17.21-.24.36-.48.63-.61.67-2.32,2.12-1.53,6.04.36,1.78.91,5.08,3.08,6.92,1.43,1.21,3.75,1.67,4.96,1.67,3.07,0,13.49-3.81,27.22-9.46.53-.22,3.53-1.81,4.07-2.04,16.88-6.98,34.07-16.7,35.57-18.5.94-1.13,1.38-2.5-.35-2.59-2.56-.14-4.77.58-7.01,1.34-30.18,10.19-5.82.55-10.19,1.02-.06,0-10.74,2.76-10.79,2.77-2.07.39-21.67,6.72-38.11,8.62-3.44.4-5.38,2.23-6.45,3.59Z"/>
        <path class="cls-2" d="m29.15,33.03h0c-1.24,0-3.61-.46-5.1-1.72-2.11-1.79-2.72-4.89-3.09-6.74l-.06-.29c-.76-3.75.73-5.32,1.44-6.08l.14-.15c.14-.16.22-.27.3-.39.05-.07.1-.15.16-.23,1.66-2.12,3.87-3.36,6.59-3.67,12.96-1.5,28.14-5.82,34.62-7.67,1.82-.52,3.02-.86,3.47-.95.06-.01,1.78-.46,3.78-.97,6.71-1.72,7-1.8,7.03-1.8.35-.04.69-.04.77.22.11.37-.4.72-3.23,2.22-.74.39-1.67.89-2.17,1.2,1.47-.27,6.42-1.83,14.77-4.65,2.07-.7,4.42-1.49,7.09-1.35.68.04,1.12.26,1.3.67.34.78-.44,1.85-.79,2.27-1.6,1.92-19.11,11.72-35.66,18.56-.26.11-1.14.56-2,1-.92.47-1.79.92-2.07,1.03-15.29,6.29-24.48,9.47-27.3,9.47ZM78.65,2.79s-.1,0-.17.01c-.11.03-4.08,1.04-6.97,1.79-3.21.83-3.78.97-3.81.98-.43.08-1.69.44-3.43.94-6.49,1.85-21.7,6.18-34.69,7.68-2.6.3-4.72,1.48-6.31,3.51h0c-.06.07-.1.14-.15.21-.09.13-.18.25-.34.43l-.14.15c-.66.7-2.05,2.17-1.33,5.7l.06.3c.36,1.8.95,4.81,2.95,6.5,1.39,1.18,3.7,1.62,4.82,1.62h0c2.77,0,11.9-3.18,27.14-9.44.26-.11,1.16-.57,2.03-1.02.9-.46,1.76-.9,2.03-1.02,17.42-7.21,34.11-16.78,35.49-18.44.62-.74.9-1.44.73-1.83-.11-.25-.42-.39-.93-.42-2.59-.14-4.89.64-6.93,1.33-15.35,5.18-15.48,4.88-15.63,4.53-.14-.32.19-.54,2.69-1.87.99-.52,2.41-1.28,2.87-1.65Z"/>
      </g>
      <path class="cls-2" d="m41.94,28.21s0,0,0,0c-.12,0-2.86-.16-3.76-4.91-.02-.12.05-.23.17-.25.12-.02.23.05.25.17.84,4.4,3.26,4.56,3.36,4.57.12,0,.21.1.2.22,0,.11-.1.2-.21.2Z"/>
      <path class="cls-2" d="m75.56,14.05s-.04,0-.06,0c-1.53-.48-2.23-2.06-2.41-2.54-.04-.11.01-.23.12-.27.11-.04.23.01.27.12.16.43.79,1.86,2.14,2.28.11.04.17.15.14.27-.03.09-.11.15-.2.15Z"/>
      <path class="cls-2" d="m39.4,29.04c-.84,0-3.18-1.38-4.11-6.15-.02-.12.05-.23.17-.25.12-.02.23.05.25.17.7,3.55,2.1,4.94,2.87,5.46.39.26.69.34.81.35.03-.03.08-.06.13-.06.12,0,.22.07.23.19.01.12-.06.26-.26.29-.03,0-.06,0-.09,0Zm-.07-.26h0s0,0,0,0Z"/>
      <path class="cls-2" d="m43.84,27.13c-.33,0-1.51-.14-2.22-2.05-.04-.11.02-.23.13-.27.11-.04.23.02.27.13.69,1.86,1.81,1.78,1.86,1.77.11-.01.22.07.23.19.01.12-.07.22-.19.23,0,0-.04,0-.08,0Z"/>
      <path class="cls-2" d="m1.89,31.24s-.07,0-.11-.03c-.1-.06-.14-.19-.08-.29,1.87-3.19,14.97-6.45,18.64-7.16-6.31-2.06-9.94-4.17-12.62-5.72-2.27-1.31-3.91-2.26-5.99-2.53-.12-.01-.2-.12-.18-.24.01-.12.12-.2.24-.18,2.17.28,3.84,1.24,6.15,2.58,2.75,1.59,6.51,3.77,13.18,5.89.11.04.18.14.17.26-.01.12-.1.22-.22.24-2.74.4-17.15,3.93-19,7.07-.04.07-.11.11-.18.11Zm19.1-7.27h0,0Z"/>
      <path class="cls-2" d="m11.02,38.64s-.05,0-.08-.01c-.11-.04-.16-.16-.12-.27.67-1.77,2.03-3.08,3.59-4.59,2.23-2.16,4.76-4.6,6.06-9.15-.58.24-1.33.5-2.24.81-4.16,1.43-11.12,3.81-13.98,8.95-.06.1-.19.14-.29.08-.1-.06-.14-.19-.08-.29,2.94-5.28,10-7.7,14.22-9.15,1.04-.36,1.95-.67,2.54-.94.06-.12.16-.16.24-.16h.17s.05.18.05.18c.02.08,0,.18-.11.27-1.3,4.89-3.94,7.44-6.27,9.69-1.53,1.48-2.85,2.76-3.49,4.44-.03.08-.11.14-.2.14Z"/>
      <path class="cls-2" d="m20.58,24.09s-.06,0-.09,0C5.3,21.44.36,22.45.31,22.46c-.11.02-.23-.05-.25-.16-.03-.11.05-.23.16-.25.2-.04,5.04-1.05,20.35,1.62.06-.04.07-.11.02-.17-.33-.53-1.21-1.31-2.23-2.22-2.6-2.32-6.17-5.51-5.11-8.32.92-2.42-1.01-4.22-1.1-4.3-.09-.08-.09-.21-.01-.3.08-.09.21-.09.3-.01.02.02,2.22,2.07,1.21,4.76-.96,2.54,2.48,5.61,4.99,7.86,1.04.93,1.94,1.74,2.31,2.32.12.2.13.45,0,.62-.09.13-.22.2-.38.2Z"/>
      <path class="cls-2" d="m1.47,26.32c-.72,0-1.21-.04-1.27-.04-.12,0-.2-.11-.2-.23s.11-.2.23-.2c.04,0,4.32.33,6.64-1.01,2.22-1.28,13.33-1.38,13.74-1.17l.1.05.02.13c.01.12-.07.22-.19.23-.05,0-.1,0-.13-.03-.68-.12-11.23-.05-13.33,1.16-1.65.95-4.12,1.11-5.62,1.11Z"/>
      <path class="cls-2" d="m77.08,13.42s-.08-.01-.12-.04c-.05-.03-.08-.08-.09-.14-.08-.05-.25-.14-.4-.21-.67-.32-1.69-.81-1.79-1.67-.01-.12.07-.22.19-.24.12-.01.22.07.24.19.07.63.96,1.06,1.55,1.34.39.19.59.28.64.46.02.06,0,.16-.04.22-.04.06-.11.09-.18.09Zm-.17-.33s0,0,0,0c0,0,0,0,0,0Z"/>
      <path class="cls-2" d="m28.54,31.49s-.02,0-.02,0c-.04,0-.07-.01-.1-.03-1.03-.25-3.83-1.3-3.99-5.27,0-.12.09-.22.2-.22.11,0,.22.09.22.2.16,3.8,2.89,4.7,3.72,4.89.21.05.22.18.21.25,0,.06-.05.18-.24.18Z"/>
      <path class="cls-2" d="m28.63,17.36c-.11,0-.2-.08-.21-.18-.26-1.96.55-2.4.64-2.45.11-.05.23,0,.28.1.05.1,0,.23-.1.28-.02.01-.62.37-.4,2.01.02.12-.07.22-.18.24,0,0-.02,0-.03,0Z"/>
      <path class="cls-2" d="m6.23,38.82c-.1,0-.2-.08-.21-.18-.15-1.06,1.43-2.56,3.09-4.16,1.18-1.13,2.4-2.29,2.49-2.91.37-2.45,8.85-7.22,9.22-7.42.1-.06.23-.02.29.08.06.1.02.23-.08.29-2.41,1.35-8.72,5.25-9,7.11-.12.77-1.28,1.87-2.62,3.16-1.44,1.38-3.08,2.95-2.96,3.79.02.12-.06.22-.18.24,0,0-.02,0-.03,0Z"/>
    </g>
  </g>
</svg>