<?xml version="1.0" encoding="UTF-8"?>
<svg id="Ebene_2" data-name="Ebene 2" xmlns="http://www.w3.org/2000/svg" viewBox="0 0 76.31 76.38">
  <defs>
    <style>
      .cls-1 {
        fill: #f9f9f9;
      }

      .cls-2 {
        fill: #fff;
      }

      .cls-3 {
        fill: #1d1d1b;
      }
    </style>
  </defs>
  <g id="Ebene_1-2" data-name="Ebene 1">
    <g>
      <g>
        <circle class="cls-2" cx="38.06" cy="38.38" r="36"/>
        <path d="m38.06,76.38C17.1,76.38.06,59.33.06,38.38S17.1.38,38.06.38s38,17.05,38,38-17.05,38-38,38Zm0-72C19.31,4.38,4.06,19.63,4.06,38.38s15.25,34,34,34,34-15.25,34-34S56.8,4.38,38.06,4.38Z"/>
      </g>
      <g>
        <path d="m31.48,37.44l3.21,9.66c.53,1.6,2.26,2.47,3.86,1.93l4.58-1.54c1.48-.5,2.28-2.09,1.79-3.57l-3.22-9.82-3.32,1.09,2.34,7.14c.33.99-.21,2.07-1.21,2.4h0c-.94.31-1.97-.2-2.28-1.14l-2.42-7.24-3.32,1.09Z"/>
        <path d="m43.35,30.72l5.35,15.16,3.21-1.15-2.79-7.39c-.19-.51-.11-1.08.22-1.52l3.4-4.48-2.43-1.85-2.42,3.01c-.12.14-.34.1-.4-.07l-.95-2.33-3.18.62Z"/>
        <path d="m32.23,43.58c-1.35-3.34-4.5-5.06-7.06-3.83-.66.31-1.21.8-1.65,1.39-.1.14-.2.29-.28.44l-.35-1.11-.28-.87-3.43,1.63,7.35,23.37,3.43-1.63-3.44-10.93-.07-.22c.72.32,1.47.46,2.21.4.47-.04.94-.17,1.38-.38,2.56-1.23,3.54-4.92,2.19-8.26Zm-4.48,5.48c-.15.08-.31.14-.47.18-1.12.27-2.4-.49-3.04-1.89s-.44-2.97.4-3.79c.13-.13.28-.24.44-.33,1.2-.67,2.77.1,3.51,1.71.73,1.61.36,3.45-.84,4.12Z"/>
        <polygon points="60.36 34.66 56.47 36.09 48.36 14.69 52.8 14.17 60.36 34.66"/>
        <ellipse cx="59.84" cy="39.83" rx="3.23" ry="3.12"/>
        <g>
          <path class="cls-1" d="m23.67,28.13c-.07.12-.1.2-.21.34-.27.37-1.05,1.19-.46,3.13.27.88.71,2.52,1.88,3.34.77.54,1.95.66,2.56.6,1.53-.15,6.54-2.6,13.12-6.13.26-.14,1.67-1.09,1.93-1.23,8.08-4.37,16.23-9.8,17.03-10.69,1.64-1.83.41-1.78-.49-1.72-1.43.08-2.36.51-3.43,1.03-18.4,8.8-3.94,1.22-6.1,1.67-.03,0-4.16,1.28-4.18,1.29-1.01.3-10.48,4.47-18.59,6.25-1.7.37-2.58,1.39-3.04,2.14Z"/>
          <path class="cls-3" d="m27.12,35.67c-.66,0-1.63-.16-2.31-.63-1.15-.8-1.61-2.34-1.88-3.26l-.04-.15c-.57-1.87.1-2.74.42-3.16l.06-.08c.06-.09.1-.15.13-.21.02-.04.04-.08.07-.12h0c.72-1.16,1.77-1.9,3.12-2.19,6.39-1.4,13.76-4.34,16.9-5.6.88-.35,1.47-.59,1.69-.65.01,0,.32-.1.76-.24,3.17-.97,3.41-1.05,3.43-1.05.1-.02.3-.06.36.08.08.2-.23.45-2.08,1.63-.39.25-.84.54-1.15.75,1.62-.62,7.01-3.2,8.94-4.13,1.02-.49,1.99-.95,3.48-1.04.53-.03,1.2-.07,1.38.32.16.33-.09.84-.79,1.61-.86.96-9.3,6.52-17.06,10.71-.12.07-.54.34-.95.61-.44.28-.85.55-.98.62-7.32,3.94-11.75,6.01-13.17,6.15-.1,0-.21.01-.33.01Zm22.34-17.08c-.36.11-2.28.7-3.35,1.03-.45.14-.76.23-.77.24-.21.06-.82.31-1.66.64-3.15,1.26-10.53,4.2-16.94,5.61-1.28.28-2.27.98-2.96,2.08h0s-.04.08-.06.11c-.04.07-.08.14-.15.24l-.06.08c-.3.39-.91,1.19-.38,2.94l.04.15c.27.89.71,2.38,1.79,3.13.75.52,1.92.63,2.48.58,1.38-.14,5.78-2.2,13.07-6.12.12-.07.55-.34.96-.61.43-.28.84-.55.97-.62,8.18-4.42,16.25-9.83,16.99-10.66.79-.88.81-1.22.75-1.34-.11-.24-.76-.2-1.15-.18-1.44.08-2.39.54-3.39,1.01-9.46,4.52-9.54,4.39-9.64,4.21-.09-.16,0-.24,1.6-1.27.62-.4,1.51-.96,1.85-1.25Z"/>
        </g>
        <path class="cls-3" d="m33.67,32.58c-.21,0-1.48-.1-2.13-2.3-.02-.07.02-.13.08-.15.07-.02.13.02.15.08.64,2.16,1.86,2.13,1.91,2.13.06,0,.13.05.13.12s-.05.13-.12.13c0,0-.01,0-.03,0Z"/>
        <path class="cls-3" d="m49.96,23.76s-.02,0-.03,0c-.8-.17-1.24-.94-1.35-1.17-.03-.06,0-.14.06-.17.06-.03.14,0,.17.06.1.21.49.89,1.18,1.04.07.01.11.08.1.15-.01.06-.06.1-.12.1Z"/>
        <path class="cls-3" d="m32.43,33.13c-.47,0-1.67-.62-2.36-2.91-.02-.07.02-.13.08-.15.07-.02.13.02.15.08.7,2.33,1.87,2.74,2.12,2.74,0,0,0,0,0,0,.02-.02.04-.03.07-.04.07-.01.13.03.15.1.01.07-.02.15-.13.18-.03,0-.06,0-.09,0Zm-.02-.14h0,0Z"/>
        <path class="cls-3" d="m34.55,31.95c-.23,0-.76-.1-1.17-.94-.03-.06,0-.14.06-.17.06-.03.14,0,.17.06.44.89.99.8,1.01.79.07-.01.13.03.14.1.01.07-.03.13-.09.15,0,0-.05,0-.11,0Z"/>
        <path class="cls-3" d="m12.31,37.08s-.03,0-.05-.01c-.06-.03-.09-.1-.06-.16.9-2.01,8.29-4.73,10.34-5.36-3.76-.86-5.98-1.9-7.61-2.66-1.38-.65-2.38-1.12-3.59-1.15-.07,0-.12-.06-.12-.13,0-.07.06-.12.13-.12,1.27.04,2.28.51,3.69,1.18,1.67.79,3.97,1.86,7.93,2.73.07.01.11.07.11.14,0,.07-.05.13-.11.15-1.56.4-9.66,3.35-10.54,5.33-.02.05-.07.07-.11.07Zm10.6-5.45h0,0Z"/>
        <path class="cls-3" d="m18.61,39.39s-.02,0-.03,0c-.07-.02-.1-.09-.09-.15.25-.93.87-1.66,1.59-2.5,1.01-1.19,2.16-2.54,2.59-4.88-.28.15-.64.31-1.06.51-2.03.93-5.42,2.48-6.6,5.21-.03.06-.1.09-.16.06s-.09-.1-.06-.16c1.22-2.82,4.67-4.39,6.73-5.34.51-.23.95-.43,1.23-.6.03-.06.08-.09.12-.1h.1s.04.09.04.09c.01.04,0,.1-.04.15-.41,2.54-1.62,3.96-2.69,5.21-.7.82-1.3,1.53-1.54,2.41-.01.06-.06.09-.12.09Z"/>
        <path class="cls-3" d="m10.36,32.93s-.05,0-.08-.03c-.05-.04-.06-.12-.02-.17.09-.11,2.23-2.77,12.4-1.41,0,0,.02,0,.03,0,0,0,0-.03-.02-.05-.24-.25-.83-.6-1.52-1.01-1.76-1.05-4.17-2.48-3.67-3.98.41-1.24-.88-2.05-.94-2.08-.06-.04-.08-.11-.04-.17.04-.06.11-.08.17-.04.02,0,1.51.94,1.04,2.37-.43,1.31,1.88,2.68,3.56,3.69.73.44,1.31.78,1.57,1.05.09.09.11.23.06.33-.05.1-.16.15-.28.14-9.99-1.34-12.15,1.29-12.17,1.32-.02.03-.06.05-.1.05Z"/>
        <path class="cls-3" d="m12.37,34.47s-.09-.02-.11-.07c-.03-.06,0-.14.05-.17.3-.15,2.92-1.48,3.69-1.32.66.13,6.19-1.32,6.59-1.56.04-.04.1-.05.15-.02.06.03.08.11.05.17-.18.3-6.24,1.77-6.83,1.65-.58-.12-2.74.9-3.53,1.3-.02,0-.04.01-.06.01Z"/>
        <path class="cls-3" d="m50.7,23.37s-.04,0-.06-.02c-.03-.02-.05-.04-.06-.07-.04-.02-.13-.05-.2-.08-.36-.13-.9-.33-1-.77-.01-.07.03-.13.1-.15.07-.02.13.03.15.1.07.31.53.47.84.59.21.08.32.12.35.21.01.03,0,.09,0,.12-.02.04-.06.06-.11.06Zm-.11-.18s0,0,0,0c0,0,0,0,0,0Z"/>
        <path class="cls-3" d="m27.09,34.91s-.04,0-.05-.01c-.54-.08-2.01-.47-2.29-2.47,0-.07.04-.13.11-.14.07-.01.13.04.14.11.26,1.85,1.56,2.2,2.11,2.27.12.02.13.1.13.13,0,.06-.08.12-.14.12,0,0,0,0,0,0Z"/>
        <path class="cls-3" d="m26.44,27.77c-.06,0-.11-.04-.12-.1-.23-.99.16-1.26.21-1.28.06-.03.13-.02.17.04.03.06.02.13-.04.17-.01,0-.28.22-.1,1.02.02.07-.03.13-.09.15,0,0-.02,0-.03,0Z"/>
        <path class="cls-3" d="m15.13,40.85c-.06,0-.11-.04-.12-.09-.15-.61.69-1.57,1.59-2.59.63-.72,1.28-1.47,1.3-1.83.08-1.44,4.82-4.7,5.02-4.84.06-.04.13-.02.17.03.04.06.02.13-.03.17-1.35.92-4.86,3.55-4.92,4.65-.02.45-.65,1.16-1.37,1.98-.77.88-1.65,1.89-1.53,2.37.02.07-.02.13-.09.15,0,0-.02,0-.03,0Z"/>
        <g>
          <path d="m38.16,75.94C17.32,75.94.38,58.99.38,38.16S17.32.38,38.16.38s37.78,16.95,37.78,37.78-16.95,37.78-37.78,37.78Zm0-71.79C19.4,4.15,4.15,19.4,4.15,38.16s15.26,34.01,34.01,34.01,34.01-15.26,34.01-34.01S56.91,4.15,38.16,4.15Z"/>
          <path d="m38.16,76.31C17.12,76.31,0,59.2,0,38.16S17.12,0,38.16,0s38.16,17.12,38.16,38.16-17.12,38.16-38.16,38.16ZM38.16.75C17.53.75.75,17.53.75,38.16s16.78,37.41,37.41,37.41,37.41-16.78,37.41-37.41S58.78.75,38.16.75Zm0,71.79c-18.96,0-34.38-15.42-34.38-34.38S19.2,3.77,38.16,3.77s34.38,15.42,34.38,34.38-15.42,34.38-34.38,34.38Zm0-68.01C19.61,4.52,4.52,19.61,4.52,38.16s15.09,33.63,33.63,33.63,33.63-15.09,33.63-33.63S56.7,4.52,38.16,4.52Z"/>
        </g>
      </g>
    </g>
  </g>
</svg>