<?xml version="1.0" encoding="UTF-8"?>
<svg id="Ebene_2" data-name="Ebene 2" xmlns="http://www.w3.org/2000/svg" viewBox="0 0 77.52 77.52">
  <defs>
    <style>
      .cls-1 {
        fill: #f9f9f9;
      }

      .cls-2 {
        fill: #fff;
      }

      .cls-3 {
        fill: #1d1d1b;
      }
    </style>
  </defs>
  <g id="Ebene_2-2" data-name="Ebene 2">
    <circle class="cls-3" cx="39.47" cy="36" r="29.88"/>
    <rect x="0" y="0" width="77.52" height="77.52" rx="5.34" ry="5.34"/>
    <g>
      <path class="cls-2" d="m38.76,68.64c-16.48,0-29.88-13.41-29.88-29.88s13.41-29.88,29.88-29.88,29.88,13.41,29.88,29.88-13.41,29.88-29.88,29.88Zm0-56.78c-14.83,0-26.9,12.07-26.9,26.9s12.07,26.9,26.9,26.9,26.9-12.07,26.9-26.9-12.07-26.9-26.9-26.9Z"/>
      <path class="cls-2" d="m32.92,38.34l2.42,7.29c.4,1.21,1.71,1.86,2.91,1.45l3.46-1.16c1.12-.37,1.72-1.58,1.35-2.7l-2.43-7.4-2.51.82,1.76,5.39c.25.75-.16,1.56-.91,1.81h0c-.71.24-1.48-.15-1.72-.86l-1.83-5.46-2.51.82Z"/>
      <path class="cls-2" d="m41.88,33.27l4.03,11.44,2.42-.87-2.1-5.58c-.15-.39-.08-.82.17-1.15l2.57-3.38-1.84-1.39-1.82,2.27c-.09.11-.26.08-.31-.05l-.72-1.76-2.4.46Z"/>
      <path class="cls-2" d="m33.49,42.97c-1.02-2.51-3.4-3.81-5.33-2.88-.5.23-.91.6-1.24,1.05-.08.1-.15.21-.22.33l-.26-.84-.21-.66-2.59,1.23,5.55,17.64,2.59-1.24-2.6-8.24-.05-.16c.54.24,1.11.34,1.66.29.36-.03.71-.12,1.05-.28,1.92-.93,2.66-3.72,1.65-6.24Zm-3.38,4.14c-.12.06-.24.11-.36.14-.84.2-1.8-.37-2.29-1.43-.48-1.05-.34-2.24.3-2.86.1-.1.21-.18.33-.25.91-.5,2.09.08,2.65,1.29.55,1.22.27,2.61-.63,3.11Z"/>
      <polygon class="cls-2" points="54.71 36.25 51.77 37.33 45.66 21.18 49.01 20.79 54.71 36.25"/>
      <ellipse class="cls-2" cx="54.31" cy="40.15" rx="2.44" ry="2.35"/>
      <g>
        <path class="cls-1" d="m27.03,31.32c-.05.09-.08.15-.16.26-.2.28-.79.9-.35,2.36.2.67.53,1.9,1.42,2.52.58.41,1.47.5,1.93.45,1.16-.11,4.94-1.96,9.9-4.63.19-.1,1.26-.82,1.45-.93,6.09-3.29,12.25-7.4,12.84-8.06,1.24-1.38.31-1.34-.37-1.3-1.08.06-1.78.39-2.59.77-13.88,6.64-2.97.92-4.6,1.26-.02,0-3.14.96-3.16.97-.77.23-7.91,3.37-14.03,4.71-1.28.28-1.94,1.05-2.29,1.61Z"/>
        <path class="cls-3" d="m29.63,37.01c-.5,0-1.23-.12-1.74-.48-.87-.61-1.21-1.77-1.42-2.46l-.03-.11c-.43-1.41.08-2.07.32-2.38l.05-.06c.05-.06.07-.11.1-.16.02-.03.03-.06.05-.09h0c.55-.87,1.34-1.43,2.35-1.65,4.82-1.06,10.38-3.27,12.75-4.22.67-.27,1.11-.44,1.27-.49,0,0,.24-.07.58-.18,2.39-.74,2.58-.79,2.59-.79.07-.02.23-.05.27.06.06.15-.17.34-1.57,1.23-.3.19-.64.41-.87.57,1.22-.47,5.29-2.41,6.75-3.11.77-.37,1.5-.72,2.62-.78.4-.02.9-.05,1.04.24.12.25-.07.63-.6,1.22-.65.72-7.01,4.92-12.87,8.08-.09.05-.41.26-.72.46-.33.21-.64.42-.74.47-5.52,2.97-8.87,4.53-9.93,4.64-.07,0-.16.01-.25.01Zm16.85-12.88c-.27.08-1.72.53-2.53.78-.34.1-.57.18-.58.18-.16.05-.62.23-1.25.48-2.38.95-7.94,3.17-12.78,4.23-.96.21-1.72.74-2.23,1.57h0s-.03.06-.05.08c-.03.05-.06.1-.11.18l-.05.06c-.22.29-.69.9-.29,2.21l.03.11c.2.67.54,1.79,1.35,2.36.56.4,1.45.48,1.87.43,1.04-.1,4.36-1.66,9.86-4.62.09-.05.41-.26.72-.46.32-.21.63-.41.73-.47,6.17-3.33,12.26-7.42,12.82-8.04.6-.66.61-.92.57-1.01-.09-.18-.57-.15-.86-.13-1.09.06-1.8.4-2.55.76-7.14,3.41-7.19,3.31-7.27,3.18-.07-.12,0-.18,1.21-.96.47-.3,1.14-.73,1.39-.94Z"/>
      </g>
      <path class="cls-3" d="m34.58,34.68c-.16,0-1.12-.07-1.61-1.74-.01-.05.01-.1.06-.12.05-.01.1.01.12.06.48,1.63,1.4,1.61,1.44,1.6.05,0,.1.04.1.09s-.04.1-.09.1c0,0-.01,0-.02,0Z"/>
      <path class="cls-3" d="m46.87,28.02s-.01,0-.02,0c-.61-.13-.93-.71-1.02-.88-.02-.05,0-.1.04-.12.05-.02.1,0,.12.04.08.16.37.67.89.78.05.01.08.06.07.11,0,.04-.05.07-.09.07Z"/>
      <path class="cls-3" d="m33.64,35.09c-.35,0-1.26-.47-1.78-2.2-.01-.05.01-.1.06-.12.05-.01.1.01.12.06.53,1.76,1.41,2.07,1.6,2.07,0,0,0,0,0,0,.01-.01.03-.02.05-.03.05-.01.1.02.11.07.01.05-.02.11-.1.13-.02,0-.04,0-.07,0Zm-.02-.11h0,0Z"/>
      <path class="cls-3" d="m35.24,34.2c-.17,0-.57-.07-.88-.71-.02-.05,0-.1.04-.12.05-.02.1,0,.12.04.33.67.74.6.76.6.05,0,.1.02.11.07.01.05-.02.1-.07.11,0,0-.04,0-.08,0Z"/>
      <path class="cls-2" d="m18.46,38.07s-.03,0-.04,0c-.05-.02-.07-.08-.05-.12.68-1.52,6.26-3.57,7.8-4.05-2.84-.65-4.51-1.43-5.74-2.01-1.04-.49-1.79-.84-2.71-.87-.05,0-.09-.04-.09-.1,0-.05.04-.09.1-.09.95.03,1.72.39,2.78.89,1.26.59,2.99,1.41,5.98,2.06.05.01.09.06.09.11,0,.05-.03.1-.09.11-1.17.3-7.29,2.53-7.95,4.02-.02.03-.05.06-.09.06Zm8-4.11h0,0Z"/>
      <path class="cls-2" d="m23.21,39.82s-.02,0-.02,0c-.05-.01-.08-.06-.07-.11.19-.7.66-1.25,1.2-1.89.77-.9,1.63-1.92,1.96-3.68-.21.11-.48.23-.8.38-1.53.7-4.09,1.87-4.98,3.93-.02.05-.08.07-.12.05s-.07-.08-.05-.12c.92-2.13,3.52-3.31,5.08-4.03.38-.17.71-.33.93-.45.02-.05.06-.07.09-.07h.07s.03.07.03.07c.01.03,0,.08-.03.11-.31,1.91-1.22,2.98-2.03,3.93-.53.62-.98,1.16-1.16,1.82-.01.04-.05.07-.09.07Z"/>
      <path class="cls-2" d="m16.99,34.94s-.04,0-.06-.02c-.04-.03-.05-.09-.02-.13.07-.09,1.68-2.09,9.36-1.06,0,0,.02,0,.02,0,0,0,0-.02-.01-.04-.18-.19-.63-.46-1.14-.76-1.33-.79-3.14-1.87-2.77-3,.31-.94-.66-1.55-.71-1.57-.04-.03-.06-.08-.03-.13.03-.04.08-.06.13-.03.01,0,1.14.71.79,1.79-.33.99,1.42,2.02,2.69,2.78.55.33.99.59,1.18.79.07.07.08.17.04.25-.04.08-.12.12-.21.1-7.54-1.01-9.17.97-9.18.99-.02.02-.05.04-.07.04Z"/>
      <path class="cls-2" d="m18.51,36.1s-.07-.02-.08-.05c-.02-.05,0-.1.04-.13.22-.11,2.2-1.12,2.78-1,.5.1,4.67-1,4.97-1.17.03-.03.07-.04.11-.01.04.03.06.08.03.13-.13.23-4.71,1.34-5.15,1.24-.44-.09-2.07.68-2.66.98-.01,0-.03.01-.04.01Z"/>
      <path class="cls-3" d="m47.42,27.73s-.03,0-.05-.01c-.02-.01-.04-.03-.04-.05-.03-.02-.1-.04-.15-.06-.27-.1-.68-.25-.75-.58-.01-.05.02-.1.07-.11.05-.01.1.02.11.07.05.23.4.36.63.44.16.06.24.09.27.16,0,.03,0,.07,0,.09-.02.03-.05.05-.08.05Zm-.08-.14s0,0,0,0c0,0,0,0,0,0Z"/>
      <path class="cls-3" d="m29.61,36.43s-.03,0-.04,0c-.4-.06-1.51-.35-1.73-1.87,0-.05.03-.1.08-.11.05,0,.1.03.11.08.2,1.39,1.18,1.66,1.59,1.71.09.01.1.07.1.1,0,.05-.06.09-.11.09,0,0,0,0,0,0Z"/>
      <path class="cls-3" d="m29.12,31.05s-.08-.03-.09-.07c-.18-.75.12-.95.16-.97.04-.03.1-.01.13.03.03.04.01.1-.03.13,0,0-.21.16-.07.77.01.05-.02.1-.07.11,0,0-.01,0-.02,0Z"/>
      <path class="cls-2" d="m20.59,40.92s-.08-.03-.09-.07c-.11-.46.52-1.18,1.2-1.95.48-.54.97-1.11.98-1.38.06-1.09,3.64-3.55,3.79-3.65.04-.03.1-.02.13.02.03.04.02.1-.02.13-1.02.69-3.66,2.68-3.71,3.51-.02.34-.49.88-1.03,1.5-.58.67-1.25,1.42-1.16,1.79.01.05-.02.1-.07.11,0,0-.02,0-.02,0Z"/>
    </g>
  </g>
</svg>