<?xml version="1.0" encoding="UTF-8"?>
<svg id="Ebene_2" data-name="Ebene 2" xmlns="http://www.w3.org/2000/svg" viewBox="0 0 53.49 59.93">
  <defs>
    <style>
      .cls-1 {
        fill: #d9e021;
      }
    </style>
  </defs>
  <g id="Ebene_1-2" data-name="Ebene 1">
    <g>
      <ellipse class="cls-1" cx="48.7" cy="31.45" rx="4.75" ry="5.05" transform="translate(-7.76 18.29) rotate(-19.73)"/>
      <path class="cls-1" d="m14.62,27.65l3.81,11.48c.63,1.9,2.69,2.93,4.59,2.29l5.44-1.83c1.76-.59,2.71-2.49,2.13-4.25l-3.83-11.66-3.95,1.3,2.78,8.49c.39,1.18-.25,2.45-1.44,2.85h0c-1.12.37-2.34-.23-2.71-1.36l-2.88-8.61-3.95,1.3Z"/>
      <path class="cls-1" d="m28.38,19.03l6.69,18.65,3.81-1.37-3.31-8.78c-.23-.61-.13-1.29.26-1.8l4.04-5.32-2.89-2.2-2.87,3.57c-.14.17-.41.12-.48-.08l-1.29-3.24-3.95.57Z"/>
      <path class="cls-1" d="m12.81,57.99l-4.08,1.94L0,32.16l4.07-1.94.33,1.04.94,3c-.98.87-1.35,2.7-.81,4.42.54,1.74,1.82,2.81,3.03,2.63l1.16,3.69,4.09,12.99Z"/>
      <path class="cls-1" d="m15.5,34.95c-1.6-3.97-5.35-6-8.39-4.55-.78.38-1.44.95-1.96,1.65-1.49,2.04-1.82,5.22-.64,8.16,1.32,3.27,4.1,5.23,6.74,5,.56-.05,1.12-.19,1.65-.45,3.03-1.46,4.2-5.85,2.6-9.82Zm-5.32,6.51c-.18.1-.37.17-.56.22-1.32.33-2.84-.58-3.61-2.25-.76-1.66-.53-3.52.48-4.5.15-.15.33-.28.52-.39,1.42-.79,3.29.12,4.17,2.03.88,1.91.43,4.1-1,4.89Z"/>
      <polygon class="cls-1" points="48.93 24.35 44.31 26.05 34.68 .62 39.95 0 48.93 24.35"/>
    </g>
  </g>
</svg>