<?xml version="1.0" encoding="UTF-8"?>
<svg id="Ebene_2" data-name="Ebene 2" xmlns="http://www.w3.org/2000/svg" viewBox="0 0 165.97 155.74">
  <defs>
    <style>
      .cls-1 {
        fill: #d9e021;
      }

      .cls-2 {
        stroke: #1d1d1b;
        stroke-width: 1.66px;
      }
    </style>
  </defs>
  <g id="Ebene_1-2" data-name="Ebene 1">
    <g>
      <path class="cls-2" d="m21.71,13.08c-2.48,3.72-7.28,10.13-7.83,11.31-3.28,7.09-11.95,27.96-12.8,29.65-1.24,2.48,2.48,3.72,2.48,3.72,6.38,2.08,5.63,1.56,24.24,4.04.72.1,4.48-3.19,6.78-12.72,3.17-13.1,2.48-8.29,2.48-8.29v4.96c0,8.69,1.35,39.55,1.24,40.95l-1.42,55.84c-.14,7.33,2.66,8.29,3.9,8.29,2.48,0,6.2,3.72,22.34,2.48,6.57-.51,19.85,0,32.26,1.24,12.59,1.26,11.52-1.24,32.26-1.24,6.68,0,5.14-2.88,6.2-16.13.38-4.71-1.24-40.55-1.24-61.65,0-14-2.48-38.86-1.24-36.38,3.72,7.44,2.62,16.41,4.96,21.09,1.24,2.48,13.11,2.52,16.54,1.17l9.51-.78c2.3-.15,3.25-.27,2.48-4.12-2.48-12.41-4.81-17.35-6.38-26.9-2.31-14.05-6.66-14.67-10.99-17.77-7.65-5.46-19.88-7.01-32.26-10.77-4.12-1.25-3.51,2.41-4.96,4.57-1.49,2.21-2.31,4.85-9.93,7.45-9.71,3.31-12.61,1.44-19.68,1.65-3.84.11-9.93-.85-13.49-2.29C51.63,6.18,58.92-.3,54.27,1.09c-12.95,3.85-18.51,3.13-27.12,7.44-3.61,1.81-3.59,1.79-5.43,4.55Z"/>
      <g>
        <g>
          <path class="cls-1" d="m98.6,44.58s-.05.07-.09.12c-.12.13-.45.42-.3,1.18.07.35.18.99.6,1.35.28.24.73.33.97.33.6,0,2.64-.75,5.33-1.85.1-.04.69-.36.8-.4,3.31-1.37,6.67-3.27,6.97-3.62.18-.22.27-.49-.07-.51-.5-.03-.93.11-1.37.26-5.91,2-1.14.11-2,.2-.01,0-2.1.54-2.11.54-.41.08-4.24,1.32-7.46,1.69-.67.08-1.05.44-1.26.7Z"/>
          <path class="cls-1" d="m99.78,47.6h0c-.24,0-.71-.09-1-.34-.41-.35-.53-.96-.61-1.32v-.06c-.16-.74.13-1.04.27-1.19l.03-.03s.04-.05.06-.08c0-.01.02-.03.03-.04.32-.42.76-.66,1.29-.72,2.54-.29,5.51-1.14,6.78-1.5.36-.1.59-.17.68-.19.01,0,.35-.09.74-.19,1.31-.34,1.37-.35,1.38-.35.07,0,.13,0,.15.04.02.07-.08.14-.63.43-.14.08-.33.17-.42.24.29-.05,1.26-.36,2.89-.91.41-.14.87-.29,1.39-.26.13,0,.22.05.25.13.07.15-.09.36-.15.44-.31.38-3.74,2.3-6.98,3.64-.05.02-.22.11-.39.2-.18.09-.35.18-.4.2-2.99,1.23-4.79,1.86-5.35,1.86Zm9.7-5.92s-.02,0-.03,0c-.02,0-.8.2-1.36.35-.63.16-.74.19-.75.19-.08.02-.33.09-.67.18-1.27.36-4.25,1.21-6.79,1.51-.51.06-.92.29-1.23.69h0s-.02.03-.03.04c-.02.02-.03.05-.07.08l-.03.03c-.13.14-.4.42-.26,1.12v.06c.08.35.2.94.59,1.27.27.23.72.32.94.32h0c.54,0,2.33-.62,5.32-1.85.05-.02.23-.11.4-.2.18-.09.34-.18.4-.2,3.41-1.41,6.68-3.29,6.95-3.61.12-.15.18-.28.14-.36-.02-.05-.08-.08-.18-.08-.51-.03-.96.13-1.36.26-3.01,1.02-3.03.96-3.06.89-.03-.06.04-.11.53-.37.19-.1.47-.25.56-.32Z"/>
        </g>
        <path d="m102.28,46.66s0,0,0,0c-.02,0-.56-.03-.74-.96,0-.02.01-.04.03-.05.02,0,.04.01.05.03.16.86.64.89.66.89.02,0,.04.02.04.04,0,.02-.02.04-.04.04Z"/>
        <path class="cls-1" d="m108.87,43.89s0,0-.01,0c-.3-.09-.44-.4-.47-.5,0-.02,0-.05.02-.05.02,0,.05,0,.05.02.03.08.16.36.42.45.02,0,.03.03.03.05,0,.02-.02.03-.04.03Z"/>
        <path d="m101.79,46.82c-.16,0-.62-.27-.81-1.21,0-.02.01-.04.03-.05.02,0,.04.01.05.03.14.69.41.97.56,1.07.08.05.14.07.16.07,0,0,.02-.01.03-.01.02,0,.04.01.05.04,0,.02-.01.05-.05.06,0,0-.01,0-.02,0Zm-.01-.05h0s0,0,0,0Z"/>
        <path d="m102.66,46.45c-.06,0-.3-.03-.43-.4,0-.02,0-.05.02-.05.02,0,.05,0,.05.02.14.36.35.35.36.35.02,0,.04.01.05.04,0,.02-.01.04-.04.05,0,0,0,0-.02,0Z"/>
        <path class="cls-1" d="m94.44,47.25s-.01,0-.02,0c-.02-.01-.03-.04-.01-.06.37-.62,2.93-1.26,3.65-1.4-1.24-.4-1.95-.82-2.47-1.12-.44-.26-.77-.44-1.17-.5-.02,0-.04-.02-.04-.05,0-.02.02-.04.05-.04.42.05.75.24,1.2.51.54.31,1.28.74,2.58,1.15.02,0,.04.03.03.05,0,.02-.02.04-.04.05-.54.08-3.36.77-3.72,1.39,0,.01-.02.02-.04.02Zm3.74-1.42h0,0Z"/>
        <path class="cls-1" d="m96.23,48.7s0,0-.01,0c-.02,0-.03-.03-.02-.05.13-.35.4-.6.7-.9.44-.42.93-.9,1.19-1.79-.11.05-.26.1-.44.16-.81.28-2.18.75-2.74,1.75-.01.02-.04.03-.06.02-.02-.01-.03-.04-.02-.06.58-1.03,1.96-1.51,2.78-1.79.2-.07.38-.13.5-.18.01-.02.03-.03.05-.03h.03s0,.04,0,.04c0,.02,0,.04-.02.05-.26.96-.77,1.46-1.23,1.9-.3.29-.56.54-.68.87,0,.02-.02.03-.04.03Z"/>
        <path class="cls-1" d="m98.1,45.85s-.01,0-.02,0c-2.98-.52-3.94-.32-3.95-.32-.02,0-.04,0-.05-.03,0-.02,0-.04.03-.05.04,0,.99-.2,3.98.32.01,0,.01-.02,0-.03-.07-.1-.24-.26-.44-.44-.51-.46-1.21-1.08-1-1.63.18-.47-.2-.83-.21-.84-.02-.02-.02-.04,0-.06.02-.02.04-.02.06,0,0,0,.44.41.24.93-.19.5.49,1.1.98,1.54.2.18.38.34.45.45.02.04.02.09,0,.12-.02.03-.04.04-.07.04Z"/>
        <path class="cls-1" d="m94.36,46.29c-.14,0-.24,0-.25,0-.02,0-.04-.02-.04-.04s.02-.04.04-.04c0,0,.85.06,1.3-.2.44-.25,2.61-.27,2.69-.23h.02s0,.03,0,.03c0,.02-.01.04-.04.05,0,0-.02,0-.03,0-.13-.02-2.2,0-2.61.23-.32.19-.81.22-1.1.22Z"/>
        <path class="cls-1" d="m109.17,43.76s-.02,0-.02,0c0,0-.02-.02-.02-.03-.02-.01-.05-.03-.08-.04-.13-.06-.33-.16-.35-.33,0-.02.01-.04.04-.05.02,0,.04.01.05.04.01.12.19.21.3.26.08.04.12.06.12.09,0,.01,0,.03,0,.04,0,.01-.02.02-.03.02Zm-.03-.07s0,0,0,0c0,0,0,0,0,0Z"/>
        <path class="cls-1" d="m99.66,47.3s0,0,0,0c0,0-.01,0-.02,0-.2-.05-.75-.25-.78-1.03,0-.02.02-.04.04-.04.02,0,.04.02.04.04.03.74.57.92.73.96.04,0,.04.03.04.05,0,.01,0,.04-.05.04Z"/>
        <path class="cls-1" d="m99.68,44.53s-.04-.02-.04-.04c-.05-.38.11-.47.13-.48.02,0,.05,0,.06.02,0,.02,0,.04-.02.05,0,0-.12.07-.08.39,0,.02-.01.04-.04.05,0,0,0,0,0,0Z"/>
        <path class="cls-1" d="m95.29,48.74s-.04-.02-.04-.04c-.03-.21.28-.5.61-.81.23-.22.47-.45.49-.57.07-.48,1.73-1.41,1.8-1.45.02-.01.05,0,.06.02.01.02,0,.05-.02.06-.47.26-1.71,1.03-1.76,1.39-.02.15-.25.37-.51.62-.28.27-.6.58-.58.74,0,.02-.01.04-.04.05,0,0,0,0,0,0Z"/>
      </g>
    </g>
  </g>
</svg>